M48
; DRILL file {KiCad (6.0.0)} date Thu Oct 20 10:52:22 2022
; FORMAT={-:-/ absolute / inch / decimal}
; #@! TF.CreationDate,2022-10-20T10:52:22+02:00
; #@! TF.GenerationSoftware,Kicad,Pcbnew,(6.0.0)
; #@! TF.FileFunction,Plated,1,2,PTH
FMAT,2
INCH
; #@! TA.AperFunction,Plated,PTH,ViaDrill
T1C0.0157
; #@! TA.AperFunction,Plated,PTH,ComponentDrill
T2C0.0197
; #@! TA.AperFunction,Plated,PTH,ComponentDrill
T3C0.0374
; #@! TA.AperFunction,Plated,PTH,ComponentDrill
T4C0.0394
; #@! TA.AperFunction,Plated,PTH,ComponentDrill
T5C0.1260
%
G90
G05
T1
X3.0709Y-3.7402
X3.189Y-4.5669
X3.2087Y-4.4291
X3.2283Y-4.9606
X3.248Y-5.4921
X3.3071Y-3.7402
X3.3268Y-4.4291
X3.3268Y-4.7835
X3.3661Y-4.0354
X3.3858Y-5.0787
X3.4754Y-4.4183
X3.5039Y-4.0748
X3.5039Y-4.6457
X3.5433Y-3.2283
X3.5433Y-3.2677
X3.5433Y-3.3071
X3.5433Y-3.3465
X3.5433Y-3.3858
X3.5433Y-3.4252
X3.5433Y-3.4646
X3.5433Y-3.5039
X3.5827Y-3.2283
X3.5827Y-3.5039
X3.622Y-3.2283
X3.622Y-3.5039
X3.6614Y-3.2283
X3.6614Y-3.5039
X3.6614Y-4.8031
X3.7008Y-3.2283
X3.7008Y-3.5039
X3.7402Y-3.2283
X3.7402Y-3.5039
X3.7402Y-4.5276
X3.7795Y-3.2283
X3.7795Y-3.5039
X3.8189Y-3.2283
X3.8189Y-3.2677
X3.8189Y-3.3071
X3.8189Y-3.3465
X3.8189Y-3.3858
X3.8189Y-3.4252
X3.8189Y-3.4646
X3.8189Y-3.5039
X4.0945Y-4.5669
X4.2126Y-3.4055
X4.2323Y-3.2087
X4.3701Y-4.4882
T2
X3.0551Y-2.9528
X3.0551Y-5.9055
X3.0828Y-2.8859
X3.0828Y-3.0196
X3.0828Y-5.8387
X3.0828Y-5.9723
X3.1496Y-2.8583
X3.1496Y-3.0472
X3.1496Y-5.811
X3.1496Y-6.0
X3.2164Y-2.8859
X3.2164Y-3.0196
X3.2164Y-5.8387
X3.2164Y-5.9723
X3.2441Y-2.9528
X3.2441Y-5.9055
X4.2362Y-2.9528
X4.2362Y-5.9055
X4.2639Y-2.8859
X4.2639Y-3.0196
X4.2639Y-5.8387
X4.2639Y-5.9723
X4.3307Y-2.8583
X4.3307Y-3.0472
X4.3307Y-5.811
X4.3307Y-6.0
X4.3975Y-2.8859
X4.3975Y-3.0196
X4.3975Y-5.8387
X4.3975Y-5.9723
X4.4252Y-2.9528
X4.4252Y-5.9055
T3
X4.231Y-5.2559
X4.231Y-5.3543
X4.231Y-5.4528
X4.231Y-5.5512
T4
X4.4291Y-3.6201
X4.4291Y-3.7201
X4.4291Y-3.8201
X4.4291Y-3.9201
T5
X3.1496Y-2.9528
X3.1496Y-5.9055
X4.3307Y-2.9528
X4.3307Y-5.9055
T0
M30
