%TF.GenerationSoftware,KiCad,Pcbnew,(6.0.0)*%
%TF.CreationDate,2022-10-20T10:52:43+02:00*%
%TF.ProjectId,ESP-input,4553502d-696e-4707-9574-2e6b69636164,rev?*%
%TF.SameCoordinates,Original*%
%TF.FileFunction,Soldermask,Top*%
%TF.FilePolarity,Negative*%
%FSLAX46Y46*%
G04 Gerber Fmt 4.6, Leading zero omitted, Abs format (unit mm)*
G04 Created by KiCad (PCBNEW (6.0.0)) date 2022-10-20 10:52:43*
%MOMM*%
%LPD*%
G01*
G04 APERTURE LIST*
G04 Aperture macros list*
%AMRoundRect*
0 Rectangle with rounded corners*
0 $1 Rounding radius*
0 $2 $3 $4 $5 $6 $7 $8 $9 X,Y pos of 4 corners*
0 Add a 4 corners polygon primitive as box body*
4,1,4,$2,$3,$4,$5,$6,$7,$8,$9,$2,$3,0*
0 Add four circle primitives for the rounded corners*
1,1,$1+$1,$2,$3*
1,1,$1+$1,$4,$5*
1,1,$1+$1,$6,$7*
1,1,$1+$1,$8,$9*
0 Add four rect primitives between the rounded corners*
20,1,$1+$1,$2,$3,$4,$5,0*
20,1,$1+$1,$4,$5,$6,$7,0*
20,1,$1+$1,$6,$7,$8,$9,0*
20,1,$1+$1,$8,$9,$2,$3,0*%
%AMFreePoly0*
4,1,6,1.000000,0.000000,0.500000,-0.750000,-0.500000,-0.750000,-0.500000,0.750000,0.500000,0.750000,1.000000,0.000000,1.000000,0.000000,$1*%
%AMFreePoly1*
4,1,6,0.500000,-0.750000,-0.650000,-0.750000,-0.150000,0.000000,-0.650000,0.750000,0.500000,0.750000,0.500000,-0.750000,0.500000,-0.750000,$1*%
G04 Aperture macros list end*
%ADD10RoundRect,0.250000X-0.725000X0.600000X-0.725000X-0.600000X0.725000X-0.600000X0.725000X0.600000X0*%
%ADD11O,1.950000X1.700000*%
%ADD12RoundRect,0.213900X-0.511100X-0.251100X0.511100X-0.251100X0.511100X0.251100X-0.511100X0.251100X0*%
%ADD13RoundRect,0.213900X0.511100X0.251100X-0.511100X0.251100X-0.511100X-0.251100X0.511100X-0.251100X0*%
%ADD14R,4.000000X4.000000*%
%ADD15RoundRect,0.237500X-0.237500X0.250000X-0.237500X-0.250000X0.237500X-0.250000X0.237500X0.250000X0*%
%ADD16R,2.000000X1.500000*%
%ADD17R,2.000000X3.800000*%
%ADD18C,0.800000*%
%ADD19C,6.400000*%
%ADD20RoundRect,0.100000X0.100000X-0.637500X0.100000X0.637500X-0.100000X0.637500X-0.100000X-0.637500X0*%
%ADD21RoundRect,0.237500X-0.237500X0.300000X-0.237500X-0.300000X0.237500X-0.300000X0.237500X0.300000X0*%
%ADD22R,1.300000X1.550000*%
%ADD23RoundRect,0.250000X-0.650000X0.412500X-0.650000X-0.412500X0.650000X-0.412500X0.650000X0.412500X0*%
%ADD24RoundRect,0.250000X0.412500X0.650000X-0.412500X0.650000X-0.412500X-0.650000X0.412500X-0.650000X0*%
%ADD25RoundRect,0.237500X0.300000X0.237500X-0.300000X0.237500X-0.300000X-0.237500X0.300000X-0.237500X0*%
%ADD26R,1.700000X1.700000*%
%ADD27O,1.700000X1.700000*%
%ADD28RoundRect,0.250000X-0.412500X-0.650000X0.412500X-0.650000X0.412500X0.650000X-0.412500X0.650000X0*%
%ADD29C,1.700000*%
%ADD30R,2.200000X2.800000*%
%ADD31R,2.800000X2.800000*%
%ADD32RoundRect,0.250000X0.650000X-0.412500X0.650000X0.412500X-0.650000X0.412500X-0.650000X-0.412500X0*%
%ADD33FreePoly0,0.000000*%
%ADD34FreePoly1,0.000000*%
G04 APERTURE END LIST*
D10*
%TO.C,J2*%
X107467500Y-133500000D03*
D11*
X107467500Y-136000000D03*
X107467500Y-138500000D03*
X107467500Y-141000000D03*
%TD*%
D12*
%TO.C,A1*%
X86190000Y-77740000D03*
X86190000Y-79010000D03*
X86190000Y-80280000D03*
X86190000Y-81550000D03*
X86190000Y-82820000D03*
X86190000Y-84090000D03*
X86190000Y-85360000D03*
X86190000Y-86630000D03*
X86190000Y-87900000D03*
X86190000Y-89170000D03*
X86190000Y-90440000D03*
X86190000Y-91710000D03*
X86190000Y-92980000D03*
X86190000Y-94250000D03*
X86190000Y-95520000D03*
X86190000Y-96790000D03*
X86190000Y-98060000D03*
X86190000Y-99330000D03*
X86190000Y-100600000D03*
D13*
X103810000Y-100600000D03*
X103810000Y-99330000D03*
X103810000Y-98060000D03*
X103810000Y-96790000D03*
X103810000Y-95520000D03*
X103810000Y-94250000D03*
X103810000Y-92980000D03*
X103810000Y-91710000D03*
X103810000Y-90440000D03*
X103810000Y-89170000D03*
X103810000Y-87900000D03*
X103810000Y-86630000D03*
X103810000Y-85360000D03*
X103810000Y-84090000D03*
X103810000Y-82820000D03*
X103810000Y-81550000D03*
X103810000Y-80280000D03*
X103810000Y-79010000D03*
X103810000Y-77740000D03*
D14*
X93620000Y-85530000D03*
%TD*%
D15*
%TO.C,R1*%
X83000000Y-91087500D03*
X83000000Y-92912500D03*
%TD*%
D16*
%TO.C,U2*%
X106350000Y-116450000D03*
X106350000Y-118750000D03*
D17*
X112650000Y-118750000D03*
D16*
X106350000Y-121050000D03*
%TD*%
D18*
%TO.C,REF\u002A\u002A*%
X81697056Y-151697056D03*
X78302944Y-148302944D03*
X81697056Y-148302944D03*
X82400000Y-150000000D03*
X80000000Y-147600000D03*
X78302944Y-151697056D03*
D19*
X80000000Y-150000000D03*
D18*
X80000000Y-152400000D03*
X77600000Y-150000000D03*
%TD*%
D20*
%TO.C,U1*%
X83075000Y-114137500D03*
X83725000Y-114137500D03*
X84375000Y-114137500D03*
X85025000Y-114137500D03*
X85675000Y-114137500D03*
X86325000Y-114137500D03*
X86975000Y-114137500D03*
X87625000Y-114137500D03*
X88275000Y-114137500D03*
X88925000Y-114137500D03*
X88925000Y-119862500D03*
X88275000Y-119862500D03*
X87625000Y-119862500D03*
X86975000Y-119862500D03*
X86325000Y-119862500D03*
X85675000Y-119862500D03*
X85025000Y-119862500D03*
X84375000Y-119862500D03*
X83725000Y-119862500D03*
X83075000Y-119862500D03*
%TD*%
D21*
%TO.C,C3*%
X82500000Y-124862500D03*
X82500000Y-123137500D03*
%TD*%
D22*
%TO.C,SW2*%
X112250000Y-80025000D03*
X112250000Y-87975000D03*
X107750000Y-80025000D03*
X107750000Y-87975000D03*
%TD*%
D23*
%TO.C,C10*%
X93000000Y-114562500D03*
X93000000Y-111437500D03*
%TD*%
D24*
%TO.C,C4*%
X81562500Y-97000000D03*
X78437500Y-97000000D03*
%TD*%
D18*
%TO.C,REF\u002A\u002A*%
X108302944Y-148302944D03*
X110000000Y-152400000D03*
X108302944Y-151697056D03*
X111697056Y-151697056D03*
D19*
X110000000Y-150000000D03*
D18*
X111697056Y-148302944D03*
X112400000Y-150000000D03*
X110000000Y-147600000D03*
X107600000Y-150000000D03*
%TD*%
D25*
%TO.C,C11*%
X82137500Y-129000000D03*
X83862500Y-129000000D03*
%TD*%
D26*
%TO.C,J3*%
X112500000Y-91950000D03*
D27*
X112500000Y-94490000D03*
X112500000Y-97030000D03*
X112500000Y-99570000D03*
%TD*%
D28*
%TO.C,C14*%
X107937500Y-126000000D03*
X111062500Y-126000000D03*
%TD*%
D25*
%TO.C,C12*%
X88137500Y-129000000D03*
X89862500Y-129000000D03*
%TD*%
D18*
%TO.C,REF\u002A\u002A*%
X111697056Y-73302944D03*
X111697056Y-76697056D03*
X112400000Y-75000000D03*
X107600000Y-75000000D03*
X108302944Y-76697056D03*
D19*
X110000000Y-75000000D03*
D18*
X110000000Y-72600000D03*
X110000000Y-77400000D03*
X108302944Y-73302944D03*
%TD*%
D22*
%TO.C,SW1*%
X77750000Y-80025000D03*
X77750000Y-87975000D03*
X82250000Y-80025000D03*
X82250000Y-87975000D03*
%TD*%
D25*
%TO.C,C5*%
X82137500Y-111000000D03*
X83862500Y-111000000D03*
%TD*%
D28*
%TO.C,C15*%
X111062500Y-111500000D03*
X107937500Y-111500000D03*
%TD*%
D18*
%TO.C,REF\u002A\u002A*%
X82400000Y-75000000D03*
X77600000Y-75000000D03*
X81697056Y-76697056D03*
X80000000Y-72600000D03*
X78302944Y-73302944D03*
X78302944Y-76697056D03*
D19*
X80000000Y-75000000D03*
D18*
X81697056Y-73302944D03*
X80000000Y-77400000D03*
%TD*%
D15*
%TO.C,R2*%
X86000000Y-124912500D03*
X86000000Y-123087500D03*
%TD*%
D29*
%TO.C,J1*%
X81500000Y-136000000D03*
X88500000Y-136000000D03*
D30*
X82400000Y-132300000D03*
X80400000Y-139700000D03*
D31*
X89800000Y-139700000D03*
%TD*%
D32*
%TO.C,C9*%
X79000000Y-117437500D03*
X79000000Y-120562500D03*
%TD*%
D15*
%TO.C,R3*%
X89500000Y-124912500D03*
X89500000Y-123087500D03*
%TD*%
D21*
%TO.C,C7*%
X78000000Y-91137500D03*
X78000000Y-92862500D03*
%TD*%
D33*
%TO.C,JP1*%
X96775000Y-129000000D03*
D34*
X98225000Y-129000000D03*
%TD*%
D23*
%TO.C,C2*%
X93000000Y-120562500D03*
X93000000Y-117437500D03*
%TD*%
%TO.C,C8*%
X79000000Y-114562500D03*
X79000000Y-111437500D03*
%TD*%
D25*
%TO.C,C13*%
X88137500Y-111000000D03*
X89862500Y-111000000D03*
%TD*%
M02*
