%TF.GenerationSoftware,KiCad,Pcbnew,(6.0.0)*%
%TF.CreationDate,2022-10-20T10:52:43+02:00*%
%TF.ProjectId,ESP-input,4553502d-696e-4707-9574-2e6b69636164,rev?*%
%TF.SameCoordinates,Original*%
%TF.FileFunction,Paste,Top*%
%TF.FilePolarity,Positive*%
%FSLAX46Y46*%
G04 Gerber Fmt 4.6, Leading zero omitted, Abs format (unit mm)*
G04 Created by KiCad (PCBNEW (6.0.0)) date 2022-10-20 10:52:43*
%MOMM*%
%LPD*%
G01*
G04 APERTURE LIST*
G04 Aperture macros list*
%AMRoundRect*
0 Rectangle with rounded corners*
0 $1 Rounding radius*
0 $2 $3 $4 $5 $6 $7 $8 $9 X,Y pos of 4 corners*
0 Add a 4 corners polygon primitive as box body*
4,1,4,$2,$3,$4,$5,$6,$7,$8,$9,$2,$3,0*
0 Add four circle primitives for the rounded corners*
1,1,$1+$1,$2,$3*
1,1,$1+$1,$4,$5*
1,1,$1+$1,$6,$7*
1,1,$1+$1,$8,$9*
0 Add four rect primitives between the rounded corners*
20,1,$1+$1,$2,$3,$4,$5,0*
20,1,$1+$1,$4,$5,$6,$7,0*
20,1,$1+$1,$6,$7,$8,$9,0*
20,1,$1+$1,$8,$9,$2,$3,0*%
G04 Aperture macros list end*
%ADD10C,0.010000*%
%ADD11RoundRect,0.213900X-0.511100X-0.251100X0.511100X-0.251100X0.511100X0.251100X-0.511100X0.251100X0*%
%ADD12RoundRect,0.213900X0.511100X0.251100X-0.511100X0.251100X-0.511100X-0.251100X0.511100X-0.251100X0*%
%ADD13RoundRect,0.237500X-0.237500X0.250000X-0.237500X-0.250000X0.237500X-0.250000X0.237500X0.250000X0*%
%ADD14R,2.000000X1.500000*%
%ADD15R,2.000000X3.800000*%
%ADD16RoundRect,0.100000X0.100000X-0.637500X0.100000X0.637500X-0.100000X0.637500X-0.100000X-0.637500X0*%
%ADD17RoundRect,0.237500X-0.237500X0.300000X-0.237500X-0.300000X0.237500X-0.300000X0.237500X0.300000X0*%
%ADD18R,1.300000X1.550000*%
%ADD19RoundRect,0.250000X-0.650000X0.412500X-0.650000X-0.412500X0.650000X-0.412500X0.650000X0.412500X0*%
%ADD20RoundRect,0.250000X0.412500X0.650000X-0.412500X0.650000X-0.412500X-0.650000X0.412500X-0.650000X0*%
%ADD21RoundRect,0.237500X0.300000X0.237500X-0.300000X0.237500X-0.300000X-0.237500X0.300000X-0.237500X0*%
%ADD22RoundRect,0.250000X-0.412500X-0.650000X0.412500X-0.650000X0.412500X0.650000X-0.412500X0.650000X0*%
%ADD23R,2.200000X2.800000*%
%ADD24R,2.800000X2.800000*%
%ADD25RoundRect,0.250000X0.650000X-0.412500X0.650000X0.412500X-0.650000X0.412500X-0.650000X-0.412500X0*%
G04 APERTURE END LIST*
D10*
%TO.C,A1*%
X92351530Y-84265000D02*
X94885000Y-84265000D01*
X94885000Y-84265000D02*
X94885000Y-86796044D01*
X94885000Y-86796044D02*
X92351530Y-86796044D01*
X92351530Y-86796044D02*
X92351530Y-84265000D01*
G36*
X94885000Y-86796044D02*
G01*
X92351530Y-86796044D01*
X92351530Y-84265000D01*
X94885000Y-84265000D01*
X94885000Y-86796044D01*
G37*
X94885000Y-86796044D02*
X92351530Y-86796044D01*
X92351530Y-84265000D01*
X94885000Y-84265000D01*
X94885000Y-86796044D01*
%TD*%
D11*
%TO.C,A1*%
X86190000Y-77740000D03*
X86190000Y-79010000D03*
X86190000Y-80280000D03*
X86190000Y-81550000D03*
X86190000Y-82820000D03*
X86190000Y-84090000D03*
X86190000Y-85360000D03*
X86190000Y-86630000D03*
X86190000Y-87900000D03*
X86190000Y-89170000D03*
X86190000Y-90440000D03*
X86190000Y-91710000D03*
X86190000Y-92980000D03*
X86190000Y-94250000D03*
X86190000Y-95520000D03*
X86190000Y-96790000D03*
X86190000Y-98060000D03*
X86190000Y-99330000D03*
X86190000Y-100600000D03*
D12*
X103810000Y-100600000D03*
X103810000Y-99330000D03*
X103810000Y-98060000D03*
X103810000Y-96790000D03*
X103810000Y-95520000D03*
X103810000Y-94250000D03*
X103810000Y-92980000D03*
X103810000Y-91710000D03*
X103810000Y-90440000D03*
X103810000Y-89170000D03*
X103810000Y-87900000D03*
X103810000Y-86630000D03*
X103810000Y-85360000D03*
X103810000Y-84090000D03*
X103810000Y-82820000D03*
X103810000Y-81550000D03*
X103810000Y-80280000D03*
X103810000Y-79010000D03*
X103810000Y-77740000D03*
%TD*%
D13*
%TO.C,R1*%
X83000000Y-91087500D03*
X83000000Y-92912500D03*
%TD*%
D14*
%TO.C,U2*%
X106350000Y-116450000D03*
X106350000Y-118750000D03*
D15*
X112650000Y-118750000D03*
D14*
X106350000Y-121050000D03*
%TD*%
D16*
%TO.C,U1*%
X83075000Y-114137500D03*
X83725000Y-114137500D03*
X84375000Y-114137500D03*
X85025000Y-114137500D03*
X85675000Y-114137500D03*
X86325000Y-114137500D03*
X86975000Y-114137500D03*
X87625000Y-114137500D03*
X88275000Y-114137500D03*
X88925000Y-114137500D03*
X88925000Y-119862500D03*
X88275000Y-119862500D03*
X87625000Y-119862500D03*
X86975000Y-119862500D03*
X86325000Y-119862500D03*
X85675000Y-119862500D03*
X85025000Y-119862500D03*
X84375000Y-119862500D03*
X83725000Y-119862500D03*
X83075000Y-119862500D03*
%TD*%
D17*
%TO.C,C3*%
X82500000Y-124862500D03*
X82500000Y-123137500D03*
%TD*%
D18*
%TO.C,SW2*%
X112250000Y-80025000D03*
X112250000Y-87975000D03*
X107750000Y-80025000D03*
X107750000Y-87975000D03*
%TD*%
D19*
%TO.C,C10*%
X93000000Y-114562500D03*
X93000000Y-111437500D03*
%TD*%
D20*
%TO.C,C4*%
X81562500Y-97000000D03*
X78437500Y-97000000D03*
%TD*%
D21*
%TO.C,C11*%
X82137500Y-129000000D03*
X83862500Y-129000000D03*
%TD*%
D22*
%TO.C,C14*%
X107937500Y-126000000D03*
X111062500Y-126000000D03*
%TD*%
D21*
%TO.C,C12*%
X88137500Y-129000000D03*
X89862500Y-129000000D03*
%TD*%
D18*
%TO.C,SW1*%
X77750000Y-80025000D03*
X77750000Y-87975000D03*
X82250000Y-80025000D03*
X82250000Y-87975000D03*
%TD*%
D21*
%TO.C,C5*%
X82137500Y-111000000D03*
X83862500Y-111000000D03*
%TD*%
D22*
%TO.C,C15*%
X111062500Y-111500000D03*
X107937500Y-111500000D03*
%TD*%
D13*
%TO.C,R2*%
X86000000Y-124912500D03*
X86000000Y-123087500D03*
%TD*%
D23*
%TO.C,J1*%
X82400000Y-132300000D03*
X80400000Y-139700000D03*
D24*
X89800000Y-139700000D03*
%TD*%
D25*
%TO.C,C9*%
X79000000Y-117437500D03*
X79000000Y-120562500D03*
%TD*%
D13*
%TO.C,R3*%
X89500000Y-124912500D03*
X89500000Y-123087500D03*
%TD*%
D17*
%TO.C,C7*%
X78000000Y-91137500D03*
X78000000Y-92862500D03*
%TD*%
D19*
%TO.C,C2*%
X93000000Y-120562500D03*
X93000000Y-117437500D03*
%TD*%
%TO.C,C8*%
X79000000Y-114562500D03*
X79000000Y-111437500D03*
%TD*%
D21*
%TO.C,C13*%
X88137500Y-111000000D03*
X89862500Y-111000000D03*
%TD*%
M02*
