%TF.GenerationSoftware,KiCad,Pcbnew,(6.0.0)*%
%TF.CreationDate,2022-10-20T10:52:42+02:00*%
%TF.ProjectId,ESP-input,4553502d-696e-4707-9574-2e6b69636164,rev?*%
%TF.SameCoordinates,Original*%
%TF.FileFunction,Copper,L2,Bot*%
%TF.FilePolarity,Positive*%
%FSLAX46Y46*%
G04 Gerber Fmt 4.6, Leading zero omitted, Abs format (unit mm)*
G04 Created by KiCad (PCBNEW (6.0.0)) date 2022-10-20 10:52:42*
%MOMM*%
%LPD*%
G01*
G04 APERTURE LIST*
G04 Aperture macros list*
%AMRoundRect*
0 Rectangle with rounded corners*
0 $1 Rounding radius*
0 $2 $3 $4 $5 $6 $7 $8 $9 X,Y pos of 4 corners*
0 Add a 4 corners polygon primitive as box body*
4,1,4,$2,$3,$4,$5,$6,$7,$8,$9,$2,$3,0*
0 Add four circle primitives for the rounded corners*
1,1,$1+$1,$2,$3*
1,1,$1+$1,$4,$5*
1,1,$1+$1,$6,$7*
1,1,$1+$1,$8,$9*
0 Add four rect primitives between the rounded corners*
20,1,$1+$1,$2,$3,$4,$5,0*
20,1,$1+$1,$4,$5,$6,$7,0*
20,1,$1+$1,$6,$7,$8,$9,0*
20,1,$1+$1,$8,$9,$2,$3,0*%
G04 Aperture macros list end*
%TA.AperFunction,ComponentPad*%
%ADD10RoundRect,0.250000X-0.725000X0.600000X-0.725000X-0.600000X0.725000X-0.600000X0.725000X0.600000X0*%
%TD*%
%TA.AperFunction,ComponentPad*%
%ADD11O,1.950000X1.700000*%
%TD*%
%TA.AperFunction,ComponentPad*%
%ADD12C,0.800000*%
%TD*%
%TA.AperFunction,ComponentPad*%
%ADD13C,6.400000*%
%TD*%
%TA.AperFunction,ComponentPad*%
%ADD14R,1.700000X1.700000*%
%TD*%
%TA.AperFunction,ComponentPad*%
%ADD15O,1.700000X1.700000*%
%TD*%
%TA.AperFunction,ViaPad*%
%ADD16C,0.800000*%
%TD*%
%TA.AperFunction,Conductor*%
%ADD17C,0.250000*%
%TD*%
%TA.AperFunction,Conductor*%
%ADD18C,0.400000*%
%TD*%
G04 APERTURE END LIST*
D10*
%TO.P,J2,1,Pin_1*%
%TO.N,+9V*%
X107467500Y-133500000D03*
D11*
%TO.P,J2,2,Pin_2*%
%TO.N,GND*%
X107467500Y-136000000D03*
%TO.P,J2,3,Pin_3*%
%TO.N,/LEFT*%
X107467500Y-138500000D03*
%TO.P,J2,4,Pin_4*%
%TO.N,GND*%
X107467500Y-141000000D03*
%TD*%
D12*
%TO.P,REF\u002A\u002A,1*%
%TO.N,N/C*%
X81697056Y-151697056D03*
X78302944Y-148302944D03*
X81697056Y-148302944D03*
X82400000Y-150000000D03*
X80000000Y-147600000D03*
X78302944Y-151697056D03*
D13*
X80000000Y-150000000D03*
D12*
X80000000Y-152400000D03*
X77600000Y-150000000D03*
%TD*%
%TO.P,REF\u002A\u002A,1*%
%TO.N,N/C*%
X108302944Y-148302944D03*
X110000000Y-152400000D03*
X108302944Y-151697056D03*
X111697056Y-151697056D03*
D13*
X110000000Y-150000000D03*
D12*
X111697056Y-148302944D03*
X112400000Y-150000000D03*
X110000000Y-147600000D03*
X107600000Y-150000000D03*
%TD*%
D14*
%TO.P,J3,1,Pin_1*%
%TO.N,GND*%
X112500000Y-91950000D03*
D15*
%TO.P,J3,2,Pin_2*%
%TO.N,/TX*%
X112500000Y-94490000D03*
%TO.P,J3,3,Pin_3*%
%TO.N,/RX*%
X112500000Y-97030000D03*
%TO.P,J3,4,Pin_4*%
%TO.N,+3V3*%
X112500000Y-99570000D03*
%TD*%
D12*
%TO.P,REF\u002A\u002A,1*%
%TO.N,N/C*%
X111697056Y-73302944D03*
X111697056Y-76697056D03*
X112400000Y-75000000D03*
X107600000Y-75000000D03*
X108302944Y-76697056D03*
D13*
X110000000Y-75000000D03*
D12*
X110000000Y-72600000D03*
X110000000Y-77400000D03*
X108302944Y-73302944D03*
%TD*%
%TO.P,REF\u002A\u002A,1*%
%TO.N,N/C*%
X82400000Y-75000000D03*
X77600000Y-75000000D03*
X81697056Y-76697056D03*
X80000000Y-72600000D03*
X78302944Y-73302944D03*
X78302944Y-76697056D03*
D13*
X80000000Y-75000000D03*
D12*
X81697056Y-73302944D03*
X80000000Y-77400000D03*
%TD*%
D16*
%TO.N,GND*%
X82500000Y-139500000D03*
%TO.N,Net-(A1-Pad25)*%
X107500000Y-81500000D03*
X107000000Y-86500000D03*
%TO.N,GND*%
X93000000Y-122000000D03*
X84500000Y-112500000D03*
X95000000Y-115000000D03*
X88275000Y-112225000D03*
X81000000Y-116000000D03*
X81500000Y-112500000D03*
X84500000Y-121500000D03*
X89000000Y-118000000D03*
X82000000Y-126000000D03*
X86000000Y-129000000D03*
X78000000Y-95000000D03*
X84000000Y-95000000D03*
X90000000Y-83000000D03*
X90000000Y-84000000D03*
X90000000Y-85000000D03*
X90000000Y-86000000D03*
X90000000Y-87000000D03*
X90000000Y-88000000D03*
X91000000Y-89000000D03*
X92000000Y-89000000D03*
X93000000Y-89000000D03*
X94000000Y-89000000D03*
X95000000Y-89000000D03*
X96000000Y-89000000D03*
X97000000Y-87000000D03*
X97000000Y-88000000D03*
X97000000Y-86000000D03*
X97000000Y-85000000D03*
X97000000Y-83000000D03*
X96000000Y-82000000D03*
X95000000Y-82000000D03*
X94000000Y-82000000D03*
X93000000Y-82000000D03*
X91000000Y-82000000D03*
X92000000Y-82000000D03*
X90000000Y-82000000D03*
X90000000Y-89000000D03*
X97000000Y-89000000D03*
X97000000Y-84000000D03*
X97000000Y-82000000D03*
X111000000Y-114000000D03*
X104000000Y-116000000D03*
%TO.N,+3V3*%
X85500000Y-102500000D03*
X89000000Y-103500000D03*
%TD*%
D17*
%TO.N,Net-(A1-Pad25)*%
X107000000Y-82000000D02*
X107500000Y-81500000D01*
X107000000Y-86500000D02*
X107000000Y-82000000D01*
D18*
%TO.N,+3V3*%
X88500000Y-103000000D02*
X89000000Y-103500000D01*
X86000000Y-103000000D02*
X88500000Y-103000000D01*
X85500000Y-102500000D02*
X86000000Y-103000000D01*
%TD*%
%TA.AperFunction,Conductor*%
%TO.N,GND*%
G36*
X76876645Y-77020002D02*
G01*
X76914196Y-77057375D01*
X76995643Y-77182793D01*
X77240266Y-77484876D01*
X77515124Y-77759734D01*
X77817207Y-78004357D01*
X78143205Y-78216062D01*
X78146139Y-78217557D01*
X78146146Y-78217561D01*
X78486607Y-78391034D01*
X78489547Y-78392532D01*
X78852438Y-78531833D01*
X79227901Y-78632438D01*
X79431793Y-78664732D01*
X79608576Y-78692732D01*
X79608584Y-78692733D01*
X79611824Y-78693246D01*
X80000000Y-78713589D01*
X80388176Y-78693246D01*
X80391416Y-78692733D01*
X80391424Y-78692732D01*
X80568207Y-78664732D01*
X80772099Y-78632438D01*
X81147562Y-78531833D01*
X81510453Y-78392532D01*
X81513393Y-78391034D01*
X81853854Y-78217561D01*
X81853861Y-78217557D01*
X81856795Y-78216062D01*
X82182793Y-78004357D01*
X82484876Y-77759734D01*
X82759734Y-77484876D01*
X83004357Y-77182793D01*
X83085804Y-77057375D01*
X83139679Y-77011139D01*
X83191476Y-77000000D01*
X106808524Y-77000000D01*
X106876645Y-77020002D01*
X106914196Y-77057375D01*
X106995643Y-77182793D01*
X107240266Y-77484876D01*
X107515124Y-77759734D01*
X107817207Y-78004357D01*
X108143205Y-78216062D01*
X108146139Y-78217557D01*
X108146146Y-78217561D01*
X108486607Y-78391034D01*
X108489547Y-78392532D01*
X108852438Y-78531833D01*
X109227901Y-78632438D01*
X109431793Y-78664732D01*
X109608576Y-78692732D01*
X109608584Y-78692733D01*
X109611824Y-78693246D01*
X110000000Y-78713589D01*
X110388176Y-78693246D01*
X110391416Y-78692733D01*
X110391424Y-78692732D01*
X110568207Y-78664732D01*
X110772099Y-78632438D01*
X111147562Y-78531833D01*
X111510453Y-78392532D01*
X111513393Y-78391034D01*
X111853854Y-78217561D01*
X111853861Y-78217557D01*
X111856795Y-78216062D01*
X112182793Y-78004357D01*
X112484876Y-77759734D01*
X112759734Y-77484876D01*
X113004357Y-77182793D01*
X113085804Y-77057375D01*
X113139679Y-77011139D01*
X113191476Y-77000000D01*
X114366000Y-77000000D01*
X114434121Y-77020002D01*
X114480614Y-77073658D01*
X114492000Y-77126000D01*
X114492000Y-154366000D01*
X114471998Y-154434121D01*
X114418342Y-154480614D01*
X114366000Y-154492000D01*
X75634000Y-154492000D01*
X75565879Y-154471998D01*
X75519386Y-154418342D01*
X75508000Y-154366000D01*
X75508000Y-150000000D01*
X76286411Y-150000000D01*
X76306754Y-150388176D01*
X76367562Y-150772099D01*
X76468167Y-151147562D01*
X76607468Y-151510453D01*
X76783938Y-151856794D01*
X76995643Y-152182793D01*
X77240266Y-152484876D01*
X77515124Y-152759734D01*
X77817207Y-153004357D01*
X78143205Y-153216062D01*
X78146139Y-153217557D01*
X78146146Y-153217561D01*
X78486607Y-153391034D01*
X78489547Y-153392532D01*
X78852438Y-153531833D01*
X79227901Y-153632438D01*
X79431793Y-153664732D01*
X79608576Y-153692732D01*
X79608584Y-153692733D01*
X79611824Y-153693246D01*
X80000000Y-153713589D01*
X80388176Y-153693246D01*
X80391416Y-153692733D01*
X80391424Y-153692732D01*
X80568207Y-153664732D01*
X80772099Y-153632438D01*
X81147562Y-153531833D01*
X81510453Y-153392532D01*
X81513393Y-153391034D01*
X81853854Y-153217561D01*
X81853861Y-153217557D01*
X81856795Y-153216062D01*
X82182793Y-153004357D01*
X82484876Y-152759734D01*
X82759734Y-152484876D01*
X83004357Y-152182793D01*
X83216062Y-151856794D01*
X83392532Y-151510453D01*
X83531833Y-151147562D01*
X83632438Y-150772099D01*
X83693246Y-150388176D01*
X83713589Y-150000000D01*
X106286411Y-150000000D01*
X106306754Y-150388176D01*
X106367562Y-150772099D01*
X106468167Y-151147562D01*
X106607468Y-151510453D01*
X106783938Y-151856794D01*
X106995643Y-152182793D01*
X107240266Y-152484876D01*
X107515124Y-152759734D01*
X107817207Y-153004357D01*
X108143205Y-153216062D01*
X108146139Y-153217557D01*
X108146146Y-153217561D01*
X108486607Y-153391034D01*
X108489547Y-153392532D01*
X108852438Y-153531833D01*
X109227901Y-153632438D01*
X109431793Y-153664732D01*
X109608576Y-153692732D01*
X109608584Y-153692733D01*
X109611824Y-153693246D01*
X110000000Y-153713589D01*
X110388176Y-153693246D01*
X110391416Y-153692733D01*
X110391424Y-153692732D01*
X110568207Y-153664732D01*
X110772099Y-153632438D01*
X111147562Y-153531833D01*
X111510453Y-153392532D01*
X111513393Y-153391034D01*
X111853854Y-153217561D01*
X111853861Y-153217557D01*
X111856795Y-153216062D01*
X112182793Y-153004357D01*
X112484876Y-152759734D01*
X112759734Y-152484876D01*
X113004357Y-152182793D01*
X113216062Y-151856794D01*
X113392532Y-151510453D01*
X113531833Y-151147562D01*
X113632438Y-150772099D01*
X113693246Y-150388176D01*
X113713589Y-150000000D01*
X113693246Y-149611824D01*
X113632438Y-149227901D01*
X113531833Y-148852438D01*
X113392532Y-148489547D01*
X113216062Y-148143206D01*
X113004357Y-147817207D01*
X112759734Y-147515124D01*
X112484876Y-147240266D01*
X112182793Y-146995643D01*
X111856795Y-146783938D01*
X111853861Y-146782443D01*
X111853854Y-146782439D01*
X111513393Y-146608966D01*
X111510453Y-146607468D01*
X111147562Y-146468167D01*
X110772099Y-146367562D01*
X110568207Y-146335268D01*
X110391424Y-146307268D01*
X110391416Y-146307267D01*
X110388176Y-146306754D01*
X110000000Y-146286411D01*
X109611824Y-146306754D01*
X109608584Y-146307267D01*
X109608576Y-146307268D01*
X109431793Y-146335268D01*
X109227901Y-146367562D01*
X108852438Y-146468167D01*
X108489547Y-146607468D01*
X108486607Y-146608966D01*
X108146147Y-146782439D01*
X108146140Y-146782443D01*
X108143206Y-146783938D01*
X107817207Y-146995643D01*
X107515124Y-147240266D01*
X107240266Y-147515124D01*
X106995643Y-147817207D01*
X106783938Y-148143206D01*
X106607468Y-148489547D01*
X106468167Y-148852438D01*
X106367562Y-149227901D01*
X106306754Y-149611824D01*
X106286411Y-150000000D01*
X83713589Y-150000000D01*
X83693246Y-149611824D01*
X83632438Y-149227901D01*
X83531833Y-148852438D01*
X83392532Y-148489547D01*
X83216062Y-148143206D01*
X83004357Y-147817207D01*
X82759734Y-147515124D01*
X82484876Y-147240266D01*
X82182793Y-146995643D01*
X81856795Y-146783938D01*
X81853861Y-146782443D01*
X81853854Y-146782439D01*
X81513393Y-146608966D01*
X81510453Y-146607468D01*
X81147562Y-146468167D01*
X80772099Y-146367562D01*
X80568207Y-146335268D01*
X80391424Y-146307268D01*
X80391416Y-146307267D01*
X80388176Y-146306754D01*
X80000000Y-146286411D01*
X79611824Y-146306754D01*
X79608584Y-146307267D01*
X79608576Y-146307268D01*
X79431793Y-146335268D01*
X79227901Y-146367562D01*
X78852438Y-146468167D01*
X78489547Y-146607468D01*
X78486607Y-146608966D01*
X78146147Y-146782439D01*
X78146140Y-146782443D01*
X78143206Y-146783938D01*
X77817207Y-146995643D01*
X77515124Y-147240266D01*
X77240266Y-147515124D01*
X76995643Y-147817207D01*
X76783938Y-148143206D01*
X76607468Y-148489547D01*
X76468167Y-148852438D01*
X76367562Y-149227901D01*
X76306754Y-149611824D01*
X76286411Y-150000000D01*
X75508000Y-150000000D01*
X75508000Y-141364580D01*
X106031395Y-141364580D01*
X106035978Y-141386425D01*
X106039035Y-141396612D01*
X106119763Y-141601029D01*
X106124494Y-141610561D01*
X106238516Y-141798462D01*
X106244780Y-141807052D01*
X106388827Y-141973052D01*
X106396458Y-141980472D01*
X106566411Y-142119826D01*
X106575178Y-142125850D01*
X106766182Y-142234576D01*
X106775846Y-142239041D01*
X106982441Y-142314031D01*
X106992708Y-142316802D01*
X107099674Y-142336145D01*
X107112913Y-142334727D01*
X107115741Y-142325703D01*
X107817500Y-142325703D01*
X107821810Y-142340383D01*
X107829028Y-142341636D01*
X108040035Y-142286870D01*
X108050075Y-142283335D01*
X108250470Y-142193063D01*
X108259756Y-142187894D01*
X108442075Y-142065150D01*
X108450370Y-142058481D01*
X108609400Y-141906772D01*
X108616441Y-141898814D01*
X108747641Y-141722475D01*
X108753245Y-141713438D01*
X108852857Y-141517516D01*
X108856857Y-141507665D01*
X108900441Y-141367300D01*
X108900659Y-141353201D01*
X108893928Y-141350000D01*
X107835615Y-141350000D01*
X107820376Y-141354475D01*
X107819171Y-141355865D01*
X107817500Y-141363548D01*
X107817500Y-142325703D01*
X107115741Y-142325703D01*
X107117500Y-142320088D01*
X107117500Y-141368115D01*
X107113025Y-141352876D01*
X107111635Y-141351671D01*
X107103952Y-141350000D01*
X106046451Y-141350000D01*
X106032920Y-141353973D01*
X106031395Y-141364580D01*
X75508000Y-141364580D01*
X75508000Y-138435774D01*
X105980602Y-138435774D01*
X105989251Y-138666158D01*
X106036593Y-138891791D01*
X106121276Y-139106221D01*
X106240877Y-139303317D01*
X106244374Y-139307347D01*
X106330938Y-139407103D01*
X106391977Y-139477445D01*
X106396108Y-139480832D01*
X106566127Y-139620240D01*
X106566133Y-139620244D01*
X106570255Y-139623624D01*
X106574898Y-139626267D01*
X106602235Y-139641829D01*
X106651541Y-139692912D01*
X106665402Y-139762542D01*
X106639418Y-139828613D01*
X106610268Y-139855851D01*
X106492922Y-139934852D01*
X106484630Y-139941519D01*
X106325600Y-140093228D01*
X106318559Y-140101186D01*
X106187359Y-140277525D01*
X106181755Y-140286562D01*
X106082143Y-140482484D01*
X106078143Y-140492335D01*
X106034559Y-140632700D01*
X106034341Y-140646799D01*
X106041072Y-140650000D01*
X108888549Y-140650000D01*
X108902080Y-140646027D01*
X108903605Y-140635420D01*
X108899022Y-140613575D01*
X108895965Y-140603388D01*
X108815237Y-140398971D01*
X108810506Y-140389439D01*
X108696484Y-140201538D01*
X108690220Y-140192948D01*
X108546173Y-140026948D01*
X108538542Y-140019528D01*
X108368589Y-139880174D01*
X108359826Y-139874152D01*
X108332789Y-139858762D01*
X108283482Y-139807680D01*
X108269620Y-139738049D01*
X108295603Y-139671978D01*
X108324753Y-139644739D01*
X108378032Y-139608869D01*
X108446819Y-139562559D01*
X108613635Y-139403424D01*
X108751254Y-139218458D01*
X108855740Y-139012949D01*
X108891821Y-138896752D01*
X108922524Y-138797871D01*
X108924107Y-138792773D01*
X108924808Y-138787484D01*
X108953698Y-138569511D01*
X108953698Y-138569506D01*
X108954398Y-138564226D01*
X108945749Y-138333842D01*
X108898407Y-138108209D01*
X108813724Y-137893779D01*
X108694123Y-137696683D01*
X108607255Y-137596576D01*
X108546523Y-137526588D01*
X108546521Y-137526586D01*
X108543023Y-137522555D01*
X108501470Y-137488484D01*
X108368873Y-137379760D01*
X108368867Y-137379756D01*
X108364745Y-137376376D01*
X108360102Y-137373733D01*
X108332765Y-137358171D01*
X108283459Y-137307088D01*
X108269598Y-137237458D01*
X108295582Y-137171387D01*
X108324732Y-137144149D01*
X108442078Y-137065148D01*
X108450370Y-137058481D01*
X108609400Y-136906772D01*
X108616441Y-136898814D01*
X108747641Y-136722475D01*
X108753245Y-136713438D01*
X108852857Y-136517516D01*
X108856857Y-136507665D01*
X108900441Y-136367300D01*
X108900659Y-136353201D01*
X108893928Y-136350000D01*
X106046451Y-136350000D01*
X106032920Y-136353973D01*
X106031395Y-136364580D01*
X106035978Y-136386425D01*
X106039035Y-136396612D01*
X106119763Y-136601029D01*
X106124494Y-136610561D01*
X106238516Y-136798462D01*
X106244780Y-136807052D01*
X106388827Y-136973052D01*
X106396458Y-136980472D01*
X106566411Y-137119826D01*
X106575174Y-137125848D01*
X106602211Y-137141238D01*
X106651518Y-137192320D01*
X106665380Y-137261951D01*
X106639397Y-137328022D01*
X106610247Y-137355261D01*
X106605540Y-137358430D01*
X106488181Y-137437441D01*
X106321365Y-137596576D01*
X106183746Y-137781542D01*
X106079260Y-137987051D01*
X106077678Y-137992145D01*
X106077677Y-137992148D01*
X106015615Y-138192020D01*
X106010893Y-138207227D01*
X106010192Y-138212516D01*
X105994804Y-138328623D01*
X105980602Y-138435774D01*
X75508000Y-138435774D01*
X75508000Y-135935774D01*
X80138102Y-135935774D01*
X80146751Y-136166158D01*
X80194093Y-136391791D01*
X80196051Y-136396750D01*
X80196052Y-136396752D01*
X80276726Y-136601029D01*
X80278776Y-136606221D01*
X80398377Y-136803317D01*
X80401874Y-136807347D01*
X80488438Y-136907103D01*
X80549477Y-136977445D01*
X80553608Y-136980832D01*
X80723627Y-137120240D01*
X80723633Y-137120244D01*
X80727755Y-137123624D01*
X80732391Y-137126263D01*
X80732394Y-137126265D01*
X80850522Y-137193507D01*
X80928114Y-137237675D01*
X81144825Y-137316337D01*
X81150074Y-137317286D01*
X81150077Y-137317287D01*
X81367608Y-137356623D01*
X81367615Y-137356624D01*
X81371692Y-137357361D01*
X81388868Y-137358171D01*
X81394356Y-137358430D01*
X81394363Y-137358430D01*
X81395844Y-137358500D01*
X81557890Y-137358500D01*
X81624809Y-137352822D01*
X81724409Y-137344371D01*
X81724413Y-137344370D01*
X81729720Y-137343920D01*
X81734875Y-137342582D01*
X81734881Y-137342581D01*
X81947703Y-137287343D01*
X81947707Y-137287342D01*
X81952872Y-137286001D01*
X81957738Y-137283809D01*
X81957741Y-137283808D01*
X82158202Y-137193507D01*
X82163075Y-137191312D01*
X82354319Y-137062559D01*
X82521135Y-136903424D01*
X82658754Y-136718458D01*
X82661307Y-136713438D01*
X82760822Y-136517704D01*
X82763240Y-136512949D01*
X82799321Y-136396752D01*
X82830024Y-136297871D01*
X82831607Y-136292773D01*
X82832308Y-136287484D01*
X82861198Y-136069511D01*
X82861198Y-136069506D01*
X82861898Y-136064226D01*
X82857076Y-135935774D01*
X87138102Y-135935774D01*
X87146751Y-136166158D01*
X87194093Y-136391791D01*
X87196051Y-136396750D01*
X87196052Y-136396752D01*
X87276726Y-136601029D01*
X87278776Y-136606221D01*
X87398377Y-136803317D01*
X87401874Y-136807347D01*
X87488438Y-136907103D01*
X87549477Y-136977445D01*
X87553608Y-136980832D01*
X87723627Y-137120240D01*
X87723633Y-137120244D01*
X87727755Y-137123624D01*
X87732391Y-137126263D01*
X87732394Y-137126265D01*
X87850522Y-137193507D01*
X87928114Y-137237675D01*
X88144825Y-137316337D01*
X88150074Y-137317286D01*
X88150077Y-137317287D01*
X88367608Y-137356623D01*
X88367615Y-137356624D01*
X88371692Y-137357361D01*
X88388868Y-137358171D01*
X88394356Y-137358430D01*
X88394363Y-137358430D01*
X88395844Y-137358500D01*
X88557890Y-137358500D01*
X88624809Y-137352822D01*
X88724409Y-137344371D01*
X88724413Y-137344370D01*
X88729720Y-137343920D01*
X88734875Y-137342582D01*
X88734881Y-137342581D01*
X88947703Y-137287343D01*
X88947707Y-137287342D01*
X88952872Y-137286001D01*
X88957738Y-137283809D01*
X88957741Y-137283808D01*
X89158202Y-137193507D01*
X89163075Y-137191312D01*
X89354319Y-137062559D01*
X89521135Y-136903424D01*
X89658754Y-136718458D01*
X89661307Y-136713438D01*
X89760822Y-136517704D01*
X89763240Y-136512949D01*
X89799321Y-136396752D01*
X89830024Y-136297871D01*
X89831607Y-136292773D01*
X89832308Y-136287484D01*
X89861198Y-136069511D01*
X89861198Y-136069506D01*
X89861898Y-136064226D01*
X89853249Y-135833842D01*
X89805907Y-135608209D01*
X89756181Y-135482296D01*
X89723185Y-135398744D01*
X89723184Y-135398742D01*
X89721224Y-135393779D01*
X89601623Y-135196683D01*
X89511855Y-135093234D01*
X89454023Y-135026588D01*
X89454021Y-135026586D01*
X89450523Y-135022555D01*
X89395355Y-134977320D01*
X89276373Y-134879760D01*
X89276367Y-134879756D01*
X89272245Y-134876376D01*
X89267609Y-134873737D01*
X89267606Y-134873735D01*
X89076529Y-134764968D01*
X89071886Y-134762325D01*
X88855175Y-134683663D01*
X88849926Y-134682714D01*
X88849923Y-134682713D01*
X88632392Y-134643377D01*
X88632385Y-134643376D01*
X88628308Y-134642639D01*
X88610586Y-134641803D01*
X88605644Y-134641570D01*
X88605637Y-134641570D01*
X88604156Y-134641500D01*
X88442110Y-134641500D01*
X88375191Y-134647178D01*
X88275591Y-134655629D01*
X88275587Y-134655630D01*
X88270280Y-134656080D01*
X88265125Y-134657418D01*
X88265119Y-134657419D01*
X88052297Y-134712657D01*
X88052293Y-134712658D01*
X88047128Y-134713999D01*
X88042262Y-134716191D01*
X88042259Y-134716192D01*
X87933980Y-134764968D01*
X87836925Y-134808688D01*
X87645681Y-134937441D01*
X87478865Y-135096576D01*
X87341246Y-135281542D01*
X87338830Y-135286293D01*
X87338828Y-135286297D01*
X87289003Y-135384296D01*
X87236760Y-135487051D01*
X87235178Y-135492145D01*
X87235177Y-135492148D01*
X87186163Y-135650000D01*
X87168393Y-135707227D01*
X87167692Y-135712516D01*
X87152304Y-135828623D01*
X87138102Y-135935774D01*
X82857076Y-135935774D01*
X82853249Y-135833842D01*
X82805907Y-135608209D01*
X82756181Y-135482296D01*
X82723185Y-135398744D01*
X82723184Y-135398742D01*
X82721224Y-135393779D01*
X82601623Y-135196683D01*
X82511855Y-135093234D01*
X82454023Y-135026588D01*
X82454021Y-135026586D01*
X82450523Y-135022555D01*
X82395355Y-134977320D01*
X82276373Y-134879760D01*
X82276367Y-134879756D01*
X82272245Y-134876376D01*
X82267609Y-134873737D01*
X82267606Y-134873735D01*
X82076529Y-134764968D01*
X82071886Y-134762325D01*
X81855175Y-134683663D01*
X81849926Y-134682714D01*
X81849923Y-134682713D01*
X81632392Y-134643377D01*
X81632385Y-134643376D01*
X81628308Y-134642639D01*
X81610586Y-134641803D01*
X81605644Y-134641570D01*
X81605637Y-134641570D01*
X81604156Y-134641500D01*
X81442110Y-134641500D01*
X81375191Y-134647178D01*
X81275591Y-134655629D01*
X81275587Y-134655630D01*
X81270280Y-134656080D01*
X81265125Y-134657418D01*
X81265119Y-134657419D01*
X81052297Y-134712657D01*
X81052293Y-134712658D01*
X81047128Y-134713999D01*
X81042262Y-134716191D01*
X81042259Y-134716192D01*
X80933980Y-134764968D01*
X80836925Y-134808688D01*
X80645681Y-134937441D01*
X80478865Y-135096576D01*
X80341246Y-135281542D01*
X80338830Y-135286293D01*
X80338828Y-135286297D01*
X80289003Y-135384296D01*
X80236760Y-135487051D01*
X80235178Y-135492145D01*
X80235177Y-135492148D01*
X80186163Y-135650000D01*
X80168393Y-135707227D01*
X80167692Y-135712516D01*
X80152304Y-135828623D01*
X80138102Y-135935774D01*
X75508000Y-135935774D01*
X75508000Y-134150400D01*
X105984000Y-134150400D01*
X105994974Y-134256166D01*
X106050950Y-134423946D01*
X106144022Y-134574348D01*
X106269197Y-134699305D01*
X106414758Y-134789030D01*
X106415280Y-134789352D01*
X106462773Y-134842124D01*
X106474197Y-134912196D01*
X106445923Y-134977320D01*
X106436136Y-134987782D01*
X106325594Y-135093234D01*
X106318559Y-135101186D01*
X106187359Y-135277525D01*
X106181755Y-135286562D01*
X106082143Y-135482484D01*
X106078143Y-135492335D01*
X106034559Y-135632700D01*
X106034341Y-135646799D01*
X106041072Y-135650000D01*
X108888549Y-135650000D01*
X108902080Y-135646027D01*
X108903605Y-135635420D01*
X108899022Y-135613575D01*
X108895965Y-135603388D01*
X108815237Y-135398971D01*
X108810506Y-135389439D01*
X108696484Y-135201538D01*
X108690220Y-135192948D01*
X108546173Y-135026948D01*
X108538544Y-135019530D01*
X108506931Y-134993609D01*
X108466936Y-134934949D01*
X108465004Y-134863979D01*
X108501748Y-134803230D01*
X108520518Y-134789030D01*
X108660620Y-134702332D01*
X108666848Y-134698478D01*
X108707836Y-134657419D01*
X108786634Y-134578483D01*
X108791805Y-134573303D01*
X108884615Y-134422738D01*
X108940297Y-134254861D01*
X108951000Y-134150400D01*
X108951000Y-132849600D01*
X108940026Y-132743834D01*
X108884050Y-132576054D01*
X108790978Y-132425652D01*
X108665803Y-132300695D01*
X108659572Y-132296854D01*
X108521468Y-132211725D01*
X108521466Y-132211724D01*
X108515238Y-132207885D01*
X108354754Y-132154655D01*
X108353889Y-132154368D01*
X108353887Y-132154368D01*
X108347361Y-132152203D01*
X108340525Y-132151503D01*
X108340522Y-132151502D01*
X108297469Y-132147091D01*
X108242900Y-132141500D01*
X106692100Y-132141500D01*
X106688854Y-132141837D01*
X106688850Y-132141837D01*
X106593192Y-132151762D01*
X106593188Y-132151763D01*
X106586334Y-132152474D01*
X106579798Y-132154655D01*
X106579796Y-132154655D01*
X106447694Y-132198728D01*
X106418554Y-132208450D01*
X106268152Y-132301522D01*
X106143195Y-132426697D01*
X106050385Y-132577262D01*
X105994703Y-132745139D01*
X105984000Y-132849600D01*
X105984000Y-134150400D01*
X75508000Y-134150400D01*
X75508000Y-102500000D01*
X84586496Y-102500000D01*
X84606458Y-102689928D01*
X84665473Y-102871556D01*
X84760960Y-103036944D01*
X84888747Y-103178866D01*
X85043248Y-103291118D01*
X85049276Y-103293802D01*
X85049278Y-103293803D01*
X85100560Y-103316635D01*
X85217712Y-103368794D01*
X85354411Y-103397850D01*
X85370569Y-103401285D01*
X85433467Y-103435437D01*
X85478550Y-103480520D01*
X85484404Y-103486785D01*
X85522439Y-103530385D01*
X85528657Y-103534755D01*
X85574697Y-103567112D01*
X85579993Y-103571045D01*
X85630282Y-103610477D01*
X85637204Y-103613602D01*
X85639452Y-103614964D01*
X85654185Y-103623368D01*
X85656524Y-103624622D01*
X85662739Y-103628990D01*
X85669815Y-103631749D01*
X85669819Y-103631751D01*
X85722269Y-103652200D01*
X85728334Y-103654749D01*
X85786573Y-103681045D01*
X85794038Y-103682429D01*
X85796582Y-103683226D01*
X85812848Y-103687859D01*
X85815428Y-103688521D01*
X85822509Y-103691282D01*
X85830042Y-103692274D01*
X85830043Y-103692274D01*
X85859912Y-103696206D01*
X85885857Y-103699622D01*
X85892355Y-103700650D01*
X85955187Y-103712296D01*
X85962767Y-103711859D01*
X85962768Y-103711859D01*
X86017393Y-103708709D01*
X86024647Y-103708500D01*
X88020948Y-103708500D01*
X88089069Y-103728502D01*
X88135562Y-103782158D01*
X88140781Y-103795562D01*
X88165473Y-103871556D01*
X88260960Y-104036944D01*
X88388747Y-104178866D01*
X88543248Y-104291118D01*
X88549276Y-104293802D01*
X88549278Y-104293803D01*
X88711681Y-104366109D01*
X88717712Y-104368794D01*
X88811113Y-104388647D01*
X88898056Y-104407128D01*
X88898061Y-104407128D01*
X88904513Y-104408500D01*
X89095487Y-104408500D01*
X89101939Y-104407128D01*
X89101944Y-104407128D01*
X89188887Y-104388647D01*
X89282288Y-104368794D01*
X89288319Y-104366109D01*
X89450722Y-104293803D01*
X89450724Y-104293802D01*
X89456752Y-104291118D01*
X89611253Y-104178866D01*
X89739040Y-104036944D01*
X89834527Y-103871556D01*
X89893542Y-103689928D01*
X89894247Y-103683226D01*
X89912814Y-103506565D01*
X89913504Y-103500000D01*
X89893542Y-103310072D01*
X89834527Y-103128444D01*
X89739040Y-102963056D01*
X89611253Y-102821134D01*
X89456752Y-102708882D01*
X89450724Y-102706198D01*
X89450722Y-102706197D01*
X89288319Y-102633891D01*
X89288318Y-102633891D01*
X89282288Y-102631206D01*
X89129431Y-102598715D01*
X89066533Y-102564563D01*
X89021450Y-102519480D01*
X89015596Y-102513215D01*
X89004068Y-102500000D01*
X88977561Y-102469615D01*
X88925280Y-102432871D01*
X88919986Y-102428939D01*
X88875693Y-102394209D01*
X88869718Y-102389524D01*
X88862802Y-102386401D01*
X88860516Y-102385017D01*
X88845835Y-102376643D01*
X88843475Y-102375378D01*
X88837261Y-102371010D01*
X88830182Y-102368250D01*
X88830180Y-102368249D01*
X88777725Y-102347798D01*
X88771656Y-102345247D01*
X88713427Y-102318955D01*
X88705960Y-102317571D01*
X88703405Y-102316770D01*
X88687152Y-102312141D01*
X88684572Y-102311478D01*
X88677491Y-102308718D01*
X88669960Y-102307727D01*
X88669958Y-102307726D01*
X88640089Y-102303794D01*
X88614139Y-102300378D01*
X88607641Y-102299348D01*
X88544814Y-102287704D01*
X88537234Y-102288141D01*
X88537233Y-102288141D01*
X88482608Y-102291291D01*
X88475354Y-102291500D01*
X86479052Y-102291500D01*
X86410931Y-102271498D01*
X86364438Y-102217842D01*
X86359219Y-102204437D01*
X86336568Y-102134725D01*
X86336567Y-102134724D01*
X86334527Y-102128444D01*
X86239040Y-101963056D01*
X86111253Y-101821134D01*
X85956752Y-101708882D01*
X85950724Y-101706198D01*
X85950722Y-101706197D01*
X85788319Y-101633891D01*
X85788318Y-101633891D01*
X85782288Y-101631206D01*
X85688887Y-101611353D01*
X85601944Y-101592872D01*
X85601939Y-101592872D01*
X85595487Y-101591500D01*
X85404513Y-101591500D01*
X85398061Y-101592872D01*
X85398056Y-101592872D01*
X85311113Y-101611353D01*
X85217712Y-101631206D01*
X85211682Y-101633891D01*
X85211681Y-101633891D01*
X85049278Y-101706197D01*
X85049276Y-101706198D01*
X85043248Y-101708882D01*
X84888747Y-101821134D01*
X84760960Y-101963056D01*
X84665473Y-102128444D01*
X84606458Y-102310072D01*
X84605768Y-102316633D01*
X84605768Y-102316635D01*
X84602619Y-102346601D01*
X84586496Y-102500000D01*
X75508000Y-102500000D01*
X75508000Y-99536695D01*
X111137251Y-99536695D01*
X111137548Y-99541848D01*
X111137548Y-99541851D01*
X111143011Y-99636590D01*
X111150110Y-99759715D01*
X111151247Y-99764761D01*
X111151248Y-99764767D01*
X111171119Y-99852939D01*
X111199222Y-99977639D01*
X111283266Y-100184616D01*
X111399987Y-100375088D01*
X111546250Y-100543938D01*
X111718126Y-100686632D01*
X111911000Y-100799338D01*
X112119692Y-100879030D01*
X112124760Y-100880061D01*
X112124763Y-100880062D01*
X112232017Y-100901883D01*
X112338597Y-100923567D01*
X112343772Y-100923757D01*
X112343774Y-100923757D01*
X112556673Y-100931564D01*
X112556677Y-100931564D01*
X112561837Y-100931753D01*
X112566957Y-100931097D01*
X112566959Y-100931097D01*
X112778288Y-100904025D01*
X112778289Y-100904025D01*
X112783416Y-100903368D01*
X112788366Y-100901883D01*
X112992429Y-100840661D01*
X112992434Y-100840659D01*
X112997384Y-100839174D01*
X113197994Y-100740896D01*
X113379860Y-100611173D01*
X113538096Y-100453489D01*
X113597594Y-100370689D01*
X113665435Y-100276277D01*
X113668453Y-100272077D01*
X113767430Y-100071811D01*
X113832370Y-99858069D01*
X113861529Y-99636590D01*
X113863156Y-99570000D01*
X113844852Y-99347361D01*
X113790431Y-99130702D01*
X113701354Y-98925840D01*
X113580014Y-98738277D01*
X113429670Y-98573051D01*
X113425619Y-98569852D01*
X113425615Y-98569848D01*
X113258414Y-98437800D01*
X113258410Y-98437798D01*
X113254359Y-98434598D01*
X113213053Y-98411796D01*
X113163084Y-98361364D01*
X113148312Y-98291921D01*
X113173428Y-98225516D01*
X113200780Y-98198909D01*
X113244603Y-98167650D01*
X113379860Y-98071173D01*
X113538096Y-97913489D01*
X113597594Y-97830689D01*
X113665435Y-97736277D01*
X113668453Y-97732077D01*
X113767430Y-97531811D01*
X113832370Y-97318069D01*
X113861529Y-97096590D01*
X113863156Y-97030000D01*
X113844852Y-96807361D01*
X113790431Y-96590702D01*
X113701354Y-96385840D01*
X113580014Y-96198277D01*
X113429670Y-96033051D01*
X113425619Y-96029852D01*
X113425615Y-96029848D01*
X113258414Y-95897800D01*
X113258410Y-95897798D01*
X113254359Y-95894598D01*
X113213053Y-95871796D01*
X113163084Y-95821364D01*
X113148312Y-95751921D01*
X113173428Y-95685516D01*
X113200780Y-95658909D01*
X113244603Y-95627650D01*
X113379860Y-95531173D01*
X113538096Y-95373489D01*
X113597594Y-95290689D01*
X113665435Y-95196277D01*
X113668453Y-95192077D01*
X113767430Y-94991811D01*
X113832370Y-94778069D01*
X113861529Y-94556590D01*
X113863156Y-94490000D01*
X113844852Y-94267361D01*
X113790431Y-94050702D01*
X113701354Y-93845840D01*
X113580014Y-93658277D01*
X113576540Y-93654459D01*
X113576533Y-93654450D01*
X113432435Y-93496088D01*
X113401383Y-93432242D01*
X113409779Y-93361744D01*
X113454956Y-93306976D01*
X113481400Y-93293307D01*
X113588052Y-93253325D01*
X113603649Y-93244786D01*
X113705724Y-93168285D01*
X113718285Y-93155724D01*
X113794786Y-93053649D01*
X113803324Y-93038054D01*
X113848478Y-92917606D01*
X113852105Y-92902351D01*
X113857631Y-92851486D01*
X113858000Y-92844672D01*
X113858000Y-92318115D01*
X113853525Y-92302876D01*
X113852135Y-92301671D01*
X113844452Y-92300000D01*
X111160116Y-92300000D01*
X111144877Y-92304475D01*
X111143672Y-92305865D01*
X111142001Y-92313548D01*
X111142001Y-92844669D01*
X111142371Y-92851490D01*
X111147895Y-92902352D01*
X111151521Y-92917604D01*
X111196676Y-93038054D01*
X111205214Y-93053649D01*
X111281715Y-93155724D01*
X111294276Y-93168285D01*
X111396351Y-93244786D01*
X111411946Y-93253324D01*
X111520827Y-93294142D01*
X111577591Y-93336784D01*
X111602291Y-93403345D01*
X111587083Y-93472694D01*
X111567691Y-93499175D01*
X111444200Y-93628401D01*
X111440629Y-93632138D01*
X111314743Y-93816680D01*
X111220688Y-94019305D01*
X111160989Y-94234570D01*
X111137251Y-94456695D01*
X111137548Y-94461848D01*
X111137548Y-94461851D01*
X111143011Y-94556590D01*
X111150110Y-94679715D01*
X111151247Y-94684761D01*
X111151248Y-94684767D01*
X111171119Y-94772939D01*
X111199222Y-94897639D01*
X111283266Y-95104616D01*
X111399987Y-95295088D01*
X111546250Y-95463938D01*
X111718126Y-95606632D01*
X111788595Y-95647811D01*
X111791445Y-95649476D01*
X111840169Y-95701114D01*
X111853240Y-95770897D01*
X111826509Y-95836669D01*
X111786055Y-95870027D01*
X111773607Y-95876507D01*
X111769474Y-95879610D01*
X111769471Y-95879612D01*
X111745247Y-95897800D01*
X111594965Y-96010635D01*
X111440629Y-96172138D01*
X111314743Y-96356680D01*
X111220688Y-96559305D01*
X111160989Y-96774570D01*
X111137251Y-96996695D01*
X111137548Y-97001848D01*
X111137548Y-97001851D01*
X111143011Y-97096590D01*
X111150110Y-97219715D01*
X111151247Y-97224761D01*
X111151248Y-97224767D01*
X111171119Y-97312939D01*
X111199222Y-97437639D01*
X111283266Y-97644616D01*
X111399987Y-97835088D01*
X111546250Y-98003938D01*
X111718126Y-98146632D01*
X111788595Y-98187811D01*
X111791445Y-98189476D01*
X111840169Y-98241114D01*
X111853240Y-98310897D01*
X111826509Y-98376669D01*
X111786055Y-98410027D01*
X111773607Y-98416507D01*
X111769474Y-98419610D01*
X111769471Y-98419612D01*
X111745247Y-98437800D01*
X111594965Y-98550635D01*
X111440629Y-98712138D01*
X111314743Y-98896680D01*
X111220688Y-99099305D01*
X111160989Y-99314570D01*
X111137251Y-99536695D01*
X75508000Y-99536695D01*
X75508000Y-91581885D01*
X111142000Y-91581885D01*
X111146475Y-91597124D01*
X111147865Y-91598329D01*
X111155548Y-91600000D01*
X112131885Y-91600000D01*
X112147124Y-91595525D01*
X112148329Y-91594135D01*
X112150000Y-91586452D01*
X112150000Y-91581885D01*
X112850000Y-91581885D01*
X112854475Y-91597124D01*
X112855865Y-91598329D01*
X112863548Y-91600000D01*
X113839884Y-91600000D01*
X113855123Y-91595525D01*
X113856328Y-91594135D01*
X113857999Y-91586452D01*
X113857999Y-91055331D01*
X113857629Y-91048510D01*
X113852105Y-90997648D01*
X113848479Y-90982396D01*
X113803324Y-90861946D01*
X113794786Y-90846351D01*
X113718285Y-90744276D01*
X113705724Y-90731715D01*
X113603649Y-90655214D01*
X113588054Y-90646676D01*
X113467606Y-90601522D01*
X113452351Y-90597895D01*
X113401486Y-90592369D01*
X113394672Y-90592000D01*
X112868115Y-90592000D01*
X112852876Y-90596475D01*
X112851671Y-90597865D01*
X112850000Y-90605548D01*
X112850000Y-91581885D01*
X112150000Y-91581885D01*
X112150000Y-90610116D01*
X112145525Y-90594877D01*
X112144135Y-90593672D01*
X112136452Y-90592001D01*
X111605331Y-90592001D01*
X111598510Y-90592371D01*
X111547648Y-90597895D01*
X111532396Y-90601521D01*
X111411946Y-90646676D01*
X111396351Y-90655214D01*
X111294276Y-90731715D01*
X111281715Y-90744276D01*
X111205214Y-90846351D01*
X111196676Y-90861946D01*
X111151522Y-90982394D01*
X111147895Y-90997649D01*
X111142369Y-91048514D01*
X111142000Y-91055328D01*
X111142000Y-91581885D01*
X75508000Y-91581885D01*
X75508000Y-86500000D01*
X106086496Y-86500000D01*
X106106458Y-86689928D01*
X106165473Y-86871556D01*
X106260960Y-87036944D01*
X106388747Y-87178866D01*
X106543248Y-87291118D01*
X106549276Y-87293802D01*
X106549278Y-87293803D01*
X106711681Y-87366109D01*
X106717712Y-87368794D01*
X106811112Y-87388647D01*
X106898056Y-87407128D01*
X106898061Y-87407128D01*
X106904513Y-87408500D01*
X107095487Y-87408500D01*
X107101939Y-87407128D01*
X107101944Y-87407128D01*
X107188888Y-87388647D01*
X107282288Y-87368794D01*
X107288319Y-87366109D01*
X107450722Y-87293803D01*
X107450724Y-87293802D01*
X107456752Y-87291118D01*
X107611253Y-87178866D01*
X107739040Y-87036944D01*
X107834527Y-86871556D01*
X107893542Y-86689928D01*
X107913504Y-86500000D01*
X107893542Y-86310072D01*
X107834527Y-86128444D01*
X107739040Y-85963056D01*
X107665863Y-85881785D01*
X107635147Y-85817779D01*
X107633500Y-85797476D01*
X107633500Y-82502453D01*
X107653502Y-82434332D01*
X107707158Y-82387839D01*
X107733302Y-82379206D01*
X107782288Y-82368794D01*
X107788319Y-82366109D01*
X107950722Y-82293803D01*
X107950724Y-82293802D01*
X107956752Y-82291118D01*
X108111253Y-82178866D01*
X108239040Y-82036944D01*
X108334527Y-81871556D01*
X108393542Y-81689928D01*
X108404737Y-81583419D01*
X108412814Y-81506565D01*
X108413504Y-81500000D01*
X108393542Y-81310072D01*
X108334527Y-81128444D01*
X108239040Y-80963056D01*
X108111253Y-80821134D01*
X107956752Y-80708882D01*
X107950724Y-80706198D01*
X107950722Y-80706197D01*
X107788319Y-80633891D01*
X107788318Y-80633891D01*
X107782288Y-80631206D01*
X107688887Y-80611353D01*
X107601944Y-80592872D01*
X107601939Y-80592872D01*
X107595487Y-80591500D01*
X107404513Y-80591500D01*
X107398061Y-80592872D01*
X107398056Y-80592872D01*
X107311113Y-80611353D01*
X107217712Y-80631206D01*
X107211682Y-80633891D01*
X107211681Y-80633891D01*
X107049278Y-80706197D01*
X107049276Y-80706198D01*
X107043248Y-80708882D01*
X106888747Y-80821134D01*
X106760960Y-80963056D01*
X106665473Y-81128444D01*
X106606458Y-81310072D01*
X106605769Y-81316631D01*
X106605768Y-81316634D01*
X106589164Y-81474615D01*
X106562151Y-81540271D01*
X106555705Y-81547695D01*
X106546356Y-81557651D01*
X106543600Y-81560495D01*
X106523865Y-81580230D01*
X106521385Y-81583427D01*
X106513682Y-81592447D01*
X106483414Y-81624679D01*
X106479595Y-81631625D01*
X106479593Y-81631628D01*
X106473652Y-81642434D01*
X106462801Y-81658953D01*
X106450386Y-81674959D01*
X106447241Y-81682228D01*
X106447238Y-81682232D01*
X106432826Y-81715537D01*
X106427609Y-81726187D01*
X106406305Y-81764940D01*
X106404334Y-81772615D01*
X106404334Y-81772616D01*
X106401267Y-81784562D01*
X106394863Y-81803266D01*
X106386819Y-81821855D01*
X106385580Y-81829678D01*
X106385577Y-81829688D01*
X106379901Y-81865524D01*
X106377495Y-81877144D01*
X106368472Y-81912289D01*
X106366500Y-81919970D01*
X106366500Y-81940224D01*
X106364949Y-81959934D01*
X106361780Y-81979943D01*
X106362526Y-81987835D01*
X106365941Y-82023961D01*
X106366500Y-82035819D01*
X106366500Y-85797476D01*
X106346498Y-85865597D01*
X106334142Y-85881779D01*
X106260960Y-85963056D01*
X106165473Y-86128444D01*
X106106458Y-86310072D01*
X106086496Y-86500000D01*
X75508000Y-86500000D01*
X75508000Y-77126000D01*
X75528002Y-77057879D01*
X75581658Y-77011386D01*
X75634000Y-77000000D01*
X76808524Y-77000000D01*
X76876645Y-77020002D01*
G37*
%TD.AperFunction*%
%TD*%
M02*
