%TF.GenerationSoftware,KiCad,Pcbnew,(6.0.0)*%
%TF.CreationDate,2022-10-10T13:55:58+02:00*%
%TF.ProjectId,led_bar,6c65645f-6261-4722-9e6b-696361645f70,rev?*%
%TF.SameCoordinates,Original*%
%TF.FileFunction,Copper,L1,Top*%
%TF.FilePolarity,Positive*%
%FSLAX46Y46*%
G04 Gerber Fmt 4.6, Leading zero omitted, Abs format (unit mm)*
G04 Created by KiCad (PCBNEW (6.0.0)) date 2022-10-10 13:55:58*
%MOMM*%
%LPD*%
G01*
G04 APERTURE LIST*
G04 Aperture macros list*
%AMRoundRect*
0 Rectangle with rounded corners*
0 $1 Rounding radius*
0 $2 $3 $4 $5 $6 $7 $8 $9 X,Y pos of 4 corners*
0 Add a 4 corners polygon primitive as box body*
4,1,4,$2,$3,$4,$5,$6,$7,$8,$9,$2,$3,0*
0 Add four circle primitives for the rounded corners*
1,1,$1+$1,$2,$3*
1,1,$1+$1,$4,$5*
1,1,$1+$1,$6,$7*
1,1,$1+$1,$8,$9*
0 Add four rect primitives between the rounded corners*
20,1,$1+$1,$2,$3,$4,$5,0*
20,1,$1+$1,$4,$5,$6,$7,0*
20,1,$1+$1,$6,$7,$8,$9,0*
20,1,$1+$1,$8,$9,$2,$3,0*%
%AMFreePoly0*
4,1,6,1.000000,0.000000,0.500000,-0.750000,-0.500000,-0.750000,-0.500000,0.750000,0.500000,0.750000,1.000000,0.000000,1.000000,0.000000,$1*%
%AMFreePoly1*
4,1,6,0.500000,-0.750000,-0.650000,-0.750000,-0.150000,0.000000,-0.650000,0.750000,0.500000,0.750000,0.500000,-0.750000,0.500000,-0.750000,$1*%
G04 Aperture macros list end*
%TA.AperFunction,ComponentPad*%
%ADD10R,1.800000X1.800000*%
%TD*%
%TA.AperFunction,ComponentPad*%
%ADD11C,5.600000*%
%TD*%
%TA.AperFunction,SMDPad,CuDef*%
%ADD12RoundRect,0.250000X-0.337500X-0.475000X0.337500X-0.475000X0.337500X0.475000X-0.337500X0.475000X0*%
%TD*%
%TA.AperFunction,SMDPad,CuDef*%
%ADD13RoundRect,0.250000X-0.350000X-0.450000X0.350000X-0.450000X0.350000X0.450000X-0.350000X0.450000X0*%
%TD*%
%TA.AperFunction,SMDPad,CuDef*%
%ADD14FreePoly0,0.000000*%
%TD*%
%TA.AperFunction,SMDPad,CuDef*%
%ADD15FreePoly1,0.000000*%
%TD*%
%TA.AperFunction,ComponentPad*%
%ADD16RoundRect,0.250000X-0.600000X-0.750000X0.600000X-0.750000X0.600000X0.750000X-0.600000X0.750000X0*%
%TD*%
%TA.AperFunction,ComponentPad*%
%ADD17O,1.700000X2.000000*%
%TD*%
%TA.AperFunction,ComponentPad*%
%ADD18RoundRect,0.250000X-0.600000X0.600000X-0.600000X-0.600000X0.600000X-0.600000X0.600000X0.600000X0*%
%TD*%
%TA.AperFunction,ComponentPad*%
%ADD19C,1.700000*%
%TD*%
%TA.AperFunction,ViaPad*%
%ADD20C,0.800000*%
%TD*%
%TA.AperFunction,Conductor*%
%ADD21C,0.304800*%
%TD*%
G04 APERTURE END LIST*
D10*
%TO.P,D10,1,K*%
%TO.N,Net-(D10-Pad1)*%
X50025000Y-291750000D03*
%TO.P,D10,2,A*%
%TO.N,Net-(D10-Pad2)*%
X47485000Y-291750000D03*
%TD*%
%TO.P,D7,1,K*%
%TO.N,Net-(D17-Pad2)*%
X50025000Y-207750000D03*
%TO.P,D7,2,A*%
%TO.N,Net-(D7-Pad2)*%
X47485000Y-207750000D03*
%TD*%
%TO.P,D29,1,K*%
%TO.N,Net-(D29-Pad1)*%
X84025000Y-263750000D03*
%TO.P,D29,2,A*%
%TO.N,Net-(D19-Pad1)*%
X81485000Y-263750000D03*
%TD*%
%TO.P,D14,1,K*%
%TO.N,Net-(D14-Pad1)*%
X67025000Y-123750000D03*
%TO.P,D14,2,A*%
%TO.N,Net-(D14-Pad2)*%
X64485000Y-123750000D03*
%TD*%
D11*
%TO.P,REF\u002A\u002A,1*%
%TO.N,N/C*%
X82750000Y-53750000D03*
%TD*%
%TO.P,,1*%
%TO.N,N/C*%
X48750000Y-249750000D03*
%TD*%
D10*
%TO.P,D15,1,K*%
%TO.N,Net-(D15-Pad1)*%
X67025000Y-151750000D03*
%TO.P,D15,2,A*%
%TO.N,Net-(D15-Pad2)*%
X64485000Y-151750000D03*
%TD*%
%TO.P,D27,1,K*%
%TO.N,Net-(D27-Pad1)*%
X84025000Y-207750000D03*
%TO.P,D27,2,A*%
%TO.N,Net-(D17-Pad1)*%
X81485000Y-207750000D03*
%TD*%
D12*
%TO.P,C7,1*%
%TO.N,+9V*%
X44962500Y-217000000D03*
%TO.P,C7,2*%
%TO.N,GND*%
X47037500Y-217000000D03*
%TD*%
D10*
%TO.P,D25,1,K*%
%TO.N,Net-(D25-Pad1)*%
X84025000Y-151750000D03*
%TO.P,D25,2,A*%
%TO.N,Net-(D15-Pad1)*%
X81485000Y-151750000D03*
%TD*%
D11*
%TO.P,,1*%
%TO.N,N/C*%
X48750000Y-137750000D03*
%TD*%
D10*
%TO.P,D23,1,K*%
%TO.N,Net-(D23-Pad1)*%
X84025000Y-95750000D03*
%TO.P,D23,2,A*%
%TO.N,Net-(D13-Pad1)*%
X81485000Y-95750000D03*
%TD*%
D11*
%TO.P,,1*%
%TO.N,N/C*%
X48750000Y-221750000D03*
%TD*%
D13*
%TO.P,R8,1*%
%TO.N,+9V*%
X45000000Y-242000000D03*
%TO.P,R8,2*%
%TO.N,Net-(D8-Pad2)*%
X47000000Y-242000000D03*
%TD*%
D14*
%TO.P,JP6,1,A*%
%TO.N,Net-(D16-Pad2)*%
X65275000Y-172500000D03*
D15*
%TO.P,JP6,2,B*%
%TO.N,Net-(D16-Pad1)*%
X66725000Y-172500000D03*
%TD*%
D14*
%TO.P,JP3,1,A*%
%TO.N,Net-(D13-Pad2)*%
X65300000Y-88000000D03*
D15*
%TO.P,JP3,2,B*%
%TO.N,Net-(D13-Pad1)*%
X66750000Y-88000000D03*
%TD*%
D11*
%TO.P,,1*%
%TO.N,N/C*%
X48750000Y-53750000D03*
%TD*%
D12*
%TO.P,C9,1*%
%TO.N,+9V*%
X44962500Y-273257500D03*
%TO.P,C9,2*%
%TO.N,GND*%
X47037500Y-273257500D03*
%TD*%
D13*
%TO.P,R6,1*%
%TO.N,+9V*%
X45000000Y-186000000D03*
%TO.P,R6,2*%
%TO.N,Net-(D6-Pad2)*%
X47000000Y-186000000D03*
%TD*%
%TO.P,R10,1*%
%TO.N,+9V*%
X45000000Y-298000000D03*
%TO.P,R10,2*%
%TO.N,Net-(D10-Pad2)*%
X47000000Y-298000000D03*
%TD*%
D11*
%TO.P,,1*%
%TO.N,N/C*%
X48750000Y-277750000D03*
%TD*%
D10*
%TO.P,D26,1,K*%
%TO.N,Net-(D26-Pad1)*%
X84025000Y-179750000D03*
%TO.P,D26,2,A*%
%TO.N,Net-(D16-Pad1)*%
X81485000Y-179750000D03*
%TD*%
D11*
%TO.P,,1*%
%TO.N,N/C*%
X48750000Y-305750000D03*
%TD*%
D10*
%TO.P,D19,1,K*%
%TO.N,Net-(D19-Pad1)*%
X67025000Y-263750000D03*
%TO.P,D19,2,A*%
%TO.N,Net-(D19-Pad2)*%
X64485000Y-263750000D03*
%TD*%
D11*
%TO.P,REF\u002A\u002A,1*%
%TO.N,N/C*%
X82750000Y-221750000D03*
%TD*%
D16*
%TO.P,J2,1,Pin_1*%
%TO.N,+9V*%
X38750000Y-310950000D03*
D17*
%TO.P,J2,2,Pin_2*%
%TO.N,GND*%
X41250000Y-310950000D03*
%TD*%
D11*
%TO.P,REF\u002A\u002A,1*%
%TO.N,N/C*%
X82750000Y-81750000D03*
%TD*%
D13*
%TO.P,R1,1*%
%TO.N,+9V*%
X45000000Y-46000000D03*
%TO.P,R1,2*%
%TO.N,Net-(D1-Pad2)*%
X47000000Y-46000000D03*
%TD*%
D11*
%TO.P,REF\u002A\u002A,1*%
%TO.N,N/C*%
X82750000Y-109750000D03*
%TD*%
D10*
%TO.P,D9,1,K*%
%TO.N,Net-(D19-Pad2)*%
X50025000Y-263750000D03*
%TO.P,D9,2,A*%
%TO.N,Net-(D9-Pad2)*%
X47485000Y-263750000D03*
%TD*%
%TO.P,D4,1,K*%
%TO.N,Net-(D14-Pad2)*%
X50025000Y-123750000D03*
%TO.P,D4,2,A*%
%TO.N,Net-(D4-Pad2)*%
X47485000Y-123750000D03*
%TD*%
%TO.P,D5,1,K*%
%TO.N,Net-(D15-Pad2)*%
X50025000Y-151750000D03*
%TO.P,D5,2,A*%
%TO.N,Net-(D5-Pad2)*%
X47485000Y-151750000D03*
%TD*%
D11*
%TO.P,REF\u002A\u002A,1*%
%TO.N,N/C*%
X82750000Y-277750000D03*
%TD*%
D14*
%TO.P,JP5,1,A*%
%TO.N,Net-(D15-Pad2)*%
X65250000Y-144250000D03*
D15*
%TO.P,JP5,2,B*%
%TO.N,Net-(D15-Pad1)*%
X66700000Y-144250000D03*
%TD*%
D11*
%TO.P,REF\u002A\u002A,1*%
%TO.N,N/C*%
X82750000Y-305750000D03*
%TD*%
%TO.P,REF\u002A\u002A,1*%
%TO.N,N/C*%
X82750000Y-249750000D03*
%TD*%
%TO.P,REF\u002A\u002A,1*%
%TO.N,N/C*%
X82750000Y-137750000D03*
%TD*%
%TO.P,REF\u002A\u002A,1*%
%TO.N,N/C*%
X82750000Y-165750000D03*
%TD*%
D10*
%TO.P,D21,1,K*%
%TO.N,Net-(D21-Pad1)*%
X84025000Y-39750000D03*
%TO.P,D21,2,A*%
%TO.N,Net-(D11-Pad1)*%
X81485000Y-39750000D03*
%TD*%
D13*
%TO.P,R7,1*%
%TO.N,+9V*%
X45000000Y-214000000D03*
%TO.P,R7,2*%
%TO.N,Net-(D7-Pad2)*%
X47000000Y-214000000D03*
%TD*%
D11*
%TO.P,,1*%
%TO.N,N/C*%
X48750000Y-193750000D03*
%TD*%
D12*
%TO.P,C4,1*%
%TO.N,+9V*%
X44925000Y-133000000D03*
%TO.P,C4,2*%
%TO.N,GND*%
X47000000Y-133000000D03*
%TD*%
D10*
%TO.P,D2,1,K*%
%TO.N,Net-(D12-Pad2)*%
X50025000Y-67750000D03*
%TO.P,D2,2,A*%
%TO.N,Net-(D2-Pad2)*%
X47485000Y-67750000D03*
%TD*%
%TO.P,D3,1,K*%
%TO.N,Net-(D13-Pad2)*%
X50025000Y-95750000D03*
%TO.P,D3,2,A*%
%TO.N,Net-(D3-Pad2)*%
X47485000Y-95750000D03*
%TD*%
D13*
%TO.P,R4,1*%
%TO.N,+9V*%
X45000000Y-130000000D03*
%TO.P,R4,2*%
%TO.N,Net-(D4-Pad2)*%
X47000000Y-130000000D03*
%TD*%
D14*
%TO.P,JP2,1,A*%
%TO.N,Net-(D12-Pad2)*%
X65050000Y-60250000D03*
D15*
%TO.P,JP2,2,B*%
%TO.N,Net-(D12-Pad1)*%
X66500000Y-60250000D03*
%TD*%
D10*
%TO.P,D17,1,K*%
%TO.N,Net-(D17-Pad1)*%
X67025000Y-207750000D03*
%TO.P,D17,2,A*%
%TO.N,Net-(D17-Pad2)*%
X64485000Y-207750000D03*
%TD*%
D14*
%TO.P,JP4,1,A*%
%TO.N,Net-(D14-Pad2)*%
X65025000Y-116000000D03*
D15*
%TO.P,JP4,2,B*%
%TO.N,Net-(D14-Pad1)*%
X66475000Y-116000000D03*
%TD*%
D10*
%TO.P,D13,1,K*%
%TO.N,Net-(D13-Pad1)*%
X67025000Y-95750000D03*
%TO.P,D13,2,A*%
%TO.N,Net-(D13-Pad2)*%
X64485000Y-95750000D03*
%TD*%
%TO.P,D1,1,K*%
%TO.N,Net-(D1-Pad1)*%
X50025000Y-39750000D03*
%TO.P,D1,2,A*%
%TO.N,Net-(D1-Pad2)*%
X47485000Y-39750000D03*
%TD*%
%TO.P,D18,1,K*%
%TO.N,Net-(D18-Pad1)*%
X67025000Y-235750000D03*
%TO.P,D18,2,A*%
%TO.N,Net-(D18-Pad2)*%
X64485000Y-235750000D03*
%TD*%
%TO.P,D8,1,K*%
%TO.N,Net-(D18-Pad2)*%
X50025000Y-235750000D03*
%TO.P,D8,2,A*%
%TO.N,Net-(D8-Pad2)*%
X47485000Y-235750000D03*
%TD*%
%TO.P,D24,1,K*%
%TO.N,Net-(D24-Pad1)*%
X84025000Y-123750000D03*
%TO.P,D24,2,A*%
%TO.N,Net-(D14-Pad1)*%
X81485000Y-123750000D03*
%TD*%
D13*
%TO.P,R2,1*%
%TO.N,+9V*%
X45000000Y-74000000D03*
%TO.P,R2,2*%
%TO.N,Net-(D2-Pad2)*%
X47000000Y-74000000D03*
%TD*%
%TO.P,R3,1*%
%TO.N,+9V*%
X45000000Y-102000000D03*
%TO.P,R3,2*%
%TO.N,Net-(D3-Pad2)*%
X47000000Y-102000000D03*
%TD*%
%TO.P,R9,1*%
%TO.N,+9V*%
X45000000Y-270257500D03*
%TO.P,R9,2*%
%TO.N,Net-(D9-Pad2)*%
X47000000Y-270257500D03*
%TD*%
D10*
%TO.P,D30,1,K*%
%TO.N,Net-(D30-Pad1)*%
X84025000Y-291750000D03*
%TO.P,D30,2,A*%
%TO.N,Net-(D20-Pad1)*%
X81485000Y-291750000D03*
%TD*%
%TO.P,D20,1,K*%
%TO.N,Net-(D20-Pad1)*%
X67025000Y-291750000D03*
%TO.P,D20,2,A*%
%TO.N,Net-(D10-Pad1)*%
X64485000Y-291750000D03*
%TD*%
%TO.P,D16,1,K*%
%TO.N,Net-(D16-Pad1)*%
X67025000Y-179750000D03*
%TO.P,D16,2,A*%
%TO.N,Net-(D16-Pad2)*%
X64485000Y-179750000D03*
%TD*%
D18*
%TO.P,J1,1,Pin_1*%
%TO.N,Net-(D21-Pad1)*%
X70830000Y-304250000D03*
D19*
%TO.P,J1,2,Pin_2*%
%TO.N,Net-(D22-Pad1)*%
X70830000Y-306790000D03*
%TO.P,J1,3,Pin_3*%
%TO.N,Net-(D23-Pad1)*%
X68290000Y-304250000D03*
%TO.P,J1,4,Pin_4*%
%TO.N,Net-(D24-Pad1)*%
X68290000Y-306790000D03*
%TO.P,J1,5,Pin_5*%
%TO.N,Net-(D25-Pad1)*%
X65750000Y-304250000D03*
%TO.P,J1,6,Pin_6*%
%TO.N,Net-(D26-Pad1)*%
X65750000Y-306790000D03*
%TO.P,J1,7,Pin_7*%
%TO.N,Net-(D27-Pad1)*%
X63210000Y-304250000D03*
%TO.P,J1,8,Pin_8*%
%TO.N,Net-(D28-Pad1)*%
X63210000Y-306790000D03*
%TO.P,J1,9,Pin_9*%
%TO.N,Net-(D29-Pad1)*%
X60670000Y-304250000D03*
%TO.P,J1,10,Pin_10*%
%TO.N,Net-(D30-Pad1)*%
X60670000Y-306790000D03*
%TD*%
D10*
%TO.P,D11,1,K*%
%TO.N,Net-(D11-Pad1)*%
X67025000Y-39750000D03*
%TO.P,D11,2,A*%
%TO.N,Net-(D1-Pad1)*%
X64485000Y-39750000D03*
%TD*%
D14*
%TO.P,JP10,1,A*%
%TO.N,Net-(D10-Pad1)*%
X65025000Y-284750000D03*
D15*
%TO.P,JP10,2,B*%
%TO.N,Net-(D20-Pad1)*%
X66475000Y-284750000D03*
%TD*%
D14*
%TO.P,JP8,1,A*%
%TO.N,Net-(D18-Pad2)*%
X65000000Y-228000000D03*
D15*
%TO.P,JP8,2,B*%
%TO.N,Net-(D18-Pad1)*%
X66450000Y-228000000D03*
%TD*%
D10*
%TO.P,D28,1,K*%
%TO.N,Net-(D28-Pad1)*%
X84025000Y-235750000D03*
%TO.P,D28,2,A*%
%TO.N,Net-(D18-Pad1)*%
X81485000Y-235750000D03*
%TD*%
D14*
%TO.P,JP7,1,A*%
%TO.N,Net-(D17-Pad2)*%
X65025000Y-201000000D03*
D15*
%TO.P,JP7,2,B*%
%TO.N,Net-(D17-Pad1)*%
X66475000Y-201000000D03*
%TD*%
D11*
%TO.P,REF\u002A\u002A,1*%
%TO.N,N/C*%
X82750000Y-193750000D03*
%TD*%
D10*
%TO.P,D12,1,K*%
%TO.N,Net-(D12-Pad1)*%
X67025000Y-67750000D03*
%TO.P,D12,2,A*%
%TO.N,Net-(D12-Pad2)*%
X64485000Y-67750000D03*
%TD*%
D12*
%TO.P,C5,1*%
%TO.N,+9V*%
X45000000Y-161000000D03*
%TO.P,C5,2*%
%TO.N,GND*%
X47075000Y-161000000D03*
%TD*%
D14*
%TO.P,JP1,1,A*%
%TO.N,Net-(D1-Pad1)*%
X65000000Y-32250000D03*
D15*
%TO.P,JP1,2,B*%
%TO.N,Net-(D11-Pad1)*%
X66450000Y-32250000D03*
%TD*%
D10*
%TO.P,D22,1,K*%
%TO.N,Net-(D22-Pad1)*%
X84025000Y-67750000D03*
%TO.P,D22,2,A*%
%TO.N,Net-(D12-Pad1)*%
X81485000Y-67750000D03*
%TD*%
D12*
%TO.P,C2,1*%
%TO.N,+9V*%
X45000000Y-77000000D03*
%TO.P,C2,2*%
%TO.N,GND*%
X47075000Y-77000000D03*
%TD*%
D10*
%TO.P,D6,1,K*%
%TO.N,Net-(D16-Pad2)*%
X50025000Y-179750000D03*
%TO.P,D6,2,A*%
%TO.N,Net-(D6-Pad2)*%
X47485000Y-179750000D03*
%TD*%
D11*
%TO.P,,1*%
%TO.N,N/C*%
X48750000Y-109750000D03*
%TD*%
D12*
%TO.P,C6,1*%
%TO.N,+9V*%
X44962500Y-189000000D03*
%TO.P,C6,2*%
%TO.N,GND*%
X47037500Y-189000000D03*
%TD*%
D13*
%TO.P,R5,1*%
%TO.N,+9V*%
X45000000Y-158000000D03*
%TO.P,R5,2*%
%TO.N,Net-(D5-Pad2)*%
X47000000Y-158000000D03*
%TD*%
D11*
%TO.P,,1*%
%TO.N,N/C*%
X48750000Y-81750000D03*
%TD*%
D14*
%TO.P,JP9,1,A*%
%TO.N,Net-(D19-Pad2)*%
X65025000Y-256500000D03*
D15*
%TO.P,JP9,2,B*%
%TO.N,Net-(D19-Pad1)*%
X66475000Y-256500000D03*
%TD*%
D12*
%TO.P,C8,1*%
%TO.N,+9V*%
X44962500Y-245000000D03*
%TO.P,C8,2*%
%TO.N,GND*%
X47037500Y-245000000D03*
%TD*%
%TO.P,C1,1*%
%TO.N,+9V*%
X45000000Y-49000000D03*
%TO.P,C1,2*%
%TO.N,GND*%
X47075000Y-49000000D03*
%TD*%
D11*
%TO.P,,1*%
%TO.N,N/C*%
X48750000Y-165750000D03*
%TD*%
D12*
%TO.P,C3,1*%
%TO.N,+9V*%
X45000000Y-105000000D03*
%TO.P,C3,2*%
%TO.N,GND*%
X47075000Y-105000000D03*
%TD*%
%TO.P,C10,1*%
%TO.N,+9V*%
X44962500Y-301000000D03*
%TO.P,C10,2*%
%TO.N,GND*%
X47037500Y-301000000D03*
%TD*%
D20*
%TO.N,GND*%
X48750000Y-189000000D03*
X49000000Y-161000000D03*
X48500000Y-273250000D03*
X49000000Y-77000000D03*
X48750000Y-105000000D03*
X48750000Y-217000000D03*
X48500000Y-301000000D03*
X48750000Y-245000000D03*
X48750000Y-133000000D03*
X49250000Y-49000000D03*
%TD*%
D21*
%TO.N,GND*%
X47037500Y-245000000D02*
X48750000Y-245000000D01*
X47075000Y-105000000D02*
X48750000Y-105000000D01*
X47075000Y-161000000D02*
X49000000Y-161000000D01*
X47075000Y-77000000D02*
X49000000Y-77000000D01*
X48492500Y-273257500D02*
X48500000Y-273250000D01*
X47037500Y-301000000D02*
X48500000Y-301000000D01*
X47037500Y-273257500D02*
X48492500Y-273257500D01*
X47075000Y-49000000D02*
X49250000Y-49000000D01*
X47037500Y-217000000D02*
X48750000Y-217000000D01*
X47000000Y-133000000D02*
X48750000Y-133000000D01*
X47037500Y-189000000D02*
X48750000Y-189000000D01*
%TO.N,Net-(D1-Pad1)*%
X50025000Y-39750000D02*
X64485000Y-39750000D01*
X64485000Y-39750000D02*
X64485000Y-32765000D01*
X64485000Y-32765000D02*
X65000000Y-32250000D01*
%TO.N,Net-(D1-Pad2)*%
X47000000Y-46000000D02*
X47485000Y-45515000D01*
X47485000Y-45515000D02*
X47485000Y-39750000D01*
%TO.N,Net-(D12-Pad2)*%
X50025000Y-67750000D02*
X64485000Y-67750000D01*
X64485000Y-60815000D02*
X65050000Y-60250000D01*
X64485000Y-67750000D02*
X64485000Y-60815000D01*
%TO.N,Net-(D2-Pad2)*%
X47000000Y-74000000D02*
X47485000Y-73515000D01*
X47485000Y-73515000D02*
X47485000Y-67750000D01*
%TO.N,Net-(D13-Pad2)*%
X50025000Y-95750000D02*
X64485000Y-95750000D01*
X64485000Y-88815000D02*
X65300000Y-88000000D01*
X64485000Y-95750000D02*
X64485000Y-88815000D01*
%TO.N,Net-(D3-Pad2)*%
X47000000Y-102000000D02*
X47485000Y-101515000D01*
X47485000Y-101515000D02*
X47485000Y-95750000D01*
%TO.N,Net-(D14-Pad2)*%
X50025000Y-123750000D02*
X64485000Y-123750000D01*
X64485000Y-123750000D02*
X64485000Y-116540000D01*
X64485000Y-116540000D02*
X65025000Y-116000000D01*
%TO.N,Net-(D4-Pad2)*%
X47485000Y-129515000D02*
X47485000Y-123750000D01*
X47000000Y-130000000D02*
X47485000Y-129515000D01*
%TO.N,Net-(D15-Pad2)*%
X50025000Y-151750000D02*
X64485000Y-151750000D01*
X64485000Y-151750000D02*
X64485000Y-145015000D01*
X64485000Y-145015000D02*
X65250000Y-144250000D01*
%TO.N,Net-(D5-Pad2)*%
X47485000Y-157515000D02*
X47485000Y-151750000D01*
X47000000Y-158000000D02*
X47485000Y-157515000D01*
%TO.N,Net-(D16-Pad2)*%
X50025000Y-179750000D02*
X64485000Y-179750000D01*
X64485000Y-173290000D02*
X65275000Y-172500000D01*
X64485000Y-179750000D02*
X64485000Y-173290000D01*
%TO.N,Net-(D6-Pad2)*%
X47485000Y-185515000D02*
X47485000Y-179750000D01*
X47000000Y-186000000D02*
X47485000Y-185515000D01*
%TO.N,Net-(D17-Pad2)*%
X64485000Y-207750000D02*
X64485000Y-201540000D01*
X64485000Y-201540000D02*
X65025000Y-201000000D01*
X50025000Y-207750000D02*
X64485000Y-207750000D01*
%TO.N,Net-(D7-Pad2)*%
X47485000Y-213515000D02*
X47485000Y-207750000D01*
X47000000Y-214000000D02*
X47485000Y-213515000D01*
%TO.N,Net-(D18-Pad2)*%
X50025000Y-235750000D02*
X64485000Y-235750000D01*
X64485000Y-228515000D02*
X65000000Y-228000000D01*
X64485000Y-235750000D02*
X64485000Y-228515000D01*
%TO.N,Net-(D8-Pad2)*%
X47000000Y-242000000D02*
X47485000Y-241515000D01*
X47485000Y-241515000D02*
X47485000Y-235750000D01*
%TO.N,Net-(D19-Pad2)*%
X64485000Y-257040000D02*
X65025000Y-256500000D01*
X50025000Y-263750000D02*
X64485000Y-263750000D01*
X64485000Y-263750000D02*
X64485000Y-257040000D01*
%TO.N,Net-(D9-Pad2)*%
X47000000Y-270257500D02*
X47485000Y-269772500D01*
X47485000Y-269772500D02*
X47485000Y-263750000D01*
%TO.N,Net-(D10-Pad1)*%
X64485000Y-285290000D02*
X65025000Y-284750000D01*
X64485000Y-291750000D02*
X64485000Y-285290000D01*
X50025000Y-291750000D02*
X64485000Y-291750000D01*
%TO.N,Net-(D10-Pad2)*%
X47000000Y-298000000D02*
X47485000Y-297515000D01*
X47485000Y-297515000D02*
X47485000Y-291750000D01*
%TO.N,Net-(D11-Pad1)*%
X67025000Y-39750000D02*
X67025000Y-32825000D01*
X67025000Y-39750000D02*
X81485000Y-39750000D01*
X67025000Y-32825000D02*
X66450000Y-32250000D01*
%TO.N,Net-(D12-Pad1)*%
X67025000Y-67750000D02*
X67025000Y-60775000D01*
X67025000Y-60775000D02*
X66500000Y-60250000D01*
X67025000Y-67750000D02*
X81485000Y-67750000D01*
%TO.N,Net-(D13-Pad1)*%
X67025000Y-95750000D02*
X81485000Y-95750000D01*
X67025000Y-88275000D02*
X66750000Y-88000000D01*
X67025000Y-95750000D02*
X67025000Y-88275000D01*
%TO.N,Net-(D14-Pad1)*%
X67025000Y-116550000D02*
X66475000Y-116000000D01*
X67025000Y-123750000D02*
X81485000Y-123750000D01*
X67025000Y-123750000D02*
X67025000Y-116550000D01*
%TO.N,Net-(D15-Pad1)*%
X67025000Y-151750000D02*
X67025000Y-144575000D01*
X67025000Y-151750000D02*
X81485000Y-151750000D01*
X67025000Y-144575000D02*
X66700000Y-144250000D01*
%TO.N,Net-(D16-Pad1)*%
X67025000Y-179750000D02*
X67025000Y-172800000D01*
X67025000Y-179750000D02*
X81485000Y-179750000D01*
X67025000Y-172800000D02*
X66725000Y-172500000D01*
%TO.N,Net-(D17-Pad1)*%
X67025000Y-201550000D02*
X66475000Y-201000000D01*
X67025000Y-207750000D02*
X67025000Y-201550000D01*
X67025000Y-207750000D02*
X81485000Y-207750000D01*
%TO.N,Net-(D18-Pad1)*%
X67025000Y-235750000D02*
X81485000Y-235750000D01*
X67025000Y-235750000D02*
X67025000Y-228575000D01*
X67025000Y-228575000D02*
X66450000Y-228000000D01*
%TO.N,Net-(D19-Pad1)*%
X67025000Y-263750000D02*
X67025000Y-257050000D01*
X67025000Y-263750000D02*
X81485000Y-263750000D01*
X67025000Y-257050000D02*
X66475000Y-256500000D01*
%TO.N,Net-(D20-Pad1)*%
X67025000Y-291750000D02*
X81485000Y-291750000D01*
X67025000Y-285300000D02*
X66475000Y-284750000D01*
X67025000Y-291750000D02*
X67025000Y-285300000D01*
%TD*%
%TA.AperFunction,Conductor*%
%TO.N,+9V*%
G36*
X45792121Y-29278002D02*
G01*
X45838614Y-29331658D01*
X45850000Y-29384000D01*
X45850000Y-44744255D01*
X45829998Y-44812376D01*
X45776342Y-44858869D01*
X45706068Y-44868973D01*
X45670748Y-44858449D01*
X45665576Y-44856037D01*
X45511290Y-44804862D01*
X45497914Y-44801995D01*
X45403562Y-44792328D01*
X45397145Y-44792000D01*
X45272115Y-44792000D01*
X45256876Y-44796475D01*
X45255671Y-44797865D01*
X45254000Y-44805548D01*
X45254000Y-47189884D01*
X45258475Y-47205123D01*
X45259865Y-47206328D01*
X45267548Y-47207999D01*
X45397095Y-47207999D01*
X45403614Y-47207662D01*
X45499206Y-47197743D01*
X45512600Y-47194851D01*
X45666788Y-47143411D01*
X45670551Y-47141648D01*
X45673370Y-47141215D01*
X45673732Y-47141094D01*
X45673753Y-47141156D01*
X45740723Y-47130865D01*
X45805587Y-47159731D01*
X45844547Y-47219083D01*
X45850000Y-47255750D01*
X45850000Y-47725084D01*
X45829998Y-47793205D01*
X45776342Y-47839698D01*
X45706068Y-47849802D01*
X45670748Y-47839278D01*
X45653076Y-47831037D01*
X45498790Y-47779862D01*
X45485414Y-47776995D01*
X45391062Y-47767328D01*
X45384645Y-47767000D01*
X45272115Y-47767000D01*
X45256876Y-47771475D01*
X45255671Y-47772865D01*
X45254000Y-47780548D01*
X45254000Y-50214884D01*
X45258475Y-50230123D01*
X45259865Y-50231328D01*
X45267548Y-50232999D01*
X45384595Y-50232999D01*
X45391114Y-50232662D01*
X45486706Y-50222743D01*
X45500100Y-50219851D01*
X45654284Y-50168412D01*
X45670548Y-50160793D01*
X45740721Y-50150008D01*
X45805585Y-50178874D01*
X45844546Y-50238225D01*
X45850000Y-50274894D01*
X45850000Y-52125424D01*
X45835148Y-52184771D01*
X45748682Y-52346707D01*
X45748678Y-52346716D01*
X45747077Y-52349714D01*
X45745808Y-52352871D01*
X45745806Y-52352875D01*
X45680244Y-52515966D01*
X45613411Y-52682218D01*
X45612491Y-52685492D01*
X45612489Y-52685497D01*
X45610332Y-52693173D01*
X45516437Y-53027213D01*
X45457290Y-53380663D01*
X45436661Y-53738434D01*
X45454792Y-54096340D01*
X45511470Y-54450195D01*
X45606033Y-54795859D01*
X45737374Y-55129288D01*
X45738957Y-55132303D01*
X45835560Y-55316305D01*
X45850000Y-55374875D01*
X45850000Y-72744255D01*
X45829998Y-72812376D01*
X45776342Y-72858869D01*
X45706068Y-72868973D01*
X45670748Y-72858449D01*
X45665576Y-72856037D01*
X45511290Y-72804862D01*
X45497914Y-72801995D01*
X45403562Y-72792328D01*
X45397145Y-72792000D01*
X45272115Y-72792000D01*
X45256876Y-72796475D01*
X45255671Y-72797865D01*
X45254000Y-72805548D01*
X45254000Y-75189884D01*
X45258475Y-75205123D01*
X45259865Y-75206328D01*
X45267548Y-75207999D01*
X45397095Y-75207999D01*
X45403614Y-75207662D01*
X45499206Y-75197743D01*
X45512600Y-75194851D01*
X45666788Y-75143411D01*
X45670551Y-75141648D01*
X45673370Y-75141215D01*
X45673732Y-75141094D01*
X45673753Y-75141156D01*
X45740723Y-75130865D01*
X45805587Y-75159731D01*
X45844547Y-75219083D01*
X45850000Y-75255750D01*
X45850000Y-75725084D01*
X45829998Y-75793205D01*
X45776342Y-75839698D01*
X45706068Y-75849802D01*
X45670748Y-75839278D01*
X45653076Y-75831037D01*
X45498790Y-75779862D01*
X45485414Y-75776995D01*
X45391062Y-75767328D01*
X45384645Y-75767000D01*
X45272115Y-75767000D01*
X45256876Y-75771475D01*
X45255671Y-75772865D01*
X45254000Y-75780548D01*
X45254000Y-78214884D01*
X45258475Y-78230123D01*
X45259865Y-78231328D01*
X45267548Y-78232999D01*
X45384595Y-78232999D01*
X45391114Y-78232662D01*
X45486706Y-78222743D01*
X45500100Y-78219851D01*
X45654284Y-78168412D01*
X45670548Y-78160793D01*
X45740721Y-78150008D01*
X45805585Y-78178874D01*
X45844546Y-78238225D01*
X45850000Y-78274894D01*
X45850000Y-80125424D01*
X45835148Y-80184771D01*
X45748682Y-80346707D01*
X45748678Y-80346716D01*
X45747077Y-80349714D01*
X45745808Y-80352871D01*
X45745806Y-80352875D01*
X45680244Y-80515966D01*
X45613411Y-80682218D01*
X45612491Y-80685492D01*
X45612489Y-80685497D01*
X45610332Y-80693173D01*
X45516437Y-81027213D01*
X45457290Y-81380663D01*
X45436661Y-81738434D01*
X45454792Y-82096340D01*
X45511470Y-82450195D01*
X45606033Y-82795859D01*
X45737374Y-83129288D01*
X45738957Y-83132303D01*
X45835560Y-83316305D01*
X45850000Y-83374875D01*
X45850000Y-100744255D01*
X45829998Y-100812376D01*
X45776342Y-100858869D01*
X45706068Y-100868973D01*
X45670748Y-100858449D01*
X45665576Y-100856037D01*
X45511290Y-100804862D01*
X45497914Y-100801995D01*
X45403562Y-100792328D01*
X45397145Y-100792000D01*
X45272115Y-100792000D01*
X45256876Y-100796475D01*
X45255671Y-100797865D01*
X45254000Y-100805548D01*
X45254000Y-103189884D01*
X45258475Y-103205123D01*
X45259865Y-103206328D01*
X45267548Y-103207999D01*
X45397095Y-103207999D01*
X45403614Y-103207662D01*
X45499206Y-103197743D01*
X45512600Y-103194851D01*
X45666788Y-103143411D01*
X45670551Y-103141648D01*
X45673370Y-103141215D01*
X45673732Y-103141094D01*
X45673753Y-103141156D01*
X45740723Y-103130865D01*
X45805587Y-103159731D01*
X45844547Y-103219083D01*
X45850000Y-103255750D01*
X45850000Y-103725084D01*
X45829998Y-103793205D01*
X45776342Y-103839698D01*
X45706068Y-103849802D01*
X45670748Y-103839278D01*
X45653076Y-103831037D01*
X45498790Y-103779862D01*
X45485414Y-103776995D01*
X45391062Y-103767328D01*
X45384645Y-103767000D01*
X45272115Y-103767000D01*
X45256876Y-103771475D01*
X45255671Y-103772865D01*
X45254000Y-103780548D01*
X45254000Y-106214884D01*
X45258475Y-106230123D01*
X45259865Y-106231328D01*
X45267548Y-106232999D01*
X45384595Y-106232999D01*
X45391114Y-106232662D01*
X45486706Y-106222743D01*
X45500100Y-106219851D01*
X45654284Y-106168412D01*
X45670548Y-106160793D01*
X45740721Y-106150008D01*
X45805585Y-106178874D01*
X45844546Y-106238225D01*
X45850000Y-106274894D01*
X45850000Y-108125424D01*
X45835148Y-108184771D01*
X45748682Y-108346707D01*
X45748678Y-108346716D01*
X45747077Y-108349714D01*
X45745808Y-108352871D01*
X45745806Y-108352875D01*
X45680244Y-108515966D01*
X45613411Y-108682218D01*
X45612491Y-108685492D01*
X45612489Y-108685497D01*
X45610332Y-108693173D01*
X45516437Y-109027213D01*
X45457290Y-109380663D01*
X45436661Y-109738434D01*
X45454792Y-110096340D01*
X45511470Y-110450195D01*
X45606033Y-110795859D01*
X45737374Y-111129288D01*
X45738957Y-111132303D01*
X45835560Y-111316305D01*
X45850000Y-111374875D01*
X45850000Y-128744255D01*
X45829998Y-128812376D01*
X45776342Y-128858869D01*
X45706068Y-128868973D01*
X45670748Y-128858449D01*
X45665576Y-128856037D01*
X45511290Y-128804862D01*
X45497914Y-128801995D01*
X45403562Y-128792328D01*
X45397145Y-128792000D01*
X45272115Y-128792000D01*
X45256876Y-128796475D01*
X45255671Y-128797865D01*
X45254000Y-128805548D01*
X45254000Y-131189884D01*
X45258475Y-131205123D01*
X45259865Y-131206328D01*
X45267548Y-131207999D01*
X45397095Y-131207999D01*
X45403614Y-131207662D01*
X45499206Y-131197743D01*
X45512600Y-131194851D01*
X45666788Y-131143411D01*
X45670551Y-131141648D01*
X45673370Y-131141215D01*
X45673732Y-131141094D01*
X45673753Y-131141156D01*
X45740723Y-131130865D01*
X45805587Y-131159731D01*
X45844547Y-131219083D01*
X45850000Y-131255750D01*
X45850000Y-131770993D01*
X45829998Y-131839114D01*
X45776342Y-131885607D01*
X45706068Y-131895711D01*
X45657884Y-131878253D01*
X45591257Y-131837184D01*
X45578076Y-131831037D01*
X45423790Y-131779862D01*
X45410414Y-131776995D01*
X45316062Y-131767328D01*
X45309645Y-131767000D01*
X45197115Y-131767000D01*
X45181876Y-131771475D01*
X45180671Y-131772865D01*
X45179000Y-131780548D01*
X45179000Y-134214884D01*
X45183475Y-134230123D01*
X45184865Y-134231328D01*
X45192548Y-134232999D01*
X45309595Y-134232999D01*
X45316114Y-134232662D01*
X45411706Y-134222743D01*
X45425100Y-134219851D01*
X45579284Y-134168412D01*
X45592462Y-134162238D01*
X45657697Y-134121870D01*
X45726149Y-134103032D01*
X45793919Y-134124193D01*
X45839490Y-134178634D01*
X45850000Y-134229014D01*
X45850000Y-136125424D01*
X45835148Y-136184771D01*
X45748682Y-136346707D01*
X45748678Y-136346716D01*
X45747077Y-136349714D01*
X45745808Y-136352871D01*
X45745806Y-136352875D01*
X45680244Y-136515966D01*
X45613411Y-136682218D01*
X45612491Y-136685492D01*
X45612489Y-136685497D01*
X45610332Y-136693173D01*
X45516437Y-137027213D01*
X45457290Y-137380663D01*
X45436661Y-137738434D01*
X45454792Y-138096340D01*
X45511470Y-138450195D01*
X45606033Y-138795859D01*
X45737374Y-139129288D01*
X45738957Y-139132303D01*
X45835560Y-139316305D01*
X45850000Y-139374875D01*
X45850000Y-156744255D01*
X45829998Y-156812376D01*
X45776342Y-156858869D01*
X45706068Y-156868973D01*
X45670748Y-156858449D01*
X45665576Y-156856037D01*
X45511290Y-156804862D01*
X45497914Y-156801995D01*
X45403562Y-156792328D01*
X45397145Y-156792000D01*
X45272115Y-156792000D01*
X45256876Y-156796475D01*
X45255671Y-156797865D01*
X45254000Y-156805548D01*
X45254000Y-159189884D01*
X45258475Y-159205123D01*
X45259865Y-159206328D01*
X45267548Y-159207999D01*
X45397095Y-159207999D01*
X45403614Y-159207662D01*
X45499206Y-159197743D01*
X45512600Y-159194851D01*
X45666788Y-159143411D01*
X45670551Y-159141648D01*
X45673370Y-159141215D01*
X45673732Y-159141094D01*
X45673753Y-159141156D01*
X45740723Y-159130865D01*
X45805587Y-159159731D01*
X45844547Y-159219083D01*
X45850000Y-159255750D01*
X45850000Y-159725084D01*
X45829998Y-159793205D01*
X45776342Y-159839698D01*
X45706068Y-159849802D01*
X45670748Y-159839278D01*
X45653076Y-159831037D01*
X45498790Y-159779862D01*
X45485414Y-159776995D01*
X45391062Y-159767328D01*
X45384645Y-159767000D01*
X45272115Y-159767000D01*
X45256876Y-159771475D01*
X45255671Y-159772865D01*
X45254000Y-159780548D01*
X45254000Y-162214884D01*
X45258475Y-162230123D01*
X45259865Y-162231328D01*
X45267548Y-162232999D01*
X45384595Y-162232999D01*
X45391114Y-162232662D01*
X45486706Y-162222743D01*
X45500100Y-162219851D01*
X45654284Y-162168412D01*
X45670548Y-162160793D01*
X45740721Y-162150008D01*
X45805585Y-162178874D01*
X45844546Y-162238225D01*
X45850000Y-162274894D01*
X45850000Y-164125424D01*
X45835148Y-164184771D01*
X45748682Y-164346707D01*
X45748678Y-164346716D01*
X45747077Y-164349714D01*
X45745808Y-164352871D01*
X45745806Y-164352875D01*
X45680244Y-164515966D01*
X45613411Y-164682218D01*
X45612491Y-164685492D01*
X45612489Y-164685497D01*
X45610332Y-164693173D01*
X45516437Y-165027213D01*
X45457290Y-165380663D01*
X45436661Y-165738434D01*
X45454792Y-166096340D01*
X45511470Y-166450195D01*
X45606033Y-166795859D01*
X45737374Y-167129288D01*
X45738957Y-167132303D01*
X45835560Y-167316305D01*
X45850000Y-167374875D01*
X45850000Y-184744255D01*
X45829998Y-184812376D01*
X45776342Y-184858869D01*
X45706068Y-184868973D01*
X45670748Y-184858449D01*
X45665576Y-184856037D01*
X45511290Y-184804862D01*
X45497914Y-184801995D01*
X45403562Y-184792328D01*
X45397145Y-184792000D01*
X45272115Y-184792000D01*
X45256876Y-184796475D01*
X45255671Y-184797865D01*
X45254000Y-184805548D01*
X45254000Y-187189884D01*
X45258475Y-187205123D01*
X45259865Y-187206328D01*
X45267548Y-187207999D01*
X45397095Y-187207999D01*
X45403614Y-187207662D01*
X45499206Y-187197743D01*
X45512600Y-187194851D01*
X45666788Y-187143411D01*
X45670551Y-187141648D01*
X45673370Y-187141215D01*
X45673732Y-187141094D01*
X45673753Y-187141156D01*
X45740723Y-187130865D01*
X45805587Y-187159731D01*
X45844547Y-187219083D01*
X45850000Y-187255750D01*
X45850000Y-187747877D01*
X45829998Y-187815998D01*
X45776342Y-187862491D01*
X45706068Y-187872595D01*
X45657885Y-187855138D01*
X45628755Y-187837183D01*
X45615576Y-187831037D01*
X45461290Y-187779862D01*
X45447914Y-187776995D01*
X45353562Y-187767328D01*
X45347145Y-187767000D01*
X45234615Y-187767000D01*
X45219376Y-187771475D01*
X45218171Y-187772865D01*
X45216500Y-187780548D01*
X45216500Y-190214884D01*
X45220975Y-190230123D01*
X45222365Y-190231328D01*
X45230048Y-190232999D01*
X45347095Y-190232999D01*
X45353614Y-190232662D01*
X45449206Y-190222743D01*
X45462600Y-190219851D01*
X45616784Y-190168412D01*
X45629956Y-190162241D01*
X45657697Y-190145075D01*
X45726150Y-190126238D01*
X45793919Y-190147400D01*
X45839490Y-190201841D01*
X45850000Y-190252220D01*
X45850000Y-192125424D01*
X45835148Y-192184771D01*
X45748682Y-192346707D01*
X45748678Y-192346716D01*
X45747077Y-192349714D01*
X45745808Y-192352871D01*
X45745806Y-192352875D01*
X45680244Y-192515966D01*
X45613411Y-192682218D01*
X45612491Y-192685492D01*
X45612489Y-192685497D01*
X45610332Y-192693173D01*
X45516437Y-193027213D01*
X45457290Y-193380663D01*
X45436661Y-193738434D01*
X45454792Y-194096340D01*
X45511470Y-194450195D01*
X45606033Y-194795859D01*
X45737374Y-195129288D01*
X45738957Y-195132303D01*
X45835560Y-195316305D01*
X45850000Y-195374875D01*
X45850000Y-212744255D01*
X45829998Y-212812376D01*
X45776342Y-212858869D01*
X45706068Y-212868973D01*
X45670748Y-212858449D01*
X45665576Y-212856037D01*
X45511290Y-212804862D01*
X45497914Y-212801995D01*
X45403562Y-212792328D01*
X45397145Y-212792000D01*
X45272115Y-212792000D01*
X45256876Y-212796475D01*
X45255671Y-212797865D01*
X45254000Y-212805548D01*
X45254000Y-215189884D01*
X45258475Y-215205123D01*
X45259865Y-215206328D01*
X45267548Y-215207999D01*
X45397095Y-215207999D01*
X45403614Y-215207662D01*
X45499206Y-215197743D01*
X45512600Y-215194851D01*
X45666788Y-215143411D01*
X45670551Y-215141648D01*
X45673370Y-215141215D01*
X45673732Y-215141094D01*
X45673753Y-215141156D01*
X45740723Y-215130865D01*
X45805587Y-215159731D01*
X45844547Y-215219083D01*
X45850000Y-215255750D01*
X45850000Y-215747877D01*
X45829998Y-215815998D01*
X45776342Y-215862491D01*
X45706068Y-215872595D01*
X45657885Y-215855138D01*
X45628755Y-215837183D01*
X45615576Y-215831037D01*
X45461290Y-215779862D01*
X45447914Y-215776995D01*
X45353562Y-215767328D01*
X45347145Y-215767000D01*
X45234615Y-215767000D01*
X45219376Y-215771475D01*
X45218171Y-215772865D01*
X45216500Y-215780548D01*
X45216500Y-218214884D01*
X45220975Y-218230123D01*
X45222365Y-218231328D01*
X45230048Y-218232999D01*
X45347095Y-218232999D01*
X45353614Y-218232662D01*
X45449206Y-218222743D01*
X45462600Y-218219851D01*
X45616784Y-218168412D01*
X45629956Y-218162241D01*
X45657697Y-218145075D01*
X45726150Y-218126238D01*
X45793919Y-218147400D01*
X45839490Y-218201841D01*
X45850000Y-218252220D01*
X45850000Y-220125424D01*
X45835148Y-220184771D01*
X45748682Y-220346707D01*
X45748678Y-220346716D01*
X45747077Y-220349714D01*
X45745808Y-220352871D01*
X45745806Y-220352875D01*
X45680244Y-220515966D01*
X45613411Y-220682218D01*
X45612491Y-220685492D01*
X45612489Y-220685497D01*
X45610332Y-220693173D01*
X45516437Y-221027213D01*
X45457290Y-221380663D01*
X45436661Y-221738434D01*
X45454792Y-222096340D01*
X45511470Y-222450195D01*
X45606033Y-222795859D01*
X45737374Y-223129288D01*
X45738957Y-223132303D01*
X45835560Y-223316305D01*
X45850000Y-223374875D01*
X45850000Y-240744255D01*
X45829998Y-240812376D01*
X45776342Y-240858869D01*
X45706068Y-240868973D01*
X45670748Y-240858449D01*
X45665576Y-240856037D01*
X45511290Y-240804862D01*
X45497914Y-240801995D01*
X45403562Y-240792328D01*
X45397145Y-240792000D01*
X45272115Y-240792000D01*
X45256876Y-240796475D01*
X45255671Y-240797865D01*
X45254000Y-240805548D01*
X45254000Y-243189884D01*
X45258475Y-243205123D01*
X45259865Y-243206328D01*
X45267548Y-243207999D01*
X45397095Y-243207999D01*
X45403614Y-243207662D01*
X45499206Y-243197743D01*
X45512600Y-243194851D01*
X45666788Y-243143411D01*
X45670551Y-243141648D01*
X45673370Y-243141215D01*
X45673732Y-243141094D01*
X45673753Y-243141156D01*
X45740723Y-243130865D01*
X45805587Y-243159731D01*
X45844547Y-243219083D01*
X45850000Y-243255750D01*
X45850000Y-243747877D01*
X45829998Y-243815998D01*
X45776342Y-243862491D01*
X45706068Y-243872595D01*
X45657885Y-243855138D01*
X45628755Y-243837183D01*
X45615576Y-243831037D01*
X45461290Y-243779862D01*
X45447914Y-243776995D01*
X45353562Y-243767328D01*
X45347145Y-243767000D01*
X45234615Y-243767000D01*
X45219376Y-243771475D01*
X45218171Y-243772865D01*
X45216500Y-243780548D01*
X45216500Y-246214884D01*
X45220975Y-246230123D01*
X45222365Y-246231328D01*
X45230048Y-246232999D01*
X45347095Y-246232999D01*
X45353614Y-246232662D01*
X45449206Y-246222743D01*
X45462600Y-246219851D01*
X45616784Y-246168412D01*
X45629956Y-246162241D01*
X45657697Y-246145075D01*
X45726150Y-246126238D01*
X45793919Y-246147400D01*
X45839490Y-246201841D01*
X45850000Y-246252220D01*
X45850000Y-248125424D01*
X45835148Y-248184771D01*
X45748682Y-248346707D01*
X45748678Y-248346716D01*
X45747077Y-248349714D01*
X45745808Y-248352871D01*
X45745806Y-248352875D01*
X45680244Y-248515966D01*
X45613411Y-248682218D01*
X45612491Y-248685492D01*
X45612489Y-248685497D01*
X45610332Y-248693173D01*
X45516437Y-249027213D01*
X45457290Y-249380663D01*
X45436661Y-249738434D01*
X45454792Y-250096340D01*
X45511470Y-250450195D01*
X45606033Y-250795859D01*
X45737374Y-251129288D01*
X45738957Y-251132303D01*
X45835560Y-251316305D01*
X45850000Y-251374875D01*
X45850000Y-269001755D01*
X45829998Y-269069876D01*
X45776342Y-269116369D01*
X45706068Y-269126473D01*
X45670748Y-269115949D01*
X45665576Y-269113537D01*
X45511290Y-269062362D01*
X45497914Y-269059495D01*
X45403562Y-269049828D01*
X45397145Y-269049500D01*
X45272115Y-269049500D01*
X45256876Y-269053975D01*
X45255671Y-269055365D01*
X45254000Y-269063048D01*
X45254000Y-271447384D01*
X45258475Y-271462623D01*
X45259865Y-271463828D01*
X45267548Y-271465499D01*
X45397095Y-271465499D01*
X45403614Y-271465162D01*
X45499206Y-271455243D01*
X45512600Y-271452351D01*
X45666788Y-271400911D01*
X45670551Y-271399148D01*
X45673370Y-271398715D01*
X45673732Y-271398594D01*
X45673753Y-271398656D01*
X45740723Y-271388365D01*
X45805587Y-271417231D01*
X45844547Y-271476583D01*
X45850000Y-271513250D01*
X45850000Y-272005377D01*
X45829998Y-272073498D01*
X45776342Y-272119991D01*
X45706068Y-272130095D01*
X45657885Y-272112638D01*
X45628755Y-272094683D01*
X45615576Y-272088537D01*
X45461290Y-272037362D01*
X45447914Y-272034495D01*
X45353562Y-272024828D01*
X45347145Y-272024500D01*
X45234615Y-272024500D01*
X45219376Y-272028975D01*
X45218171Y-272030365D01*
X45216500Y-272038048D01*
X45216500Y-274472384D01*
X45220975Y-274487623D01*
X45222365Y-274488828D01*
X45230048Y-274490499D01*
X45347095Y-274490499D01*
X45353614Y-274490162D01*
X45449206Y-274480243D01*
X45462600Y-274477351D01*
X45616784Y-274425912D01*
X45629956Y-274419741D01*
X45657697Y-274402575D01*
X45726150Y-274383738D01*
X45793919Y-274404900D01*
X45839490Y-274459341D01*
X45850000Y-274509720D01*
X45850000Y-276125424D01*
X45835148Y-276184771D01*
X45748682Y-276346707D01*
X45748678Y-276346716D01*
X45747077Y-276349714D01*
X45745808Y-276352871D01*
X45745806Y-276352875D01*
X45680244Y-276515966D01*
X45613411Y-276682218D01*
X45612491Y-276685492D01*
X45612489Y-276685497D01*
X45610332Y-276693173D01*
X45516437Y-277027213D01*
X45457290Y-277380663D01*
X45436661Y-277738434D01*
X45454792Y-278096340D01*
X45511470Y-278450195D01*
X45606033Y-278795859D01*
X45737374Y-279129288D01*
X45738957Y-279132303D01*
X45835560Y-279316305D01*
X45850000Y-279374875D01*
X45850000Y-296744255D01*
X45829998Y-296812376D01*
X45776342Y-296858869D01*
X45706068Y-296868973D01*
X45670748Y-296858449D01*
X45665576Y-296856037D01*
X45511290Y-296804862D01*
X45497914Y-296801995D01*
X45403562Y-296792328D01*
X45397145Y-296792000D01*
X45272115Y-296792000D01*
X45256876Y-296796475D01*
X45255671Y-296797865D01*
X45254000Y-296805548D01*
X45254000Y-299189884D01*
X45258475Y-299205123D01*
X45259865Y-299206328D01*
X45267548Y-299207999D01*
X45397095Y-299207999D01*
X45403614Y-299207662D01*
X45499206Y-299197743D01*
X45512600Y-299194851D01*
X45666788Y-299143411D01*
X45670551Y-299141648D01*
X45673370Y-299141215D01*
X45673732Y-299141094D01*
X45673753Y-299141156D01*
X45740723Y-299130865D01*
X45805587Y-299159731D01*
X45844547Y-299219083D01*
X45850000Y-299255750D01*
X45850000Y-299747877D01*
X45829998Y-299815998D01*
X45776342Y-299862491D01*
X45706068Y-299872595D01*
X45657885Y-299855138D01*
X45628755Y-299837183D01*
X45615576Y-299831037D01*
X45461290Y-299779862D01*
X45447914Y-299776995D01*
X45353562Y-299767328D01*
X45347145Y-299767000D01*
X45234615Y-299767000D01*
X45219376Y-299771475D01*
X45218171Y-299772865D01*
X45216500Y-299780548D01*
X45216500Y-302214884D01*
X45220975Y-302230123D01*
X45222365Y-302231328D01*
X45230048Y-302232999D01*
X45347095Y-302232999D01*
X45353614Y-302232662D01*
X45449206Y-302222743D01*
X45462600Y-302219851D01*
X45616784Y-302168412D01*
X45629956Y-302162241D01*
X45657697Y-302145075D01*
X45726150Y-302126238D01*
X45793919Y-302147400D01*
X45839490Y-302201841D01*
X45850000Y-302252220D01*
X45850000Y-304125424D01*
X45835148Y-304184771D01*
X45748682Y-304346707D01*
X45748678Y-304346716D01*
X45747077Y-304349714D01*
X45745808Y-304352871D01*
X45745806Y-304352875D01*
X45680244Y-304515966D01*
X45613411Y-304682218D01*
X45612491Y-304685492D01*
X45612489Y-304685497D01*
X45610332Y-304693173D01*
X45516437Y-305027213D01*
X45457290Y-305380663D01*
X45436661Y-305738434D01*
X45454792Y-306096340D01*
X45511470Y-306450195D01*
X45606033Y-306795859D01*
X45737374Y-307129288D01*
X45738957Y-307132303D01*
X45835560Y-307316305D01*
X45850000Y-307374875D01*
X45850000Y-313116000D01*
X45829998Y-313184121D01*
X45776342Y-313230614D01*
X45724000Y-313242000D01*
X36384000Y-313242000D01*
X36315879Y-313221998D01*
X36269386Y-313168342D01*
X36258000Y-313116000D01*
X36258000Y-311747095D01*
X37392001Y-311747095D01*
X37392338Y-311753614D01*
X37402257Y-311849206D01*
X37405149Y-311862600D01*
X37456588Y-312016784D01*
X37462761Y-312029962D01*
X37548063Y-312167807D01*
X37557099Y-312179208D01*
X37671829Y-312293739D01*
X37683240Y-312302751D01*
X37821243Y-312387816D01*
X37834424Y-312393963D01*
X37988710Y-312445138D01*
X38002086Y-312448005D01*
X38096438Y-312457672D01*
X38102854Y-312458000D01*
X38477885Y-312458000D01*
X38493124Y-312453525D01*
X38494329Y-312452135D01*
X38496000Y-312444452D01*
X38496000Y-312439884D01*
X39004000Y-312439884D01*
X39008475Y-312455123D01*
X39009865Y-312456328D01*
X39017548Y-312457999D01*
X39397095Y-312457999D01*
X39403614Y-312457662D01*
X39499206Y-312447743D01*
X39512600Y-312444851D01*
X39666784Y-312393412D01*
X39679962Y-312387239D01*
X39817807Y-312301937D01*
X39829208Y-312292901D01*
X39943739Y-312178171D01*
X39952753Y-312166757D01*
X40038723Y-312027287D01*
X40091495Y-311979793D01*
X40161566Y-311968369D01*
X40226690Y-311996643D01*
X40237149Y-312006426D01*
X40346576Y-312121135D01*
X40531542Y-312258754D01*
X40536293Y-312261170D01*
X40536297Y-312261172D01*
X40598704Y-312292901D01*
X40737051Y-312363240D01*
X40742145Y-312364822D01*
X40742148Y-312364823D01*
X40942020Y-312426885D01*
X40957227Y-312431607D01*
X40962516Y-312432308D01*
X41180489Y-312461198D01*
X41180494Y-312461198D01*
X41185774Y-312461898D01*
X41191103Y-312461698D01*
X41191105Y-312461698D01*
X41300966Y-312457573D01*
X41416158Y-312453249D01*
X41421468Y-312452135D01*
X41636572Y-312407002D01*
X41641791Y-312405907D01*
X41646750Y-312403949D01*
X41646752Y-312403948D01*
X41851256Y-312323185D01*
X41851258Y-312323184D01*
X41856221Y-312321224D01*
X41955184Y-312261172D01*
X42048757Y-312204390D01*
X42048756Y-312204390D01*
X42053317Y-312201623D01*
X42093497Y-312166757D01*
X42223412Y-312054023D01*
X42223414Y-312054021D01*
X42227445Y-312050523D01*
X42294807Y-311968369D01*
X42370240Y-311876373D01*
X42370244Y-311876367D01*
X42373624Y-311872245D01*
X42379115Y-311862600D01*
X42485032Y-311676529D01*
X42487675Y-311671886D01*
X42566337Y-311455175D01*
X42589023Y-311329720D01*
X42606623Y-311232392D01*
X42606624Y-311232385D01*
X42607361Y-311228308D01*
X42608500Y-311204156D01*
X42608500Y-310742110D01*
X42593920Y-310570280D01*
X42592582Y-310565125D01*
X42592581Y-310565119D01*
X42537343Y-310352297D01*
X42537342Y-310352293D01*
X42536001Y-310347128D01*
X42441312Y-310136925D01*
X42312559Y-309945681D01*
X42153424Y-309778865D01*
X41968458Y-309641246D01*
X41963707Y-309638830D01*
X41963703Y-309638828D01*
X41841731Y-309576815D01*
X41762949Y-309536760D01*
X41757855Y-309535178D01*
X41757852Y-309535177D01*
X41547871Y-309469976D01*
X41542773Y-309468393D01*
X41537484Y-309467692D01*
X41319511Y-309438802D01*
X41319506Y-309438802D01*
X41314226Y-309438102D01*
X41308897Y-309438302D01*
X41308895Y-309438302D01*
X41210368Y-309442001D01*
X41083842Y-309446751D01*
X41078623Y-309447846D01*
X41058849Y-309451995D01*
X40858209Y-309494093D01*
X40853250Y-309496051D01*
X40853248Y-309496052D01*
X40648744Y-309576815D01*
X40648742Y-309576816D01*
X40643779Y-309578776D01*
X40639220Y-309581543D01*
X40639217Y-309581544D01*
X40540832Y-309641246D01*
X40446683Y-309698377D01*
X40442653Y-309701874D01*
X40349484Y-309782722D01*
X40272555Y-309849477D01*
X40269168Y-309853608D01*
X40242994Y-309885529D01*
X40184334Y-309925524D01*
X40113364Y-309927455D01*
X40052616Y-309890710D01*
X40038416Y-309871941D01*
X39951937Y-309732193D01*
X39942901Y-309720792D01*
X39828171Y-309606261D01*
X39816760Y-309597249D01*
X39678757Y-309512184D01*
X39665576Y-309506037D01*
X39511290Y-309454862D01*
X39497914Y-309451995D01*
X39403562Y-309442328D01*
X39397145Y-309442000D01*
X39022115Y-309442000D01*
X39006876Y-309446475D01*
X39005671Y-309447865D01*
X39004000Y-309455548D01*
X39004000Y-312439884D01*
X38496000Y-312439884D01*
X38496000Y-311222115D01*
X38491525Y-311206876D01*
X38490135Y-311205671D01*
X38482452Y-311204000D01*
X37410116Y-311204000D01*
X37394877Y-311208475D01*
X37393672Y-311209865D01*
X37392001Y-311217548D01*
X37392001Y-311747095D01*
X36258000Y-311747095D01*
X36258000Y-310677885D01*
X37392000Y-310677885D01*
X37396475Y-310693124D01*
X37397865Y-310694329D01*
X37405548Y-310696000D01*
X38477885Y-310696000D01*
X38493124Y-310691525D01*
X38494329Y-310690135D01*
X38496000Y-310682452D01*
X38496000Y-309460116D01*
X38491525Y-309444877D01*
X38490135Y-309443672D01*
X38482452Y-309442001D01*
X38102905Y-309442001D01*
X38096386Y-309442338D01*
X38000794Y-309452257D01*
X37987400Y-309455149D01*
X37833216Y-309506588D01*
X37820038Y-309512761D01*
X37682193Y-309598063D01*
X37670792Y-309607099D01*
X37556261Y-309721829D01*
X37547249Y-309733240D01*
X37462184Y-309871243D01*
X37456037Y-309884424D01*
X37404862Y-310038710D01*
X37401995Y-310052086D01*
X37392328Y-310146438D01*
X37392000Y-310152855D01*
X37392000Y-310677885D01*
X36258000Y-310677885D01*
X36258000Y-301522095D01*
X43867001Y-301522095D01*
X43867338Y-301528614D01*
X43877257Y-301624206D01*
X43880149Y-301637600D01*
X43931588Y-301791784D01*
X43937761Y-301804962D01*
X44023063Y-301942807D01*
X44032099Y-301954208D01*
X44146829Y-302068739D01*
X44158240Y-302077751D01*
X44296243Y-302162816D01*
X44309424Y-302168963D01*
X44463710Y-302220138D01*
X44477086Y-302223005D01*
X44571438Y-302232672D01*
X44577854Y-302233000D01*
X44690385Y-302233000D01*
X44705624Y-302228525D01*
X44706829Y-302227135D01*
X44708500Y-302219452D01*
X44708500Y-301272115D01*
X44704025Y-301256876D01*
X44702635Y-301255671D01*
X44694952Y-301254000D01*
X43885116Y-301254000D01*
X43869877Y-301258475D01*
X43868672Y-301259865D01*
X43867001Y-301267548D01*
X43867001Y-301522095D01*
X36258000Y-301522095D01*
X36258000Y-300727885D01*
X43867000Y-300727885D01*
X43871475Y-300743124D01*
X43872865Y-300744329D01*
X43880548Y-300746000D01*
X44690385Y-300746000D01*
X44705624Y-300741525D01*
X44706829Y-300740135D01*
X44708500Y-300732452D01*
X44708500Y-299785116D01*
X44704025Y-299769877D01*
X44702635Y-299768672D01*
X44694952Y-299767001D01*
X44577905Y-299767001D01*
X44571386Y-299767338D01*
X44475794Y-299777257D01*
X44462400Y-299780149D01*
X44308216Y-299831588D01*
X44295038Y-299837761D01*
X44157193Y-299923063D01*
X44145792Y-299932099D01*
X44031261Y-300046829D01*
X44022249Y-300058240D01*
X43937184Y-300196243D01*
X43931037Y-300209424D01*
X43879862Y-300363710D01*
X43876995Y-300377086D01*
X43867328Y-300471438D01*
X43867000Y-300477855D01*
X43867000Y-300727885D01*
X36258000Y-300727885D01*
X36258000Y-298497095D01*
X43892001Y-298497095D01*
X43892338Y-298503614D01*
X43902257Y-298599206D01*
X43905149Y-298612600D01*
X43956588Y-298766784D01*
X43962761Y-298779962D01*
X44048063Y-298917807D01*
X44057099Y-298929208D01*
X44171829Y-299043739D01*
X44183240Y-299052751D01*
X44321243Y-299137816D01*
X44334424Y-299143963D01*
X44488710Y-299195138D01*
X44502086Y-299198005D01*
X44596438Y-299207672D01*
X44602854Y-299208000D01*
X44727885Y-299208000D01*
X44743124Y-299203525D01*
X44744329Y-299202135D01*
X44746000Y-299194452D01*
X44746000Y-298272115D01*
X44741525Y-298256876D01*
X44740135Y-298255671D01*
X44732452Y-298254000D01*
X43910116Y-298254000D01*
X43894877Y-298258475D01*
X43893672Y-298259865D01*
X43892001Y-298267548D01*
X43892001Y-298497095D01*
X36258000Y-298497095D01*
X36258000Y-297727885D01*
X43892000Y-297727885D01*
X43896475Y-297743124D01*
X43897865Y-297744329D01*
X43905548Y-297746000D01*
X44727885Y-297746000D01*
X44743124Y-297741525D01*
X44744329Y-297740135D01*
X44746000Y-297732452D01*
X44746000Y-296810116D01*
X44741525Y-296794877D01*
X44740135Y-296793672D01*
X44732452Y-296792001D01*
X44602905Y-296792001D01*
X44596386Y-296792338D01*
X44500794Y-296802257D01*
X44487400Y-296805149D01*
X44333216Y-296856588D01*
X44320038Y-296862761D01*
X44182193Y-296948063D01*
X44170792Y-296957099D01*
X44056261Y-297071829D01*
X44047249Y-297083240D01*
X43962184Y-297221243D01*
X43956037Y-297234424D01*
X43904862Y-297388710D01*
X43901995Y-297402086D01*
X43892328Y-297496438D01*
X43892000Y-297502855D01*
X43892000Y-297727885D01*
X36258000Y-297727885D01*
X36258000Y-296484000D01*
X36278002Y-296415879D01*
X36331658Y-296369386D01*
X36384000Y-296358000D01*
X43241298Y-296358000D01*
X43242069Y-296358002D01*
X43319652Y-296358476D01*
X43328281Y-296356010D01*
X43328286Y-296356009D01*
X43348048Y-296350361D01*
X43364809Y-296346783D01*
X43385152Y-296343870D01*
X43385162Y-296343867D01*
X43394045Y-296342595D01*
X43417395Y-296331979D01*
X43434907Y-296325536D01*
X43450937Y-296320954D01*
X43459565Y-296318488D01*
X43484548Y-296302726D01*
X43499614Y-296294596D01*
X43526510Y-296282367D01*
X43545939Y-296265626D01*
X43560947Y-296254521D01*
X43575039Y-296245630D01*
X43582631Y-296240840D01*
X43602182Y-296218703D01*
X43614374Y-296206659D01*
X43629949Y-296193239D01*
X43629950Y-296193237D01*
X43636747Y-296187381D01*
X43641626Y-296179853D01*
X43641629Y-296179850D01*
X43650696Y-296165861D01*
X43661986Y-296150987D01*
X43673012Y-296138502D01*
X43678956Y-296131772D01*
X43691510Y-296105034D01*
X43699824Y-296090065D01*
X43715893Y-296065273D01*
X43723239Y-296040709D01*
X43729901Y-296023264D01*
X43736983Y-296008179D01*
X43740799Y-296000052D01*
X43745343Y-295970870D01*
X43749126Y-295954151D01*
X43755014Y-295934464D01*
X43755015Y-295934461D01*
X43757587Y-295925859D01*
X43757797Y-295891444D01*
X43757830Y-295890672D01*
X43758000Y-295889577D01*
X43758000Y-295858702D01*
X43758002Y-295857932D01*
X43758452Y-295784284D01*
X43758452Y-295784283D01*
X43758476Y-295780348D01*
X43758092Y-295779004D01*
X43758000Y-295777659D01*
X43758000Y-287658702D01*
X43758002Y-287657932D01*
X43758421Y-287589322D01*
X43758476Y-287580348D01*
X43756010Y-287571719D01*
X43756009Y-287571714D01*
X43750361Y-287551952D01*
X43746783Y-287535191D01*
X43743870Y-287514848D01*
X43743867Y-287514838D01*
X43742595Y-287505955D01*
X43731979Y-287482605D01*
X43725536Y-287465093D01*
X43720954Y-287449063D01*
X43718488Y-287440435D01*
X43702726Y-287415452D01*
X43694596Y-287400386D01*
X43682367Y-287373490D01*
X43665626Y-287354061D01*
X43654521Y-287339053D01*
X43645630Y-287324961D01*
X43640840Y-287317369D01*
X43618703Y-287297818D01*
X43606659Y-287285626D01*
X43593239Y-287270051D01*
X43593237Y-287270050D01*
X43587381Y-287263253D01*
X43579853Y-287258374D01*
X43579850Y-287258371D01*
X43565861Y-287249304D01*
X43550987Y-287238014D01*
X43538502Y-287226988D01*
X43531772Y-287221044D01*
X43523646Y-287217229D01*
X43523645Y-287217228D01*
X43517979Y-287214568D01*
X43505034Y-287208490D01*
X43490065Y-287200176D01*
X43465273Y-287184107D01*
X43440709Y-287176761D01*
X43423264Y-287170099D01*
X43400052Y-287159201D01*
X43370870Y-287154657D01*
X43354151Y-287150874D01*
X43334464Y-287144986D01*
X43334461Y-287144985D01*
X43325859Y-287142413D01*
X43316884Y-287142358D01*
X43316883Y-287142358D01*
X43310190Y-287142317D01*
X43291444Y-287142203D01*
X43290672Y-287142170D01*
X43289577Y-287142000D01*
X43258702Y-287142000D01*
X43257932Y-287141998D01*
X43184284Y-287141548D01*
X43184283Y-287141548D01*
X43180348Y-287141524D01*
X43179004Y-287141908D01*
X43177659Y-287142000D01*
X36384000Y-287142000D01*
X36315879Y-287121998D01*
X36269386Y-287068342D01*
X36258000Y-287016000D01*
X36258000Y-273779595D01*
X43867001Y-273779595D01*
X43867338Y-273786114D01*
X43877257Y-273881706D01*
X43880149Y-273895100D01*
X43931588Y-274049284D01*
X43937761Y-274062462D01*
X44023063Y-274200307D01*
X44032099Y-274211708D01*
X44146829Y-274326239D01*
X44158240Y-274335251D01*
X44296243Y-274420316D01*
X44309424Y-274426463D01*
X44463710Y-274477638D01*
X44477086Y-274480505D01*
X44571438Y-274490172D01*
X44577854Y-274490500D01*
X44690385Y-274490500D01*
X44705624Y-274486025D01*
X44706829Y-274484635D01*
X44708500Y-274476952D01*
X44708500Y-273529615D01*
X44704025Y-273514376D01*
X44702635Y-273513171D01*
X44694952Y-273511500D01*
X43885116Y-273511500D01*
X43869877Y-273515975D01*
X43868672Y-273517365D01*
X43867001Y-273525048D01*
X43867001Y-273779595D01*
X36258000Y-273779595D01*
X36258000Y-272985385D01*
X43867000Y-272985385D01*
X43871475Y-273000624D01*
X43872865Y-273001829D01*
X43880548Y-273003500D01*
X44690385Y-273003500D01*
X44705624Y-272999025D01*
X44706829Y-272997635D01*
X44708500Y-272989952D01*
X44708500Y-272042616D01*
X44704025Y-272027377D01*
X44702635Y-272026172D01*
X44694952Y-272024501D01*
X44577905Y-272024501D01*
X44571386Y-272024838D01*
X44475794Y-272034757D01*
X44462400Y-272037649D01*
X44308216Y-272089088D01*
X44295038Y-272095261D01*
X44157193Y-272180563D01*
X44145792Y-272189599D01*
X44031261Y-272304329D01*
X44022249Y-272315740D01*
X43937184Y-272453743D01*
X43931037Y-272466924D01*
X43879862Y-272621210D01*
X43876995Y-272634586D01*
X43867328Y-272728938D01*
X43867000Y-272735355D01*
X43867000Y-272985385D01*
X36258000Y-272985385D01*
X36258000Y-270754595D01*
X43892001Y-270754595D01*
X43892338Y-270761114D01*
X43902257Y-270856706D01*
X43905149Y-270870100D01*
X43956588Y-271024284D01*
X43962761Y-271037462D01*
X44048063Y-271175307D01*
X44057099Y-271186708D01*
X44171829Y-271301239D01*
X44183240Y-271310251D01*
X44321243Y-271395316D01*
X44334424Y-271401463D01*
X44488710Y-271452638D01*
X44502086Y-271455505D01*
X44596438Y-271465172D01*
X44602854Y-271465500D01*
X44727885Y-271465500D01*
X44743124Y-271461025D01*
X44744329Y-271459635D01*
X44746000Y-271451952D01*
X44746000Y-270529615D01*
X44741525Y-270514376D01*
X44740135Y-270513171D01*
X44732452Y-270511500D01*
X43910116Y-270511500D01*
X43894877Y-270515975D01*
X43893672Y-270517365D01*
X43892001Y-270525048D01*
X43892001Y-270754595D01*
X36258000Y-270754595D01*
X36258000Y-269985385D01*
X43892000Y-269985385D01*
X43896475Y-270000624D01*
X43897865Y-270001829D01*
X43905548Y-270003500D01*
X44727885Y-270003500D01*
X44743124Y-269999025D01*
X44744329Y-269997635D01*
X44746000Y-269989952D01*
X44746000Y-269067616D01*
X44741525Y-269052377D01*
X44740135Y-269051172D01*
X44732452Y-269049501D01*
X44602905Y-269049501D01*
X44596386Y-269049838D01*
X44500794Y-269059757D01*
X44487400Y-269062649D01*
X44333216Y-269114088D01*
X44320038Y-269120261D01*
X44182193Y-269205563D01*
X44170792Y-269214599D01*
X44056261Y-269329329D01*
X44047249Y-269340740D01*
X43962184Y-269478743D01*
X43956037Y-269491924D01*
X43904862Y-269646210D01*
X43901995Y-269659586D01*
X43892328Y-269753938D01*
X43892000Y-269760355D01*
X43892000Y-269985385D01*
X36258000Y-269985385D01*
X36258000Y-268484000D01*
X36278002Y-268415879D01*
X36331658Y-268369386D01*
X36384000Y-268358000D01*
X43241298Y-268358000D01*
X43242069Y-268358002D01*
X43319652Y-268358476D01*
X43328281Y-268356010D01*
X43328286Y-268356009D01*
X43348048Y-268350361D01*
X43364809Y-268346783D01*
X43385152Y-268343870D01*
X43385162Y-268343867D01*
X43394045Y-268342595D01*
X43417395Y-268331979D01*
X43434907Y-268325536D01*
X43450937Y-268320954D01*
X43459565Y-268318488D01*
X43484548Y-268302726D01*
X43499614Y-268294596D01*
X43526510Y-268282367D01*
X43545939Y-268265626D01*
X43560947Y-268254521D01*
X43575039Y-268245630D01*
X43582631Y-268240840D01*
X43602182Y-268218703D01*
X43614374Y-268206659D01*
X43629949Y-268193239D01*
X43629950Y-268193237D01*
X43636747Y-268187381D01*
X43641626Y-268179853D01*
X43641629Y-268179850D01*
X43650696Y-268165861D01*
X43661986Y-268150987D01*
X43673012Y-268138502D01*
X43678956Y-268131772D01*
X43691510Y-268105034D01*
X43699824Y-268090065D01*
X43715893Y-268065273D01*
X43723239Y-268040709D01*
X43729901Y-268023264D01*
X43736983Y-268008179D01*
X43740799Y-268000052D01*
X43745343Y-267970870D01*
X43749126Y-267954151D01*
X43755014Y-267934464D01*
X43755015Y-267934461D01*
X43757587Y-267925859D01*
X43757797Y-267891444D01*
X43757830Y-267890672D01*
X43758000Y-267889577D01*
X43758000Y-267858702D01*
X43758002Y-267857932D01*
X43758452Y-267784284D01*
X43758452Y-267784283D01*
X43758476Y-267780348D01*
X43758092Y-267779004D01*
X43758000Y-267777659D01*
X43758000Y-259658702D01*
X43758002Y-259657932D01*
X43758421Y-259589322D01*
X43758476Y-259580348D01*
X43756010Y-259571719D01*
X43756009Y-259571714D01*
X43750361Y-259551952D01*
X43746783Y-259535191D01*
X43743870Y-259514848D01*
X43743867Y-259514838D01*
X43742595Y-259505955D01*
X43731979Y-259482605D01*
X43725536Y-259465093D01*
X43720954Y-259449063D01*
X43718488Y-259440435D01*
X43702726Y-259415452D01*
X43694596Y-259400386D01*
X43682367Y-259373490D01*
X43665626Y-259354061D01*
X43654521Y-259339053D01*
X43645630Y-259324961D01*
X43640840Y-259317369D01*
X43618703Y-259297818D01*
X43606659Y-259285626D01*
X43593239Y-259270051D01*
X43593237Y-259270050D01*
X43587381Y-259263253D01*
X43579853Y-259258374D01*
X43579850Y-259258371D01*
X43565861Y-259249304D01*
X43550987Y-259238014D01*
X43538502Y-259226988D01*
X43531772Y-259221044D01*
X43523646Y-259217229D01*
X43523645Y-259217228D01*
X43517979Y-259214568D01*
X43505034Y-259208490D01*
X43490065Y-259200176D01*
X43465273Y-259184107D01*
X43440709Y-259176761D01*
X43423264Y-259170099D01*
X43400052Y-259159201D01*
X43370870Y-259154657D01*
X43354151Y-259150874D01*
X43334464Y-259144986D01*
X43334461Y-259144985D01*
X43325859Y-259142413D01*
X43316884Y-259142358D01*
X43316883Y-259142358D01*
X43310190Y-259142317D01*
X43291444Y-259142203D01*
X43290672Y-259142170D01*
X43289577Y-259142000D01*
X43258702Y-259142000D01*
X43257932Y-259141998D01*
X43184284Y-259141548D01*
X43184283Y-259141548D01*
X43180348Y-259141524D01*
X43179004Y-259141908D01*
X43177659Y-259142000D01*
X36384000Y-259142000D01*
X36315879Y-259121998D01*
X36269386Y-259068342D01*
X36258000Y-259016000D01*
X36258000Y-245522095D01*
X43867001Y-245522095D01*
X43867338Y-245528614D01*
X43877257Y-245624206D01*
X43880149Y-245637600D01*
X43931588Y-245791784D01*
X43937761Y-245804962D01*
X44023063Y-245942807D01*
X44032099Y-245954208D01*
X44146829Y-246068739D01*
X44158240Y-246077751D01*
X44296243Y-246162816D01*
X44309424Y-246168963D01*
X44463710Y-246220138D01*
X44477086Y-246223005D01*
X44571438Y-246232672D01*
X44577854Y-246233000D01*
X44690385Y-246233000D01*
X44705624Y-246228525D01*
X44706829Y-246227135D01*
X44708500Y-246219452D01*
X44708500Y-245272115D01*
X44704025Y-245256876D01*
X44702635Y-245255671D01*
X44694952Y-245254000D01*
X43885116Y-245254000D01*
X43869877Y-245258475D01*
X43868672Y-245259865D01*
X43867001Y-245267548D01*
X43867001Y-245522095D01*
X36258000Y-245522095D01*
X36258000Y-244727885D01*
X43867000Y-244727885D01*
X43871475Y-244743124D01*
X43872865Y-244744329D01*
X43880548Y-244746000D01*
X44690385Y-244746000D01*
X44705624Y-244741525D01*
X44706829Y-244740135D01*
X44708500Y-244732452D01*
X44708500Y-243785116D01*
X44704025Y-243769877D01*
X44702635Y-243768672D01*
X44694952Y-243767001D01*
X44577905Y-243767001D01*
X44571386Y-243767338D01*
X44475794Y-243777257D01*
X44462400Y-243780149D01*
X44308216Y-243831588D01*
X44295038Y-243837761D01*
X44157193Y-243923063D01*
X44145792Y-243932099D01*
X44031261Y-244046829D01*
X44022249Y-244058240D01*
X43937184Y-244196243D01*
X43931037Y-244209424D01*
X43879862Y-244363710D01*
X43876995Y-244377086D01*
X43867328Y-244471438D01*
X43867000Y-244477855D01*
X43867000Y-244727885D01*
X36258000Y-244727885D01*
X36258000Y-242497095D01*
X43892001Y-242497095D01*
X43892338Y-242503614D01*
X43902257Y-242599206D01*
X43905149Y-242612600D01*
X43956588Y-242766784D01*
X43962761Y-242779962D01*
X44048063Y-242917807D01*
X44057099Y-242929208D01*
X44171829Y-243043739D01*
X44183240Y-243052751D01*
X44321243Y-243137816D01*
X44334424Y-243143963D01*
X44488710Y-243195138D01*
X44502086Y-243198005D01*
X44596438Y-243207672D01*
X44602854Y-243208000D01*
X44727885Y-243208000D01*
X44743124Y-243203525D01*
X44744329Y-243202135D01*
X44746000Y-243194452D01*
X44746000Y-242272115D01*
X44741525Y-242256876D01*
X44740135Y-242255671D01*
X44732452Y-242254000D01*
X43910116Y-242254000D01*
X43894877Y-242258475D01*
X43893672Y-242259865D01*
X43892001Y-242267548D01*
X43892001Y-242497095D01*
X36258000Y-242497095D01*
X36258000Y-241727885D01*
X43892000Y-241727885D01*
X43896475Y-241743124D01*
X43897865Y-241744329D01*
X43905548Y-241746000D01*
X44727885Y-241746000D01*
X44743124Y-241741525D01*
X44744329Y-241740135D01*
X44746000Y-241732452D01*
X44746000Y-240810116D01*
X44741525Y-240794877D01*
X44740135Y-240793672D01*
X44732452Y-240792001D01*
X44602905Y-240792001D01*
X44596386Y-240792338D01*
X44500794Y-240802257D01*
X44487400Y-240805149D01*
X44333216Y-240856588D01*
X44320038Y-240862761D01*
X44182193Y-240948063D01*
X44170792Y-240957099D01*
X44056261Y-241071829D01*
X44047249Y-241083240D01*
X43962184Y-241221243D01*
X43956037Y-241234424D01*
X43904862Y-241388710D01*
X43901995Y-241402086D01*
X43892328Y-241496438D01*
X43892000Y-241502855D01*
X43892000Y-241727885D01*
X36258000Y-241727885D01*
X36258000Y-240484000D01*
X36278002Y-240415879D01*
X36331658Y-240369386D01*
X36384000Y-240358000D01*
X43241298Y-240358000D01*
X43242069Y-240358002D01*
X43319652Y-240358476D01*
X43328281Y-240356010D01*
X43328286Y-240356009D01*
X43348048Y-240350361D01*
X43364809Y-240346783D01*
X43385152Y-240343870D01*
X43385162Y-240343867D01*
X43394045Y-240342595D01*
X43417395Y-240331979D01*
X43434907Y-240325536D01*
X43450937Y-240320954D01*
X43459565Y-240318488D01*
X43484548Y-240302726D01*
X43499614Y-240294596D01*
X43526510Y-240282367D01*
X43545939Y-240265626D01*
X43560947Y-240254521D01*
X43575039Y-240245630D01*
X43582631Y-240240840D01*
X43602182Y-240218703D01*
X43614374Y-240206659D01*
X43629949Y-240193239D01*
X43629950Y-240193237D01*
X43636747Y-240187381D01*
X43641626Y-240179853D01*
X43641629Y-240179850D01*
X43650696Y-240165861D01*
X43661986Y-240150987D01*
X43673012Y-240138502D01*
X43678956Y-240131772D01*
X43691510Y-240105034D01*
X43699824Y-240090065D01*
X43715893Y-240065273D01*
X43723239Y-240040709D01*
X43729901Y-240023264D01*
X43736983Y-240008179D01*
X43740799Y-240000052D01*
X43745343Y-239970870D01*
X43749126Y-239954151D01*
X43755014Y-239934464D01*
X43755015Y-239934461D01*
X43757587Y-239925859D01*
X43757797Y-239891444D01*
X43757830Y-239890672D01*
X43758000Y-239889577D01*
X43758000Y-239858702D01*
X43758002Y-239857932D01*
X43758452Y-239784284D01*
X43758452Y-239784283D01*
X43758476Y-239780348D01*
X43758092Y-239779004D01*
X43758000Y-239777659D01*
X43758000Y-231658702D01*
X43758002Y-231657932D01*
X43758421Y-231589322D01*
X43758476Y-231580348D01*
X43756010Y-231571719D01*
X43756009Y-231571714D01*
X43750361Y-231551952D01*
X43746783Y-231535191D01*
X43743870Y-231514848D01*
X43743867Y-231514838D01*
X43742595Y-231505955D01*
X43731979Y-231482605D01*
X43725536Y-231465093D01*
X43720954Y-231449063D01*
X43718488Y-231440435D01*
X43702726Y-231415452D01*
X43694596Y-231400386D01*
X43682367Y-231373490D01*
X43665626Y-231354061D01*
X43654521Y-231339053D01*
X43645630Y-231324961D01*
X43640840Y-231317369D01*
X43618703Y-231297818D01*
X43606659Y-231285626D01*
X43593239Y-231270051D01*
X43593237Y-231270050D01*
X43587381Y-231263253D01*
X43579853Y-231258374D01*
X43579850Y-231258371D01*
X43565861Y-231249304D01*
X43550987Y-231238014D01*
X43538502Y-231226988D01*
X43531772Y-231221044D01*
X43523646Y-231217229D01*
X43523645Y-231217228D01*
X43517979Y-231214568D01*
X43505034Y-231208490D01*
X43490065Y-231200176D01*
X43465273Y-231184107D01*
X43440709Y-231176761D01*
X43423264Y-231170099D01*
X43400052Y-231159201D01*
X43370870Y-231154657D01*
X43354151Y-231150874D01*
X43334464Y-231144986D01*
X43334461Y-231144985D01*
X43325859Y-231142413D01*
X43316884Y-231142358D01*
X43316883Y-231142358D01*
X43310190Y-231142317D01*
X43291444Y-231142203D01*
X43290672Y-231142170D01*
X43289577Y-231142000D01*
X43258702Y-231142000D01*
X43257932Y-231141998D01*
X43184284Y-231141548D01*
X43184283Y-231141548D01*
X43180348Y-231141524D01*
X43179004Y-231141908D01*
X43177659Y-231142000D01*
X36384000Y-231142000D01*
X36315879Y-231121998D01*
X36269386Y-231068342D01*
X36258000Y-231016000D01*
X36258000Y-217522095D01*
X43867001Y-217522095D01*
X43867338Y-217528614D01*
X43877257Y-217624206D01*
X43880149Y-217637600D01*
X43931588Y-217791784D01*
X43937761Y-217804962D01*
X44023063Y-217942807D01*
X44032099Y-217954208D01*
X44146829Y-218068739D01*
X44158240Y-218077751D01*
X44296243Y-218162816D01*
X44309424Y-218168963D01*
X44463710Y-218220138D01*
X44477086Y-218223005D01*
X44571438Y-218232672D01*
X44577854Y-218233000D01*
X44690385Y-218233000D01*
X44705624Y-218228525D01*
X44706829Y-218227135D01*
X44708500Y-218219452D01*
X44708500Y-217272115D01*
X44704025Y-217256876D01*
X44702635Y-217255671D01*
X44694952Y-217254000D01*
X43885116Y-217254000D01*
X43869877Y-217258475D01*
X43868672Y-217259865D01*
X43867001Y-217267548D01*
X43867001Y-217522095D01*
X36258000Y-217522095D01*
X36258000Y-216727885D01*
X43867000Y-216727885D01*
X43871475Y-216743124D01*
X43872865Y-216744329D01*
X43880548Y-216746000D01*
X44690385Y-216746000D01*
X44705624Y-216741525D01*
X44706829Y-216740135D01*
X44708500Y-216732452D01*
X44708500Y-215785116D01*
X44704025Y-215769877D01*
X44702635Y-215768672D01*
X44694952Y-215767001D01*
X44577905Y-215767001D01*
X44571386Y-215767338D01*
X44475794Y-215777257D01*
X44462400Y-215780149D01*
X44308216Y-215831588D01*
X44295038Y-215837761D01*
X44157193Y-215923063D01*
X44145792Y-215932099D01*
X44031261Y-216046829D01*
X44022249Y-216058240D01*
X43937184Y-216196243D01*
X43931037Y-216209424D01*
X43879862Y-216363710D01*
X43876995Y-216377086D01*
X43867328Y-216471438D01*
X43867000Y-216477855D01*
X43867000Y-216727885D01*
X36258000Y-216727885D01*
X36258000Y-214497095D01*
X43892001Y-214497095D01*
X43892338Y-214503614D01*
X43902257Y-214599206D01*
X43905149Y-214612600D01*
X43956588Y-214766784D01*
X43962761Y-214779962D01*
X44048063Y-214917807D01*
X44057099Y-214929208D01*
X44171829Y-215043739D01*
X44183240Y-215052751D01*
X44321243Y-215137816D01*
X44334424Y-215143963D01*
X44488710Y-215195138D01*
X44502086Y-215198005D01*
X44596438Y-215207672D01*
X44602854Y-215208000D01*
X44727885Y-215208000D01*
X44743124Y-215203525D01*
X44744329Y-215202135D01*
X44746000Y-215194452D01*
X44746000Y-214272115D01*
X44741525Y-214256876D01*
X44740135Y-214255671D01*
X44732452Y-214254000D01*
X43910116Y-214254000D01*
X43894877Y-214258475D01*
X43893672Y-214259865D01*
X43892001Y-214267548D01*
X43892001Y-214497095D01*
X36258000Y-214497095D01*
X36258000Y-213727885D01*
X43892000Y-213727885D01*
X43896475Y-213743124D01*
X43897865Y-213744329D01*
X43905548Y-213746000D01*
X44727885Y-213746000D01*
X44743124Y-213741525D01*
X44744329Y-213740135D01*
X44746000Y-213732452D01*
X44746000Y-212810116D01*
X44741525Y-212794877D01*
X44740135Y-212793672D01*
X44732452Y-212792001D01*
X44602905Y-212792001D01*
X44596386Y-212792338D01*
X44500794Y-212802257D01*
X44487400Y-212805149D01*
X44333216Y-212856588D01*
X44320038Y-212862761D01*
X44182193Y-212948063D01*
X44170792Y-212957099D01*
X44056261Y-213071829D01*
X44047249Y-213083240D01*
X43962184Y-213221243D01*
X43956037Y-213234424D01*
X43904862Y-213388710D01*
X43901995Y-213402086D01*
X43892328Y-213496438D01*
X43892000Y-213502855D01*
X43892000Y-213727885D01*
X36258000Y-213727885D01*
X36258000Y-212484000D01*
X36278002Y-212415879D01*
X36331658Y-212369386D01*
X36384000Y-212358000D01*
X43241298Y-212358000D01*
X43242069Y-212358002D01*
X43319652Y-212358476D01*
X43328281Y-212356010D01*
X43328286Y-212356009D01*
X43348048Y-212350361D01*
X43364809Y-212346783D01*
X43385152Y-212343870D01*
X43385162Y-212343867D01*
X43394045Y-212342595D01*
X43417395Y-212331979D01*
X43434907Y-212325536D01*
X43450937Y-212320954D01*
X43459565Y-212318488D01*
X43484548Y-212302726D01*
X43499614Y-212294596D01*
X43526510Y-212282367D01*
X43545939Y-212265626D01*
X43560947Y-212254521D01*
X43575039Y-212245630D01*
X43582631Y-212240840D01*
X43602182Y-212218703D01*
X43614374Y-212206659D01*
X43629949Y-212193239D01*
X43629950Y-212193237D01*
X43636747Y-212187381D01*
X43641626Y-212179853D01*
X43641629Y-212179850D01*
X43650696Y-212165861D01*
X43661986Y-212150987D01*
X43673012Y-212138502D01*
X43678956Y-212131772D01*
X43691510Y-212105034D01*
X43699824Y-212090065D01*
X43715893Y-212065273D01*
X43723239Y-212040709D01*
X43729901Y-212023264D01*
X43736983Y-212008179D01*
X43740799Y-212000052D01*
X43745343Y-211970870D01*
X43749126Y-211954151D01*
X43755014Y-211934464D01*
X43755015Y-211934461D01*
X43757587Y-211925859D01*
X43757797Y-211891444D01*
X43757830Y-211890672D01*
X43758000Y-211889577D01*
X43758000Y-211858702D01*
X43758002Y-211857932D01*
X43758452Y-211784284D01*
X43758452Y-211784283D01*
X43758476Y-211780348D01*
X43758092Y-211779004D01*
X43758000Y-211777659D01*
X43758000Y-203658702D01*
X43758002Y-203657932D01*
X43758421Y-203589322D01*
X43758476Y-203580348D01*
X43756010Y-203571719D01*
X43756009Y-203571714D01*
X43750361Y-203551952D01*
X43746783Y-203535191D01*
X43743870Y-203514848D01*
X43743867Y-203514838D01*
X43742595Y-203505955D01*
X43731979Y-203482605D01*
X43725536Y-203465093D01*
X43720954Y-203449063D01*
X43718488Y-203440435D01*
X43702726Y-203415452D01*
X43694596Y-203400386D01*
X43682367Y-203373490D01*
X43665626Y-203354061D01*
X43654521Y-203339053D01*
X43645630Y-203324961D01*
X43640840Y-203317369D01*
X43618703Y-203297818D01*
X43606659Y-203285626D01*
X43593239Y-203270051D01*
X43593237Y-203270050D01*
X43587381Y-203263253D01*
X43579853Y-203258374D01*
X43579850Y-203258371D01*
X43565861Y-203249304D01*
X43550987Y-203238014D01*
X43538502Y-203226988D01*
X43531772Y-203221044D01*
X43523646Y-203217229D01*
X43523645Y-203217228D01*
X43517979Y-203214568D01*
X43505034Y-203208490D01*
X43490065Y-203200176D01*
X43465273Y-203184107D01*
X43440709Y-203176761D01*
X43423264Y-203170099D01*
X43400052Y-203159201D01*
X43370870Y-203154657D01*
X43354151Y-203150874D01*
X43334464Y-203144986D01*
X43334461Y-203144985D01*
X43325859Y-203142413D01*
X43316884Y-203142358D01*
X43316883Y-203142358D01*
X43310190Y-203142317D01*
X43291444Y-203142203D01*
X43290672Y-203142170D01*
X43289577Y-203142000D01*
X43258702Y-203142000D01*
X43257932Y-203141998D01*
X43184284Y-203141548D01*
X43184283Y-203141548D01*
X43180348Y-203141524D01*
X43179004Y-203141908D01*
X43177659Y-203142000D01*
X36384000Y-203142000D01*
X36315879Y-203121998D01*
X36269386Y-203068342D01*
X36258000Y-203016000D01*
X36258000Y-189522095D01*
X43867001Y-189522095D01*
X43867338Y-189528614D01*
X43877257Y-189624206D01*
X43880149Y-189637600D01*
X43931588Y-189791784D01*
X43937761Y-189804962D01*
X44023063Y-189942807D01*
X44032099Y-189954208D01*
X44146829Y-190068739D01*
X44158240Y-190077751D01*
X44296243Y-190162816D01*
X44309424Y-190168963D01*
X44463710Y-190220138D01*
X44477086Y-190223005D01*
X44571438Y-190232672D01*
X44577854Y-190233000D01*
X44690385Y-190233000D01*
X44705624Y-190228525D01*
X44706829Y-190227135D01*
X44708500Y-190219452D01*
X44708500Y-189272115D01*
X44704025Y-189256876D01*
X44702635Y-189255671D01*
X44694952Y-189254000D01*
X43885116Y-189254000D01*
X43869877Y-189258475D01*
X43868672Y-189259865D01*
X43867001Y-189267548D01*
X43867001Y-189522095D01*
X36258000Y-189522095D01*
X36258000Y-188727885D01*
X43867000Y-188727885D01*
X43871475Y-188743124D01*
X43872865Y-188744329D01*
X43880548Y-188746000D01*
X44690385Y-188746000D01*
X44705624Y-188741525D01*
X44706829Y-188740135D01*
X44708500Y-188732452D01*
X44708500Y-187785116D01*
X44704025Y-187769877D01*
X44702635Y-187768672D01*
X44694952Y-187767001D01*
X44577905Y-187767001D01*
X44571386Y-187767338D01*
X44475794Y-187777257D01*
X44462400Y-187780149D01*
X44308216Y-187831588D01*
X44295038Y-187837761D01*
X44157193Y-187923063D01*
X44145792Y-187932099D01*
X44031261Y-188046829D01*
X44022249Y-188058240D01*
X43937184Y-188196243D01*
X43931037Y-188209424D01*
X43879862Y-188363710D01*
X43876995Y-188377086D01*
X43867328Y-188471438D01*
X43867000Y-188477855D01*
X43867000Y-188727885D01*
X36258000Y-188727885D01*
X36258000Y-186497095D01*
X43892001Y-186497095D01*
X43892338Y-186503614D01*
X43902257Y-186599206D01*
X43905149Y-186612600D01*
X43956588Y-186766784D01*
X43962761Y-186779962D01*
X44048063Y-186917807D01*
X44057099Y-186929208D01*
X44171829Y-187043739D01*
X44183240Y-187052751D01*
X44321243Y-187137816D01*
X44334424Y-187143963D01*
X44488710Y-187195138D01*
X44502086Y-187198005D01*
X44596438Y-187207672D01*
X44602854Y-187208000D01*
X44727885Y-187208000D01*
X44743124Y-187203525D01*
X44744329Y-187202135D01*
X44746000Y-187194452D01*
X44746000Y-186272115D01*
X44741525Y-186256876D01*
X44740135Y-186255671D01*
X44732452Y-186254000D01*
X43910116Y-186254000D01*
X43894877Y-186258475D01*
X43893672Y-186259865D01*
X43892001Y-186267548D01*
X43892001Y-186497095D01*
X36258000Y-186497095D01*
X36258000Y-185727885D01*
X43892000Y-185727885D01*
X43896475Y-185743124D01*
X43897865Y-185744329D01*
X43905548Y-185746000D01*
X44727885Y-185746000D01*
X44743124Y-185741525D01*
X44744329Y-185740135D01*
X44746000Y-185732452D01*
X44746000Y-184810116D01*
X44741525Y-184794877D01*
X44740135Y-184793672D01*
X44732452Y-184792001D01*
X44602905Y-184792001D01*
X44596386Y-184792338D01*
X44500794Y-184802257D01*
X44487400Y-184805149D01*
X44333216Y-184856588D01*
X44320038Y-184862761D01*
X44182193Y-184948063D01*
X44170792Y-184957099D01*
X44056261Y-185071829D01*
X44047249Y-185083240D01*
X43962184Y-185221243D01*
X43956037Y-185234424D01*
X43904862Y-185388710D01*
X43901995Y-185402086D01*
X43892328Y-185496438D01*
X43892000Y-185502855D01*
X43892000Y-185727885D01*
X36258000Y-185727885D01*
X36258000Y-184484000D01*
X36278002Y-184415879D01*
X36331658Y-184369386D01*
X36384000Y-184358000D01*
X43241298Y-184358000D01*
X43242069Y-184358002D01*
X43319652Y-184358476D01*
X43328281Y-184356010D01*
X43328286Y-184356009D01*
X43348048Y-184350361D01*
X43364809Y-184346783D01*
X43385152Y-184343870D01*
X43385162Y-184343867D01*
X43394045Y-184342595D01*
X43417395Y-184331979D01*
X43434907Y-184325536D01*
X43450937Y-184320954D01*
X43459565Y-184318488D01*
X43484548Y-184302726D01*
X43499614Y-184294596D01*
X43526510Y-184282367D01*
X43545939Y-184265626D01*
X43560947Y-184254521D01*
X43575039Y-184245630D01*
X43582631Y-184240840D01*
X43602182Y-184218703D01*
X43614374Y-184206659D01*
X43629949Y-184193239D01*
X43629950Y-184193237D01*
X43636747Y-184187381D01*
X43641626Y-184179853D01*
X43641629Y-184179850D01*
X43650696Y-184165861D01*
X43661986Y-184150987D01*
X43673012Y-184138502D01*
X43678956Y-184131772D01*
X43691510Y-184105034D01*
X43699824Y-184090065D01*
X43715893Y-184065273D01*
X43723239Y-184040709D01*
X43729901Y-184023264D01*
X43736983Y-184008179D01*
X43740799Y-184000052D01*
X43745343Y-183970870D01*
X43749126Y-183954151D01*
X43755014Y-183934464D01*
X43755015Y-183934461D01*
X43757587Y-183925859D01*
X43757797Y-183891444D01*
X43757830Y-183890672D01*
X43758000Y-183889577D01*
X43758000Y-183858702D01*
X43758002Y-183857932D01*
X43758452Y-183784284D01*
X43758452Y-183784283D01*
X43758476Y-183780348D01*
X43758092Y-183779004D01*
X43758000Y-183777659D01*
X43758000Y-175658702D01*
X43758002Y-175657932D01*
X43758421Y-175589322D01*
X43758476Y-175580348D01*
X43756010Y-175571719D01*
X43756009Y-175571714D01*
X43750361Y-175551952D01*
X43746783Y-175535191D01*
X43743870Y-175514848D01*
X43743867Y-175514838D01*
X43742595Y-175505955D01*
X43731979Y-175482605D01*
X43725536Y-175465093D01*
X43720954Y-175449063D01*
X43718488Y-175440435D01*
X43702726Y-175415452D01*
X43694596Y-175400386D01*
X43682367Y-175373490D01*
X43665626Y-175354061D01*
X43654521Y-175339053D01*
X43645630Y-175324961D01*
X43640840Y-175317369D01*
X43618703Y-175297818D01*
X43606659Y-175285626D01*
X43593239Y-175270051D01*
X43593237Y-175270050D01*
X43587381Y-175263253D01*
X43579853Y-175258374D01*
X43579850Y-175258371D01*
X43565861Y-175249304D01*
X43550987Y-175238014D01*
X43538502Y-175226988D01*
X43531772Y-175221044D01*
X43523646Y-175217229D01*
X43523645Y-175217228D01*
X43517979Y-175214568D01*
X43505034Y-175208490D01*
X43490065Y-175200176D01*
X43465273Y-175184107D01*
X43440709Y-175176761D01*
X43423264Y-175170099D01*
X43400052Y-175159201D01*
X43370870Y-175154657D01*
X43354151Y-175150874D01*
X43334464Y-175144986D01*
X43334461Y-175144985D01*
X43325859Y-175142413D01*
X43316884Y-175142358D01*
X43316883Y-175142358D01*
X43310190Y-175142317D01*
X43291444Y-175142203D01*
X43290672Y-175142170D01*
X43289577Y-175142000D01*
X43258702Y-175142000D01*
X43257932Y-175141998D01*
X43184284Y-175141548D01*
X43184283Y-175141548D01*
X43180348Y-175141524D01*
X43179004Y-175141908D01*
X43177659Y-175142000D01*
X36384000Y-175142000D01*
X36315879Y-175121998D01*
X36269386Y-175068342D01*
X36258000Y-175016000D01*
X36258000Y-161522095D01*
X43904501Y-161522095D01*
X43904838Y-161528614D01*
X43914757Y-161624206D01*
X43917649Y-161637600D01*
X43969088Y-161791784D01*
X43975261Y-161804962D01*
X44060563Y-161942807D01*
X44069599Y-161954208D01*
X44184329Y-162068739D01*
X44195740Y-162077751D01*
X44333743Y-162162816D01*
X44346924Y-162168963D01*
X44501210Y-162220138D01*
X44514586Y-162223005D01*
X44608938Y-162232672D01*
X44615354Y-162233000D01*
X44727885Y-162233000D01*
X44743124Y-162228525D01*
X44744329Y-162227135D01*
X44746000Y-162219452D01*
X44746000Y-161272115D01*
X44741525Y-161256876D01*
X44740135Y-161255671D01*
X44732452Y-161254000D01*
X43922616Y-161254000D01*
X43907377Y-161258475D01*
X43906172Y-161259865D01*
X43904501Y-161267548D01*
X43904501Y-161522095D01*
X36258000Y-161522095D01*
X36258000Y-160727885D01*
X43904500Y-160727885D01*
X43908975Y-160743124D01*
X43910365Y-160744329D01*
X43918048Y-160746000D01*
X44727885Y-160746000D01*
X44743124Y-160741525D01*
X44744329Y-160740135D01*
X44746000Y-160732452D01*
X44746000Y-159785116D01*
X44741525Y-159769877D01*
X44740135Y-159768672D01*
X44732452Y-159767001D01*
X44615405Y-159767001D01*
X44608886Y-159767338D01*
X44513294Y-159777257D01*
X44499900Y-159780149D01*
X44345716Y-159831588D01*
X44332538Y-159837761D01*
X44194693Y-159923063D01*
X44183292Y-159932099D01*
X44068761Y-160046829D01*
X44059749Y-160058240D01*
X43974684Y-160196243D01*
X43968537Y-160209424D01*
X43917362Y-160363710D01*
X43914495Y-160377086D01*
X43904828Y-160471438D01*
X43904500Y-160477855D01*
X43904500Y-160727885D01*
X36258000Y-160727885D01*
X36258000Y-158497095D01*
X43892001Y-158497095D01*
X43892338Y-158503614D01*
X43902257Y-158599206D01*
X43905149Y-158612600D01*
X43956588Y-158766784D01*
X43962761Y-158779962D01*
X44048063Y-158917807D01*
X44057099Y-158929208D01*
X44171829Y-159043739D01*
X44183240Y-159052751D01*
X44321243Y-159137816D01*
X44334424Y-159143963D01*
X44488710Y-159195138D01*
X44502086Y-159198005D01*
X44596438Y-159207672D01*
X44602854Y-159208000D01*
X44727885Y-159208000D01*
X44743124Y-159203525D01*
X44744329Y-159202135D01*
X44746000Y-159194452D01*
X44746000Y-158272115D01*
X44741525Y-158256876D01*
X44740135Y-158255671D01*
X44732452Y-158254000D01*
X43910116Y-158254000D01*
X43894877Y-158258475D01*
X43893672Y-158259865D01*
X43892001Y-158267548D01*
X43892001Y-158497095D01*
X36258000Y-158497095D01*
X36258000Y-157727885D01*
X43892000Y-157727885D01*
X43896475Y-157743124D01*
X43897865Y-157744329D01*
X43905548Y-157746000D01*
X44727885Y-157746000D01*
X44743124Y-157741525D01*
X44744329Y-157740135D01*
X44746000Y-157732452D01*
X44746000Y-156810116D01*
X44741525Y-156794877D01*
X44740135Y-156793672D01*
X44732452Y-156792001D01*
X44602905Y-156792001D01*
X44596386Y-156792338D01*
X44500794Y-156802257D01*
X44487400Y-156805149D01*
X44333216Y-156856588D01*
X44320038Y-156862761D01*
X44182193Y-156948063D01*
X44170792Y-156957099D01*
X44056261Y-157071829D01*
X44047249Y-157083240D01*
X43962184Y-157221243D01*
X43956037Y-157234424D01*
X43904862Y-157388710D01*
X43901995Y-157402086D01*
X43892328Y-157496438D01*
X43892000Y-157502855D01*
X43892000Y-157727885D01*
X36258000Y-157727885D01*
X36258000Y-156484000D01*
X36278002Y-156415879D01*
X36331658Y-156369386D01*
X36384000Y-156358000D01*
X43241298Y-156358000D01*
X43242069Y-156358002D01*
X43319652Y-156358476D01*
X43328281Y-156356010D01*
X43328286Y-156356009D01*
X43348048Y-156350361D01*
X43364809Y-156346783D01*
X43385152Y-156343870D01*
X43385162Y-156343867D01*
X43394045Y-156342595D01*
X43417395Y-156331979D01*
X43434907Y-156325536D01*
X43450937Y-156320954D01*
X43459565Y-156318488D01*
X43484548Y-156302726D01*
X43499614Y-156294596D01*
X43526510Y-156282367D01*
X43545939Y-156265626D01*
X43560947Y-156254521D01*
X43575039Y-156245630D01*
X43582631Y-156240840D01*
X43602182Y-156218703D01*
X43614374Y-156206659D01*
X43629949Y-156193239D01*
X43629950Y-156193237D01*
X43636747Y-156187381D01*
X43641626Y-156179853D01*
X43641629Y-156179850D01*
X43650696Y-156165861D01*
X43661986Y-156150987D01*
X43673012Y-156138502D01*
X43678956Y-156131772D01*
X43691510Y-156105034D01*
X43699824Y-156090065D01*
X43715893Y-156065273D01*
X43723239Y-156040709D01*
X43729901Y-156023264D01*
X43736983Y-156008179D01*
X43740799Y-156000052D01*
X43745343Y-155970870D01*
X43749126Y-155954151D01*
X43755014Y-155934464D01*
X43755015Y-155934461D01*
X43757587Y-155925859D01*
X43757797Y-155891444D01*
X43757830Y-155890672D01*
X43758000Y-155889577D01*
X43758000Y-155858702D01*
X43758002Y-155857932D01*
X43758452Y-155784284D01*
X43758452Y-155784283D01*
X43758476Y-155780348D01*
X43758092Y-155779004D01*
X43758000Y-155777659D01*
X43758000Y-147658702D01*
X43758002Y-147657932D01*
X43758421Y-147589322D01*
X43758476Y-147580348D01*
X43756010Y-147571719D01*
X43756009Y-147571714D01*
X43750361Y-147551952D01*
X43746783Y-147535191D01*
X43743870Y-147514848D01*
X43743867Y-147514838D01*
X43742595Y-147505955D01*
X43731979Y-147482605D01*
X43725536Y-147465093D01*
X43720954Y-147449063D01*
X43718488Y-147440435D01*
X43702726Y-147415452D01*
X43694596Y-147400386D01*
X43682367Y-147373490D01*
X43665626Y-147354061D01*
X43654521Y-147339053D01*
X43645630Y-147324961D01*
X43640840Y-147317369D01*
X43618703Y-147297818D01*
X43606659Y-147285626D01*
X43593239Y-147270051D01*
X43593237Y-147270050D01*
X43587381Y-147263253D01*
X43579853Y-147258374D01*
X43579850Y-147258371D01*
X43565861Y-147249304D01*
X43550987Y-147238014D01*
X43538502Y-147226988D01*
X43531772Y-147221044D01*
X43523646Y-147217229D01*
X43523645Y-147217228D01*
X43517979Y-147214568D01*
X43505034Y-147208490D01*
X43490065Y-147200176D01*
X43465273Y-147184107D01*
X43440709Y-147176761D01*
X43423264Y-147170099D01*
X43400052Y-147159201D01*
X43370870Y-147154657D01*
X43354151Y-147150874D01*
X43334464Y-147144986D01*
X43334461Y-147144985D01*
X43325859Y-147142413D01*
X43316884Y-147142358D01*
X43316883Y-147142358D01*
X43310190Y-147142317D01*
X43291444Y-147142203D01*
X43290672Y-147142170D01*
X43289577Y-147142000D01*
X43258702Y-147142000D01*
X43257932Y-147141998D01*
X43184284Y-147141548D01*
X43184283Y-147141548D01*
X43180348Y-147141524D01*
X43179004Y-147141908D01*
X43177659Y-147142000D01*
X36384000Y-147142000D01*
X36315879Y-147121998D01*
X36269386Y-147068342D01*
X36258000Y-147016000D01*
X36258000Y-133522095D01*
X43829501Y-133522095D01*
X43829838Y-133528614D01*
X43839757Y-133624206D01*
X43842649Y-133637600D01*
X43894088Y-133791784D01*
X43900261Y-133804962D01*
X43985563Y-133942807D01*
X43994599Y-133954208D01*
X44109329Y-134068739D01*
X44120740Y-134077751D01*
X44258743Y-134162816D01*
X44271924Y-134168963D01*
X44426210Y-134220138D01*
X44439586Y-134223005D01*
X44533938Y-134232672D01*
X44540354Y-134233000D01*
X44652885Y-134233000D01*
X44668124Y-134228525D01*
X44669329Y-134227135D01*
X44671000Y-134219452D01*
X44671000Y-133272115D01*
X44666525Y-133256876D01*
X44665135Y-133255671D01*
X44657452Y-133254000D01*
X43847616Y-133254000D01*
X43832377Y-133258475D01*
X43831172Y-133259865D01*
X43829501Y-133267548D01*
X43829501Y-133522095D01*
X36258000Y-133522095D01*
X36258000Y-132727885D01*
X43829500Y-132727885D01*
X43833975Y-132743124D01*
X43835365Y-132744329D01*
X43843048Y-132746000D01*
X44652885Y-132746000D01*
X44668124Y-132741525D01*
X44669329Y-132740135D01*
X44671000Y-132732452D01*
X44671000Y-131785116D01*
X44666525Y-131769877D01*
X44665135Y-131768672D01*
X44657452Y-131767001D01*
X44540405Y-131767001D01*
X44533886Y-131767338D01*
X44438294Y-131777257D01*
X44424900Y-131780149D01*
X44270716Y-131831588D01*
X44257538Y-131837761D01*
X44119693Y-131923063D01*
X44108292Y-131932099D01*
X43993761Y-132046829D01*
X43984749Y-132058240D01*
X43899684Y-132196243D01*
X43893537Y-132209424D01*
X43842362Y-132363710D01*
X43839495Y-132377086D01*
X43829828Y-132471438D01*
X43829500Y-132477855D01*
X43829500Y-132727885D01*
X36258000Y-132727885D01*
X36258000Y-130497095D01*
X43892001Y-130497095D01*
X43892338Y-130503614D01*
X43902257Y-130599206D01*
X43905149Y-130612600D01*
X43956588Y-130766784D01*
X43962761Y-130779962D01*
X44048063Y-130917807D01*
X44057099Y-130929208D01*
X44171829Y-131043739D01*
X44183240Y-131052751D01*
X44321243Y-131137816D01*
X44334424Y-131143963D01*
X44488710Y-131195138D01*
X44502086Y-131198005D01*
X44596438Y-131207672D01*
X44602854Y-131208000D01*
X44727885Y-131208000D01*
X44743124Y-131203525D01*
X44744329Y-131202135D01*
X44746000Y-131194452D01*
X44746000Y-130272115D01*
X44741525Y-130256876D01*
X44740135Y-130255671D01*
X44732452Y-130254000D01*
X43910116Y-130254000D01*
X43894877Y-130258475D01*
X43893672Y-130259865D01*
X43892001Y-130267548D01*
X43892001Y-130497095D01*
X36258000Y-130497095D01*
X36258000Y-129727885D01*
X43892000Y-129727885D01*
X43896475Y-129743124D01*
X43897865Y-129744329D01*
X43905548Y-129746000D01*
X44727885Y-129746000D01*
X44743124Y-129741525D01*
X44744329Y-129740135D01*
X44746000Y-129732452D01*
X44746000Y-128810116D01*
X44741525Y-128794877D01*
X44740135Y-128793672D01*
X44732452Y-128792001D01*
X44602905Y-128792001D01*
X44596386Y-128792338D01*
X44500794Y-128802257D01*
X44487400Y-128805149D01*
X44333216Y-128856588D01*
X44320038Y-128862761D01*
X44182193Y-128948063D01*
X44170792Y-128957099D01*
X44056261Y-129071829D01*
X44047249Y-129083240D01*
X43962184Y-129221243D01*
X43956037Y-129234424D01*
X43904862Y-129388710D01*
X43901995Y-129402086D01*
X43892328Y-129496438D01*
X43892000Y-129502855D01*
X43892000Y-129727885D01*
X36258000Y-129727885D01*
X36258000Y-128484000D01*
X36278002Y-128415879D01*
X36331658Y-128369386D01*
X36384000Y-128358000D01*
X43241298Y-128358000D01*
X43242069Y-128358002D01*
X43319652Y-128358476D01*
X43328281Y-128356010D01*
X43328286Y-128356009D01*
X43348048Y-128350361D01*
X43364809Y-128346783D01*
X43385152Y-128343870D01*
X43385162Y-128343867D01*
X43394045Y-128342595D01*
X43417395Y-128331979D01*
X43434907Y-128325536D01*
X43450937Y-128320954D01*
X43459565Y-128318488D01*
X43484548Y-128302726D01*
X43499614Y-128294596D01*
X43526510Y-128282367D01*
X43545939Y-128265626D01*
X43560947Y-128254521D01*
X43575039Y-128245630D01*
X43582631Y-128240840D01*
X43602182Y-128218703D01*
X43614374Y-128206659D01*
X43629949Y-128193239D01*
X43629950Y-128193237D01*
X43636747Y-128187381D01*
X43641626Y-128179853D01*
X43641629Y-128179850D01*
X43650696Y-128165861D01*
X43661986Y-128150987D01*
X43673012Y-128138502D01*
X43678956Y-128131772D01*
X43691510Y-128105034D01*
X43699824Y-128090065D01*
X43715893Y-128065273D01*
X43723239Y-128040709D01*
X43729901Y-128023264D01*
X43736983Y-128008179D01*
X43740799Y-128000052D01*
X43745343Y-127970870D01*
X43749126Y-127954151D01*
X43755014Y-127934464D01*
X43755015Y-127934461D01*
X43757587Y-127925859D01*
X43757797Y-127891444D01*
X43757830Y-127890672D01*
X43758000Y-127889577D01*
X43758000Y-127858702D01*
X43758002Y-127857932D01*
X43758452Y-127784284D01*
X43758452Y-127784283D01*
X43758476Y-127780348D01*
X43758092Y-127779004D01*
X43758000Y-127777659D01*
X43758000Y-119658702D01*
X43758002Y-119657932D01*
X43758421Y-119589322D01*
X43758476Y-119580348D01*
X43756010Y-119571719D01*
X43756009Y-119571714D01*
X43750361Y-119551952D01*
X43746783Y-119535191D01*
X43743870Y-119514848D01*
X43743867Y-119514838D01*
X43742595Y-119505955D01*
X43731979Y-119482605D01*
X43725536Y-119465093D01*
X43720954Y-119449063D01*
X43718488Y-119440435D01*
X43702726Y-119415452D01*
X43694596Y-119400386D01*
X43682367Y-119373490D01*
X43665626Y-119354061D01*
X43654521Y-119339053D01*
X43645630Y-119324961D01*
X43640840Y-119317369D01*
X43618703Y-119297818D01*
X43606659Y-119285626D01*
X43593239Y-119270051D01*
X43593237Y-119270050D01*
X43587381Y-119263253D01*
X43579853Y-119258374D01*
X43579850Y-119258371D01*
X43565861Y-119249304D01*
X43550987Y-119238014D01*
X43538502Y-119226988D01*
X43531772Y-119221044D01*
X43523646Y-119217229D01*
X43523645Y-119217228D01*
X43517979Y-119214568D01*
X43505034Y-119208490D01*
X43490065Y-119200176D01*
X43465273Y-119184107D01*
X43440709Y-119176761D01*
X43423264Y-119170099D01*
X43400052Y-119159201D01*
X43370870Y-119154657D01*
X43354151Y-119150874D01*
X43334464Y-119144986D01*
X43334461Y-119144985D01*
X43325859Y-119142413D01*
X43316884Y-119142358D01*
X43316883Y-119142358D01*
X43310190Y-119142317D01*
X43291444Y-119142203D01*
X43290672Y-119142170D01*
X43289577Y-119142000D01*
X43258702Y-119142000D01*
X43257932Y-119141998D01*
X43184284Y-119141548D01*
X43184283Y-119141548D01*
X43180348Y-119141524D01*
X43179004Y-119141908D01*
X43177659Y-119142000D01*
X36384000Y-119142000D01*
X36315879Y-119121998D01*
X36269386Y-119068342D01*
X36258000Y-119016000D01*
X36258000Y-105522095D01*
X43904501Y-105522095D01*
X43904838Y-105528614D01*
X43914757Y-105624206D01*
X43917649Y-105637600D01*
X43969088Y-105791784D01*
X43975261Y-105804962D01*
X44060563Y-105942807D01*
X44069599Y-105954208D01*
X44184329Y-106068739D01*
X44195740Y-106077751D01*
X44333743Y-106162816D01*
X44346924Y-106168963D01*
X44501210Y-106220138D01*
X44514586Y-106223005D01*
X44608938Y-106232672D01*
X44615354Y-106233000D01*
X44727885Y-106233000D01*
X44743124Y-106228525D01*
X44744329Y-106227135D01*
X44746000Y-106219452D01*
X44746000Y-105272115D01*
X44741525Y-105256876D01*
X44740135Y-105255671D01*
X44732452Y-105254000D01*
X43922616Y-105254000D01*
X43907377Y-105258475D01*
X43906172Y-105259865D01*
X43904501Y-105267548D01*
X43904501Y-105522095D01*
X36258000Y-105522095D01*
X36258000Y-104727885D01*
X43904500Y-104727885D01*
X43908975Y-104743124D01*
X43910365Y-104744329D01*
X43918048Y-104746000D01*
X44727885Y-104746000D01*
X44743124Y-104741525D01*
X44744329Y-104740135D01*
X44746000Y-104732452D01*
X44746000Y-103785116D01*
X44741525Y-103769877D01*
X44740135Y-103768672D01*
X44732452Y-103767001D01*
X44615405Y-103767001D01*
X44608886Y-103767338D01*
X44513294Y-103777257D01*
X44499900Y-103780149D01*
X44345716Y-103831588D01*
X44332538Y-103837761D01*
X44194693Y-103923063D01*
X44183292Y-103932099D01*
X44068761Y-104046829D01*
X44059749Y-104058240D01*
X43974684Y-104196243D01*
X43968537Y-104209424D01*
X43917362Y-104363710D01*
X43914495Y-104377086D01*
X43904828Y-104471438D01*
X43904500Y-104477855D01*
X43904500Y-104727885D01*
X36258000Y-104727885D01*
X36258000Y-102497095D01*
X43892001Y-102497095D01*
X43892338Y-102503614D01*
X43902257Y-102599206D01*
X43905149Y-102612600D01*
X43956588Y-102766784D01*
X43962761Y-102779962D01*
X44048063Y-102917807D01*
X44057099Y-102929208D01*
X44171829Y-103043739D01*
X44183240Y-103052751D01*
X44321243Y-103137816D01*
X44334424Y-103143963D01*
X44488710Y-103195138D01*
X44502086Y-103198005D01*
X44596438Y-103207672D01*
X44602854Y-103208000D01*
X44727885Y-103208000D01*
X44743124Y-103203525D01*
X44744329Y-103202135D01*
X44746000Y-103194452D01*
X44746000Y-102272115D01*
X44741525Y-102256876D01*
X44740135Y-102255671D01*
X44732452Y-102254000D01*
X43910116Y-102254000D01*
X43894877Y-102258475D01*
X43893672Y-102259865D01*
X43892001Y-102267548D01*
X43892001Y-102497095D01*
X36258000Y-102497095D01*
X36258000Y-101727885D01*
X43892000Y-101727885D01*
X43896475Y-101743124D01*
X43897865Y-101744329D01*
X43905548Y-101746000D01*
X44727885Y-101746000D01*
X44743124Y-101741525D01*
X44744329Y-101740135D01*
X44746000Y-101732452D01*
X44746000Y-100810116D01*
X44741525Y-100794877D01*
X44740135Y-100793672D01*
X44732452Y-100792001D01*
X44602905Y-100792001D01*
X44596386Y-100792338D01*
X44500794Y-100802257D01*
X44487400Y-100805149D01*
X44333216Y-100856588D01*
X44320038Y-100862761D01*
X44182193Y-100948063D01*
X44170792Y-100957099D01*
X44056261Y-101071829D01*
X44047249Y-101083240D01*
X43962184Y-101221243D01*
X43956037Y-101234424D01*
X43904862Y-101388710D01*
X43901995Y-101402086D01*
X43892328Y-101496438D01*
X43892000Y-101502855D01*
X43892000Y-101727885D01*
X36258000Y-101727885D01*
X36258000Y-100484000D01*
X36278002Y-100415879D01*
X36331658Y-100369386D01*
X36384000Y-100358000D01*
X43241298Y-100358000D01*
X43242069Y-100358002D01*
X43319652Y-100358476D01*
X43328281Y-100356010D01*
X43328286Y-100356009D01*
X43348048Y-100350361D01*
X43364809Y-100346783D01*
X43385152Y-100343870D01*
X43385162Y-100343867D01*
X43394045Y-100342595D01*
X43417395Y-100331979D01*
X43434907Y-100325536D01*
X43450937Y-100320954D01*
X43459565Y-100318488D01*
X43484548Y-100302726D01*
X43499614Y-100294596D01*
X43526510Y-100282367D01*
X43545939Y-100265626D01*
X43560947Y-100254521D01*
X43575039Y-100245630D01*
X43582631Y-100240840D01*
X43602182Y-100218703D01*
X43614374Y-100206659D01*
X43629949Y-100193239D01*
X43629950Y-100193237D01*
X43636747Y-100187381D01*
X43641626Y-100179853D01*
X43641629Y-100179850D01*
X43650696Y-100165861D01*
X43661986Y-100150987D01*
X43673012Y-100138502D01*
X43678956Y-100131772D01*
X43691510Y-100105034D01*
X43699824Y-100090065D01*
X43715893Y-100065273D01*
X43723239Y-100040709D01*
X43729901Y-100023264D01*
X43736983Y-100008179D01*
X43740799Y-100000052D01*
X43745343Y-99970870D01*
X43749126Y-99954151D01*
X43755014Y-99934464D01*
X43755015Y-99934461D01*
X43757587Y-99925859D01*
X43757797Y-99891444D01*
X43757830Y-99890672D01*
X43758000Y-99889577D01*
X43758000Y-99858702D01*
X43758002Y-99857932D01*
X43758452Y-99784284D01*
X43758452Y-99784283D01*
X43758476Y-99780348D01*
X43758092Y-99779004D01*
X43758000Y-99777659D01*
X43758000Y-91658702D01*
X43758002Y-91657932D01*
X43758421Y-91589322D01*
X43758476Y-91580348D01*
X43756010Y-91571719D01*
X43756009Y-91571714D01*
X43750361Y-91551952D01*
X43746783Y-91535191D01*
X43743870Y-91514848D01*
X43743867Y-91514838D01*
X43742595Y-91505955D01*
X43731979Y-91482605D01*
X43725536Y-91465093D01*
X43720954Y-91449063D01*
X43718488Y-91440435D01*
X43702726Y-91415452D01*
X43694596Y-91400386D01*
X43682367Y-91373490D01*
X43665626Y-91354061D01*
X43654521Y-91339053D01*
X43645630Y-91324961D01*
X43640840Y-91317369D01*
X43618703Y-91297818D01*
X43606659Y-91285626D01*
X43593239Y-91270051D01*
X43593237Y-91270050D01*
X43587381Y-91263253D01*
X43579853Y-91258374D01*
X43579850Y-91258371D01*
X43565861Y-91249304D01*
X43550987Y-91238014D01*
X43538502Y-91226988D01*
X43531772Y-91221044D01*
X43523646Y-91217229D01*
X43523645Y-91217228D01*
X43517979Y-91214568D01*
X43505034Y-91208490D01*
X43490065Y-91200176D01*
X43465273Y-91184107D01*
X43440709Y-91176761D01*
X43423264Y-91170099D01*
X43400052Y-91159201D01*
X43370870Y-91154657D01*
X43354151Y-91150874D01*
X43334464Y-91144986D01*
X43334461Y-91144985D01*
X43325859Y-91142413D01*
X43316884Y-91142358D01*
X43316883Y-91142358D01*
X43310190Y-91142317D01*
X43291444Y-91142203D01*
X43290672Y-91142170D01*
X43289577Y-91142000D01*
X43258702Y-91142000D01*
X43257932Y-91141998D01*
X43184284Y-91141548D01*
X43184283Y-91141548D01*
X43180348Y-91141524D01*
X43179004Y-91141908D01*
X43177659Y-91142000D01*
X36384000Y-91142000D01*
X36315879Y-91121998D01*
X36269386Y-91068342D01*
X36258000Y-91016000D01*
X36258000Y-77522095D01*
X43904501Y-77522095D01*
X43904838Y-77528614D01*
X43914757Y-77624206D01*
X43917649Y-77637600D01*
X43969088Y-77791784D01*
X43975261Y-77804962D01*
X44060563Y-77942807D01*
X44069599Y-77954208D01*
X44184329Y-78068739D01*
X44195740Y-78077751D01*
X44333743Y-78162816D01*
X44346924Y-78168963D01*
X44501210Y-78220138D01*
X44514586Y-78223005D01*
X44608938Y-78232672D01*
X44615354Y-78233000D01*
X44727885Y-78233000D01*
X44743124Y-78228525D01*
X44744329Y-78227135D01*
X44746000Y-78219452D01*
X44746000Y-77272115D01*
X44741525Y-77256876D01*
X44740135Y-77255671D01*
X44732452Y-77254000D01*
X43922616Y-77254000D01*
X43907377Y-77258475D01*
X43906172Y-77259865D01*
X43904501Y-77267548D01*
X43904501Y-77522095D01*
X36258000Y-77522095D01*
X36258000Y-76727885D01*
X43904500Y-76727885D01*
X43908975Y-76743124D01*
X43910365Y-76744329D01*
X43918048Y-76746000D01*
X44727885Y-76746000D01*
X44743124Y-76741525D01*
X44744329Y-76740135D01*
X44746000Y-76732452D01*
X44746000Y-75785116D01*
X44741525Y-75769877D01*
X44740135Y-75768672D01*
X44732452Y-75767001D01*
X44615405Y-75767001D01*
X44608886Y-75767338D01*
X44513294Y-75777257D01*
X44499900Y-75780149D01*
X44345716Y-75831588D01*
X44332538Y-75837761D01*
X44194693Y-75923063D01*
X44183292Y-75932099D01*
X44068761Y-76046829D01*
X44059749Y-76058240D01*
X43974684Y-76196243D01*
X43968537Y-76209424D01*
X43917362Y-76363710D01*
X43914495Y-76377086D01*
X43904828Y-76471438D01*
X43904500Y-76477855D01*
X43904500Y-76727885D01*
X36258000Y-76727885D01*
X36258000Y-74497095D01*
X43892001Y-74497095D01*
X43892338Y-74503614D01*
X43902257Y-74599206D01*
X43905149Y-74612600D01*
X43956588Y-74766784D01*
X43962761Y-74779962D01*
X44048063Y-74917807D01*
X44057099Y-74929208D01*
X44171829Y-75043739D01*
X44183240Y-75052751D01*
X44321243Y-75137816D01*
X44334424Y-75143963D01*
X44488710Y-75195138D01*
X44502086Y-75198005D01*
X44596438Y-75207672D01*
X44602854Y-75208000D01*
X44727885Y-75208000D01*
X44743124Y-75203525D01*
X44744329Y-75202135D01*
X44746000Y-75194452D01*
X44746000Y-74272115D01*
X44741525Y-74256876D01*
X44740135Y-74255671D01*
X44732452Y-74254000D01*
X43910116Y-74254000D01*
X43894877Y-74258475D01*
X43893672Y-74259865D01*
X43892001Y-74267548D01*
X43892001Y-74497095D01*
X36258000Y-74497095D01*
X36258000Y-73727885D01*
X43892000Y-73727885D01*
X43896475Y-73743124D01*
X43897865Y-73744329D01*
X43905548Y-73746000D01*
X44727885Y-73746000D01*
X44743124Y-73741525D01*
X44744329Y-73740135D01*
X44746000Y-73732452D01*
X44746000Y-72810116D01*
X44741525Y-72794877D01*
X44740135Y-72793672D01*
X44732452Y-72792001D01*
X44602905Y-72792001D01*
X44596386Y-72792338D01*
X44500794Y-72802257D01*
X44487400Y-72805149D01*
X44333216Y-72856588D01*
X44320038Y-72862761D01*
X44182193Y-72948063D01*
X44170792Y-72957099D01*
X44056261Y-73071829D01*
X44047249Y-73083240D01*
X43962184Y-73221243D01*
X43956037Y-73234424D01*
X43904862Y-73388710D01*
X43901995Y-73402086D01*
X43892328Y-73496438D01*
X43892000Y-73502855D01*
X43892000Y-73727885D01*
X36258000Y-73727885D01*
X36258000Y-72484000D01*
X36278002Y-72415879D01*
X36331658Y-72369386D01*
X36384000Y-72358000D01*
X43241298Y-72358000D01*
X43242069Y-72358002D01*
X43319652Y-72358476D01*
X43328281Y-72356010D01*
X43328286Y-72356009D01*
X43348048Y-72350361D01*
X43364809Y-72346783D01*
X43385152Y-72343870D01*
X43385162Y-72343867D01*
X43394045Y-72342595D01*
X43417395Y-72331979D01*
X43434907Y-72325536D01*
X43450937Y-72320954D01*
X43459565Y-72318488D01*
X43484548Y-72302726D01*
X43499614Y-72294596D01*
X43526510Y-72282367D01*
X43545939Y-72265626D01*
X43560947Y-72254521D01*
X43575039Y-72245630D01*
X43582631Y-72240840D01*
X43602182Y-72218703D01*
X43614374Y-72206659D01*
X43629949Y-72193239D01*
X43629950Y-72193237D01*
X43636747Y-72187381D01*
X43641626Y-72179853D01*
X43641629Y-72179850D01*
X43650696Y-72165861D01*
X43661986Y-72150987D01*
X43673012Y-72138502D01*
X43678956Y-72131772D01*
X43691510Y-72105034D01*
X43699824Y-72090065D01*
X43715893Y-72065273D01*
X43723239Y-72040709D01*
X43729901Y-72023264D01*
X43736983Y-72008179D01*
X43740799Y-72000052D01*
X43745343Y-71970870D01*
X43749126Y-71954151D01*
X43755014Y-71934464D01*
X43755015Y-71934461D01*
X43757587Y-71925859D01*
X43757797Y-71891444D01*
X43757830Y-71890672D01*
X43758000Y-71889577D01*
X43758000Y-71858702D01*
X43758002Y-71857932D01*
X43758452Y-71784284D01*
X43758452Y-71784283D01*
X43758476Y-71780348D01*
X43758092Y-71779004D01*
X43758000Y-71777659D01*
X43758000Y-63658702D01*
X43758002Y-63657932D01*
X43758421Y-63589322D01*
X43758476Y-63580348D01*
X43756010Y-63571719D01*
X43756009Y-63571714D01*
X43750361Y-63551952D01*
X43746783Y-63535191D01*
X43743870Y-63514848D01*
X43743867Y-63514838D01*
X43742595Y-63505955D01*
X43731979Y-63482605D01*
X43725536Y-63465093D01*
X43720954Y-63449063D01*
X43718488Y-63440435D01*
X43702726Y-63415452D01*
X43694596Y-63400386D01*
X43682367Y-63373490D01*
X43665626Y-63354061D01*
X43654521Y-63339053D01*
X43645630Y-63324961D01*
X43640840Y-63317369D01*
X43618703Y-63297818D01*
X43606659Y-63285626D01*
X43593239Y-63270051D01*
X43593237Y-63270050D01*
X43587381Y-63263253D01*
X43579853Y-63258374D01*
X43579850Y-63258371D01*
X43565861Y-63249304D01*
X43550987Y-63238014D01*
X43538502Y-63226988D01*
X43531772Y-63221044D01*
X43523646Y-63217229D01*
X43523645Y-63217228D01*
X43517979Y-63214568D01*
X43505034Y-63208490D01*
X43490065Y-63200176D01*
X43465273Y-63184107D01*
X43440709Y-63176761D01*
X43423264Y-63170099D01*
X43400052Y-63159201D01*
X43370870Y-63154657D01*
X43354151Y-63150874D01*
X43334464Y-63144986D01*
X43334461Y-63144985D01*
X43325859Y-63142413D01*
X43316884Y-63142358D01*
X43316883Y-63142358D01*
X43310190Y-63142317D01*
X43291444Y-63142203D01*
X43290672Y-63142170D01*
X43289577Y-63142000D01*
X43258702Y-63142000D01*
X43257932Y-63141998D01*
X43184284Y-63141548D01*
X43184283Y-63141548D01*
X43180348Y-63141524D01*
X43179004Y-63141908D01*
X43177659Y-63142000D01*
X36384000Y-63142000D01*
X36315879Y-63121998D01*
X36269386Y-63068342D01*
X36258000Y-63016000D01*
X36258000Y-49522095D01*
X43904501Y-49522095D01*
X43904838Y-49528614D01*
X43914757Y-49624206D01*
X43917649Y-49637600D01*
X43969088Y-49791784D01*
X43975261Y-49804962D01*
X44060563Y-49942807D01*
X44069599Y-49954208D01*
X44184329Y-50068739D01*
X44195740Y-50077751D01*
X44333743Y-50162816D01*
X44346924Y-50168963D01*
X44501210Y-50220138D01*
X44514586Y-50223005D01*
X44608938Y-50232672D01*
X44615354Y-50233000D01*
X44727885Y-50233000D01*
X44743124Y-50228525D01*
X44744329Y-50227135D01*
X44746000Y-50219452D01*
X44746000Y-49272115D01*
X44741525Y-49256876D01*
X44740135Y-49255671D01*
X44732452Y-49254000D01*
X43922616Y-49254000D01*
X43907377Y-49258475D01*
X43906172Y-49259865D01*
X43904501Y-49267548D01*
X43904501Y-49522095D01*
X36258000Y-49522095D01*
X36258000Y-48727885D01*
X43904500Y-48727885D01*
X43908975Y-48743124D01*
X43910365Y-48744329D01*
X43918048Y-48746000D01*
X44727885Y-48746000D01*
X44743124Y-48741525D01*
X44744329Y-48740135D01*
X44746000Y-48732452D01*
X44746000Y-47785116D01*
X44741525Y-47769877D01*
X44740135Y-47768672D01*
X44732452Y-47767001D01*
X44615405Y-47767001D01*
X44608886Y-47767338D01*
X44513294Y-47777257D01*
X44499900Y-47780149D01*
X44345716Y-47831588D01*
X44332538Y-47837761D01*
X44194693Y-47923063D01*
X44183292Y-47932099D01*
X44068761Y-48046829D01*
X44059749Y-48058240D01*
X43974684Y-48196243D01*
X43968537Y-48209424D01*
X43917362Y-48363710D01*
X43914495Y-48377086D01*
X43904828Y-48471438D01*
X43904500Y-48477855D01*
X43904500Y-48727885D01*
X36258000Y-48727885D01*
X36258000Y-46497095D01*
X43892001Y-46497095D01*
X43892338Y-46503614D01*
X43902257Y-46599206D01*
X43905149Y-46612600D01*
X43956588Y-46766784D01*
X43962761Y-46779962D01*
X44048063Y-46917807D01*
X44057099Y-46929208D01*
X44171829Y-47043739D01*
X44183240Y-47052751D01*
X44321243Y-47137816D01*
X44334424Y-47143963D01*
X44488710Y-47195138D01*
X44502086Y-47198005D01*
X44596438Y-47207672D01*
X44602854Y-47208000D01*
X44727885Y-47208000D01*
X44743124Y-47203525D01*
X44744329Y-47202135D01*
X44746000Y-47194452D01*
X44746000Y-46272115D01*
X44741525Y-46256876D01*
X44740135Y-46255671D01*
X44732452Y-46254000D01*
X43910116Y-46254000D01*
X43894877Y-46258475D01*
X43893672Y-46259865D01*
X43892001Y-46267548D01*
X43892001Y-46497095D01*
X36258000Y-46497095D01*
X36258000Y-45727885D01*
X43892000Y-45727885D01*
X43896475Y-45743124D01*
X43897865Y-45744329D01*
X43905548Y-45746000D01*
X44727885Y-45746000D01*
X44743124Y-45741525D01*
X44744329Y-45740135D01*
X44746000Y-45732452D01*
X44746000Y-44810116D01*
X44741525Y-44794877D01*
X44740135Y-44793672D01*
X44732452Y-44792001D01*
X44602905Y-44792001D01*
X44596386Y-44792338D01*
X44500794Y-44802257D01*
X44487400Y-44805149D01*
X44333216Y-44856588D01*
X44320038Y-44862761D01*
X44182193Y-44948063D01*
X44170792Y-44957099D01*
X44056261Y-45071829D01*
X44047249Y-45083240D01*
X43962184Y-45221243D01*
X43956037Y-45234424D01*
X43904862Y-45388710D01*
X43901995Y-45402086D01*
X43892328Y-45496438D01*
X43892000Y-45502855D01*
X43892000Y-45727885D01*
X36258000Y-45727885D01*
X36258000Y-44484000D01*
X36278002Y-44415879D01*
X36331658Y-44369386D01*
X36384000Y-44358000D01*
X43241298Y-44358000D01*
X43242069Y-44358002D01*
X43319652Y-44358476D01*
X43328281Y-44356010D01*
X43328286Y-44356009D01*
X43348048Y-44350361D01*
X43364809Y-44346783D01*
X43385152Y-44343870D01*
X43385162Y-44343867D01*
X43394045Y-44342595D01*
X43417395Y-44331979D01*
X43434907Y-44325536D01*
X43450937Y-44320954D01*
X43459565Y-44318488D01*
X43484548Y-44302726D01*
X43499614Y-44294596D01*
X43526510Y-44282367D01*
X43545939Y-44265626D01*
X43560947Y-44254521D01*
X43575039Y-44245630D01*
X43582631Y-44240840D01*
X43602182Y-44218703D01*
X43614374Y-44206659D01*
X43629949Y-44193239D01*
X43629950Y-44193237D01*
X43636747Y-44187381D01*
X43641626Y-44179853D01*
X43641629Y-44179850D01*
X43650696Y-44165861D01*
X43661986Y-44150987D01*
X43673012Y-44138502D01*
X43678956Y-44131772D01*
X43691510Y-44105034D01*
X43699824Y-44090065D01*
X43715893Y-44065273D01*
X43723239Y-44040709D01*
X43729901Y-44023264D01*
X43736983Y-44008179D01*
X43740799Y-44000052D01*
X43745343Y-43970870D01*
X43749126Y-43954151D01*
X43755014Y-43934464D01*
X43755015Y-43934461D01*
X43757587Y-43925859D01*
X43757797Y-43891444D01*
X43757830Y-43890672D01*
X43758000Y-43889577D01*
X43758000Y-43858702D01*
X43758002Y-43857932D01*
X43758452Y-43784284D01*
X43758452Y-43784283D01*
X43758476Y-43780348D01*
X43758092Y-43779004D01*
X43758000Y-43777659D01*
X43758000Y-35658702D01*
X43758002Y-35657932D01*
X43758421Y-35589322D01*
X43758476Y-35580348D01*
X43756010Y-35571719D01*
X43756009Y-35571714D01*
X43750361Y-35551952D01*
X43746783Y-35535191D01*
X43743870Y-35514848D01*
X43743867Y-35514838D01*
X43742595Y-35505955D01*
X43731979Y-35482605D01*
X43725536Y-35465093D01*
X43720954Y-35449063D01*
X43718488Y-35440435D01*
X43702726Y-35415452D01*
X43694596Y-35400386D01*
X43682367Y-35373490D01*
X43665626Y-35354061D01*
X43654521Y-35339053D01*
X43645630Y-35324961D01*
X43640840Y-35317369D01*
X43618703Y-35297818D01*
X43606659Y-35285626D01*
X43593239Y-35270051D01*
X43593237Y-35270050D01*
X43587381Y-35263253D01*
X43579853Y-35258374D01*
X43579850Y-35258371D01*
X43565861Y-35249304D01*
X43550987Y-35238014D01*
X43538502Y-35226988D01*
X43531772Y-35221044D01*
X43523646Y-35217229D01*
X43523645Y-35217228D01*
X43517979Y-35214568D01*
X43505034Y-35208490D01*
X43490065Y-35200176D01*
X43465273Y-35184107D01*
X43440709Y-35176761D01*
X43423264Y-35170099D01*
X43400052Y-35159201D01*
X43370870Y-35154657D01*
X43354151Y-35150874D01*
X43334464Y-35144986D01*
X43334461Y-35144985D01*
X43325859Y-35142413D01*
X43316884Y-35142358D01*
X43316883Y-35142358D01*
X43310190Y-35142317D01*
X43291444Y-35142203D01*
X43290672Y-35142170D01*
X43289577Y-35142000D01*
X43258702Y-35142000D01*
X43257932Y-35141998D01*
X43184284Y-35141548D01*
X43184283Y-35141548D01*
X43180348Y-35141524D01*
X43179004Y-35141908D01*
X43177659Y-35142000D01*
X36384000Y-35142000D01*
X36315879Y-35121998D01*
X36269386Y-35068342D01*
X36258000Y-35016000D01*
X36258000Y-29384000D01*
X36278002Y-29315879D01*
X36331658Y-29269386D01*
X36384000Y-29258000D01*
X45724000Y-29258000D01*
X45792121Y-29278002D01*
G37*
%TD.AperFunction*%
%TD*%
M02*
