%TF.GenerationSoftware,KiCad,Pcbnew,(6.0.0)*%
%TF.CreationDate,2022-10-10T13:55:59+02:00*%
%TF.ProjectId,led_bar,6c65645f-6261-4722-9e6b-696361645f70,rev?*%
%TF.SameCoordinates,Original*%
%TF.FileFunction,Legend,Top*%
%TF.FilePolarity,Positive*%
%FSLAX46Y46*%
G04 Gerber Fmt 4.6, Leading zero omitted, Abs format (unit mm)*
G04 Created by KiCad (PCBNEW (6.0.0)) date 2022-10-10 13:55:59*
%MOMM*%
%LPD*%
G01*
G04 APERTURE LIST*
%ADD10C,0.150000*%
%ADD11C,0.130000*%
%ADD12C,0.120000*%
G04 APERTURE END LIST*
D10*
X45238095Y-310600000D02*
X45142857Y-310552380D01*
X45000000Y-310552380D01*
X44857142Y-310600000D01*
X44761904Y-310695238D01*
X44714285Y-310790476D01*
X44666666Y-310980952D01*
X44666666Y-311123809D01*
X44714285Y-311314285D01*
X44761904Y-311409523D01*
X44857142Y-311504761D01*
X45000000Y-311552380D01*
X45095238Y-311552380D01*
X45238095Y-311504761D01*
X45285714Y-311457142D01*
X45285714Y-311123809D01*
X45095238Y-311123809D01*
X45714285Y-311552380D02*
X45714285Y-310552380D01*
X46285714Y-311552380D01*
X46285714Y-310552380D01*
X46761904Y-311552380D02*
X46761904Y-310552380D01*
X47000000Y-310552380D01*
X47142857Y-310600000D01*
X47238095Y-310695238D01*
X47285714Y-310790476D01*
X47333333Y-310980952D01*
X47333333Y-311123809D01*
X47285714Y-311314285D01*
X47238095Y-311409523D01*
X47142857Y-311504761D01*
X47000000Y-311552380D01*
X46761904Y-311552380D01*
D11*
X36905928Y-304429904D02*
X36524976Y-304429904D01*
X36524976Y-303629904D01*
X37172595Y-304010857D02*
X37439261Y-304010857D01*
X37553547Y-304429904D02*
X37172595Y-304429904D01*
X37172595Y-303629904D01*
X37553547Y-303629904D01*
X37896404Y-304429904D02*
X37896404Y-303629904D01*
X38086880Y-303629904D01*
X38201166Y-303668000D01*
X38277357Y-303744190D01*
X38315452Y-303820380D01*
X38353547Y-303972761D01*
X38353547Y-304087047D01*
X38315452Y-304239428D01*
X38277357Y-304315619D01*
X38201166Y-304391809D01*
X38086880Y-304429904D01*
X37896404Y-304429904D01*
X39572595Y-304010857D02*
X39686880Y-304048952D01*
X39724976Y-304087047D01*
X39763071Y-304163238D01*
X39763071Y-304277523D01*
X39724976Y-304353714D01*
X39686880Y-304391809D01*
X39610690Y-304429904D01*
X39305928Y-304429904D01*
X39305928Y-303629904D01*
X39572595Y-303629904D01*
X39648785Y-303668000D01*
X39686880Y-303706095D01*
X39724976Y-303782285D01*
X39724976Y-303858476D01*
X39686880Y-303934666D01*
X39648785Y-303972761D01*
X39572595Y-304010857D01*
X39305928Y-304010857D01*
X40448785Y-304429904D02*
X40448785Y-304010857D01*
X40410690Y-303934666D01*
X40334500Y-303896571D01*
X40182119Y-303896571D01*
X40105928Y-303934666D01*
X40448785Y-304391809D02*
X40372595Y-304429904D01*
X40182119Y-304429904D01*
X40105928Y-304391809D01*
X40067833Y-304315619D01*
X40067833Y-304239428D01*
X40105928Y-304163238D01*
X40182119Y-304125142D01*
X40372595Y-304125142D01*
X40448785Y-304087047D01*
X40829738Y-304429904D02*
X40829738Y-303896571D01*
X40829738Y-304048952D02*
X40867833Y-303972761D01*
X40905928Y-303934666D01*
X40982119Y-303896571D01*
X41058309Y-303896571D01*
X41667833Y-303896571D02*
X41667833Y-304544190D01*
X41629738Y-304620380D01*
X41591642Y-304658476D01*
X41515452Y-304696571D01*
X41401166Y-304696571D01*
X41324976Y-304658476D01*
X41667833Y-304391809D02*
X41591642Y-304429904D01*
X41439261Y-304429904D01*
X41363071Y-304391809D01*
X41324976Y-304353714D01*
X41286880Y-304277523D01*
X41286880Y-304048952D01*
X41324976Y-303972761D01*
X41363071Y-303934666D01*
X41439261Y-303896571D01*
X41591642Y-303896571D01*
X41667833Y-303934666D01*
X42048785Y-304429904D02*
X42048785Y-303896571D01*
X42048785Y-304048952D02*
X42086880Y-303972761D01*
X42124976Y-303934666D01*
X42201166Y-303896571D01*
X42277357Y-303896571D01*
X42886880Y-304429904D02*
X42886880Y-304010857D01*
X42848785Y-303934666D01*
X42772595Y-303896571D01*
X42620214Y-303896571D01*
X42544023Y-303934666D01*
X42886880Y-304391809D02*
X42810690Y-304429904D01*
X42620214Y-304429904D01*
X42544023Y-304391809D01*
X42505928Y-304315619D01*
X42505928Y-304239428D01*
X42544023Y-304163238D01*
X42620214Y-304125142D01*
X42810690Y-304125142D01*
X42886880Y-304087047D01*
X43267833Y-303896571D02*
X43267833Y-304696571D01*
X43267833Y-303934666D02*
X43344023Y-303896571D01*
X43496404Y-303896571D01*
X43572595Y-303934666D01*
X43610690Y-303972761D01*
X43648785Y-304048952D01*
X43648785Y-304277523D01*
X43610690Y-304353714D01*
X43572595Y-304391809D01*
X43496404Y-304429904D01*
X43344023Y-304429904D01*
X43267833Y-304391809D01*
X43991642Y-304429904D02*
X43991642Y-303629904D01*
X44334500Y-304429904D02*
X44334500Y-304010857D01*
X44296404Y-303934666D01*
X44220214Y-303896571D01*
X44105928Y-303896571D01*
X44029738Y-303934666D01*
X43991642Y-303972761D01*
X36982119Y-305717904D02*
X36715452Y-305336952D01*
X36524976Y-305717904D02*
X36524976Y-304917904D01*
X36829738Y-304917904D01*
X36905928Y-304956000D01*
X36944023Y-304994095D01*
X36982119Y-305070285D01*
X36982119Y-305184571D01*
X36944023Y-305260761D01*
X36905928Y-305298857D01*
X36829738Y-305336952D01*
X36524976Y-305336952D01*
X37629738Y-305679809D02*
X37553547Y-305717904D01*
X37401166Y-305717904D01*
X37324976Y-305679809D01*
X37286880Y-305603619D01*
X37286880Y-305298857D01*
X37324976Y-305222666D01*
X37401166Y-305184571D01*
X37553547Y-305184571D01*
X37629738Y-305222666D01*
X37667833Y-305298857D01*
X37667833Y-305375047D01*
X37286880Y-305451238D01*
X37934500Y-305184571D02*
X38124976Y-305717904D01*
X38315452Y-305184571D01*
X39039261Y-305717904D02*
X38582119Y-305717904D01*
X38810690Y-305717904D02*
X38810690Y-304917904D01*
X38734500Y-305032190D01*
X38658309Y-305108380D01*
X38582119Y-305146476D01*
X39382119Y-305641714D02*
X39420214Y-305679809D01*
X39382119Y-305717904D01*
X39344023Y-305679809D01*
X39382119Y-305641714D01*
X39382119Y-305717904D01*
X39915452Y-304917904D02*
X39991642Y-304917904D01*
X40067833Y-304956000D01*
X40105928Y-304994095D01*
X40144023Y-305070285D01*
X40182119Y-305222666D01*
X40182119Y-305413142D01*
X40144023Y-305565523D01*
X40105928Y-305641714D01*
X40067833Y-305679809D01*
X39991642Y-305717904D01*
X39915452Y-305717904D01*
X39839261Y-305679809D01*
X39801166Y-305641714D01*
X39763071Y-305565523D01*
X39724976Y-305413142D01*
X39724976Y-305222666D01*
X39763071Y-305070285D01*
X39801166Y-304994095D01*
X39839261Y-304956000D01*
X39915452Y-304917904D01*
X36524976Y-308293904D02*
X36524976Y-307493904D01*
X36715452Y-307493904D01*
X36829738Y-307532000D01*
X36905928Y-307608190D01*
X36944023Y-307684380D01*
X36982119Y-307836761D01*
X36982119Y-307951047D01*
X36944023Y-308103428D01*
X36905928Y-308179619D01*
X36829738Y-308255809D01*
X36715452Y-308293904D01*
X36524976Y-308293904D01*
X37324976Y-308217714D02*
X37363071Y-308255809D01*
X37324976Y-308293904D01*
X37286880Y-308255809D01*
X37324976Y-308217714D01*
X37324976Y-308293904D01*
X38848785Y-308370095D02*
X38772595Y-308332000D01*
X38696404Y-308255809D01*
X38582119Y-308141523D01*
X38505928Y-308103428D01*
X38429738Y-308103428D01*
X38467833Y-308293904D02*
X38391642Y-308255809D01*
X38315452Y-308179619D01*
X38277357Y-308027238D01*
X38277357Y-307760571D01*
X38315452Y-307608190D01*
X38391642Y-307532000D01*
X38467833Y-307493904D01*
X38620214Y-307493904D01*
X38696404Y-307532000D01*
X38772595Y-307608190D01*
X38810690Y-307760571D01*
X38810690Y-308027238D01*
X38772595Y-308179619D01*
X38696404Y-308255809D01*
X38620214Y-308293904D01*
X38467833Y-308293904D01*
X39496404Y-307760571D02*
X39496404Y-308293904D01*
X39153547Y-307760571D02*
X39153547Y-308179619D01*
X39191642Y-308255809D01*
X39267833Y-308293904D01*
X39382119Y-308293904D01*
X39458309Y-308255809D01*
X39496404Y-308217714D01*
X40220214Y-308293904D02*
X40220214Y-307874857D01*
X40182119Y-307798666D01*
X40105928Y-307760571D01*
X39953547Y-307760571D01*
X39877357Y-307798666D01*
X40220214Y-308255809D02*
X40144023Y-308293904D01*
X39953547Y-308293904D01*
X39877357Y-308255809D01*
X39839261Y-308179619D01*
X39839261Y-308103428D01*
X39877357Y-308027238D01*
X39953547Y-307989142D01*
X40144023Y-307989142D01*
X40220214Y-307951047D01*
X40944023Y-308255809D02*
X40867833Y-308293904D01*
X40715452Y-308293904D01*
X40639261Y-308255809D01*
X40601166Y-308217714D01*
X40563071Y-308141523D01*
X40563071Y-307912952D01*
X40601166Y-307836761D01*
X40639261Y-307798666D01*
X40715452Y-307760571D01*
X40867833Y-307760571D01*
X40944023Y-307798666D01*
X41286880Y-308293904D02*
X41286880Y-307493904D01*
X41629738Y-308293904D02*
X41629738Y-307874857D01*
X41591642Y-307798666D01*
X41515452Y-307760571D01*
X41401166Y-307760571D01*
X41324976Y-307798666D01*
X41286880Y-307836761D01*
D10*
%TO.C,D10*%
X52285714Y-294952380D02*
X52285714Y-293952380D01*
X52523809Y-293952380D01*
X52666666Y-294000000D01*
X52761904Y-294095238D01*
X52809523Y-294190476D01*
X52857142Y-294380952D01*
X52857142Y-294523809D01*
X52809523Y-294714285D01*
X52761904Y-294809523D01*
X52666666Y-294904761D01*
X52523809Y-294952380D01*
X52285714Y-294952380D01*
X53809523Y-294952380D02*
X53238095Y-294952380D01*
X53523809Y-294952380D02*
X53523809Y-293952380D01*
X53428571Y-294095238D01*
X53333333Y-294190476D01*
X53238095Y-294238095D01*
X54428571Y-293952380D02*
X54523809Y-293952380D01*
X54619047Y-294000000D01*
X54666666Y-294047619D01*
X54714285Y-294142857D01*
X54761904Y-294333333D01*
X54761904Y-294571428D01*
X54714285Y-294761904D01*
X54666666Y-294857142D01*
X54619047Y-294904761D01*
X54523809Y-294952380D01*
X54428571Y-294952380D01*
X54333333Y-294904761D01*
X54285714Y-294857142D01*
X54238095Y-294761904D01*
X54190476Y-294571428D01*
X54190476Y-294333333D01*
X54238095Y-294142857D01*
X54285714Y-294047619D01*
X54333333Y-294000000D01*
X54428571Y-293952380D01*
%TO.C,D7*%
X52261904Y-210852380D02*
X52261904Y-209852380D01*
X52500000Y-209852380D01*
X52642857Y-209900000D01*
X52738095Y-209995238D01*
X52785714Y-210090476D01*
X52833333Y-210280952D01*
X52833333Y-210423809D01*
X52785714Y-210614285D01*
X52738095Y-210709523D01*
X52642857Y-210804761D01*
X52500000Y-210852380D01*
X52261904Y-210852380D01*
X53166666Y-209852380D02*
X53833333Y-209852380D01*
X53404761Y-210852380D01*
%TO.C,D29*%
X81540714Y-268162380D02*
X81540714Y-267162380D01*
X81778809Y-267162380D01*
X81921666Y-267210000D01*
X82016904Y-267305238D01*
X82064523Y-267400476D01*
X82112142Y-267590952D01*
X82112142Y-267733809D01*
X82064523Y-267924285D01*
X82016904Y-268019523D01*
X81921666Y-268114761D01*
X81778809Y-268162380D01*
X81540714Y-268162380D01*
X82493095Y-267257619D02*
X82540714Y-267210000D01*
X82635952Y-267162380D01*
X82874047Y-267162380D01*
X82969285Y-267210000D01*
X83016904Y-267257619D01*
X83064523Y-267352857D01*
X83064523Y-267448095D01*
X83016904Y-267590952D01*
X82445476Y-268162380D01*
X83064523Y-268162380D01*
X83540714Y-268162380D02*
X83731190Y-268162380D01*
X83826428Y-268114761D01*
X83874047Y-268067142D01*
X83969285Y-267924285D01*
X84016904Y-267733809D01*
X84016904Y-267352857D01*
X83969285Y-267257619D01*
X83921666Y-267210000D01*
X83826428Y-267162380D01*
X83635952Y-267162380D01*
X83540714Y-267210000D01*
X83493095Y-267257619D01*
X83445476Y-267352857D01*
X83445476Y-267590952D01*
X83493095Y-267686190D01*
X83540714Y-267733809D01*
X83635952Y-267781428D01*
X83826428Y-267781428D01*
X83921666Y-267733809D01*
X83969285Y-267686190D01*
X84016904Y-267590952D01*
%TO.C,D14*%
X64540714Y-128162380D02*
X64540714Y-127162380D01*
X64778809Y-127162380D01*
X64921666Y-127210000D01*
X65016904Y-127305238D01*
X65064523Y-127400476D01*
X65112142Y-127590952D01*
X65112142Y-127733809D01*
X65064523Y-127924285D01*
X65016904Y-128019523D01*
X64921666Y-128114761D01*
X64778809Y-128162380D01*
X64540714Y-128162380D01*
X66064523Y-128162380D02*
X65493095Y-128162380D01*
X65778809Y-128162380D02*
X65778809Y-127162380D01*
X65683571Y-127305238D01*
X65588333Y-127400476D01*
X65493095Y-127448095D01*
X66921666Y-127495714D02*
X66921666Y-128162380D01*
X66683571Y-127114761D02*
X66445476Y-127829047D01*
X67064523Y-127829047D01*
%TO.C,*%
%TO.C,D15*%
X69385714Y-154652380D02*
X69385714Y-153652380D01*
X69623809Y-153652380D01*
X69766666Y-153700000D01*
X69861904Y-153795238D01*
X69909523Y-153890476D01*
X69957142Y-154080952D01*
X69957142Y-154223809D01*
X69909523Y-154414285D01*
X69861904Y-154509523D01*
X69766666Y-154604761D01*
X69623809Y-154652380D01*
X69385714Y-154652380D01*
X70909523Y-154652380D02*
X70338095Y-154652380D01*
X70623809Y-154652380D02*
X70623809Y-153652380D01*
X70528571Y-153795238D01*
X70433333Y-153890476D01*
X70338095Y-153938095D01*
X71814285Y-153652380D02*
X71338095Y-153652380D01*
X71290476Y-154128571D01*
X71338095Y-154080952D01*
X71433333Y-154033333D01*
X71671428Y-154033333D01*
X71766666Y-154080952D01*
X71814285Y-154128571D01*
X71861904Y-154223809D01*
X71861904Y-154461904D01*
X71814285Y-154557142D01*
X71766666Y-154604761D01*
X71671428Y-154652380D01*
X71433333Y-154652380D01*
X71338095Y-154604761D01*
X71290476Y-154557142D01*
%TO.C,D27*%
X81540714Y-212162380D02*
X81540714Y-211162380D01*
X81778809Y-211162380D01*
X81921666Y-211210000D01*
X82016904Y-211305238D01*
X82064523Y-211400476D01*
X82112142Y-211590952D01*
X82112142Y-211733809D01*
X82064523Y-211924285D01*
X82016904Y-212019523D01*
X81921666Y-212114761D01*
X81778809Y-212162380D01*
X81540714Y-212162380D01*
X82493095Y-211257619D02*
X82540714Y-211210000D01*
X82635952Y-211162380D01*
X82874047Y-211162380D01*
X82969285Y-211210000D01*
X83016904Y-211257619D01*
X83064523Y-211352857D01*
X83064523Y-211448095D01*
X83016904Y-211590952D01*
X82445476Y-212162380D01*
X83064523Y-212162380D01*
X83397857Y-211162380D02*
X84064523Y-211162380D01*
X83635952Y-212162380D01*
%TO.C,C7*%
X45833333Y-219107142D02*
X45785714Y-219154761D01*
X45642857Y-219202380D01*
X45547619Y-219202380D01*
X45404761Y-219154761D01*
X45309523Y-219059523D01*
X45261904Y-218964285D01*
X45214285Y-218773809D01*
X45214285Y-218630952D01*
X45261904Y-218440476D01*
X45309523Y-218345238D01*
X45404761Y-218250000D01*
X45547619Y-218202380D01*
X45642857Y-218202380D01*
X45785714Y-218250000D01*
X45833333Y-218297619D01*
X46166666Y-218202380D02*
X46833333Y-218202380D01*
X46404761Y-219202380D01*
%TO.C,D25*%
X81540714Y-156162380D02*
X81540714Y-155162380D01*
X81778809Y-155162380D01*
X81921666Y-155210000D01*
X82016904Y-155305238D01*
X82064523Y-155400476D01*
X82112142Y-155590952D01*
X82112142Y-155733809D01*
X82064523Y-155924285D01*
X82016904Y-156019523D01*
X81921666Y-156114761D01*
X81778809Y-156162380D01*
X81540714Y-156162380D01*
X82493095Y-155257619D02*
X82540714Y-155210000D01*
X82635952Y-155162380D01*
X82874047Y-155162380D01*
X82969285Y-155210000D01*
X83016904Y-155257619D01*
X83064523Y-155352857D01*
X83064523Y-155448095D01*
X83016904Y-155590952D01*
X82445476Y-156162380D01*
X83064523Y-156162380D01*
X83969285Y-155162380D02*
X83493095Y-155162380D01*
X83445476Y-155638571D01*
X83493095Y-155590952D01*
X83588333Y-155543333D01*
X83826428Y-155543333D01*
X83921666Y-155590952D01*
X83969285Y-155638571D01*
X84016904Y-155733809D01*
X84016904Y-155971904D01*
X83969285Y-156067142D01*
X83921666Y-156114761D01*
X83826428Y-156162380D01*
X83588333Y-156162380D01*
X83493095Y-156114761D01*
X83445476Y-156067142D01*
%TO.C,*%
%TO.C,D23*%
X81540714Y-100162380D02*
X81540714Y-99162380D01*
X81778809Y-99162380D01*
X81921666Y-99210000D01*
X82016904Y-99305238D01*
X82064523Y-99400476D01*
X82112142Y-99590952D01*
X82112142Y-99733809D01*
X82064523Y-99924285D01*
X82016904Y-100019523D01*
X81921666Y-100114761D01*
X81778809Y-100162380D01*
X81540714Y-100162380D01*
X82493095Y-99257619D02*
X82540714Y-99210000D01*
X82635952Y-99162380D01*
X82874047Y-99162380D01*
X82969285Y-99210000D01*
X83016904Y-99257619D01*
X83064523Y-99352857D01*
X83064523Y-99448095D01*
X83016904Y-99590952D01*
X82445476Y-100162380D01*
X83064523Y-100162380D01*
X83397857Y-99162380D02*
X84016904Y-99162380D01*
X83683571Y-99543333D01*
X83826428Y-99543333D01*
X83921666Y-99590952D01*
X83969285Y-99638571D01*
X84016904Y-99733809D01*
X84016904Y-99971904D01*
X83969285Y-100067142D01*
X83921666Y-100114761D01*
X83826428Y-100162380D01*
X83540714Y-100162380D01*
X83445476Y-100114761D01*
X83397857Y-100067142D01*
%TO.C,*%
%TO.C,R8*%
X45833333Y-240802380D02*
X45500000Y-240326190D01*
X45261904Y-240802380D02*
X45261904Y-239802380D01*
X45642857Y-239802380D01*
X45738095Y-239850000D01*
X45785714Y-239897619D01*
X45833333Y-239992857D01*
X45833333Y-240135714D01*
X45785714Y-240230952D01*
X45738095Y-240278571D01*
X45642857Y-240326190D01*
X45261904Y-240326190D01*
X46404761Y-240230952D02*
X46309523Y-240183333D01*
X46261904Y-240135714D01*
X46214285Y-240040476D01*
X46214285Y-239992857D01*
X46261904Y-239897619D01*
X46309523Y-239850000D01*
X46404761Y-239802380D01*
X46595238Y-239802380D01*
X46690476Y-239850000D01*
X46738095Y-239897619D01*
X46785714Y-239992857D01*
X46785714Y-240040476D01*
X46738095Y-240135714D01*
X46690476Y-240183333D01*
X46595238Y-240230952D01*
X46404761Y-240230952D01*
X46309523Y-240278571D01*
X46261904Y-240326190D01*
X46214285Y-240421428D01*
X46214285Y-240611904D01*
X46261904Y-240707142D01*
X46309523Y-240754761D01*
X46404761Y-240802380D01*
X46595238Y-240802380D01*
X46690476Y-240754761D01*
X46738095Y-240707142D01*
X46785714Y-240611904D01*
X46785714Y-240421428D01*
X46738095Y-240326190D01*
X46690476Y-240278571D01*
X46595238Y-240230952D01*
%TO.C,JP6*%
X65166666Y-169952380D02*
X65166666Y-170666666D01*
X65119047Y-170809523D01*
X65023809Y-170904761D01*
X64880952Y-170952380D01*
X64785714Y-170952380D01*
X65642857Y-170952380D02*
X65642857Y-169952380D01*
X66023809Y-169952380D01*
X66119047Y-170000000D01*
X66166666Y-170047619D01*
X66214285Y-170142857D01*
X66214285Y-170285714D01*
X66166666Y-170380952D01*
X66119047Y-170428571D01*
X66023809Y-170476190D01*
X65642857Y-170476190D01*
X67071428Y-169952380D02*
X66880952Y-169952380D01*
X66785714Y-170000000D01*
X66738095Y-170047619D01*
X66642857Y-170190476D01*
X66595238Y-170380952D01*
X66595238Y-170761904D01*
X66642857Y-170857142D01*
X66690476Y-170904761D01*
X66785714Y-170952380D01*
X66976190Y-170952380D01*
X67071428Y-170904761D01*
X67119047Y-170857142D01*
X67166666Y-170761904D01*
X67166666Y-170523809D01*
X67119047Y-170428571D01*
X67071428Y-170380952D01*
X66976190Y-170333333D01*
X66785714Y-170333333D01*
X66690476Y-170380952D01*
X66642857Y-170428571D01*
X66595238Y-170523809D01*
%TO.C,JP3*%
X65191666Y-85652380D02*
X65191666Y-86366666D01*
X65144047Y-86509523D01*
X65048809Y-86604761D01*
X64905952Y-86652380D01*
X64810714Y-86652380D01*
X65667857Y-86652380D02*
X65667857Y-85652380D01*
X66048809Y-85652380D01*
X66144047Y-85700000D01*
X66191666Y-85747619D01*
X66239285Y-85842857D01*
X66239285Y-85985714D01*
X66191666Y-86080952D01*
X66144047Y-86128571D01*
X66048809Y-86176190D01*
X65667857Y-86176190D01*
X66572619Y-85652380D02*
X67191666Y-85652380D01*
X66858333Y-86033333D01*
X67001190Y-86033333D01*
X67096428Y-86080952D01*
X67144047Y-86128571D01*
X67191666Y-86223809D01*
X67191666Y-86461904D01*
X67144047Y-86557142D01*
X67096428Y-86604761D01*
X67001190Y-86652380D01*
X66715476Y-86652380D01*
X66620238Y-86604761D01*
X66572619Y-86557142D01*
%TO.C,*%
%TO.C,C9*%
X45083333Y-275607142D02*
X45035714Y-275654761D01*
X44892857Y-275702380D01*
X44797619Y-275702380D01*
X44654761Y-275654761D01*
X44559523Y-275559523D01*
X44511904Y-275464285D01*
X44464285Y-275273809D01*
X44464285Y-275130952D01*
X44511904Y-274940476D01*
X44559523Y-274845238D01*
X44654761Y-274750000D01*
X44797619Y-274702380D01*
X44892857Y-274702380D01*
X45035714Y-274750000D01*
X45083333Y-274797619D01*
X45559523Y-275702380D02*
X45750000Y-275702380D01*
X45845238Y-275654761D01*
X45892857Y-275607142D01*
X45988095Y-275464285D01*
X46035714Y-275273809D01*
X46035714Y-274892857D01*
X45988095Y-274797619D01*
X45940476Y-274750000D01*
X45845238Y-274702380D01*
X45654761Y-274702380D01*
X45559523Y-274750000D01*
X45511904Y-274797619D01*
X45464285Y-274892857D01*
X45464285Y-275130952D01*
X45511904Y-275226190D01*
X45559523Y-275273809D01*
X45654761Y-275321428D01*
X45845238Y-275321428D01*
X45940476Y-275273809D01*
X45988095Y-275226190D01*
X46035714Y-275130952D01*
%TO.C,R6*%
X45833333Y-184802380D02*
X45500000Y-184326190D01*
X45261904Y-184802380D02*
X45261904Y-183802380D01*
X45642857Y-183802380D01*
X45738095Y-183850000D01*
X45785714Y-183897619D01*
X45833333Y-183992857D01*
X45833333Y-184135714D01*
X45785714Y-184230952D01*
X45738095Y-184278571D01*
X45642857Y-184326190D01*
X45261904Y-184326190D01*
X46690476Y-183802380D02*
X46500000Y-183802380D01*
X46404761Y-183850000D01*
X46357142Y-183897619D01*
X46261904Y-184040476D01*
X46214285Y-184230952D01*
X46214285Y-184611904D01*
X46261904Y-184707142D01*
X46309523Y-184754761D01*
X46404761Y-184802380D01*
X46595238Y-184802380D01*
X46690476Y-184754761D01*
X46738095Y-184707142D01*
X46785714Y-184611904D01*
X46785714Y-184373809D01*
X46738095Y-184278571D01*
X46690476Y-184230952D01*
X46595238Y-184183333D01*
X46404761Y-184183333D01*
X46309523Y-184230952D01*
X46261904Y-184278571D01*
X46214285Y-184373809D01*
%TO.C,R10*%
X45357142Y-296802380D02*
X45023809Y-296326190D01*
X44785714Y-296802380D02*
X44785714Y-295802380D01*
X45166666Y-295802380D01*
X45261904Y-295850000D01*
X45309523Y-295897619D01*
X45357142Y-295992857D01*
X45357142Y-296135714D01*
X45309523Y-296230952D01*
X45261904Y-296278571D01*
X45166666Y-296326190D01*
X44785714Y-296326190D01*
X46309523Y-296802380D02*
X45738095Y-296802380D01*
X46023809Y-296802380D02*
X46023809Y-295802380D01*
X45928571Y-295945238D01*
X45833333Y-296040476D01*
X45738095Y-296088095D01*
X46928571Y-295802380D02*
X47023809Y-295802380D01*
X47119047Y-295850000D01*
X47166666Y-295897619D01*
X47214285Y-295992857D01*
X47261904Y-296183333D01*
X47261904Y-296421428D01*
X47214285Y-296611904D01*
X47166666Y-296707142D01*
X47119047Y-296754761D01*
X47023809Y-296802380D01*
X46928571Y-296802380D01*
X46833333Y-296754761D01*
X46785714Y-296707142D01*
X46738095Y-296611904D01*
X46690476Y-296421428D01*
X46690476Y-296183333D01*
X46738095Y-295992857D01*
X46785714Y-295897619D01*
X46833333Y-295850000D01*
X46928571Y-295802380D01*
%TO.C,*%
%TO.C,D26*%
X81540714Y-184162380D02*
X81540714Y-183162380D01*
X81778809Y-183162380D01*
X81921666Y-183210000D01*
X82016904Y-183305238D01*
X82064523Y-183400476D01*
X82112142Y-183590952D01*
X82112142Y-183733809D01*
X82064523Y-183924285D01*
X82016904Y-184019523D01*
X81921666Y-184114761D01*
X81778809Y-184162380D01*
X81540714Y-184162380D01*
X82493095Y-183257619D02*
X82540714Y-183210000D01*
X82635952Y-183162380D01*
X82874047Y-183162380D01*
X82969285Y-183210000D01*
X83016904Y-183257619D01*
X83064523Y-183352857D01*
X83064523Y-183448095D01*
X83016904Y-183590952D01*
X82445476Y-184162380D01*
X83064523Y-184162380D01*
X83921666Y-183162380D02*
X83731190Y-183162380D01*
X83635952Y-183210000D01*
X83588333Y-183257619D01*
X83493095Y-183400476D01*
X83445476Y-183590952D01*
X83445476Y-183971904D01*
X83493095Y-184067142D01*
X83540714Y-184114761D01*
X83635952Y-184162380D01*
X83826428Y-184162380D01*
X83921666Y-184114761D01*
X83969285Y-184067142D01*
X84016904Y-183971904D01*
X84016904Y-183733809D01*
X83969285Y-183638571D01*
X83921666Y-183590952D01*
X83826428Y-183543333D01*
X83635952Y-183543333D01*
X83540714Y-183590952D01*
X83493095Y-183638571D01*
X83445476Y-183733809D01*
%TO.C,*%
%TO.C,D19*%
X64540714Y-268162380D02*
X64540714Y-267162380D01*
X64778809Y-267162380D01*
X64921666Y-267210000D01*
X65016904Y-267305238D01*
X65064523Y-267400476D01*
X65112142Y-267590952D01*
X65112142Y-267733809D01*
X65064523Y-267924285D01*
X65016904Y-268019523D01*
X64921666Y-268114761D01*
X64778809Y-268162380D01*
X64540714Y-268162380D01*
X66064523Y-268162380D02*
X65493095Y-268162380D01*
X65778809Y-268162380D02*
X65778809Y-267162380D01*
X65683571Y-267305238D01*
X65588333Y-267400476D01*
X65493095Y-267448095D01*
X66540714Y-268162380D02*
X66731190Y-268162380D01*
X66826428Y-268114761D01*
X66874047Y-268067142D01*
X66969285Y-267924285D01*
X67016904Y-267733809D01*
X67016904Y-267352857D01*
X66969285Y-267257619D01*
X66921666Y-267210000D01*
X66826428Y-267162380D01*
X66635952Y-267162380D01*
X66540714Y-267210000D01*
X66493095Y-267257619D01*
X66445476Y-267352857D01*
X66445476Y-267590952D01*
X66493095Y-267686190D01*
X66540714Y-267733809D01*
X66635952Y-267781428D01*
X66826428Y-267781428D01*
X66921666Y-267733809D01*
X66969285Y-267686190D01*
X67016904Y-267590952D01*
%TO.C,J2*%
X44666666Y-312452380D02*
X44666666Y-313166666D01*
X44619047Y-313309523D01*
X44523809Y-313404761D01*
X44380952Y-313452380D01*
X44285714Y-313452380D01*
X45095238Y-312547619D02*
X45142857Y-312500000D01*
X45238095Y-312452380D01*
X45476190Y-312452380D01*
X45571428Y-312500000D01*
X45619047Y-312547619D01*
X45666666Y-312642857D01*
X45666666Y-312738095D01*
X45619047Y-312880952D01*
X45047619Y-313452380D01*
X45666666Y-313452380D01*
%TO.C,R1*%
X45833333Y-44802380D02*
X45500000Y-44326190D01*
X45261904Y-44802380D02*
X45261904Y-43802380D01*
X45642857Y-43802380D01*
X45738095Y-43850000D01*
X45785714Y-43897619D01*
X45833333Y-43992857D01*
X45833333Y-44135714D01*
X45785714Y-44230952D01*
X45738095Y-44278571D01*
X45642857Y-44326190D01*
X45261904Y-44326190D01*
X46785714Y-44802380D02*
X46214285Y-44802380D01*
X46500000Y-44802380D02*
X46500000Y-43802380D01*
X46404761Y-43945238D01*
X46309523Y-44040476D01*
X46214285Y-44088095D01*
%TO.C,D9*%
X52661904Y-266452380D02*
X52661904Y-265452380D01*
X52900000Y-265452380D01*
X53042857Y-265500000D01*
X53138095Y-265595238D01*
X53185714Y-265690476D01*
X53233333Y-265880952D01*
X53233333Y-266023809D01*
X53185714Y-266214285D01*
X53138095Y-266309523D01*
X53042857Y-266404761D01*
X52900000Y-266452380D01*
X52661904Y-266452380D01*
X53709523Y-266452380D02*
X53900000Y-266452380D01*
X53995238Y-266404761D01*
X54042857Y-266357142D01*
X54138095Y-266214285D01*
X54185714Y-266023809D01*
X54185714Y-265642857D01*
X54138095Y-265547619D01*
X54090476Y-265500000D01*
X53995238Y-265452380D01*
X53804761Y-265452380D01*
X53709523Y-265500000D01*
X53661904Y-265547619D01*
X53614285Y-265642857D01*
X53614285Y-265880952D01*
X53661904Y-265976190D01*
X53709523Y-266023809D01*
X53804761Y-266071428D01*
X53995238Y-266071428D01*
X54090476Y-266023809D01*
X54138095Y-265976190D01*
X54185714Y-265880952D01*
%TO.C,D4*%
X52261904Y-127052380D02*
X52261904Y-126052380D01*
X52500000Y-126052380D01*
X52642857Y-126100000D01*
X52738095Y-126195238D01*
X52785714Y-126290476D01*
X52833333Y-126480952D01*
X52833333Y-126623809D01*
X52785714Y-126814285D01*
X52738095Y-126909523D01*
X52642857Y-127004761D01*
X52500000Y-127052380D01*
X52261904Y-127052380D01*
X53690476Y-126385714D02*
X53690476Y-127052380D01*
X53452380Y-126004761D02*
X53214285Y-126719047D01*
X53833333Y-126719047D01*
%TO.C,D5*%
X52261904Y-154652380D02*
X52261904Y-153652380D01*
X52500000Y-153652380D01*
X52642857Y-153700000D01*
X52738095Y-153795238D01*
X52785714Y-153890476D01*
X52833333Y-154080952D01*
X52833333Y-154223809D01*
X52785714Y-154414285D01*
X52738095Y-154509523D01*
X52642857Y-154604761D01*
X52500000Y-154652380D01*
X52261904Y-154652380D01*
X53738095Y-153652380D02*
X53261904Y-153652380D01*
X53214285Y-154128571D01*
X53261904Y-154080952D01*
X53357142Y-154033333D01*
X53595238Y-154033333D01*
X53690476Y-154080952D01*
X53738095Y-154128571D01*
X53785714Y-154223809D01*
X53785714Y-154461904D01*
X53738095Y-154557142D01*
X53690476Y-154604761D01*
X53595238Y-154652380D01*
X53357142Y-154652380D01*
X53261904Y-154604761D01*
X53214285Y-154557142D01*
%TO.C,JP5*%
X65141666Y-141902380D02*
X65141666Y-142616666D01*
X65094047Y-142759523D01*
X64998809Y-142854761D01*
X64855952Y-142902380D01*
X64760714Y-142902380D01*
X65617857Y-142902380D02*
X65617857Y-141902380D01*
X65998809Y-141902380D01*
X66094047Y-141950000D01*
X66141666Y-141997619D01*
X66189285Y-142092857D01*
X66189285Y-142235714D01*
X66141666Y-142330952D01*
X66094047Y-142378571D01*
X65998809Y-142426190D01*
X65617857Y-142426190D01*
X67094047Y-141902380D02*
X66617857Y-141902380D01*
X66570238Y-142378571D01*
X66617857Y-142330952D01*
X66713095Y-142283333D01*
X66951190Y-142283333D01*
X67046428Y-142330952D01*
X67094047Y-142378571D01*
X67141666Y-142473809D01*
X67141666Y-142711904D01*
X67094047Y-142807142D01*
X67046428Y-142854761D01*
X66951190Y-142902380D01*
X66713095Y-142902380D01*
X66617857Y-142854761D01*
X66570238Y-142807142D01*
%TO.C,D21*%
X81540714Y-44162380D02*
X81540714Y-43162380D01*
X81778809Y-43162380D01*
X81921666Y-43210000D01*
X82016904Y-43305238D01*
X82064523Y-43400476D01*
X82112142Y-43590952D01*
X82112142Y-43733809D01*
X82064523Y-43924285D01*
X82016904Y-44019523D01*
X81921666Y-44114761D01*
X81778809Y-44162380D01*
X81540714Y-44162380D01*
X82493095Y-43257619D02*
X82540714Y-43210000D01*
X82635952Y-43162380D01*
X82874047Y-43162380D01*
X82969285Y-43210000D01*
X83016904Y-43257619D01*
X83064523Y-43352857D01*
X83064523Y-43448095D01*
X83016904Y-43590952D01*
X82445476Y-44162380D01*
X83064523Y-44162380D01*
X84016904Y-44162380D02*
X83445476Y-44162380D01*
X83731190Y-44162380D02*
X83731190Y-43162380D01*
X83635952Y-43305238D01*
X83540714Y-43400476D01*
X83445476Y-43448095D01*
%TO.C,R7*%
X45833333Y-212802380D02*
X45500000Y-212326190D01*
X45261904Y-212802380D02*
X45261904Y-211802380D01*
X45642857Y-211802380D01*
X45738095Y-211850000D01*
X45785714Y-211897619D01*
X45833333Y-211992857D01*
X45833333Y-212135714D01*
X45785714Y-212230952D01*
X45738095Y-212278571D01*
X45642857Y-212326190D01*
X45261904Y-212326190D01*
X46166666Y-211802380D02*
X46833333Y-211802380D01*
X46404761Y-212802380D01*
%TO.C,*%
%TO.C,C4*%
X45583333Y-135357142D02*
X45535714Y-135404761D01*
X45392857Y-135452380D01*
X45297619Y-135452380D01*
X45154761Y-135404761D01*
X45059523Y-135309523D01*
X45011904Y-135214285D01*
X44964285Y-135023809D01*
X44964285Y-134880952D01*
X45011904Y-134690476D01*
X45059523Y-134595238D01*
X45154761Y-134500000D01*
X45297619Y-134452380D01*
X45392857Y-134452380D01*
X45535714Y-134500000D01*
X45583333Y-134547619D01*
X46440476Y-134785714D02*
X46440476Y-135452380D01*
X46202380Y-134404761D02*
X45964285Y-135119047D01*
X46583333Y-135119047D01*
%TO.C,D2*%
X52461904Y-70852380D02*
X52461904Y-69852380D01*
X52700000Y-69852380D01*
X52842857Y-69900000D01*
X52938095Y-69995238D01*
X52985714Y-70090476D01*
X53033333Y-70280952D01*
X53033333Y-70423809D01*
X52985714Y-70614285D01*
X52938095Y-70709523D01*
X52842857Y-70804761D01*
X52700000Y-70852380D01*
X52461904Y-70852380D01*
X53414285Y-69947619D02*
X53461904Y-69900000D01*
X53557142Y-69852380D01*
X53795238Y-69852380D01*
X53890476Y-69900000D01*
X53938095Y-69947619D01*
X53985714Y-70042857D01*
X53985714Y-70138095D01*
X53938095Y-70280952D01*
X53366666Y-70852380D01*
X53985714Y-70852380D01*
%TO.C,D3*%
X52461904Y-98852380D02*
X52461904Y-97852380D01*
X52700000Y-97852380D01*
X52842857Y-97900000D01*
X52938095Y-97995238D01*
X52985714Y-98090476D01*
X53033333Y-98280952D01*
X53033333Y-98423809D01*
X52985714Y-98614285D01*
X52938095Y-98709523D01*
X52842857Y-98804761D01*
X52700000Y-98852380D01*
X52461904Y-98852380D01*
X53366666Y-97852380D02*
X53985714Y-97852380D01*
X53652380Y-98233333D01*
X53795238Y-98233333D01*
X53890476Y-98280952D01*
X53938095Y-98328571D01*
X53985714Y-98423809D01*
X53985714Y-98661904D01*
X53938095Y-98757142D01*
X53890476Y-98804761D01*
X53795238Y-98852380D01*
X53509523Y-98852380D01*
X53414285Y-98804761D01*
X53366666Y-98757142D01*
%TO.C,R4*%
X45833333Y-128802380D02*
X45500000Y-128326190D01*
X45261904Y-128802380D02*
X45261904Y-127802380D01*
X45642857Y-127802380D01*
X45738095Y-127850000D01*
X45785714Y-127897619D01*
X45833333Y-127992857D01*
X45833333Y-128135714D01*
X45785714Y-128230952D01*
X45738095Y-128278571D01*
X45642857Y-128326190D01*
X45261904Y-128326190D01*
X46690476Y-128135714D02*
X46690476Y-128802380D01*
X46452380Y-127754761D02*
X46214285Y-128469047D01*
X46833333Y-128469047D01*
%TO.C,JP2*%
X64941666Y-57902380D02*
X64941666Y-58616666D01*
X64894047Y-58759523D01*
X64798809Y-58854761D01*
X64655952Y-58902380D01*
X64560714Y-58902380D01*
X65417857Y-58902380D02*
X65417857Y-57902380D01*
X65798809Y-57902380D01*
X65894047Y-57950000D01*
X65941666Y-57997619D01*
X65989285Y-58092857D01*
X65989285Y-58235714D01*
X65941666Y-58330952D01*
X65894047Y-58378571D01*
X65798809Y-58426190D01*
X65417857Y-58426190D01*
X66370238Y-57997619D02*
X66417857Y-57950000D01*
X66513095Y-57902380D01*
X66751190Y-57902380D01*
X66846428Y-57950000D01*
X66894047Y-57997619D01*
X66941666Y-58092857D01*
X66941666Y-58188095D01*
X66894047Y-58330952D01*
X66322619Y-58902380D01*
X66941666Y-58902380D01*
%TO.C,D17*%
X64540714Y-212162380D02*
X64540714Y-211162380D01*
X64778809Y-211162380D01*
X64921666Y-211210000D01*
X65016904Y-211305238D01*
X65064523Y-211400476D01*
X65112142Y-211590952D01*
X65112142Y-211733809D01*
X65064523Y-211924285D01*
X65016904Y-212019523D01*
X64921666Y-212114761D01*
X64778809Y-212162380D01*
X64540714Y-212162380D01*
X66064523Y-212162380D02*
X65493095Y-212162380D01*
X65778809Y-212162380D02*
X65778809Y-211162380D01*
X65683571Y-211305238D01*
X65588333Y-211400476D01*
X65493095Y-211448095D01*
X66397857Y-211162380D02*
X67064523Y-211162380D01*
X66635952Y-212162380D01*
%TO.C,JP4*%
X64916666Y-113652380D02*
X64916666Y-114366666D01*
X64869047Y-114509523D01*
X64773809Y-114604761D01*
X64630952Y-114652380D01*
X64535714Y-114652380D01*
X65392857Y-114652380D02*
X65392857Y-113652380D01*
X65773809Y-113652380D01*
X65869047Y-113700000D01*
X65916666Y-113747619D01*
X65964285Y-113842857D01*
X65964285Y-113985714D01*
X65916666Y-114080952D01*
X65869047Y-114128571D01*
X65773809Y-114176190D01*
X65392857Y-114176190D01*
X66821428Y-113985714D02*
X66821428Y-114652380D01*
X66583333Y-113604761D02*
X66345238Y-114319047D01*
X66964285Y-114319047D01*
%TO.C,D13*%
X64540714Y-100162380D02*
X64540714Y-99162380D01*
X64778809Y-99162380D01*
X64921666Y-99210000D01*
X65016904Y-99305238D01*
X65064523Y-99400476D01*
X65112142Y-99590952D01*
X65112142Y-99733809D01*
X65064523Y-99924285D01*
X65016904Y-100019523D01*
X64921666Y-100114761D01*
X64778809Y-100162380D01*
X64540714Y-100162380D01*
X66064523Y-100162380D02*
X65493095Y-100162380D01*
X65778809Y-100162380D02*
X65778809Y-99162380D01*
X65683571Y-99305238D01*
X65588333Y-99400476D01*
X65493095Y-99448095D01*
X66397857Y-99162380D02*
X67016904Y-99162380D01*
X66683571Y-99543333D01*
X66826428Y-99543333D01*
X66921666Y-99590952D01*
X66969285Y-99638571D01*
X67016904Y-99733809D01*
X67016904Y-99971904D01*
X66969285Y-100067142D01*
X66921666Y-100114761D01*
X66826428Y-100162380D01*
X66540714Y-100162380D01*
X66445476Y-100114761D01*
X66397857Y-100067142D01*
%TO.C,D1*%
X52261904Y-42852380D02*
X52261904Y-41852380D01*
X52500000Y-41852380D01*
X52642857Y-41900000D01*
X52738095Y-41995238D01*
X52785714Y-42090476D01*
X52833333Y-42280952D01*
X52833333Y-42423809D01*
X52785714Y-42614285D01*
X52738095Y-42709523D01*
X52642857Y-42804761D01*
X52500000Y-42852380D01*
X52261904Y-42852380D01*
X53785714Y-42852380D02*
X53214285Y-42852380D01*
X53500000Y-42852380D02*
X53500000Y-41852380D01*
X53404761Y-41995238D01*
X53309523Y-42090476D01*
X53214285Y-42138095D01*
%TO.C,D18*%
X64540714Y-240202380D02*
X64540714Y-239202380D01*
X64778809Y-239202380D01*
X64921666Y-239250000D01*
X65016904Y-239345238D01*
X65064523Y-239440476D01*
X65112142Y-239630952D01*
X65112142Y-239773809D01*
X65064523Y-239964285D01*
X65016904Y-240059523D01*
X64921666Y-240154761D01*
X64778809Y-240202380D01*
X64540714Y-240202380D01*
X66064523Y-240202380D02*
X65493095Y-240202380D01*
X65778809Y-240202380D02*
X65778809Y-239202380D01*
X65683571Y-239345238D01*
X65588333Y-239440476D01*
X65493095Y-239488095D01*
X66635952Y-239630952D02*
X66540714Y-239583333D01*
X66493095Y-239535714D01*
X66445476Y-239440476D01*
X66445476Y-239392857D01*
X66493095Y-239297619D01*
X66540714Y-239250000D01*
X66635952Y-239202380D01*
X66826428Y-239202380D01*
X66921666Y-239250000D01*
X66969285Y-239297619D01*
X67016904Y-239392857D01*
X67016904Y-239440476D01*
X66969285Y-239535714D01*
X66921666Y-239583333D01*
X66826428Y-239630952D01*
X66635952Y-239630952D01*
X66540714Y-239678571D01*
X66493095Y-239726190D01*
X66445476Y-239821428D01*
X66445476Y-240011904D01*
X66493095Y-240107142D01*
X66540714Y-240154761D01*
X66635952Y-240202380D01*
X66826428Y-240202380D01*
X66921666Y-240154761D01*
X66969285Y-240107142D01*
X67016904Y-240011904D01*
X67016904Y-239821428D01*
X66969285Y-239726190D01*
X66921666Y-239678571D01*
X66826428Y-239630952D01*
%TO.C,D8*%
X52261904Y-238852380D02*
X52261904Y-237852380D01*
X52500000Y-237852380D01*
X52642857Y-237900000D01*
X52738095Y-237995238D01*
X52785714Y-238090476D01*
X52833333Y-238280952D01*
X52833333Y-238423809D01*
X52785714Y-238614285D01*
X52738095Y-238709523D01*
X52642857Y-238804761D01*
X52500000Y-238852380D01*
X52261904Y-238852380D01*
X53404761Y-238280952D02*
X53309523Y-238233333D01*
X53261904Y-238185714D01*
X53214285Y-238090476D01*
X53214285Y-238042857D01*
X53261904Y-237947619D01*
X53309523Y-237900000D01*
X53404761Y-237852380D01*
X53595238Y-237852380D01*
X53690476Y-237900000D01*
X53738095Y-237947619D01*
X53785714Y-238042857D01*
X53785714Y-238090476D01*
X53738095Y-238185714D01*
X53690476Y-238233333D01*
X53595238Y-238280952D01*
X53404761Y-238280952D01*
X53309523Y-238328571D01*
X53261904Y-238376190D01*
X53214285Y-238471428D01*
X53214285Y-238661904D01*
X53261904Y-238757142D01*
X53309523Y-238804761D01*
X53404761Y-238852380D01*
X53595238Y-238852380D01*
X53690476Y-238804761D01*
X53738095Y-238757142D01*
X53785714Y-238661904D01*
X53785714Y-238471428D01*
X53738095Y-238376190D01*
X53690476Y-238328571D01*
X53595238Y-238280952D01*
%TO.C,D24*%
X81540714Y-128162380D02*
X81540714Y-127162380D01*
X81778809Y-127162380D01*
X81921666Y-127210000D01*
X82016904Y-127305238D01*
X82064523Y-127400476D01*
X82112142Y-127590952D01*
X82112142Y-127733809D01*
X82064523Y-127924285D01*
X82016904Y-128019523D01*
X81921666Y-128114761D01*
X81778809Y-128162380D01*
X81540714Y-128162380D01*
X82493095Y-127257619D02*
X82540714Y-127210000D01*
X82635952Y-127162380D01*
X82874047Y-127162380D01*
X82969285Y-127210000D01*
X83016904Y-127257619D01*
X83064523Y-127352857D01*
X83064523Y-127448095D01*
X83016904Y-127590952D01*
X82445476Y-128162380D01*
X83064523Y-128162380D01*
X83921666Y-127495714D02*
X83921666Y-128162380D01*
X83683571Y-127114761D02*
X83445476Y-127829047D01*
X84064523Y-127829047D01*
%TO.C,R2*%
X45833333Y-72802380D02*
X45500000Y-72326190D01*
X45261904Y-72802380D02*
X45261904Y-71802380D01*
X45642857Y-71802380D01*
X45738095Y-71850000D01*
X45785714Y-71897619D01*
X45833333Y-71992857D01*
X45833333Y-72135714D01*
X45785714Y-72230952D01*
X45738095Y-72278571D01*
X45642857Y-72326190D01*
X45261904Y-72326190D01*
X46214285Y-71897619D02*
X46261904Y-71850000D01*
X46357142Y-71802380D01*
X46595238Y-71802380D01*
X46690476Y-71850000D01*
X46738095Y-71897619D01*
X46785714Y-71992857D01*
X46785714Y-72088095D01*
X46738095Y-72230952D01*
X46166666Y-72802380D01*
X46785714Y-72802380D01*
%TO.C,R3*%
X45833333Y-100802380D02*
X45500000Y-100326190D01*
X45261904Y-100802380D02*
X45261904Y-99802380D01*
X45642857Y-99802380D01*
X45738095Y-99850000D01*
X45785714Y-99897619D01*
X45833333Y-99992857D01*
X45833333Y-100135714D01*
X45785714Y-100230952D01*
X45738095Y-100278571D01*
X45642857Y-100326190D01*
X45261904Y-100326190D01*
X46166666Y-99802380D02*
X46785714Y-99802380D01*
X46452380Y-100183333D01*
X46595238Y-100183333D01*
X46690476Y-100230952D01*
X46738095Y-100278571D01*
X46785714Y-100373809D01*
X46785714Y-100611904D01*
X46738095Y-100707142D01*
X46690476Y-100754761D01*
X46595238Y-100802380D01*
X46309523Y-100802380D01*
X46214285Y-100754761D01*
X46166666Y-100707142D01*
%TO.C,R9*%
X45833333Y-269059880D02*
X45500000Y-268583690D01*
X45261904Y-269059880D02*
X45261904Y-268059880D01*
X45642857Y-268059880D01*
X45738095Y-268107500D01*
X45785714Y-268155119D01*
X45833333Y-268250357D01*
X45833333Y-268393214D01*
X45785714Y-268488452D01*
X45738095Y-268536071D01*
X45642857Y-268583690D01*
X45261904Y-268583690D01*
X46309523Y-269059880D02*
X46500000Y-269059880D01*
X46595238Y-269012261D01*
X46642857Y-268964642D01*
X46738095Y-268821785D01*
X46785714Y-268631309D01*
X46785714Y-268250357D01*
X46738095Y-268155119D01*
X46690476Y-268107500D01*
X46595238Y-268059880D01*
X46404761Y-268059880D01*
X46309523Y-268107500D01*
X46261904Y-268155119D01*
X46214285Y-268250357D01*
X46214285Y-268488452D01*
X46261904Y-268583690D01*
X46309523Y-268631309D01*
X46404761Y-268678928D01*
X46595238Y-268678928D01*
X46690476Y-268631309D01*
X46738095Y-268583690D01*
X46785714Y-268488452D01*
%TO.C,D30*%
X81540714Y-296162380D02*
X81540714Y-295162380D01*
X81778809Y-295162380D01*
X81921666Y-295210000D01*
X82016904Y-295305238D01*
X82064523Y-295400476D01*
X82112142Y-295590952D01*
X82112142Y-295733809D01*
X82064523Y-295924285D01*
X82016904Y-296019523D01*
X81921666Y-296114761D01*
X81778809Y-296162380D01*
X81540714Y-296162380D01*
X82445476Y-295162380D02*
X83064523Y-295162380D01*
X82731190Y-295543333D01*
X82874047Y-295543333D01*
X82969285Y-295590952D01*
X83016904Y-295638571D01*
X83064523Y-295733809D01*
X83064523Y-295971904D01*
X83016904Y-296067142D01*
X82969285Y-296114761D01*
X82874047Y-296162380D01*
X82588333Y-296162380D01*
X82493095Y-296114761D01*
X82445476Y-296067142D01*
X83683571Y-295162380D02*
X83778809Y-295162380D01*
X83874047Y-295210000D01*
X83921666Y-295257619D01*
X83969285Y-295352857D01*
X84016904Y-295543333D01*
X84016904Y-295781428D01*
X83969285Y-295971904D01*
X83921666Y-296067142D01*
X83874047Y-296114761D01*
X83778809Y-296162380D01*
X83683571Y-296162380D01*
X83588333Y-296114761D01*
X83540714Y-296067142D01*
X83493095Y-295971904D01*
X83445476Y-295781428D01*
X83445476Y-295543333D01*
X83493095Y-295352857D01*
X83540714Y-295257619D01*
X83588333Y-295210000D01*
X83683571Y-295162380D01*
%TO.C,D20*%
X64540714Y-296162380D02*
X64540714Y-295162380D01*
X64778809Y-295162380D01*
X64921666Y-295210000D01*
X65016904Y-295305238D01*
X65064523Y-295400476D01*
X65112142Y-295590952D01*
X65112142Y-295733809D01*
X65064523Y-295924285D01*
X65016904Y-296019523D01*
X64921666Y-296114761D01*
X64778809Y-296162380D01*
X64540714Y-296162380D01*
X65493095Y-295257619D02*
X65540714Y-295210000D01*
X65635952Y-295162380D01*
X65874047Y-295162380D01*
X65969285Y-295210000D01*
X66016904Y-295257619D01*
X66064523Y-295352857D01*
X66064523Y-295448095D01*
X66016904Y-295590952D01*
X65445476Y-296162380D01*
X66064523Y-296162380D01*
X66683571Y-295162380D02*
X66778809Y-295162380D01*
X66874047Y-295210000D01*
X66921666Y-295257619D01*
X66969285Y-295352857D01*
X67016904Y-295543333D01*
X67016904Y-295781428D01*
X66969285Y-295971904D01*
X66921666Y-296067142D01*
X66874047Y-296114761D01*
X66778809Y-296162380D01*
X66683571Y-296162380D01*
X66588333Y-296114761D01*
X66540714Y-296067142D01*
X66493095Y-295971904D01*
X66445476Y-295781428D01*
X66445476Y-295543333D01*
X66493095Y-295352857D01*
X66540714Y-295257619D01*
X66588333Y-295210000D01*
X66683571Y-295162380D01*
%TO.C,D16*%
X64540714Y-184162380D02*
X64540714Y-183162380D01*
X64778809Y-183162380D01*
X64921666Y-183210000D01*
X65016904Y-183305238D01*
X65064523Y-183400476D01*
X65112142Y-183590952D01*
X65112142Y-183733809D01*
X65064523Y-183924285D01*
X65016904Y-184019523D01*
X64921666Y-184114761D01*
X64778809Y-184162380D01*
X64540714Y-184162380D01*
X66064523Y-184162380D02*
X65493095Y-184162380D01*
X65778809Y-184162380D02*
X65778809Y-183162380D01*
X65683571Y-183305238D01*
X65588333Y-183400476D01*
X65493095Y-183448095D01*
X66921666Y-183162380D02*
X66731190Y-183162380D01*
X66635952Y-183210000D01*
X66588333Y-183257619D01*
X66493095Y-183400476D01*
X66445476Y-183590952D01*
X66445476Y-183971904D01*
X66493095Y-184067142D01*
X66540714Y-184114761D01*
X66635952Y-184162380D01*
X66826428Y-184162380D01*
X66921666Y-184114761D01*
X66969285Y-184067142D01*
X67016904Y-183971904D01*
X67016904Y-183733809D01*
X66969285Y-183638571D01*
X66921666Y-183590952D01*
X66826428Y-183543333D01*
X66635952Y-183543333D01*
X66540714Y-183590952D01*
X66493095Y-183638571D01*
X66445476Y-183733809D01*
%TO.C,J1*%
X57416666Y-307202380D02*
X57416666Y-307916666D01*
X57369047Y-308059523D01*
X57273809Y-308154761D01*
X57130952Y-308202380D01*
X57035714Y-308202380D01*
X58416666Y-308202380D02*
X57845238Y-308202380D01*
X58130952Y-308202380D02*
X58130952Y-307202380D01*
X58035714Y-307345238D01*
X57940476Y-307440476D01*
X57845238Y-307488095D01*
%TO.C,D11*%
X64540714Y-44162380D02*
X64540714Y-43162380D01*
X64778809Y-43162380D01*
X64921666Y-43210000D01*
X65016904Y-43305238D01*
X65064523Y-43400476D01*
X65112142Y-43590952D01*
X65112142Y-43733809D01*
X65064523Y-43924285D01*
X65016904Y-44019523D01*
X64921666Y-44114761D01*
X64778809Y-44162380D01*
X64540714Y-44162380D01*
X66064523Y-44162380D02*
X65493095Y-44162380D01*
X65778809Y-44162380D02*
X65778809Y-43162380D01*
X65683571Y-43305238D01*
X65588333Y-43400476D01*
X65493095Y-43448095D01*
X67016904Y-44162380D02*
X66445476Y-44162380D01*
X66731190Y-44162380D02*
X66731190Y-43162380D01*
X66635952Y-43305238D01*
X66540714Y-43400476D01*
X66445476Y-43448095D01*
%TO.C,JP10*%
X64440476Y-282402380D02*
X64440476Y-283116666D01*
X64392857Y-283259523D01*
X64297619Y-283354761D01*
X64154761Y-283402380D01*
X64059523Y-283402380D01*
X64916666Y-283402380D02*
X64916666Y-282402380D01*
X65297619Y-282402380D01*
X65392857Y-282450000D01*
X65440476Y-282497619D01*
X65488095Y-282592857D01*
X65488095Y-282735714D01*
X65440476Y-282830952D01*
X65392857Y-282878571D01*
X65297619Y-282926190D01*
X64916666Y-282926190D01*
X66440476Y-283402380D02*
X65869047Y-283402380D01*
X66154761Y-283402380D02*
X66154761Y-282402380D01*
X66059523Y-282545238D01*
X65964285Y-282640476D01*
X65869047Y-282688095D01*
X67059523Y-282402380D02*
X67154761Y-282402380D01*
X67250000Y-282450000D01*
X67297619Y-282497619D01*
X67345238Y-282592857D01*
X67392857Y-282783333D01*
X67392857Y-283021428D01*
X67345238Y-283211904D01*
X67297619Y-283307142D01*
X67250000Y-283354761D01*
X67154761Y-283402380D01*
X67059523Y-283402380D01*
X66964285Y-283354761D01*
X66916666Y-283307142D01*
X66869047Y-283211904D01*
X66821428Y-283021428D01*
X66821428Y-282783333D01*
X66869047Y-282592857D01*
X66916666Y-282497619D01*
X66964285Y-282450000D01*
X67059523Y-282402380D01*
%TO.C,JP8*%
X64891666Y-225652380D02*
X64891666Y-226366666D01*
X64844047Y-226509523D01*
X64748809Y-226604761D01*
X64605952Y-226652380D01*
X64510714Y-226652380D01*
X65367857Y-226652380D02*
X65367857Y-225652380D01*
X65748809Y-225652380D01*
X65844047Y-225700000D01*
X65891666Y-225747619D01*
X65939285Y-225842857D01*
X65939285Y-225985714D01*
X65891666Y-226080952D01*
X65844047Y-226128571D01*
X65748809Y-226176190D01*
X65367857Y-226176190D01*
X66510714Y-226080952D02*
X66415476Y-226033333D01*
X66367857Y-225985714D01*
X66320238Y-225890476D01*
X66320238Y-225842857D01*
X66367857Y-225747619D01*
X66415476Y-225700000D01*
X66510714Y-225652380D01*
X66701190Y-225652380D01*
X66796428Y-225700000D01*
X66844047Y-225747619D01*
X66891666Y-225842857D01*
X66891666Y-225890476D01*
X66844047Y-225985714D01*
X66796428Y-226033333D01*
X66701190Y-226080952D01*
X66510714Y-226080952D01*
X66415476Y-226128571D01*
X66367857Y-226176190D01*
X66320238Y-226271428D01*
X66320238Y-226461904D01*
X66367857Y-226557142D01*
X66415476Y-226604761D01*
X66510714Y-226652380D01*
X66701190Y-226652380D01*
X66796428Y-226604761D01*
X66844047Y-226557142D01*
X66891666Y-226461904D01*
X66891666Y-226271428D01*
X66844047Y-226176190D01*
X66796428Y-226128571D01*
X66701190Y-226080952D01*
%TO.C,D28*%
X81540714Y-240162380D02*
X81540714Y-239162380D01*
X81778809Y-239162380D01*
X81921666Y-239210000D01*
X82016904Y-239305238D01*
X82064523Y-239400476D01*
X82112142Y-239590952D01*
X82112142Y-239733809D01*
X82064523Y-239924285D01*
X82016904Y-240019523D01*
X81921666Y-240114761D01*
X81778809Y-240162380D01*
X81540714Y-240162380D01*
X82493095Y-239257619D02*
X82540714Y-239210000D01*
X82635952Y-239162380D01*
X82874047Y-239162380D01*
X82969285Y-239210000D01*
X83016904Y-239257619D01*
X83064523Y-239352857D01*
X83064523Y-239448095D01*
X83016904Y-239590952D01*
X82445476Y-240162380D01*
X83064523Y-240162380D01*
X83635952Y-239590952D02*
X83540714Y-239543333D01*
X83493095Y-239495714D01*
X83445476Y-239400476D01*
X83445476Y-239352857D01*
X83493095Y-239257619D01*
X83540714Y-239210000D01*
X83635952Y-239162380D01*
X83826428Y-239162380D01*
X83921666Y-239210000D01*
X83969285Y-239257619D01*
X84016904Y-239352857D01*
X84016904Y-239400476D01*
X83969285Y-239495714D01*
X83921666Y-239543333D01*
X83826428Y-239590952D01*
X83635952Y-239590952D01*
X83540714Y-239638571D01*
X83493095Y-239686190D01*
X83445476Y-239781428D01*
X83445476Y-239971904D01*
X83493095Y-240067142D01*
X83540714Y-240114761D01*
X83635952Y-240162380D01*
X83826428Y-240162380D01*
X83921666Y-240114761D01*
X83969285Y-240067142D01*
X84016904Y-239971904D01*
X84016904Y-239781428D01*
X83969285Y-239686190D01*
X83921666Y-239638571D01*
X83826428Y-239590952D01*
%TO.C,JP7*%
X64916666Y-198652380D02*
X64916666Y-199366666D01*
X64869047Y-199509523D01*
X64773809Y-199604761D01*
X64630952Y-199652380D01*
X64535714Y-199652380D01*
X65392857Y-199652380D02*
X65392857Y-198652380D01*
X65773809Y-198652380D01*
X65869047Y-198700000D01*
X65916666Y-198747619D01*
X65964285Y-198842857D01*
X65964285Y-198985714D01*
X65916666Y-199080952D01*
X65869047Y-199128571D01*
X65773809Y-199176190D01*
X65392857Y-199176190D01*
X66297619Y-198652380D02*
X66964285Y-198652380D01*
X66535714Y-199652380D01*
%TO.C,D12*%
X64540714Y-72162380D02*
X64540714Y-71162380D01*
X64778809Y-71162380D01*
X64921666Y-71210000D01*
X65016904Y-71305238D01*
X65064523Y-71400476D01*
X65112142Y-71590952D01*
X65112142Y-71733809D01*
X65064523Y-71924285D01*
X65016904Y-72019523D01*
X64921666Y-72114761D01*
X64778809Y-72162380D01*
X64540714Y-72162380D01*
X66064523Y-72162380D02*
X65493095Y-72162380D01*
X65778809Y-72162380D02*
X65778809Y-71162380D01*
X65683571Y-71305238D01*
X65588333Y-71400476D01*
X65493095Y-71448095D01*
X66445476Y-71257619D02*
X66493095Y-71210000D01*
X66588333Y-71162380D01*
X66826428Y-71162380D01*
X66921666Y-71210000D01*
X66969285Y-71257619D01*
X67016904Y-71352857D01*
X67016904Y-71448095D01*
X66969285Y-71590952D01*
X66397857Y-72162380D01*
X67016904Y-72162380D01*
%TO.C,C5*%
X45870833Y-163107142D02*
X45823214Y-163154761D01*
X45680357Y-163202380D01*
X45585119Y-163202380D01*
X45442261Y-163154761D01*
X45347023Y-163059523D01*
X45299404Y-162964285D01*
X45251785Y-162773809D01*
X45251785Y-162630952D01*
X45299404Y-162440476D01*
X45347023Y-162345238D01*
X45442261Y-162250000D01*
X45585119Y-162202380D01*
X45680357Y-162202380D01*
X45823214Y-162250000D01*
X45870833Y-162297619D01*
X46775595Y-162202380D02*
X46299404Y-162202380D01*
X46251785Y-162678571D01*
X46299404Y-162630952D01*
X46394642Y-162583333D01*
X46632738Y-162583333D01*
X46727976Y-162630952D01*
X46775595Y-162678571D01*
X46823214Y-162773809D01*
X46823214Y-163011904D01*
X46775595Y-163107142D01*
X46727976Y-163154761D01*
X46632738Y-163202380D01*
X46394642Y-163202380D01*
X46299404Y-163154761D01*
X46251785Y-163107142D01*
%TO.C,JP1*%
X64891666Y-29902380D02*
X64891666Y-30616666D01*
X64844047Y-30759523D01*
X64748809Y-30854761D01*
X64605952Y-30902380D01*
X64510714Y-30902380D01*
X65367857Y-30902380D02*
X65367857Y-29902380D01*
X65748809Y-29902380D01*
X65844047Y-29950000D01*
X65891666Y-29997619D01*
X65939285Y-30092857D01*
X65939285Y-30235714D01*
X65891666Y-30330952D01*
X65844047Y-30378571D01*
X65748809Y-30426190D01*
X65367857Y-30426190D01*
X66891666Y-30902380D02*
X66320238Y-30902380D01*
X66605952Y-30902380D02*
X66605952Y-29902380D01*
X66510714Y-30045238D01*
X66415476Y-30140476D01*
X66320238Y-30188095D01*
%TO.C,D22*%
X81540714Y-72162380D02*
X81540714Y-71162380D01*
X81778809Y-71162380D01*
X81921666Y-71210000D01*
X82016904Y-71305238D01*
X82064523Y-71400476D01*
X82112142Y-71590952D01*
X82112142Y-71733809D01*
X82064523Y-71924285D01*
X82016904Y-72019523D01*
X81921666Y-72114761D01*
X81778809Y-72162380D01*
X81540714Y-72162380D01*
X82493095Y-71257619D02*
X82540714Y-71210000D01*
X82635952Y-71162380D01*
X82874047Y-71162380D01*
X82969285Y-71210000D01*
X83016904Y-71257619D01*
X83064523Y-71352857D01*
X83064523Y-71448095D01*
X83016904Y-71590952D01*
X82445476Y-72162380D01*
X83064523Y-72162380D01*
X83445476Y-71257619D02*
X83493095Y-71210000D01*
X83588333Y-71162380D01*
X83826428Y-71162380D01*
X83921666Y-71210000D01*
X83969285Y-71257619D01*
X84016904Y-71352857D01*
X84016904Y-71448095D01*
X83969285Y-71590952D01*
X83397857Y-72162380D01*
X84016904Y-72162380D01*
%TO.C,C2*%
X45870833Y-79107142D02*
X45823214Y-79154761D01*
X45680357Y-79202380D01*
X45585119Y-79202380D01*
X45442261Y-79154761D01*
X45347023Y-79059523D01*
X45299404Y-78964285D01*
X45251785Y-78773809D01*
X45251785Y-78630952D01*
X45299404Y-78440476D01*
X45347023Y-78345238D01*
X45442261Y-78250000D01*
X45585119Y-78202380D01*
X45680357Y-78202380D01*
X45823214Y-78250000D01*
X45870833Y-78297619D01*
X46251785Y-78297619D02*
X46299404Y-78250000D01*
X46394642Y-78202380D01*
X46632738Y-78202380D01*
X46727976Y-78250000D01*
X46775595Y-78297619D01*
X46823214Y-78392857D01*
X46823214Y-78488095D01*
X46775595Y-78630952D01*
X46204166Y-79202380D01*
X46823214Y-79202380D01*
%TO.C,D6*%
X52461904Y-182852380D02*
X52461904Y-181852380D01*
X52700000Y-181852380D01*
X52842857Y-181900000D01*
X52938095Y-181995238D01*
X52985714Y-182090476D01*
X53033333Y-182280952D01*
X53033333Y-182423809D01*
X52985714Y-182614285D01*
X52938095Y-182709523D01*
X52842857Y-182804761D01*
X52700000Y-182852380D01*
X52461904Y-182852380D01*
X53890476Y-181852380D02*
X53700000Y-181852380D01*
X53604761Y-181900000D01*
X53557142Y-181947619D01*
X53461904Y-182090476D01*
X53414285Y-182280952D01*
X53414285Y-182661904D01*
X53461904Y-182757142D01*
X53509523Y-182804761D01*
X53604761Y-182852380D01*
X53795238Y-182852380D01*
X53890476Y-182804761D01*
X53938095Y-182757142D01*
X53985714Y-182661904D01*
X53985714Y-182423809D01*
X53938095Y-182328571D01*
X53890476Y-182280952D01*
X53795238Y-182233333D01*
X53604761Y-182233333D01*
X53509523Y-182280952D01*
X53461904Y-182328571D01*
X53414285Y-182423809D01*
%TO.C,*%
%TO.C,C6*%
X45833333Y-191107142D02*
X45785714Y-191154761D01*
X45642857Y-191202380D01*
X45547619Y-191202380D01*
X45404761Y-191154761D01*
X45309523Y-191059523D01*
X45261904Y-190964285D01*
X45214285Y-190773809D01*
X45214285Y-190630952D01*
X45261904Y-190440476D01*
X45309523Y-190345238D01*
X45404761Y-190250000D01*
X45547619Y-190202380D01*
X45642857Y-190202380D01*
X45785714Y-190250000D01*
X45833333Y-190297619D01*
X46690476Y-190202380D02*
X46500000Y-190202380D01*
X46404761Y-190250000D01*
X46357142Y-190297619D01*
X46261904Y-190440476D01*
X46214285Y-190630952D01*
X46214285Y-191011904D01*
X46261904Y-191107142D01*
X46309523Y-191154761D01*
X46404761Y-191202380D01*
X46595238Y-191202380D01*
X46690476Y-191154761D01*
X46738095Y-191107142D01*
X46785714Y-191011904D01*
X46785714Y-190773809D01*
X46738095Y-190678571D01*
X46690476Y-190630952D01*
X46595238Y-190583333D01*
X46404761Y-190583333D01*
X46309523Y-190630952D01*
X46261904Y-190678571D01*
X46214285Y-190773809D01*
%TO.C,R5*%
X45833333Y-156802380D02*
X45500000Y-156326190D01*
X45261904Y-156802380D02*
X45261904Y-155802380D01*
X45642857Y-155802380D01*
X45738095Y-155850000D01*
X45785714Y-155897619D01*
X45833333Y-155992857D01*
X45833333Y-156135714D01*
X45785714Y-156230952D01*
X45738095Y-156278571D01*
X45642857Y-156326190D01*
X45261904Y-156326190D01*
X46738095Y-155802380D02*
X46261904Y-155802380D01*
X46214285Y-156278571D01*
X46261904Y-156230952D01*
X46357142Y-156183333D01*
X46595238Y-156183333D01*
X46690476Y-156230952D01*
X46738095Y-156278571D01*
X46785714Y-156373809D01*
X46785714Y-156611904D01*
X46738095Y-156707142D01*
X46690476Y-156754761D01*
X46595238Y-156802380D01*
X46357142Y-156802380D01*
X46261904Y-156754761D01*
X46214285Y-156707142D01*
%TO.C,*%
%TO.C,JP9*%
X64916666Y-254152380D02*
X64916666Y-254866666D01*
X64869047Y-255009523D01*
X64773809Y-255104761D01*
X64630952Y-255152380D01*
X64535714Y-255152380D01*
X65392857Y-255152380D02*
X65392857Y-254152380D01*
X65773809Y-254152380D01*
X65869047Y-254200000D01*
X65916666Y-254247619D01*
X65964285Y-254342857D01*
X65964285Y-254485714D01*
X65916666Y-254580952D01*
X65869047Y-254628571D01*
X65773809Y-254676190D01*
X65392857Y-254676190D01*
X66440476Y-255152380D02*
X66630952Y-255152380D01*
X66726190Y-255104761D01*
X66773809Y-255057142D01*
X66869047Y-254914285D01*
X66916666Y-254723809D01*
X66916666Y-254342857D01*
X66869047Y-254247619D01*
X66821428Y-254200000D01*
X66726190Y-254152380D01*
X66535714Y-254152380D01*
X66440476Y-254200000D01*
X66392857Y-254247619D01*
X66345238Y-254342857D01*
X66345238Y-254580952D01*
X66392857Y-254676190D01*
X66440476Y-254723809D01*
X66535714Y-254771428D01*
X66726190Y-254771428D01*
X66821428Y-254723809D01*
X66869047Y-254676190D01*
X66916666Y-254580952D01*
%TO.C,C8*%
X45083333Y-247357142D02*
X45035714Y-247404761D01*
X44892857Y-247452380D01*
X44797619Y-247452380D01*
X44654761Y-247404761D01*
X44559523Y-247309523D01*
X44511904Y-247214285D01*
X44464285Y-247023809D01*
X44464285Y-246880952D01*
X44511904Y-246690476D01*
X44559523Y-246595238D01*
X44654761Y-246500000D01*
X44797619Y-246452380D01*
X44892857Y-246452380D01*
X45035714Y-246500000D01*
X45083333Y-246547619D01*
X45654761Y-246880952D02*
X45559523Y-246833333D01*
X45511904Y-246785714D01*
X45464285Y-246690476D01*
X45464285Y-246642857D01*
X45511904Y-246547619D01*
X45559523Y-246500000D01*
X45654761Y-246452380D01*
X45845238Y-246452380D01*
X45940476Y-246500000D01*
X45988095Y-246547619D01*
X46035714Y-246642857D01*
X46035714Y-246690476D01*
X45988095Y-246785714D01*
X45940476Y-246833333D01*
X45845238Y-246880952D01*
X45654761Y-246880952D01*
X45559523Y-246928571D01*
X45511904Y-246976190D01*
X45464285Y-247071428D01*
X45464285Y-247261904D01*
X45511904Y-247357142D01*
X45559523Y-247404761D01*
X45654761Y-247452380D01*
X45845238Y-247452380D01*
X45940476Y-247404761D01*
X45988095Y-247357142D01*
X46035714Y-247261904D01*
X46035714Y-247071428D01*
X45988095Y-246976190D01*
X45940476Y-246928571D01*
X45845238Y-246880952D01*
%TO.C,C1*%
X45609581Y-51107142D02*
X45561962Y-51154761D01*
X45419105Y-51202380D01*
X45323867Y-51202380D01*
X45181009Y-51154761D01*
X45085771Y-51059523D01*
X45038152Y-50964285D01*
X44990533Y-50773809D01*
X44990533Y-50630952D01*
X45038152Y-50440476D01*
X45085771Y-50345238D01*
X45181009Y-50250000D01*
X45323867Y-50202380D01*
X45419105Y-50202380D01*
X45561962Y-50250000D01*
X45609581Y-50297619D01*
X46561962Y-51202380D02*
X45990533Y-51202380D01*
X46276248Y-51202380D02*
X46276248Y-50202380D01*
X46181009Y-50345238D01*
X46085771Y-50440476D01*
X45990533Y-50488095D01*
%TO.C,*%
%TO.C,C3*%
X45870833Y-107107142D02*
X45823214Y-107154761D01*
X45680357Y-107202380D01*
X45585119Y-107202380D01*
X45442261Y-107154761D01*
X45347023Y-107059523D01*
X45299404Y-106964285D01*
X45251785Y-106773809D01*
X45251785Y-106630952D01*
X45299404Y-106440476D01*
X45347023Y-106345238D01*
X45442261Y-106250000D01*
X45585119Y-106202380D01*
X45680357Y-106202380D01*
X45823214Y-106250000D01*
X45870833Y-106297619D01*
X46204166Y-106202380D02*
X46823214Y-106202380D01*
X46489880Y-106583333D01*
X46632738Y-106583333D01*
X46727976Y-106630952D01*
X46775595Y-106678571D01*
X46823214Y-106773809D01*
X46823214Y-107011904D01*
X46775595Y-107107142D01*
X46727976Y-107154761D01*
X46632738Y-107202380D01*
X46347023Y-107202380D01*
X46251785Y-107154761D01*
X46204166Y-107107142D01*
%TO.C,C10*%
X44857142Y-303107142D02*
X44809523Y-303154761D01*
X44666666Y-303202380D01*
X44571428Y-303202380D01*
X44428571Y-303154761D01*
X44333333Y-303059523D01*
X44285714Y-302964285D01*
X44238095Y-302773809D01*
X44238095Y-302630952D01*
X44285714Y-302440476D01*
X44333333Y-302345238D01*
X44428571Y-302250000D01*
X44571428Y-302202380D01*
X44666666Y-302202380D01*
X44809523Y-302250000D01*
X44857142Y-302297619D01*
X45809523Y-303202380D02*
X45238095Y-303202380D01*
X45523809Y-303202380D02*
X45523809Y-302202380D01*
X45428571Y-302345238D01*
X45333333Y-302440476D01*
X45238095Y-302488095D01*
X46428571Y-302202380D02*
X46523809Y-302202380D01*
X46619047Y-302250000D01*
X46666666Y-302297619D01*
X46714285Y-302392857D01*
X46761904Y-302583333D01*
X46761904Y-302821428D01*
X46714285Y-303011904D01*
X46666666Y-303107142D01*
X46619047Y-303154761D01*
X46523809Y-303202380D01*
X46428571Y-303202380D01*
X46333333Y-303154761D01*
X46285714Y-303107142D01*
X46238095Y-303011904D01*
X46190476Y-302821428D01*
X46190476Y-302583333D01*
X46238095Y-302392857D01*
X46285714Y-302297619D01*
X46333333Y-302250000D01*
X46428571Y-302202380D01*
D12*
%TO.C,D10*%
X51315000Y-293295000D02*
X51315000Y-290205000D01*
X45765000Y-291749538D02*
G75*
G03*
X51315000Y-293294830I2990000J-462D01*
G01*
X51315000Y-290205170D02*
G75*
G03*
X45765000Y-291750462I-2560000J-1544830D01*
G01*
X51255000Y-291750000D02*
G75*
G03*
X51255000Y-291750000I-2500000J0D01*
G01*
%TO.C,D7*%
X51315000Y-209295000D02*
X51315000Y-206205000D01*
X45765000Y-207749538D02*
G75*
G03*
X51315000Y-209294830I2990000J-462D01*
G01*
X51315000Y-206205170D02*
G75*
G03*
X45765000Y-207750462I-2560000J-1544830D01*
G01*
X51255000Y-207750000D02*
G75*
G03*
X51255000Y-207750000I-2500000J0D01*
G01*
%TO.C,D29*%
X85315000Y-265295000D02*
X85315000Y-262205000D01*
X85315000Y-262205170D02*
G75*
G03*
X79765000Y-263750462I-2560000J-1544830D01*
G01*
X79765000Y-263749538D02*
G75*
G03*
X85315000Y-265294830I2990000J-462D01*
G01*
X85255000Y-263750000D02*
G75*
G03*
X85255000Y-263750000I-2500000J0D01*
G01*
%TO.C,D14*%
X68315000Y-125295000D02*
X68315000Y-122205000D01*
X62765000Y-123749538D02*
G75*
G03*
X68315000Y-125294830I2990000J-462D01*
G01*
X68315000Y-122205170D02*
G75*
G03*
X62765000Y-123750462I-2560000J-1544830D01*
G01*
X68255000Y-123750000D02*
G75*
G03*
X68255000Y-123750000I-2500000J0D01*
G01*
%TO.C,D15*%
X68315000Y-153295000D02*
X68315000Y-150205000D01*
X62765000Y-151749538D02*
G75*
G03*
X68315000Y-153294830I2990000J-462D01*
G01*
X68315000Y-150205170D02*
G75*
G03*
X62765000Y-151750462I-2560000J-1544830D01*
G01*
X68255000Y-151750000D02*
G75*
G03*
X68255000Y-151750000I-2500000J0D01*
G01*
%TO.C,D27*%
X85315000Y-209295000D02*
X85315000Y-206205000D01*
X79765000Y-207749538D02*
G75*
G03*
X85315000Y-209294830I2990000J-462D01*
G01*
X85315000Y-206205170D02*
G75*
G03*
X79765000Y-207750462I-2560000J-1544830D01*
G01*
X85255000Y-207750000D02*
G75*
G03*
X85255000Y-207750000I-2500000J0D01*
G01*
%TO.C,C7*%
X45738748Y-217735000D02*
X46261252Y-217735000D01*
X45738748Y-216265000D02*
X46261252Y-216265000D01*
%TO.C,D25*%
X85315000Y-153295000D02*
X85315000Y-150205000D01*
X85315000Y-150205170D02*
G75*
G03*
X79765000Y-151750462I-2560000J-1544830D01*
G01*
X79765000Y-151749538D02*
G75*
G03*
X85315000Y-153294830I2990000J-462D01*
G01*
X85255000Y-151750000D02*
G75*
G03*
X85255000Y-151750000I-2500000J0D01*
G01*
%TO.C,D23*%
X85315000Y-97295000D02*
X85315000Y-94205000D01*
X79765000Y-95749538D02*
G75*
G03*
X85315000Y-97294830I2990000J-462D01*
G01*
X85315000Y-94205170D02*
G75*
G03*
X79765000Y-95750462I-2560000J-1544830D01*
G01*
X85255000Y-95750000D02*
G75*
G03*
X85255000Y-95750000I-2500000J0D01*
G01*
%TO.C,R8*%
X45772936Y-242735000D02*
X46227064Y-242735000D01*
X45772936Y-241265000D02*
X46227064Y-241265000D01*
%TO.C,JP6*%
X64600000Y-173500000D02*
X64600000Y-171500000D01*
X64600000Y-171500000D02*
X67400000Y-171500000D01*
X67400000Y-173500000D02*
X64600000Y-173500000D01*
X67400000Y-171500000D02*
X67400000Y-173500000D01*
%TO.C,JP3*%
X67425000Y-89000000D02*
X64625000Y-89000000D01*
X64625000Y-89000000D02*
X64625000Y-87000000D01*
X64625000Y-87000000D02*
X67425000Y-87000000D01*
X67425000Y-87000000D02*
X67425000Y-89000000D01*
%TO.C,C9*%
X45738748Y-272522500D02*
X46261252Y-272522500D01*
X45738748Y-273992500D02*
X46261252Y-273992500D01*
%TO.C,R6*%
X45772936Y-185265000D02*
X46227064Y-185265000D01*
X45772936Y-186735000D02*
X46227064Y-186735000D01*
%TO.C,R10*%
X45772936Y-298735000D02*
X46227064Y-298735000D01*
X45772936Y-297265000D02*
X46227064Y-297265000D01*
%TO.C,D26*%
X85315000Y-181295000D02*
X85315000Y-178205000D01*
X79765000Y-179749538D02*
G75*
G03*
X85315000Y-181294830I2990000J-462D01*
G01*
X85315000Y-178205170D02*
G75*
G03*
X79765000Y-179750462I-2560000J-1544830D01*
G01*
X85255000Y-179750000D02*
G75*
G03*
X85255000Y-179750000I-2500000J0D01*
G01*
%TO.C,D19*%
X68315000Y-265295000D02*
X68315000Y-262205000D01*
X68315000Y-262205170D02*
G75*
G03*
X62765000Y-263750462I-2560000J-1544830D01*
G01*
X62765000Y-263749538D02*
G75*
G03*
X68315000Y-265294830I2990000J-462D01*
G01*
X68255000Y-263750000D02*
G75*
G03*
X68255000Y-263750000I-2500000J0D01*
G01*
%TO.C,J2*%
X42860000Y-311760000D02*
X42860000Y-313260000D01*
X36140000Y-311760000D02*
X37140000Y-311760000D01*
X35840000Y-311060000D02*
X35840000Y-313560000D01*
X36140000Y-310950000D02*
X36640000Y-310950000D01*
X36640000Y-309740000D02*
X43360000Y-309740000D01*
X43360000Y-310950000D02*
X43860000Y-310950000D01*
X36140000Y-313260000D02*
X43860000Y-313260000D01*
X36140000Y-309240000D02*
X36140000Y-313260000D01*
X35840000Y-313560000D02*
X38340000Y-313560000D01*
X43860000Y-309240000D02*
X36140000Y-309240000D01*
X43860000Y-313260000D02*
X43860000Y-309240000D01*
X43360000Y-309740000D02*
X43360000Y-310950000D01*
X36640000Y-310950000D02*
X36640000Y-309740000D01*
X43860000Y-311760000D02*
X42860000Y-311760000D01*
X37140000Y-311760000D02*
X37140000Y-313260000D01*
%TO.C,R1*%
X45772936Y-46735000D02*
X46227064Y-46735000D01*
X45772936Y-45265000D02*
X46227064Y-45265000D01*
%TO.C,D9*%
X51315000Y-265295000D02*
X51315000Y-262205000D01*
X51315000Y-262205170D02*
G75*
G03*
X45765000Y-263750462I-2560000J-1544830D01*
G01*
X45765000Y-263749538D02*
G75*
G03*
X51315000Y-265294830I2990000J-462D01*
G01*
X51255000Y-263750000D02*
G75*
G03*
X51255000Y-263750000I-2500000J0D01*
G01*
%TO.C,D4*%
X51315000Y-125295000D02*
X51315000Y-122205000D01*
X51315000Y-122205170D02*
G75*
G03*
X45765000Y-123750462I-2560000J-1544830D01*
G01*
X45765000Y-123749538D02*
G75*
G03*
X51315000Y-125294830I2990000J-462D01*
G01*
X51255000Y-123750000D02*
G75*
G03*
X51255000Y-123750000I-2500000J0D01*
G01*
%TO.C,D5*%
X51315000Y-153295000D02*
X51315000Y-150205000D01*
X45765000Y-151749538D02*
G75*
G03*
X51315000Y-153294830I2990000J-462D01*
G01*
X51315000Y-150205170D02*
G75*
G03*
X45765000Y-151750462I-2560000J-1544830D01*
G01*
X51255000Y-151750000D02*
G75*
G03*
X51255000Y-151750000I-2500000J0D01*
G01*
%TO.C,JP5*%
X64575000Y-143250000D02*
X67375000Y-143250000D01*
X67375000Y-143250000D02*
X67375000Y-145250000D01*
X67375000Y-145250000D02*
X64575000Y-145250000D01*
X64575000Y-145250000D02*
X64575000Y-143250000D01*
%TO.C,D21*%
X85315000Y-41295000D02*
X85315000Y-38205000D01*
X85315000Y-38205170D02*
G75*
G03*
X79765000Y-39750462I-2560000J-1544830D01*
G01*
X79765000Y-39749538D02*
G75*
G03*
X85315000Y-41294830I2990000J-462D01*
G01*
X85255000Y-39750000D02*
G75*
G03*
X85255000Y-39750000I-2500000J0D01*
G01*
%TO.C,R7*%
X45772936Y-213265000D02*
X46227064Y-213265000D01*
X45772936Y-214735000D02*
X46227064Y-214735000D01*
%TO.C,C4*%
X45701248Y-133735000D02*
X46223752Y-133735000D01*
X45701248Y-132265000D02*
X46223752Y-132265000D01*
%TO.C,D2*%
X51315000Y-69295000D02*
X51315000Y-66205000D01*
X45765000Y-67749538D02*
G75*
G03*
X51315000Y-69294830I2990000J-462D01*
G01*
X51315000Y-66205170D02*
G75*
G03*
X45765000Y-67750462I-2560000J-1544830D01*
G01*
X51255000Y-67750000D02*
G75*
G03*
X51255000Y-67750000I-2500000J0D01*
G01*
%TO.C,D3*%
X51315000Y-97295000D02*
X51315000Y-94205000D01*
X51315000Y-94205170D02*
G75*
G03*
X45765000Y-95750462I-2560000J-1544830D01*
G01*
X45765000Y-95749538D02*
G75*
G03*
X51315000Y-97294830I2990000J-462D01*
G01*
X51255000Y-95750000D02*
G75*
G03*
X51255000Y-95750000I-2500000J0D01*
G01*
%TO.C,R4*%
X45772936Y-130735000D02*
X46227064Y-130735000D01*
X45772936Y-129265000D02*
X46227064Y-129265000D01*
%TO.C,JP2*%
X64375000Y-59250000D02*
X67175000Y-59250000D01*
X64375000Y-61250000D02*
X64375000Y-59250000D01*
X67175000Y-61250000D02*
X64375000Y-61250000D01*
X67175000Y-59250000D02*
X67175000Y-61250000D01*
%TO.C,D17*%
X68315000Y-209295000D02*
X68315000Y-206205000D01*
X68315000Y-206205170D02*
G75*
G03*
X62765000Y-207750462I-2560000J-1544830D01*
G01*
X62765000Y-207749538D02*
G75*
G03*
X68315000Y-209294830I2990000J-462D01*
G01*
X68255000Y-207750000D02*
G75*
G03*
X68255000Y-207750000I-2500000J0D01*
G01*
%TO.C,JP4*%
X64350000Y-117000000D02*
X64350000Y-115000000D01*
X67150000Y-117000000D02*
X64350000Y-117000000D01*
X67150000Y-115000000D02*
X67150000Y-117000000D01*
X64350000Y-115000000D02*
X67150000Y-115000000D01*
%TO.C,D13*%
X68315000Y-97295000D02*
X68315000Y-94205000D01*
X68315000Y-94205170D02*
G75*
G03*
X62765000Y-95750462I-2560000J-1544830D01*
G01*
X62765000Y-95749538D02*
G75*
G03*
X68315000Y-97294830I2990000J-462D01*
G01*
X68255000Y-95750000D02*
G75*
G03*
X68255000Y-95750000I-2500000J0D01*
G01*
%TO.C,D1*%
X51315000Y-41295000D02*
X51315000Y-38205000D01*
X51315000Y-38205170D02*
G75*
G03*
X45765000Y-39750462I-2560000J-1544830D01*
G01*
X45765000Y-39749538D02*
G75*
G03*
X51315000Y-41294830I2990000J-462D01*
G01*
X51255000Y-39750000D02*
G75*
G03*
X51255000Y-39750000I-2500000J0D01*
G01*
%TO.C,D18*%
X68315000Y-237295000D02*
X68315000Y-234205000D01*
X62765000Y-235749538D02*
G75*
G03*
X68315000Y-237294830I2990000J-462D01*
G01*
X68315000Y-234205170D02*
G75*
G03*
X62765000Y-235750462I-2560000J-1544830D01*
G01*
X68255000Y-235750000D02*
G75*
G03*
X68255000Y-235750000I-2500000J0D01*
G01*
%TO.C,D8*%
X51315000Y-237295000D02*
X51315000Y-234205000D01*
X51315000Y-234205170D02*
G75*
G03*
X45765000Y-235750462I-2560000J-1544830D01*
G01*
X45765000Y-235749538D02*
G75*
G03*
X51315000Y-237294830I2990000J-462D01*
G01*
X51255000Y-235750000D02*
G75*
G03*
X51255000Y-235750000I-2500000J0D01*
G01*
%TO.C,D24*%
X85315000Y-125295000D02*
X85315000Y-122205000D01*
X85315000Y-122205170D02*
G75*
G03*
X79765000Y-123750462I-2560000J-1544830D01*
G01*
X79765000Y-123749538D02*
G75*
G03*
X85315000Y-125294830I2990000J-462D01*
G01*
X85255000Y-123750000D02*
G75*
G03*
X85255000Y-123750000I-2500000J0D01*
G01*
%TO.C,R2*%
X45772936Y-73265000D02*
X46227064Y-73265000D01*
X45772936Y-74735000D02*
X46227064Y-74735000D01*
%TO.C,R3*%
X45772936Y-101265000D02*
X46227064Y-101265000D01*
X45772936Y-102735000D02*
X46227064Y-102735000D01*
%TO.C,R9*%
X45772936Y-270992500D02*
X46227064Y-270992500D01*
X45772936Y-269522500D02*
X46227064Y-269522500D01*
%TO.C,D30*%
X85315000Y-293295000D02*
X85315000Y-290205000D01*
X79765000Y-291749538D02*
G75*
G03*
X85315000Y-293294830I2990000J-462D01*
G01*
X85315000Y-290205170D02*
G75*
G03*
X79765000Y-291750462I-2560000J-1544830D01*
G01*
X85255000Y-291750000D02*
G75*
G03*
X85255000Y-291750000I-2500000J0D01*
G01*
%TO.C,D20*%
X68315000Y-293295000D02*
X68315000Y-290205000D01*
X62765000Y-291749538D02*
G75*
G03*
X68315000Y-293294830I2990000J-462D01*
G01*
X68315000Y-290205170D02*
G75*
G03*
X62765000Y-291750462I-2560000J-1544830D01*
G01*
X68255000Y-291750000D02*
G75*
G03*
X68255000Y-291750000I-2500000J0D01*
G01*
%TO.C,D16*%
X68315000Y-181295000D02*
X68315000Y-178205000D01*
X68315000Y-178205170D02*
G75*
G03*
X62765000Y-179750462I-2560000J-1544830D01*
G01*
X62765000Y-179749538D02*
G75*
G03*
X68315000Y-181294830I2990000J-462D01*
G01*
X68255000Y-179750000D02*
G75*
G03*
X68255000Y-179750000I-2500000J0D01*
G01*
%TO.C,J1*%
X74740000Y-302270000D02*
X74740000Y-308770000D01*
X76040000Y-300960000D02*
X76040000Y-310080000D01*
X55460000Y-310080000D02*
X55460000Y-300960000D01*
X55460000Y-300960000D02*
X76040000Y-300960000D01*
X71330000Y-299570000D02*
X70330000Y-299570000D01*
X67800000Y-300960000D02*
X67800000Y-302270000D01*
X63700000Y-302270000D02*
X63700000Y-302270000D01*
X70330000Y-299570000D02*
X70830000Y-300570000D01*
X70830000Y-300570000D02*
X71330000Y-299570000D01*
X63700000Y-302270000D02*
X63700000Y-300960000D01*
X67800000Y-302270000D02*
X74740000Y-302270000D01*
X74740000Y-308770000D02*
X56760000Y-308770000D01*
X56760000Y-302270000D02*
X63700000Y-302270000D01*
X76040000Y-310080000D02*
X55460000Y-310080000D01*
X56760000Y-308770000D02*
X56760000Y-302270000D01*
%TO.C,D11*%
X68315000Y-41295000D02*
X68315000Y-38205000D01*
X62765000Y-39749538D02*
G75*
G03*
X68315000Y-41294830I2990000J-462D01*
G01*
X68315000Y-38205170D02*
G75*
G03*
X62765000Y-39750462I-2560000J-1544830D01*
G01*
X68255000Y-39750000D02*
G75*
G03*
X68255000Y-39750000I-2500000J0D01*
G01*
%TO.C,JP10*%
X67150000Y-285750000D02*
X64350000Y-285750000D01*
X64350000Y-283750000D02*
X67150000Y-283750000D01*
X67150000Y-283750000D02*
X67150000Y-285750000D01*
X64350000Y-285750000D02*
X64350000Y-283750000D01*
%TO.C,JP8*%
X67125000Y-227000000D02*
X67125000Y-229000000D01*
X67125000Y-229000000D02*
X64325000Y-229000000D01*
X64325000Y-229000000D02*
X64325000Y-227000000D01*
X64325000Y-227000000D02*
X67125000Y-227000000D01*
%TO.C,D28*%
X85315000Y-237295000D02*
X85315000Y-234205000D01*
X79765000Y-235749538D02*
G75*
G03*
X85315000Y-237294830I2990000J-462D01*
G01*
X85315000Y-234205170D02*
G75*
G03*
X79765000Y-235750462I-2560000J-1544830D01*
G01*
X85255000Y-235750000D02*
G75*
G03*
X85255000Y-235750000I-2500000J0D01*
G01*
%TO.C,JP7*%
X64350000Y-202000000D02*
X64350000Y-200000000D01*
X67150000Y-200000000D02*
X67150000Y-202000000D01*
X67150000Y-202000000D02*
X64350000Y-202000000D01*
X64350000Y-200000000D02*
X67150000Y-200000000D01*
%TO.C,D12*%
X68315000Y-69295000D02*
X68315000Y-66205000D01*
X68315000Y-66205170D02*
G75*
G03*
X62765000Y-67750462I-2560000J-1544830D01*
G01*
X62765000Y-67749538D02*
G75*
G03*
X68315000Y-69294830I2990000J-462D01*
G01*
X68255000Y-67750000D02*
G75*
G03*
X68255000Y-67750000I-2500000J0D01*
G01*
%TO.C,C5*%
X45776248Y-161735000D02*
X46298752Y-161735000D01*
X45776248Y-160265000D02*
X46298752Y-160265000D01*
%TO.C,JP1*%
X67125000Y-33250000D02*
X64325000Y-33250000D01*
X67125000Y-31250000D02*
X67125000Y-33250000D01*
X64325000Y-31250000D02*
X67125000Y-31250000D01*
X64325000Y-33250000D02*
X64325000Y-31250000D01*
%TO.C,D22*%
X85315000Y-69295000D02*
X85315000Y-66205000D01*
X79765000Y-67749538D02*
G75*
G03*
X85315000Y-69294830I2990000J-462D01*
G01*
X85315000Y-66205170D02*
G75*
G03*
X79765000Y-67750462I-2560000J-1544830D01*
G01*
X85255000Y-67750000D02*
G75*
G03*
X85255000Y-67750000I-2500000J0D01*
G01*
%TO.C,C2*%
X45776248Y-77735000D02*
X46298752Y-77735000D01*
X45776248Y-76265000D02*
X46298752Y-76265000D01*
%TO.C,D6*%
X51315000Y-181295000D02*
X51315000Y-178205000D01*
X51315000Y-178205170D02*
G75*
G03*
X45765000Y-179750462I-2560000J-1544830D01*
G01*
X45765000Y-179749538D02*
G75*
G03*
X51315000Y-181294830I2990000J-462D01*
G01*
X51255000Y-179750000D02*
G75*
G03*
X51255000Y-179750000I-2500000J0D01*
G01*
%TO.C,C6*%
X45738748Y-189735000D02*
X46261252Y-189735000D01*
X45738748Y-188265000D02*
X46261252Y-188265000D01*
%TO.C,R5*%
X45772936Y-158735000D02*
X46227064Y-158735000D01*
X45772936Y-157265000D02*
X46227064Y-157265000D01*
%TO.C,JP9*%
X64350000Y-255500000D02*
X67150000Y-255500000D01*
X67150000Y-255500000D02*
X67150000Y-257500000D01*
X64350000Y-257500000D02*
X64350000Y-255500000D01*
X67150000Y-257500000D02*
X64350000Y-257500000D01*
%TO.C,C8*%
X45738748Y-244265000D02*
X46261252Y-244265000D01*
X45738748Y-245735000D02*
X46261252Y-245735000D01*
%TO.C,C1*%
X45776248Y-48265000D02*
X46298752Y-48265000D01*
X45776248Y-49735000D02*
X46298752Y-49735000D01*
%TO.C,C3*%
X45776248Y-105735000D02*
X46298752Y-105735000D01*
X45776248Y-104265000D02*
X46298752Y-104265000D01*
%TO.C,C10*%
X45738748Y-300265000D02*
X46261252Y-300265000D01*
X45738748Y-301735000D02*
X46261252Y-301735000D01*
%TD*%
M02*
