%FSLAX45Y45*%
G04 Gerber Fmt 4.5, Leading zero omitted, Abs format (unit mm)*
G04 Created by KiCad (PCBNEW (6.0.0)) date 2022-10-10 13:55:57*
%MOMM*%
%LPD*%
G01*
G04 APERTURE LIST*
%TA.AperFunction,Profile*%
%ADD10C,0.100000*%
%TD*%
%ADD11C,0.200000*%
%ADD12C,0.040000*%
%ADD13C,0.075000*%
%ADD14C,0.100000*%
%ADD15C,0.320000*%
G04 APERTURE END LIST*
D10*
X9575000Y-31375000D02*
X9575000Y-29585000D01*
X3575000Y-15585000D02*
X3575000Y-17565000D01*
X8825000Y-3565000D02*
X9575000Y-3565000D01*
X8825000Y-9165000D02*
X9575000Y-9165000D01*
X8825000Y-23165000D02*
X8825000Y-23985000D01*
X3575000Y-15585000D02*
X4325000Y-15585000D01*
X8825000Y-12785000D02*
X9575000Y-12785000D01*
X9575000Y-28765000D02*
X9575000Y-26785000D01*
X3575000Y-9165000D02*
X4325000Y-9165000D01*
X8825000Y-14765000D02*
X8825000Y-15585000D01*
X9575000Y-20365000D02*
X9575000Y-18385000D01*
X8825000Y-6365000D02*
X8825000Y-7185000D01*
X3575000Y-31375000D02*
X9575000Y-31375000D01*
X3575000Y-23985000D02*
X3575000Y-25965000D01*
X4325000Y-18385000D02*
X4325000Y-17565000D01*
X3575000Y-23165000D02*
X4325000Y-23165000D01*
X4325000Y-23985000D02*
X4325000Y-23165000D01*
X9575000Y-23165000D02*
X9575000Y-21185000D01*
X3575000Y-2875000D02*
X3575000Y-3565000D01*
X3575000Y-6365000D02*
X4325000Y-6365000D01*
X3575000Y-23985000D02*
X4325000Y-23985000D01*
X3575000Y-9985000D02*
X3575000Y-11965000D01*
X8825000Y-11965000D02*
X9575000Y-11965000D01*
X9575000Y-11965000D02*
X9575000Y-9985000D01*
X9575000Y-9165000D02*
X9575000Y-7185000D01*
X3575000Y-17565000D02*
X4325000Y-17565000D01*
X3575000Y-26785000D02*
X4325000Y-26785000D01*
X4325000Y-4385000D02*
X4325000Y-3565000D01*
X8825000Y-17565000D02*
X8825000Y-18385000D01*
X8825000Y-4385000D02*
X9575000Y-4385000D01*
X8825000Y-7185000D02*
X9575000Y-7185000D01*
X8825000Y-25965000D02*
X8825000Y-26785000D01*
X3575000Y-4385000D02*
X3575000Y-6365000D01*
X8825000Y-21185000D02*
X9575000Y-21185000D01*
X8825000Y-20365000D02*
X8825000Y-21185000D01*
X4325000Y-15585000D02*
X4325000Y-14765000D01*
X8825000Y-14765000D02*
X9575000Y-14765000D01*
X8825000Y-18385000D02*
X9575000Y-18385000D01*
X8825000Y-20365000D02*
X9575000Y-20365000D01*
X3575000Y-18385000D02*
X4325000Y-18385000D01*
X4325000Y-21185000D02*
X4325000Y-20365000D01*
X3575000Y-12785000D02*
X4325000Y-12785000D01*
X3575000Y-25965000D02*
X4325000Y-25965000D01*
X9575000Y-25965000D02*
X9575000Y-23985000D01*
X9575000Y-17565000D02*
X9575000Y-15585000D01*
X8825000Y-23985000D02*
X9575000Y-23985000D01*
X8825000Y-26785000D02*
X9575000Y-26785000D01*
X3575000Y-7185000D02*
X3575000Y-9165000D01*
X8825000Y-3565000D02*
X8825000Y-4385000D01*
X8825000Y-28765000D02*
X8825000Y-29585000D01*
X3575000Y-7185000D02*
X4325000Y-7185000D01*
X3575000Y-3565000D02*
X4325000Y-3565000D01*
X8825000Y-9165000D02*
X8825000Y-9985000D01*
X3575000Y-4385000D02*
X4325000Y-4385000D01*
X4325000Y-29585000D02*
X4325000Y-28765000D01*
X8825000Y-28765000D02*
X9575000Y-28765000D01*
X8825000Y-17565000D02*
X9575000Y-17565000D01*
X3575000Y-21185000D02*
X3575000Y-23165000D01*
X3575000Y-12785000D02*
X3575000Y-14765000D01*
X3575000Y-11965000D02*
X4325000Y-11965000D01*
X8825000Y-9985000D02*
X9575000Y-9985000D01*
X4325000Y-26785000D02*
X4325000Y-25965000D01*
X8825000Y-15585000D02*
X9575000Y-15585000D01*
X3575000Y-28765000D02*
X4325000Y-28765000D01*
X3575000Y-18385000D02*
X3575000Y-20365000D01*
X4325000Y-12785000D02*
X4325000Y-11965000D01*
X3575000Y-9985000D02*
X4325000Y-9985000D01*
X3575000Y-29585000D02*
X4325000Y-29585000D01*
X9575000Y-3565000D02*
X9575000Y-2875000D01*
X8825000Y-23165000D02*
X9575000Y-23165000D01*
X3575000Y-14765000D02*
X4325000Y-14765000D01*
X8825000Y-11965000D02*
X8825000Y-12785000D01*
X3575000Y-29585000D02*
X3575000Y-31375000D01*
X3575000Y-21185000D02*
X4325000Y-21185000D01*
X8825000Y-25965000D02*
X9575000Y-25965000D01*
X9575000Y-14765000D02*
X9575000Y-12785000D01*
X3575000Y-26785000D02*
X3575000Y-28765000D01*
X8825000Y-29585000D02*
X9575000Y-29585000D01*
X4325000Y-9985000D02*
X4325000Y-9165000D01*
X9575000Y-2875000D02*
X3575000Y-2875000D01*
X9575000Y-6365000D02*
X9575000Y-4385000D01*
X4325000Y-7185000D02*
X4325000Y-6365000D01*
X3575000Y-20365000D02*
X4325000Y-20365000D01*
X8825000Y-6365000D02*
X9575000Y-6365000D01*
D11*
D12*
X4830000Y-27305000D02*
X4870000Y-27345000D01*
X4870000Y-27305000D02*
X4830000Y-27345000D01*
X4830000Y-30080000D02*
X4870000Y-30120000D01*
X4870000Y-30080000D02*
X4830000Y-30120000D01*
X4855000Y-10480000D02*
X4895000Y-10520000D01*
X4895000Y-10480000D02*
X4855000Y-10520000D01*
X4855000Y-13280000D02*
X4895000Y-13320000D01*
X4895000Y-13280000D02*
X4855000Y-13320000D01*
X4855000Y-18880000D02*
X4895000Y-18920000D01*
X4895000Y-18880000D02*
X4855000Y-18920000D01*
X4855000Y-21680000D02*
X4895000Y-21720000D01*
X4895000Y-21680000D02*
X4855000Y-21720000D01*
X4855000Y-24480000D02*
X4895000Y-24520000D01*
X4895000Y-24480000D02*
X4855000Y-24520000D01*
X4880000Y-7680000D02*
X4920000Y-7720000D01*
X4920000Y-7680000D02*
X4880000Y-7720000D01*
X4880000Y-16080000D02*
X4920000Y-16120000D01*
X4920000Y-16080000D02*
X4880000Y-16120000D01*
X4905000Y-4880000D02*
X4945000Y-4920000D01*
X4945000Y-4880000D02*
X4905000Y-4920000D01*
D13*
X4786000Y-3975000D02*
G75*
G03*
X4786000Y-3975000I-37500J0D01*
G01*
X4786000Y-6775000D02*
G75*
G03*
X4786000Y-6775000I-37500J0D01*
G01*
X4786000Y-9575000D02*
G75*
G03*
X4786000Y-9575000I-37500J0D01*
G01*
X4786000Y-12375000D02*
G75*
G03*
X4786000Y-12375000I-37500J0D01*
G01*
X4786000Y-15175000D02*
G75*
G03*
X4786000Y-15175000I-37500J0D01*
G01*
X4786000Y-17975000D02*
G75*
G03*
X4786000Y-17975000I-37500J0D01*
G01*
X4786000Y-20775000D02*
G75*
G03*
X4786000Y-20775000I-37500J0D01*
G01*
X4786000Y-23575000D02*
G75*
G03*
X4786000Y-23575000I-37500J0D01*
G01*
X4786000Y-26375000D02*
G75*
G03*
X4786000Y-26375000I-37500J0D01*
G01*
X4786000Y-29175000D02*
G75*
G03*
X4786000Y-29175000I-37500J0D01*
G01*
X5040000Y-3975000D02*
G75*
G03*
X5040000Y-3975000I-37500J0D01*
G01*
X5040000Y-6775000D02*
G75*
G03*
X5040000Y-6775000I-37500J0D01*
G01*
X5040000Y-9575000D02*
G75*
G03*
X5040000Y-9575000I-37500J0D01*
G01*
X5040000Y-12375000D02*
G75*
G03*
X5040000Y-12375000I-37500J0D01*
G01*
X5040000Y-15175000D02*
G75*
G03*
X5040000Y-15175000I-37500J0D01*
G01*
X5040000Y-17975000D02*
G75*
G03*
X5040000Y-17975000I-37500J0D01*
G01*
X5040000Y-20775000D02*
G75*
G03*
X5040000Y-20775000I-37500J0D01*
G01*
X5040000Y-23575000D02*
G75*
G03*
X5040000Y-23575000I-37500J0D01*
G01*
X5040000Y-26375000D02*
G75*
G03*
X5040000Y-26375000I-37500J0D01*
G01*
X5040000Y-29175000D02*
G75*
G03*
X5040000Y-29175000I-37500J0D01*
G01*
X6486000Y-3975000D02*
G75*
G03*
X6486000Y-3975000I-37500J0D01*
G01*
X6486000Y-6775000D02*
G75*
G03*
X6486000Y-6775000I-37500J0D01*
G01*
X6486000Y-9575000D02*
G75*
G03*
X6486000Y-9575000I-37500J0D01*
G01*
X6486000Y-12375000D02*
G75*
G03*
X6486000Y-12375000I-37500J0D01*
G01*
X6486000Y-15175000D02*
G75*
G03*
X6486000Y-15175000I-37500J0D01*
G01*
X6486000Y-17975000D02*
G75*
G03*
X6486000Y-17975000I-37500J0D01*
G01*
X6486000Y-20775000D02*
G75*
G03*
X6486000Y-20775000I-37500J0D01*
G01*
X6486000Y-23575000D02*
G75*
G03*
X6486000Y-23575000I-37500J0D01*
G01*
X6486000Y-26375000D02*
G75*
G03*
X6486000Y-26375000I-37500J0D01*
G01*
X6486000Y-29175000D02*
G75*
G03*
X6486000Y-29175000I-37500J0D01*
G01*
X6740000Y-3975000D02*
G75*
G03*
X6740000Y-3975000I-37500J0D01*
G01*
X6740000Y-6775000D02*
G75*
G03*
X6740000Y-6775000I-37500J0D01*
G01*
X6740000Y-9575000D02*
G75*
G03*
X6740000Y-9575000I-37500J0D01*
G01*
X6740000Y-12375000D02*
G75*
G03*
X6740000Y-12375000I-37500J0D01*
G01*
X6740000Y-15175000D02*
G75*
G03*
X6740000Y-15175000I-37500J0D01*
G01*
X6740000Y-17975000D02*
G75*
G03*
X6740000Y-17975000I-37500J0D01*
G01*
X6740000Y-20775000D02*
G75*
G03*
X6740000Y-20775000I-37500J0D01*
G01*
X6740000Y-23575000D02*
G75*
G03*
X6740000Y-23575000I-37500J0D01*
G01*
X6740000Y-26375000D02*
G75*
G03*
X6740000Y-26375000I-37500J0D01*
G01*
X6740000Y-29175000D02*
G75*
G03*
X6740000Y-29175000I-37500J0D01*
G01*
X8186000Y-3975000D02*
G75*
G03*
X8186000Y-3975000I-37500J0D01*
G01*
X8186000Y-6775000D02*
G75*
G03*
X8186000Y-6775000I-37500J0D01*
G01*
X8186000Y-9575000D02*
G75*
G03*
X8186000Y-9575000I-37500J0D01*
G01*
X8186000Y-12375000D02*
G75*
G03*
X8186000Y-12375000I-37500J0D01*
G01*
X8186000Y-15175000D02*
G75*
G03*
X8186000Y-15175000I-37500J0D01*
G01*
X8186000Y-17975000D02*
G75*
G03*
X8186000Y-17975000I-37500J0D01*
G01*
X8186000Y-20775000D02*
G75*
G03*
X8186000Y-20775000I-37500J0D01*
G01*
X8186000Y-23575000D02*
G75*
G03*
X8186000Y-23575000I-37500J0D01*
G01*
X8186000Y-26375000D02*
G75*
G03*
X8186000Y-26375000I-37500J0D01*
G01*
X8186000Y-29175000D02*
G75*
G03*
X8186000Y-29175000I-37500J0D01*
G01*
X8440000Y-3975000D02*
G75*
G03*
X8440000Y-3975000I-37500J0D01*
G01*
X8440000Y-6775000D02*
G75*
G03*
X8440000Y-6775000I-37500J0D01*
G01*
X8440000Y-9575000D02*
G75*
G03*
X8440000Y-9575000I-37500J0D01*
G01*
X8440000Y-12375000D02*
G75*
G03*
X8440000Y-12375000I-37500J0D01*
G01*
X8440000Y-15175000D02*
G75*
G03*
X8440000Y-15175000I-37500J0D01*
G01*
X8440000Y-17975000D02*
G75*
G03*
X8440000Y-17975000I-37500J0D01*
G01*
X8440000Y-20775000D02*
G75*
G03*
X8440000Y-20775000I-37500J0D01*
G01*
X8440000Y-23575000D02*
G75*
G03*
X8440000Y-23575000I-37500J0D01*
G01*
X8440000Y-26375000D02*
G75*
G03*
X8440000Y-26375000I-37500J0D01*
G01*
X8440000Y-29175000D02*
G75*
G03*
X8440000Y-29175000I-37500J0D01*
G01*
D14*
X3875000Y-31045000D02*
X3875000Y-31145000D01*
X3825000Y-31095000D02*
X3925000Y-31095000D01*
X4125000Y-31045000D02*
X4125000Y-31145000D01*
X4075000Y-31095000D02*
X4175000Y-31095000D01*
X6067000Y-30375000D02*
X6067000Y-30475000D01*
X6017000Y-30425000D02*
X6117000Y-30425000D01*
X6067000Y-30629000D02*
X6067000Y-30729000D01*
X6017000Y-30679000D02*
X6117000Y-30679000D01*
X6321000Y-30375000D02*
X6321000Y-30475000D01*
X6271000Y-30425000D02*
X6371000Y-30425000D01*
X6321000Y-30629000D02*
X6321000Y-30729000D01*
X6271000Y-30679000D02*
X6371000Y-30679000D01*
X6575000Y-30375000D02*
X6575000Y-30475000D01*
X6525000Y-30425000D02*
X6625000Y-30425000D01*
X6575000Y-30629000D02*
X6575000Y-30729000D01*
X6525000Y-30679000D02*
X6625000Y-30679000D01*
X6829000Y-30375000D02*
X6829000Y-30475000D01*
X6779000Y-30425000D02*
X6879000Y-30425000D01*
X6829000Y-30629000D02*
X6829000Y-30729000D01*
X6779000Y-30679000D02*
X6879000Y-30679000D01*
X7083000Y-30375000D02*
X7083000Y-30475000D01*
X7033000Y-30425000D02*
X7133000Y-30425000D01*
X7083000Y-30629000D02*
X7083000Y-30729000D01*
X7033000Y-30679000D02*
X7133000Y-30679000D01*
D15*
X4988138Y-5488138D02*
X4988138Y-5261862D01*
X4761862Y-5261862D01*
X4761862Y-5488138D01*
X4988138Y-5488138D01*
X4988138Y-8288138D02*
X4988138Y-8061862D01*
X4761862Y-8061862D01*
X4761862Y-8288138D01*
X4988138Y-8288138D01*
X4988138Y-11088138D02*
X4988138Y-10861862D01*
X4761862Y-10861862D01*
X4761862Y-11088138D01*
X4988138Y-11088138D01*
X4988138Y-13888138D02*
X4988138Y-13661862D01*
X4761862Y-13661862D01*
X4761862Y-13888138D01*
X4988138Y-13888138D01*
X4988138Y-16688138D02*
X4988138Y-16461862D01*
X4761862Y-16461862D01*
X4761862Y-16688138D01*
X4988138Y-16688138D01*
X4988138Y-19488138D02*
X4988138Y-19261862D01*
X4761862Y-19261862D01*
X4761862Y-19488138D01*
X4988138Y-19488138D01*
X4988138Y-22288138D02*
X4988138Y-22061862D01*
X4761862Y-22061862D01*
X4761862Y-22288138D01*
X4988138Y-22288138D01*
X4988138Y-25088138D02*
X4988138Y-24861862D01*
X4761862Y-24861862D01*
X4761862Y-25088138D01*
X4988138Y-25088138D01*
X4988138Y-27888138D02*
X4988138Y-27661862D01*
X4761862Y-27661862D01*
X4761862Y-27888138D01*
X4988138Y-27888138D01*
X4988138Y-30688138D02*
X4988138Y-30461862D01*
X4761862Y-30461862D01*
X4761862Y-30688138D01*
X4988138Y-30688138D01*
X8388138Y-5488138D02*
X8388138Y-5261862D01*
X8161862Y-5261862D01*
X8161862Y-5488138D01*
X8388138Y-5488138D01*
X8388138Y-8288138D02*
X8388138Y-8061862D01*
X8161862Y-8061862D01*
X8161862Y-8288138D01*
X8388138Y-8288138D01*
X8388138Y-11088138D02*
X8388138Y-10861862D01*
X8161862Y-10861862D01*
X8161862Y-11088138D01*
X8388138Y-11088138D01*
X8388138Y-13888138D02*
X8388138Y-13661862D01*
X8161862Y-13661862D01*
X8161862Y-13888138D01*
X8388138Y-13888138D01*
X8388138Y-16688138D02*
X8388138Y-16461862D01*
X8161862Y-16461862D01*
X8161862Y-16688138D01*
X8388138Y-16688138D01*
X8388138Y-19488138D02*
X8388138Y-19261862D01*
X8161862Y-19261862D01*
X8161862Y-19488138D01*
X8388138Y-19488138D01*
X8388138Y-22288138D02*
X8388138Y-22061862D01*
X8161862Y-22061862D01*
X8161862Y-22288138D01*
X8388138Y-22288138D01*
X8388138Y-25088138D02*
X8388138Y-24861862D01*
X8161862Y-24861862D01*
X8161862Y-25088138D01*
X8388138Y-25088138D01*
X8388138Y-27888138D02*
X8388138Y-27661862D01*
X8161862Y-27661862D01*
X8161862Y-27888138D01*
X8388138Y-27888138D01*
X8388138Y-30688138D02*
X8388138Y-30461862D01*
X8161862Y-30461862D01*
X8161862Y-30688138D01*
X8388138Y-30688138D01*
D11*
X3827619Y-31690476D02*
X3827619Y-31490476D01*
X3875238Y-31490476D01*
X3903809Y-31500000D01*
X3922857Y-31519048D01*
X3932381Y-31538095D01*
X3941905Y-31576190D01*
X3941905Y-31604762D01*
X3932381Y-31642857D01*
X3922857Y-31661905D01*
X3903809Y-31680952D01*
X3875238Y-31690476D01*
X3827619Y-31690476D01*
X4027619Y-31690476D02*
X4027619Y-31557143D01*
X4027619Y-31595238D02*
X4037143Y-31576190D01*
X4046667Y-31566667D01*
X4065714Y-31557143D01*
X4084762Y-31557143D01*
X4151428Y-31690476D02*
X4151428Y-31557143D01*
X4151428Y-31490476D02*
X4141905Y-31500000D01*
X4151428Y-31509524D01*
X4160952Y-31500000D01*
X4151428Y-31490476D01*
X4151428Y-31509524D01*
X4275238Y-31690476D02*
X4256190Y-31680952D01*
X4246667Y-31661905D01*
X4246667Y-31490476D01*
X4380000Y-31690476D02*
X4360952Y-31680952D01*
X4351429Y-31661905D01*
X4351429Y-31490476D01*
X4608571Y-31690476D02*
X4608571Y-31490476D01*
X4675238Y-31633333D01*
X4741905Y-31490476D01*
X4741905Y-31690476D01*
X4922857Y-31690476D02*
X4922857Y-31585714D01*
X4913333Y-31566667D01*
X4894286Y-31557143D01*
X4856190Y-31557143D01*
X4837143Y-31566667D01*
X4922857Y-31680952D02*
X4903810Y-31690476D01*
X4856190Y-31690476D01*
X4837143Y-31680952D01*
X4827619Y-31661905D01*
X4827619Y-31642857D01*
X4837143Y-31623809D01*
X4856190Y-31614286D01*
X4903810Y-31614286D01*
X4922857Y-31604762D01*
X5018095Y-31557143D02*
X5018095Y-31757143D01*
X5018095Y-31566667D02*
X5037143Y-31557143D01*
X5075238Y-31557143D01*
X5094286Y-31566667D01*
X5103810Y-31576190D01*
X5113333Y-31595238D01*
X5113333Y-31652381D01*
X5103810Y-31671428D01*
X5094286Y-31680952D01*
X5075238Y-31690476D01*
X5037143Y-31690476D01*
X5018095Y-31680952D01*
X5199048Y-31671428D02*
X5208571Y-31680952D01*
X5199048Y-31690476D01*
X5189524Y-31680952D01*
X5199048Y-31671428D01*
X5199048Y-31690476D01*
X5199048Y-31566667D02*
X5208571Y-31576190D01*
X5199048Y-31585714D01*
X5189524Y-31576190D01*
X5199048Y-31566667D01*
X5199048Y-31585714D01*
D12*
X3530000Y-32000000D02*
X3570000Y-32040000D01*
X3570000Y-32000000D02*
X3530000Y-32040000D01*
D11*
X3865714Y-31910476D02*
X3884762Y-31910476D01*
X3903809Y-31920000D01*
X3913333Y-31929524D01*
X3922857Y-31948571D01*
X3932381Y-31986667D01*
X3932381Y-32034286D01*
X3922857Y-32072381D01*
X3913333Y-32091428D01*
X3903809Y-32100952D01*
X3884762Y-32110476D01*
X3865714Y-32110476D01*
X3846667Y-32100952D01*
X3837143Y-32091428D01*
X3827619Y-32072381D01*
X3818095Y-32034286D01*
X3818095Y-31986667D01*
X3827619Y-31948571D01*
X3837143Y-31929524D01*
X3846667Y-31920000D01*
X3865714Y-31910476D01*
X4018095Y-32091428D02*
X4027619Y-32100952D01*
X4018095Y-32110476D01*
X4008571Y-32100952D01*
X4018095Y-32091428D01*
X4018095Y-32110476D01*
X4199048Y-31977143D02*
X4199048Y-32110476D01*
X4151428Y-31900952D02*
X4103809Y-32043809D01*
X4227619Y-32043809D01*
X4341905Y-31910476D02*
X4360952Y-31910476D01*
X4380000Y-31920000D01*
X4389524Y-31929524D01*
X4399048Y-31948571D01*
X4408571Y-31986667D01*
X4408571Y-32034286D01*
X4399048Y-32072381D01*
X4389524Y-32091428D01*
X4380000Y-32100952D01*
X4360952Y-32110476D01*
X4341905Y-32110476D01*
X4322857Y-32100952D01*
X4313333Y-32091428D01*
X4303810Y-32072381D01*
X4294286Y-32034286D01*
X4294286Y-31986667D01*
X4303810Y-31948571D01*
X4313333Y-31929524D01*
X4322857Y-31920000D01*
X4341905Y-31910476D01*
X4532381Y-31910476D02*
X4551429Y-31910476D01*
X4570476Y-31920000D01*
X4580000Y-31929524D01*
X4589524Y-31948571D01*
X4599048Y-31986667D01*
X4599048Y-32034286D01*
X4589524Y-32072381D01*
X4580000Y-32091428D01*
X4570476Y-32100952D01*
X4551429Y-32110476D01*
X4532381Y-32110476D01*
X4513333Y-32100952D01*
X4503810Y-32091428D01*
X4494286Y-32072381D01*
X4484762Y-32034286D01*
X4484762Y-31986667D01*
X4494286Y-31948571D01*
X4503810Y-31929524D01*
X4513333Y-31920000D01*
X4532381Y-31910476D01*
X4684762Y-32110476D02*
X4684762Y-31977143D01*
X4684762Y-31996190D02*
X4694286Y-31986667D01*
X4713333Y-31977143D01*
X4741905Y-31977143D01*
X4760952Y-31986667D01*
X4770476Y-32005714D01*
X4770476Y-32110476D01*
X4770476Y-32005714D02*
X4780000Y-31986667D01*
X4799048Y-31977143D01*
X4827619Y-31977143D01*
X4846667Y-31986667D01*
X4856190Y-32005714D01*
X4856190Y-32110476D01*
X4951429Y-32110476D02*
X4951429Y-31977143D01*
X4951429Y-31996190D02*
X4960952Y-31986667D01*
X4980000Y-31977143D01*
X5008571Y-31977143D01*
X5027619Y-31986667D01*
X5037143Y-32005714D01*
X5037143Y-32110476D01*
X5037143Y-32005714D02*
X5046667Y-31986667D01*
X5065714Y-31977143D01*
X5094286Y-31977143D01*
X5113333Y-31986667D01*
X5122857Y-32005714D01*
X5122857Y-32110476D01*
X5513333Y-31900952D02*
X5341905Y-32158095D01*
X5770476Y-31910476D02*
X5789524Y-31910476D01*
X5808571Y-31920000D01*
X5818095Y-31929524D01*
X5827619Y-31948571D01*
X5837143Y-31986667D01*
X5837143Y-32034286D01*
X5827619Y-32072381D01*
X5818095Y-32091428D01*
X5808571Y-32100952D01*
X5789524Y-32110476D01*
X5770476Y-32110476D01*
X5751428Y-32100952D01*
X5741905Y-32091428D01*
X5732381Y-32072381D01*
X5722857Y-32034286D01*
X5722857Y-31986667D01*
X5732381Y-31948571D01*
X5741905Y-31929524D01*
X5751428Y-31920000D01*
X5770476Y-31910476D01*
X5922857Y-32091428D02*
X5932381Y-32100952D01*
X5922857Y-32110476D01*
X5913333Y-32100952D01*
X5922857Y-32091428D01*
X5922857Y-32110476D01*
X6056190Y-31910476D02*
X6075238Y-31910476D01*
X6094286Y-31920000D01*
X6103809Y-31929524D01*
X6113333Y-31948571D01*
X6122857Y-31986667D01*
X6122857Y-32034286D01*
X6113333Y-32072381D01*
X6103809Y-32091428D01*
X6094286Y-32100952D01*
X6075238Y-32110476D01*
X6056190Y-32110476D01*
X6037143Y-32100952D01*
X6027619Y-32091428D01*
X6018095Y-32072381D01*
X6008571Y-32034286D01*
X6008571Y-31986667D01*
X6018095Y-31948571D01*
X6027619Y-31929524D01*
X6037143Y-31920000D01*
X6056190Y-31910476D01*
X6313333Y-32110476D02*
X6199048Y-32110476D01*
X6256190Y-32110476D02*
X6256190Y-31910476D01*
X6237143Y-31939048D01*
X6218095Y-31958095D01*
X6199048Y-31967619D01*
X6494286Y-31910476D02*
X6399048Y-31910476D01*
X6389524Y-32005714D01*
X6399048Y-31996190D01*
X6418095Y-31986667D01*
X6465714Y-31986667D01*
X6484762Y-31996190D01*
X6494286Y-32005714D01*
X6503809Y-32024762D01*
X6503809Y-32072381D01*
X6494286Y-32091428D01*
X6484762Y-32100952D01*
X6465714Y-32110476D01*
X6418095Y-32110476D01*
X6399048Y-32100952D01*
X6389524Y-32091428D01*
X6570476Y-31910476D02*
X6703809Y-31910476D01*
X6618095Y-32110476D01*
X6770476Y-31910476D02*
X6770476Y-31948571D01*
X6846667Y-31910476D02*
X6846667Y-31948571D01*
X7141905Y-32186667D02*
X7132381Y-32177143D01*
X7113333Y-32148571D01*
X7103809Y-32129524D01*
X7094286Y-32100952D01*
X7084762Y-32053333D01*
X7084762Y-32015238D01*
X7094286Y-31967619D01*
X7103809Y-31939048D01*
X7113333Y-31920000D01*
X7132381Y-31891428D01*
X7141905Y-31881905D01*
X7322857Y-32110476D02*
X7208571Y-32110476D01*
X7265714Y-32110476D02*
X7265714Y-31910476D01*
X7246667Y-31939048D01*
X7227619Y-31958095D01*
X7208571Y-31967619D01*
X7446667Y-31910476D02*
X7465714Y-31910476D01*
X7484762Y-31920000D01*
X7494286Y-31929524D01*
X7503809Y-31948571D01*
X7513333Y-31986667D01*
X7513333Y-32034286D01*
X7503809Y-32072381D01*
X7494286Y-32091428D01*
X7484762Y-32100952D01*
X7465714Y-32110476D01*
X7446667Y-32110476D01*
X7427619Y-32100952D01*
X7418095Y-32091428D01*
X7408571Y-32072381D01*
X7399048Y-32034286D01*
X7399048Y-31986667D01*
X7408571Y-31948571D01*
X7418095Y-31929524D01*
X7427619Y-31920000D01*
X7446667Y-31910476D01*
X7751428Y-32110476D02*
X7751428Y-31910476D01*
X7837143Y-32110476D02*
X7837143Y-32005714D01*
X7827619Y-31986667D01*
X7808571Y-31977143D01*
X7780000Y-31977143D01*
X7760952Y-31986667D01*
X7751428Y-31996190D01*
X7960952Y-32110476D02*
X7941905Y-32100952D01*
X7932381Y-32091428D01*
X7922857Y-32072381D01*
X7922857Y-32015238D01*
X7932381Y-31996190D01*
X7941905Y-31986667D01*
X7960952Y-31977143D01*
X7989524Y-31977143D01*
X8008571Y-31986667D01*
X8018095Y-31996190D01*
X8027619Y-32015238D01*
X8027619Y-32072381D01*
X8018095Y-32091428D01*
X8008571Y-32100952D01*
X7989524Y-32110476D01*
X7960952Y-32110476D01*
X8141905Y-32110476D02*
X8122857Y-32100952D01*
X8113333Y-32081905D01*
X8113333Y-31910476D01*
X8294286Y-32100952D02*
X8275238Y-32110476D01*
X8237143Y-32110476D01*
X8218095Y-32100952D01*
X8208571Y-32081905D01*
X8208571Y-32005714D01*
X8218095Y-31986667D01*
X8237143Y-31977143D01*
X8275238Y-31977143D01*
X8294286Y-31986667D01*
X8303809Y-32005714D01*
X8303809Y-32024762D01*
X8208571Y-32043809D01*
X8380000Y-32100952D02*
X8399048Y-32110476D01*
X8437143Y-32110476D01*
X8456190Y-32100952D01*
X8465714Y-32081905D01*
X8465714Y-32072381D01*
X8456190Y-32053333D01*
X8437143Y-32043809D01*
X8408571Y-32043809D01*
X8389524Y-32034286D01*
X8380000Y-32015238D01*
X8380000Y-32005714D01*
X8389524Y-31986667D01*
X8408571Y-31977143D01*
X8437143Y-31977143D01*
X8456190Y-31986667D01*
X8532381Y-32186667D02*
X8541905Y-32177143D01*
X8560952Y-32148571D01*
X8570476Y-32129524D01*
X8580000Y-32100952D01*
X8589524Y-32053333D01*
X8589524Y-32015238D01*
X8580000Y-31967619D01*
X8570476Y-31939048D01*
X8560952Y-31920000D01*
X8541905Y-31891428D01*
X8532381Y-31881905D01*
D13*
X3570000Y-32284000D02*
G75*
G03*
X3570000Y-32284000I-37500J0D01*
G01*
D11*
X3865714Y-32174476D02*
X3884762Y-32174476D01*
X3903809Y-32184000D01*
X3913333Y-32193524D01*
X3922857Y-32212571D01*
X3932381Y-32250667D01*
X3932381Y-32298286D01*
X3922857Y-32336381D01*
X3913333Y-32355428D01*
X3903809Y-32364952D01*
X3884762Y-32374476D01*
X3865714Y-32374476D01*
X3846667Y-32364952D01*
X3837143Y-32355428D01*
X3827619Y-32336381D01*
X3818095Y-32298286D01*
X3818095Y-32250667D01*
X3827619Y-32212571D01*
X3837143Y-32193524D01*
X3846667Y-32184000D01*
X3865714Y-32174476D01*
X4018095Y-32355428D02*
X4027619Y-32364952D01*
X4018095Y-32374476D01*
X4008571Y-32364952D01*
X4018095Y-32355428D01*
X4018095Y-32374476D01*
X4094286Y-32174476D02*
X4227619Y-32174476D01*
X4141905Y-32374476D01*
X4399048Y-32174476D02*
X4303810Y-32174476D01*
X4294286Y-32269714D01*
X4303810Y-32260190D01*
X4322857Y-32250667D01*
X4370476Y-32250667D01*
X4389524Y-32260190D01*
X4399048Y-32269714D01*
X4408571Y-32288762D01*
X4408571Y-32336381D01*
X4399048Y-32355428D01*
X4389524Y-32364952D01*
X4370476Y-32374476D01*
X4322857Y-32374476D01*
X4303810Y-32364952D01*
X4294286Y-32355428D01*
X4532381Y-32174476D02*
X4551429Y-32174476D01*
X4570476Y-32184000D01*
X4580000Y-32193524D01*
X4589524Y-32212571D01*
X4599048Y-32250667D01*
X4599048Y-32298286D01*
X4589524Y-32336381D01*
X4580000Y-32355428D01*
X4570476Y-32364952D01*
X4551429Y-32374476D01*
X4532381Y-32374476D01*
X4513333Y-32364952D01*
X4503810Y-32355428D01*
X4494286Y-32336381D01*
X4484762Y-32298286D01*
X4484762Y-32250667D01*
X4494286Y-32212571D01*
X4503810Y-32193524D01*
X4513333Y-32184000D01*
X4532381Y-32174476D01*
X4684762Y-32374476D02*
X4684762Y-32241143D01*
X4684762Y-32260190D02*
X4694286Y-32250667D01*
X4713333Y-32241143D01*
X4741905Y-32241143D01*
X4760952Y-32250667D01*
X4770476Y-32269714D01*
X4770476Y-32374476D01*
X4770476Y-32269714D02*
X4780000Y-32250667D01*
X4799048Y-32241143D01*
X4827619Y-32241143D01*
X4846667Y-32250667D01*
X4856190Y-32269714D01*
X4856190Y-32374476D01*
X4951429Y-32374476D02*
X4951429Y-32241143D01*
X4951429Y-32260190D02*
X4960952Y-32250667D01*
X4980000Y-32241143D01*
X5008571Y-32241143D01*
X5027619Y-32250667D01*
X5037143Y-32269714D01*
X5037143Y-32374476D01*
X5037143Y-32269714D02*
X5046667Y-32250667D01*
X5065714Y-32241143D01*
X5094286Y-32241143D01*
X5113333Y-32250667D01*
X5122857Y-32269714D01*
X5122857Y-32374476D01*
X5513333Y-32164952D02*
X5341905Y-32422095D01*
X5770476Y-32174476D02*
X5789524Y-32174476D01*
X5808571Y-32184000D01*
X5818095Y-32193524D01*
X5827619Y-32212571D01*
X5837143Y-32250667D01*
X5837143Y-32298286D01*
X5827619Y-32336381D01*
X5818095Y-32355428D01*
X5808571Y-32364952D01*
X5789524Y-32374476D01*
X5770476Y-32374476D01*
X5751428Y-32364952D01*
X5741905Y-32355428D01*
X5732381Y-32336381D01*
X5722857Y-32298286D01*
X5722857Y-32250667D01*
X5732381Y-32212571D01*
X5741905Y-32193524D01*
X5751428Y-32184000D01*
X5770476Y-32174476D01*
X5922857Y-32355428D02*
X5932381Y-32364952D01*
X5922857Y-32374476D01*
X5913333Y-32364952D01*
X5922857Y-32355428D01*
X5922857Y-32374476D01*
X6056190Y-32174476D02*
X6075238Y-32174476D01*
X6094286Y-32184000D01*
X6103809Y-32193524D01*
X6113333Y-32212571D01*
X6122857Y-32250667D01*
X6122857Y-32298286D01*
X6113333Y-32336381D01*
X6103809Y-32355428D01*
X6094286Y-32364952D01*
X6075238Y-32374476D01*
X6056190Y-32374476D01*
X6037143Y-32364952D01*
X6027619Y-32355428D01*
X6018095Y-32336381D01*
X6008571Y-32298286D01*
X6008571Y-32250667D01*
X6018095Y-32212571D01*
X6027619Y-32193524D01*
X6037143Y-32184000D01*
X6056190Y-32174476D01*
X6199048Y-32193524D02*
X6208571Y-32184000D01*
X6227619Y-32174476D01*
X6275238Y-32174476D01*
X6294286Y-32184000D01*
X6303809Y-32193524D01*
X6313333Y-32212571D01*
X6313333Y-32231619D01*
X6303809Y-32260190D01*
X6189524Y-32374476D01*
X6313333Y-32374476D01*
X6408571Y-32374476D02*
X6446667Y-32374476D01*
X6465714Y-32364952D01*
X6475238Y-32355428D01*
X6494286Y-32326857D01*
X6503809Y-32288762D01*
X6503809Y-32212571D01*
X6494286Y-32193524D01*
X6484762Y-32184000D01*
X6465714Y-32174476D01*
X6427619Y-32174476D01*
X6408571Y-32184000D01*
X6399048Y-32193524D01*
X6389524Y-32212571D01*
X6389524Y-32260190D01*
X6399048Y-32279238D01*
X6408571Y-32288762D01*
X6427619Y-32298286D01*
X6465714Y-32298286D01*
X6484762Y-32288762D01*
X6494286Y-32279238D01*
X6503809Y-32260190D01*
X6684762Y-32174476D02*
X6589524Y-32174476D01*
X6580000Y-32269714D01*
X6589524Y-32260190D01*
X6608571Y-32250667D01*
X6656190Y-32250667D01*
X6675238Y-32260190D01*
X6684762Y-32269714D01*
X6694286Y-32288762D01*
X6694286Y-32336381D01*
X6684762Y-32355428D01*
X6675238Y-32364952D01*
X6656190Y-32374476D01*
X6608571Y-32374476D01*
X6589524Y-32364952D01*
X6580000Y-32355428D01*
X6770476Y-32174476D02*
X6770476Y-32212571D01*
X6846667Y-32174476D02*
X6846667Y-32212571D01*
X7141905Y-32450667D02*
X7132381Y-32441143D01*
X7113333Y-32412571D01*
X7103809Y-32393524D01*
X7094286Y-32364952D01*
X7084762Y-32317333D01*
X7084762Y-32279238D01*
X7094286Y-32231619D01*
X7103809Y-32203048D01*
X7113333Y-32184000D01*
X7132381Y-32155428D01*
X7141905Y-32145905D01*
X7303809Y-32174476D02*
X7265714Y-32174476D01*
X7246667Y-32184000D01*
X7237143Y-32193524D01*
X7218095Y-32222095D01*
X7208571Y-32260190D01*
X7208571Y-32336381D01*
X7218095Y-32355428D01*
X7227619Y-32364952D01*
X7246667Y-32374476D01*
X7284762Y-32374476D01*
X7303809Y-32364952D01*
X7313333Y-32355428D01*
X7322857Y-32336381D01*
X7322857Y-32288762D01*
X7313333Y-32269714D01*
X7303809Y-32260190D01*
X7284762Y-32250667D01*
X7246667Y-32250667D01*
X7227619Y-32260190D01*
X7218095Y-32269714D01*
X7208571Y-32288762D01*
X7446667Y-32174476D02*
X7465714Y-32174476D01*
X7484762Y-32184000D01*
X7494286Y-32193524D01*
X7503809Y-32212571D01*
X7513333Y-32250667D01*
X7513333Y-32298286D01*
X7503809Y-32336381D01*
X7494286Y-32355428D01*
X7484762Y-32364952D01*
X7465714Y-32374476D01*
X7446667Y-32374476D01*
X7427619Y-32364952D01*
X7418095Y-32355428D01*
X7408571Y-32336381D01*
X7399048Y-32298286D01*
X7399048Y-32250667D01*
X7408571Y-32212571D01*
X7418095Y-32193524D01*
X7427619Y-32184000D01*
X7446667Y-32174476D01*
X7751428Y-32374476D02*
X7751428Y-32174476D01*
X7837143Y-32374476D02*
X7837143Y-32269714D01*
X7827619Y-32250667D01*
X7808571Y-32241143D01*
X7780000Y-32241143D01*
X7760952Y-32250667D01*
X7751428Y-32260190D01*
X7960952Y-32374476D02*
X7941905Y-32364952D01*
X7932381Y-32355428D01*
X7922857Y-32336381D01*
X7922857Y-32279238D01*
X7932381Y-32260190D01*
X7941905Y-32250667D01*
X7960952Y-32241143D01*
X7989524Y-32241143D01*
X8008571Y-32250667D01*
X8018095Y-32260190D01*
X8027619Y-32279238D01*
X8027619Y-32336381D01*
X8018095Y-32355428D01*
X8008571Y-32364952D01*
X7989524Y-32374476D01*
X7960952Y-32374476D01*
X8141905Y-32374476D02*
X8122857Y-32364952D01*
X8113333Y-32345905D01*
X8113333Y-32174476D01*
X8294286Y-32364952D02*
X8275238Y-32374476D01*
X8237143Y-32374476D01*
X8218095Y-32364952D01*
X8208571Y-32345905D01*
X8208571Y-32269714D01*
X8218095Y-32250667D01*
X8237143Y-32241143D01*
X8275238Y-32241143D01*
X8294286Y-32250667D01*
X8303809Y-32269714D01*
X8303809Y-32288762D01*
X8208571Y-32307809D01*
X8380000Y-32364952D02*
X8399048Y-32374476D01*
X8437143Y-32374476D01*
X8456190Y-32364952D01*
X8465714Y-32345905D01*
X8465714Y-32336381D01*
X8456190Y-32317333D01*
X8437143Y-32307809D01*
X8408571Y-32307809D01*
X8389524Y-32298286D01*
X8380000Y-32279238D01*
X8380000Y-32269714D01*
X8389524Y-32250667D01*
X8408571Y-32241143D01*
X8437143Y-32241143D01*
X8456190Y-32250667D01*
X8532381Y-32450667D02*
X8541905Y-32441143D01*
X8560952Y-32412571D01*
X8570476Y-32393524D01*
X8580000Y-32364952D01*
X8589524Y-32317333D01*
X8589524Y-32279238D01*
X8580000Y-32231619D01*
X8570476Y-32203048D01*
X8560952Y-32184000D01*
X8541905Y-32155428D01*
X8532381Y-32145905D01*
D14*
X3520000Y-32498000D02*
X3520000Y-32598000D01*
X3470000Y-32548000D02*
X3570000Y-32548000D01*
D11*
X3932381Y-32638476D02*
X3818095Y-32638476D01*
X3875238Y-32638476D02*
X3875238Y-32438476D01*
X3856190Y-32467048D01*
X3837143Y-32486095D01*
X3818095Y-32495619D01*
X4018095Y-32619428D02*
X4027619Y-32628952D01*
X4018095Y-32638476D01*
X4008571Y-32628952D01*
X4018095Y-32619428D01*
X4018095Y-32638476D01*
X4151428Y-32438476D02*
X4170476Y-32438476D01*
X4189524Y-32448000D01*
X4199048Y-32457524D01*
X4208571Y-32476571D01*
X4218095Y-32514667D01*
X4218095Y-32562286D01*
X4208571Y-32600381D01*
X4199048Y-32619428D01*
X4189524Y-32628952D01*
X4170476Y-32638476D01*
X4151428Y-32638476D01*
X4132381Y-32628952D01*
X4122857Y-32619428D01*
X4113333Y-32600381D01*
X4103809Y-32562286D01*
X4103809Y-32514667D01*
X4113333Y-32476571D01*
X4122857Y-32457524D01*
X4132381Y-32448000D01*
X4151428Y-32438476D01*
X4341905Y-32438476D02*
X4360952Y-32438476D01*
X4380000Y-32448000D01*
X4389524Y-32457524D01*
X4399048Y-32476571D01*
X4408571Y-32514667D01*
X4408571Y-32562286D01*
X4399048Y-32600381D01*
X4389524Y-32619428D01*
X4380000Y-32628952D01*
X4360952Y-32638476D01*
X4341905Y-32638476D01*
X4322857Y-32628952D01*
X4313333Y-32619428D01*
X4303810Y-32600381D01*
X4294286Y-32562286D01*
X4294286Y-32514667D01*
X4303810Y-32476571D01*
X4313333Y-32457524D01*
X4322857Y-32448000D01*
X4341905Y-32438476D01*
X4532381Y-32438476D02*
X4551429Y-32438476D01*
X4570476Y-32448000D01*
X4580000Y-32457524D01*
X4589524Y-32476571D01*
X4599048Y-32514667D01*
X4599048Y-32562286D01*
X4589524Y-32600381D01*
X4580000Y-32619428D01*
X4570476Y-32628952D01*
X4551429Y-32638476D01*
X4532381Y-32638476D01*
X4513333Y-32628952D01*
X4503810Y-32619428D01*
X4494286Y-32600381D01*
X4484762Y-32562286D01*
X4484762Y-32514667D01*
X4494286Y-32476571D01*
X4503810Y-32457524D01*
X4513333Y-32448000D01*
X4532381Y-32438476D01*
X4684762Y-32638476D02*
X4684762Y-32505143D01*
X4684762Y-32524190D02*
X4694286Y-32514667D01*
X4713333Y-32505143D01*
X4741905Y-32505143D01*
X4760952Y-32514667D01*
X4770476Y-32533714D01*
X4770476Y-32638476D01*
X4770476Y-32533714D02*
X4780000Y-32514667D01*
X4799048Y-32505143D01*
X4827619Y-32505143D01*
X4846667Y-32514667D01*
X4856190Y-32533714D01*
X4856190Y-32638476D01*
X4951429Y-32638476D02*
X4951429Y-32505143D01*
X4951429Y-32524190D02*
X4960952Y-32514667D01*
X4980000Y-32505143D01*
X5008571Y-32505143D01*
X5027619Y-32514667D01*
X5037143Y-32533714D01*
X5037143Y-32638476D01*
X5037143Y-32533714D02*
X5046667Y-32514667D01*
X5065714Y-32505143D01*
X5094286Y-32505143D01*
X5113333Y-32514667D01*
X5122857Y-32533714D01*
X5122857Y-32638476D01*
X5513333Y-32428952D02*
X5341905Y-32686095D01*
X5770476Y-32438476D02*
X5789524Y-32438476D01*
X5808571Y-32448000D01*
X5818095Y-32457524D01*
X5827619Y-32476571D01*
X5837143Y-32514667D01*
X5837143Y-32562286D01*
X5827619Y-32600381D01*
X5818095Y-32619428D01*
X5808571Y-32628952D01*
X5789524Y-32638476D01*
X5770476Y-32638476D01*
X5751428Y-32628952D01*
X5741905Y-32619428D01*
X5732381Y-32600381D01*
X5722857Y-32562286D01*
X5722857Y-32514667D01*
X5732381Y-32476571D01*
X5741905Y-32457524D01*
X5751428Y-32448000D01*
X5770476Y-32438476D01*
X5922857Y-32619428D02*
X5932381Y-32628952D01*
X5922857Y-32638476D01*
X5913333Y-32628952D01*
X5922857Y-32619428D01*
X5922857Y-32638476D01*
X6056190Y-32438476D02*
X6075238Y-32438476D01*
X6094286Y-32448000D01*
X6103809Y-32457524D01*
X6113333Y-32476571D01*
X6122857Y-32514667D01*
X6122857Y-32562286D01*
X6113333Y-32600381D01*
X6103809Y-32619428D01*
X6094286Y-32628952D01*
X6075238Y-32638476D01*
X6056190Y-32638476D01*
X6037143Y-32628952D01*
X6027619Y-32619428D01*
X6018095Y-32600381D01*
X6008571Y-32562286D01*
X6008571Y-32514667D01*
X6018095Y-32476571D01*
X6027619Y-32457524D01*
X6037143Y-32448000D01*
X6056190Y-32438476D01*
X6189524Y-32438476D02*
X6313333Y-32438476D01*
X6246667Y-32514667D01*
X6275238Y-32514667D01*
X6294286Y-32524190D01*
X6303809Y-32533714D01*
X6313333Y-32552762D01*
X6313333Y-32600381D01*
X6303809Y-32619428D01*
X6294286Y-32628952D01*
X6275238Y-32638476D01*
X6218095Y-32638476D01*
X6199048Y-32628952D01*
X6189524Y-32619428D01*
X6408571Y-32638476D02*
X6446667Y-32638476D01*
X6465714Y-32628952D01*
X6475238Y-32619428D01*
X6494286Y-32590857D01*
X6503809Y-32552762D01*
X6503809Y-32476571D01*
X6494286Y-32457524D01*
X6484762Y-32448000D01*
X6465714Y-32438476D01*
X6427619Y-32438476D01*
X6408571Y-32448000D01*
X6399048Y-32457524D01*
X6389524Y-32476571D01*
X6389524Y-32524190D01*
X6399048Y-32543238D01*
X6408571Y-32552762D01*
X6427619Y-32562286D01*
X6465714Y-32562286D01*
X6484762Y-32552762D01*
X6494286Y-32543238D01*
X6503809Y-32524190D01*
X6675238Y-32505143D02*
X6675238Y-32638476D01*
X6627619Y-32428952D02*
X6580000Y-32571809D01*
X6703809Y-32571809D01*
X6770476Y-32438476D02*
X6770476Y-32476571D01*
X6846667Y-32438476D02*
X6846667Y-32476571D01*
X7141905Y-32714667D02*
X7132381Y-32705143D01*
X7113333Y-32676571D01*
X7103809Y-32657524D01*
X7094286Y-32628952D01*
X7084762Y-32581333D01*
X7084762Y-32543238D01*
X7094286Y-32495619D01*
X7103809Y-32467048D01*
X7113333Y-32448000D01*
X7132381Y-32419428D01*
X7141905Y-32409905D01*
X7322857Y-32638476D02*
X7208571Y-32638476D01*
X7265714Y-32638476D02*
X7265714Y-32438476D01*
X7246667Y-32467048D01*
X7227619Y-32486095D01*
X7208571Y-32495619D01*
X7399048Y-32457524D02*
X7408571Y-32448000D01*
X7427619Y-32438476D01*
X7475238Y-32438476D01*
X7494286Y-32448000D01*
X7503809Y-32457524D01*
X7513333Y-32476571D01*
X7513333Y-32495619D01*
X7503809Y-32524190D01*
X7389524Y-32638476D01*
X7513333Y-32638476D01*
X7751428Y-32638476D02*
X7751428Y-32438476D01*
X7837143Y-32638476D02*
X7837143Y-32533714D01*
X7827619Y-32514667D01*
X7808571Y-32505143D01*
X7780000Y-32505143D01*
X7760952Y-32514667D01*
X7751428Y-32524190D01*
X7960952Y-32638476D02*
X7941905Y-32628952D01*
X7932381Y-32619428D01*
X7922857Y-32600381D01*
X7922857Y-32543238D01*
X7932381Y-32524190D01*
X7941905Y-32514667D01*
X7960952Y-32505143D01*
X7989524Y-32505143D01*
X8008571Y-32514667D01*
X8018095Y-32524190D01*
X8027619Y-32543238D01*
X8027619Y-32600381D01*
X8018095Y-32619428D01*
X8008571Y-32628952D01*
X7989524Y-32638476D01*
X7960952Y-32638476D01*
X8141905Y-32638476D02*
X8122857Y-32628952D01*
X8113333Y-32609905D01*
X8113333Y-32438476D01*
X8294286Y-32628952D02*
X8275238Y-32638476D01*
X8237143Y-32638476D01*
X8218095Y-32628952D01*
X8208571Y-32609905D01*
X8208571Y-32533714D01*
X8218095Y-32514667D01*
X8237143Y-32505143D01*
X8275238Y-32505143D01*
X8294286Y-32514667D01*
X8303809Y-32533714D01*
X8303809Y-32552762D01*
X8208571Y-32571809D01*
X8380000Y-32628952D02*
X8399048Y-32638476D01*
X8437143Y-32638476D01*
X8456190Y-32628952D01*
X8465714Y-32609905D01*
X8465714Y-32600381D01*
X8456190Y-32581333D01*
X8437143Y-32571809D01*
X8408571Y-32571809D01*
X8389524Y-32562286D01*
X8380000Y-32543238D01*
X8380000Y-32533714D01*
X8389524Y-32514667D01*
X8408571Y-32505143D01*
X8437143Y-32505143D01*
X8456190Y-32514667D01*
X8532381Y-32714667D02*
X8541905Y-32705143D01*
X8560952Y-32676571D01*
X8570476Y-32657524D01*
X8580000Y-32628952D01*
X8589524Y-32581333D01*
X8589524Y-32543238D01*
X8580000Y-32495619D01*
X8570476Y-32467048D01*
X8560952Y-32448000D01*
X8541905Y-32419428D01*
X8532381Y-32409905D01*
X3540711Y-32882711D02*
X3540711Y-32741289D01*
X3399289Y-32741289D01*
X3399289Y-32882711D01*
X3540711Y-32882711D01*
X3808571Y-32702476D02*
X3932381Y-32702476D01*
X3865714Y-32778667D01*
X3894286Y-32778667D01*
X3913333Y-32788190D01*
X3922857Y-32797714D01*
X3932381Y-32816762D01*
X3932381Y-32864381D01*
X3922857Y-32883428D01*
X3913333Y-32892952D01*
X3894286Y-32902476D01*
X3837143Y-32902476D01*
X3818095Y-32892952D01*
X3808571Y-32883428D01*
X4018095Y-32883428D02*
X4027619Y-32892952D01*
X4018095Y-32902476D01*
X4008571Y-32892952D01*
X4018095Y-32883428D01*
X4018095Y-32902476D01*
X4103809Y-32721524D02*
X4113333Y-32712000D01*
X4132381Y-32702476D01*
X4180000Y-32702476D01*
X4199048Y-32712000D01*
X4208571Y-32721524D01*
X4218095Y-32740571D01*
X4218095Y-32759619D01*
X4208571Y-32788190D01*
X4094286Y-32902476D01*
X4218095Y-32902476D01*
X4341905Y-32702476D02*
X4360952Y-32702476D01*
X4380000Y-32712000D01*
X4389524Y-32721524D01*
X4399048Y-32740571D01*
X4408571Y-32778667D01*
X4408571Y-32826286D01*
X4399048Y-32864381D01*
X4389524Y-32883428D01*
X4380000Y-32892952D01*
X4360952Y-32902476D01*
X4341905Y-32902476D01*
X4322857Y-32892952D01*
X4313333Y-32883428D01*
X4303810Y-32864381D01*
X4294286Y-32826286D01*
X4294286Y-32778667D01*
X4303810Y-32740571D01*
X4313333Y-32721524D01*
X4322857Y-32712000D01*
X4341905Y-32702476D01*
X4532381Y-32702476D02*
X4551429Y-32702476D01*
X4570476Y-32712000D01*
X4580000Y-32721524D01*
X4589524Y-32740571D01*
X4599048Y-32778667D01*
X4599048Y-32826286D01*
X4589524Y-32864381D01*
X4580000Y-32883428D01*
X4570476Y-32892952D01*
X4551429Y-32902476D01*
X4532381Y-32902476D01*
X4513333Y-32892952D01*
X4503810Y-32883428D01*
X4494286Y-32864381D01*
X4484762Y-32826286D01*
X4484762Y-32778667D01*
X4494286Y-32740571D01*
X4503810Y-32721524D01*
X4513333Y-32712000D01*
X4532381Y-32702476D01*
X4684762Y-32902476D02*
X4684762Y-32769143D01*
X4684762Y-32788190D02*
X4694286Y-32778667D01*
X4713333Y-32769143D01*
X4741905Y-32769143D01*
X4760952Y-32778667D01*
X4770476Y-32797714D01*
X4770476Y-32902476D01*
X4770476Y-32797714D02*
X4780000Y-32778667D01*
X4799048Y-32769143D01*
X4827619Y-32769143D01*
X4846667Y-32778667D01*
X4856190Y-32797714D01*
X4856190Y-32902476D01*
X4951429Y-32902476D02*
X4951429Y-32769143D01*
X4951429Y-32788190D02*
X4960952Y-32778667D01*
X4980000Y-32769143D01*
X5008571Y-32769143D01*
X5027619Y-32778667D01*
X5037143Y-32797714D01*
X5037143Y-32902476D01*
X5037143Y-32797714D02*
X5046667Y-32778667D01*
X5065714Y-32769143D01*
X5094286Y-32769143D01*
X5113333Y-32778667D01*
X5122857Y-32797714D01*
X5122857Y-32902476D01*
X5513333Y-32692952D02*
X5341905Y-32950095D01*
X5770476Y-32702476D02*
X5789524Y-32702476D01*
X5808571Y-32712000D01*
X5818095Y-32721524D01*
X5827619Y-32740571D01*
X5837143Y-32778667D01*
X5837143Y-32826286D01*
X5827619Y-32864381D01*
X5818095Y-32883428D01*
X5808571Y-32892952D01*
X5789524Y-32902476D01*
X5770476Y-32902476D01*
X5751428Y-32892952D01*
X5741905Y-32883428D01*
X5732381Y-32864381D01*
X5722857Y-32826286D01*
X5722857Y-32778667D01*
X5732381Y-32740571D01*
X5741905Y-32721524D01*
X5751428Y-32712000D01*
X5770476Y-32702476D01*
X5922857Y-32883428D02*
X5932381Y-32892952D01*
X5922857Y-32902476D01*
X5913333Y-32892952D01*
X5922857Y-32883428D01*
X5922857Y-32902476D01*
X6122857Y-32902476D02*
X6008571Y-32902476D01*
X6065714Y-32902476D02*
X6065714Y-32702476D01*
X6046667Y-32731048D01*
X6027619Y-32750095D01*
X6008571Y-32759619D01*
X6199048Y-32721524D02*
X6208571Y-32712000D01*
X6227619Y-32702476D01*
X6275238Y-32702476D01*
X6294286Y-32712000D01*
X6303809Y-32721524D01*
X6313333Y-32740571D01*
X6313333Y-32759619D01*
X6303809Y-32788190D01*
X6189524Y-32902476D01*
X6313333Y-32902476D01*
X6484762Y-32702476D02*
X6446667Y-32702476D01*
X6427619Y-32712000D01*
X6418095Y-32721524D01*
X6399048Y-32750095D01*
X6389524Y-32788190D01*
X6389524Y-32864381D01*
X6399048Y-32883428D01*
X6408571Y-32892952D01*
X6427619Y-32902476D01*
X6465714Y-32902476D01*
X6484762Y-32892952D01*
X6494286Y-32883428D01*
X6503809Y-32864381D01*
X6503809Y-32816762D01*
X6494286Y-32797714D01*
X6484762Y-32788190D01*
X6465714Y-32778667D01*
X6427619Y-32778667D01*
X6408571Y-32788190D01*
X6399048Y-32797714D01*
X6389524Y-32816762D01*
X6627619Y-32702476D02*
X6646667Y-32702476D01*
X6665714Y-32712000D01*
X6675238Y-32721524D01*
X6684762Y-32740571D01*
X6694286Y-32778667D01*
X6694286Y-32826286D01*
X6684762Y-32864381D01*
X6675238Y-32883428D01*
X6665714Y-32892952D01*
X6646667Y-32902476D01*
X6627619Y-32902476D01*
X6608571Y-32892952D01*
X6599048Y-32883428D01*
X6589524Y-32864381D01*
X6580000Y-32826286D01*
X6580000Y-32778667D01*
X6589524Y-32740571D01*
X6599048Y-32721524D01*
X6608571Y-32712000D01*
X6627619Y-32702476D01*
X6770476Y-32702476D02*
X6770476Y-32740571D01*
X6846667Y-32702476D02*
X6846667Y-32740571D01*
X7141905Y-32978667D02*
X7132381Y-32969143D01*
X7113333Y-32940571D01*
X7103809Y-32921524D01*
X7094286Y-32892952D01*
X7084762Y-32845333D01*
X7084762Y-32807238D01*
X7094286Y-32759619D01*
X7103809Y-32731048D01*
X7113333Y-32712000D01*
X7132381Y-32683428D01*
X7141905Y-32673905D01*
X7208571Y-32721524D02*
X7218095Y-32712000D01*
X7237143Y-32702476D01*
X7284762Y-32702476D01*
X7303809Y-32712000D01*
X7313333Y-32721524D01*
X7322857Y-32740571D01*
X7322857Y-32759619D01*
X7313333Y-32788190D01*
X7199048Y-32902476D01*
X7322857Y-32902476D01*
X7446667Y-32702476D02*
X7465714Y-32702476D01*
X7484762Y-32712000D01*
X7494286Y-32721524D01*
X7503809Y-32740571D01*
X7513333Y-32778667D01*
X7513333Y-32826286D01*
X7503809Y-32864381D01*
X7494286Y-32883428D01*
X7484762Y-32892952D01*
X7465714Y-32902476D01*
X7446667Y-32902476D01*
X7427619Y-32892952D01*
X7418095Y-32883428D01*
X7408571Y-32864381D01*
X7399048Y-32826286D01*
X7399048Y-32778667D01*
X7408571Y-32740571D01*
X7418095Y-32721524D01*
X7427619Y-32712000D01*
X7446667Y-32702476D01*
X7751428Y-32902476D02*
X7751428Y-32702476D01*
X7837143Y-32902476D02*
X7837143Y-32797714D01*
X7827619Y-32778667D01*
X7808571Y-32769143D01*
X7780000Y-32769143D01*
X7760952Y-32778667D01*
X7751428Y-32788190D01*
X7960952Y-32902476D02*
X7941905Y-32892952D01*
X7932381Y-32883428D01*
X7922857Y-32864381D01*
X7922857Y-32807238D01*
X7932381Y-32788190D01*
X7941905Y-32778667D01*
X7960952Y-32769143D01*
X7989524Y-32769143D01*
X8008571Y-32778667D01*
X8018095Y-32788190D01*
X8027619Y-32807238D01*
X8027619Y-32864381D01*
X8018095Y-32883428D01*
X8008571Y-32892952D01*
X7989524Y-32902476D01*
X7960952Y-32902476D01*
X8141905Y-32902476D02*
X8122857Y-32892952D01*
X8113333Y-32873905D01*
X8113333Y-32702476D01*
X8294286Y-32892952D02*
X8275238Y-32902476D01*
X8237143Y-32902476D01*
X8218095Y-32892952D01*
X8208571Y-32873905D01*
X8208571Y-32797714D01*
X8218095Y-32778667D01*
X8237143Y-32769143D01*
X8275238Y-32769143D01*
X8294286Y-32778667D01*
X8303809Y-32797714D01*
X8303809Y-32816762D01*
X8208571Y-32835809D01*
X8380000Y-32892952D02*
X8399048Y-32902476D01*
X8437143Y-32902476D01*
X8456190Y-32892952D01*
X8465714Y-32873905D01*
X8465714Y-32864381D01*
X8456190Y-32845333D01*
X8437143Y-32835809D01*
X8408571Y-32835809D01*
X8389524Y-32826286D01*
X8380000Y-32807238D01*
X8380000Y-32797714D01*
X8389524Y-32778667D01*
X8408571Y-32769143D01*
X8437143Y-32769143D01*
X8456190Y-32778667D01*
X8532381Y-32978667D02*
X8541905Y-32969143D01*
X8560952Y-32940571D01*
X8570476Y-32921524D01*
X8580000Y-32892952D01*
X8589524Y-32845333D01*
X8589524Y-32807238D01*
X8580000Y-32759619D01*
X8570476Y-32731048D01*
X8560952Y-32712000D01*
X8541905Y-32683428D01*
X8532381Y-32673905D01*
M02*
