M48
; DRILL file {KiCad (6.0.0)} date Mon Oct 10 13:55:57 2022
; FORMAT={-:-/ absolute / metric / decimal}
; #@! TF.CreationDate,2022-10-10T13:55:57+02:00
; #@! TF.GenerationSoftware,Kicad,Pcbnew,(6.0.0)
; #@! TF.FileFunction,Plated,1,2,PTH
FMAT,2
METRIC
; #@! TA.AperFunction,Plated,PTH,ViaDrill
T1C0.400
; #@! TA.AperFunction,Plated,PTH,ComponentDrill
T2C0.750
; #@! TA.AperFunction,Plated,PTH,ComponentDrill
T3C1.000
; #@! TA.AperFunction,Plated,PTH,ComponentDrill
T4C3.200
%
G90
G05
T1
X48.5Y-273.25
X48.5Y-301.0
X48.75Y-105.0
X48.75Y-133.0
X48.75Y-189.0
X48.75Y-217.0
X48.75Y-245.0
X49.0Y-77.0
X49.0Y-161.0
X49.25Y-49.0
T2
X47.485Y-39.75
X47.485Y-67.75
X47.485Y-95.75
X47.485Y-123.75
X47.485Y-151.75
X47.485Y-179.75
X47.485Y-207.75
X47.485Y-235.75
X47.485Y-263.75
X47.485Y-291.75
X50.025Y-39.75
X50.025Y-67.75
X50.025Y-95.75
X50.025Y-123.75
X50.025Y-151.75
X50.025Y-179.75
X50.025Y-207.75
X50.025Y-235.75
X50.025Y-263.75
X50.025Y-291.75
X64.485Y-39.75
X64.485Y-67.75
X64.485Y-95.75
X64.485Y-123.75
X64.485Y-151.75
X64.485Y-179.75
X64.485Y-207.75
X64.485Y-235.75
X64.485Y-263.75
X64.485Y-291.75
X67.025Y-39.75
X67.025Y-67.75
X67.025Y-95.75
X67.025Y-123.75
X67.025Y-151.75
X67.025Y-179.75
X67.025Y-207.75
X67.025Y-235.75
X67.025Y-263.75
X67.025Y-291.75
X81.485Y-39.75
X81.485Y-67.75
X81.485Y-95.75
X81.485Y-123.75
X81.485Y-151.75
X81.485Y-179.75
X81.485Y-207.75
X81.485Y-235.75
X81.485Y-263.75
X81.485Y-291.75
X84.025Y-39.75
X84.025Y-67.75
X84.025Y-95.75
X84.025Y-123.75
X84.025Y-151.75
X84.025Y-179.75
X84.025Y-207.75
X84.025Y-235.75
X84.025Y-263.75
X84.025Y-291.75
T3
X38.75Y-310.95
X41.25Y-310.95
X60.67Y-304.25
X60.67Y-306.79
X63.21Y-304.25
X63.21Y-306.79
X65.75Y-304.25
X65.75Y-306.79
X68.29Y-304.25
X68.29Y-306.79
X70.83Y-304.25
X70.83Y-306.79
T4
X48.75Y-53.75
X48.75Y-81.75
X48.75Y-109.75
X48.75Y-137.75
X48.75Y-165.75
X48.75Y-193.75
X48.75Y-221.75
X48.75Y-249.75
X48.75Y-277.75
X48.75Y-305.75
X82.75Y-53.75
X82.75Y-81.75
X82.75Y-109.75
X82.75Y-137.75
X82.75Y-165.75
X82.75Y-193.75
X82.75Y-221.75
X82.75Y-249.75
X82.75Y-277.75
X82.75Y-305.75
T0
M30
