G04 #@! TF.GenerationSoftware,KiCad,Pcbnew,(6.0.0)*
G04 #@! TF.CreationDate,2022-04-12T03:55:14+02:00*
G04 #@! TF.ProjectId,input_stage,696e7075-745f-4737-9461-67652e6b6963,rev?*
G04 #@! TF.SameCoordinates,Original*
G04 #@! TF.FileFunction,Soldermask,Top*
G04 #@! TF.FilePolarity,Negative*
%FSLAX46Y46*%
G04 Gerber Fmt 4.6, Leading zero omitted, Abs format (unit mm)*
G04 Created by KiCad (PCBNEW (6.0.0)) date 2022-04-12 03:55:14*
%MOMM*%
%LPD*%
G01*
G04 APERTURE LIST*
G04 Aperture macros list*
%AMRoundRect*
0 Rectangle with rounded corners*
0 $1 Rounding radius*
0 $2 $3 $4 $5 $6 $7 $8 $9 X,Y pos of 4 corners*
0 Add a 4 corners polygon primitive as box body*
4,1,4,$2,$3,$4,$5,$6,$7,$8,$9,$2,$3,0*
0 Add four circle primitives for the rounded corners*
1,1,$1+$1,$2,$3*
1,1,$1+$1,$4,$5*
1,1,$1+$1,$6,$7*
1,1,$1+$1,$8,$9*
0 Add four rect primitives between the rounded corners*
20,1,$1+$1,$2,$3,$4,$5,0*
20,1,$1+$1,$4,$5,$6,$7,0*
20,1,$1+$1,$6,$7,$8,$9,0*
20,1,$1+$1,$8,$9,$2,$3,0*%
G04 Aperture macros list end*
%ADD10R,1.200000X1.200000*%
%ADD11R,1.500000X1.600000*%
%ADD12RoundRect,0.237500X-0.250000X-0.237500X0.250000X-0.237500X0.250000X0.237500X-0.250000X0.237500X0*%
%ADD13RoundRect,0.237500X0.300000X0.237500X-0.300000X0.237500X-0.300000X-0.237500X0.300000X-0.237500X0*%
%ADD14RoundRect,0.237500X0.237500X-0.300000X0.237500X0.300000X-0.237500X0.300000X-0.237500X-0.300000X0*%
%ADD15C,1.200000*%
%ADD16O,1.308000X2.616000*%
%ADD17O,2.616000X1.308000*%
%ADD18RoundRect,0.237500X-0.300000X-0.237500X0.300000X-0.237500X0.300000X0.237500X-0.300000X0.237500X0*%
%ADD19RoundRect,0.150000X-0.150000X0.825000X-0.150000X-0.825000X0.150000X-0.825000X0.150000X0.825000X0*%
%ADD20RoundRect,0.250000X-0.725000X0.600000X-0.725000X-0.600000X0.725000X-0.600000X0.725000X0.600000X0*%
%ADD21O,1.950000X1.700000*%
%ADD22C,6.400000*%
%ADD23RoundRect,0.237500X0.250000X0.237500X-0.250000X0.237500X-0.250000X-0.237500X0.250000X-0.237500X0*%
G04 APERTURE END LIST*
D10*
X94450000Y-118500000D03*
X94450000Y-120500000D03*
D11*
X97700000Y-119500000D03*
D12*
X101425000Y-107600000D03*
X103250000Y-107600000D03*
D13*
X107450000Y-104750000D03*
X105725000Y-104750000D03*
D14*
X109750000Y-113500000D03*
X109750000Y-111775000D03*
D12*
X107500000Y-107600000D03*
X105675000Y-107600000D03*
D15*
X83250000Y-100150000D03*
X80750000Y-90150000D03*
X80750000Y-100150000D03*
X88250000Y-95150000D03*
X83250000Y-90150000D03*
D16*
X83250000Y-95150000D03*
D17*
X88250000Y-100150000D03*
X88250000Y-90150000D03*
D12*
X103187500Y-118000000D03*
X101362500Y-118000000D03*
X94662500Y-115250000D03*
X92837500Y-115250000D03*
X103100000Y-121000000D03*
X101275000Y-121000000D03*
D18*
X94612500Y-112750000D03*
X92887500Y-112750000D03*
X107475000Y-121000000D03*
X105750000Y-121000000D03*
D12*
X94662500Y-110250000D03*
X92837500Y-110250000D03*
X99662500Y-110250000D03*
X97837500Y-110250000D03*
D19*
X106655000Y-115225000D03*
X105385000Y-115225000D03*
X104115000Y-115225000D03*
X102845000Y-115225000D03*
X102845000Y-110275000D03*
X104115000Y-110275000D03*
X105385000Y-110275000D03*
X106655000Y-110275000D03*
D20*
X114717500Y-108500000D03*
D21*
X114717500Y-111000000D03*
X114717500Y-113500000D03*
X114717500Y-116000000D03*
D22*
X83750000Y-49250000D03*
X83750000Y-124250000D03*
D23*
X105700000Y-118000000D03*
X107525000Y-118000000D03*
D15*
X83250000Y-107732500D03*
X80750000Y-117732500D03*
X83250000Y-117732500D03*
X88250000Y-112732500D03*
X80750000Y-107732500D03*
D16*
X83250000Y-112732500D03*
D17*
X88250000Y-117732500D03*
X88250000Y-107732500D03*
D22*
X118750000Y-49250000D03*
X118750000Y-124250000D03*
M02*
