M48
; DRILL file {KiCad (6.0.0)} date Tue Apr 12 03:55:17 2022
; FORMAT={-:-/ absolute / metric / decimal}
; #@! TF.CreationDate,2022-04-12T03:55:17+02:00
; #@! TF.GenerationSoftware,Kicad,Pcbnew,(6.0.0)
; #@! TF.FileFunction,Plated,1,2,PTH
FMAT,2
METRIC
; #@! TA.AperFunction,Plated,PTH,ViaDrill
T1C0.400
; #@! TA.AperFunction,Plated,PTH,ComponentDrill
T2C0.800
; #@! TA.AperFunction,Plated,PTH,ComponentDrill
T3C0.950
; #@! TA.AperFunction,Plated,PTH,ComponentDrill
T4C3.200
%
G90
G05
T1
X101.25Y-110.25
X101.5Y-106.5
X101.5Y-115.75
X101.775Y-119.75
X103.025Y-122.25
X107.525Y-122.5
X107.992Y-115.225
X109.0Y-117.75
X109.75Y-110.5
T3
X114.718Y-108.5
X114.718Y-111.0
X114.718Y-113.5
X114.718Y-116.0
T4
X83.75Y-49.25
X83.75Y-124.25
X118.75Y-49.25
X118.75Y-124.25
T2
X83.25Y-94.8G85X83.25Y-95.5
G05
X83.25Y-112.382G85X83.25Y-113.082
G05
X87.9Y-90.15G85X88.6Y-90.15
G05
X87.9Y-100.15G85X88.6Y-100.15
G05
X87.9Y-107.733G85X88.6Y-107.733
G05
X87.9Y-117.733G85X88.6Y-117.733
G05
T0
M30
