G04 #@! TF.GenerationSoftware,KiCad,Pcbnew,(6.0.0)*
G04 #@! TF.CreationDate,2022-04-12T03:55:14+02:00*
G04 #@! TF.ProjectId,input_stage,696e7075-745f-4737-9461-67652e6b6963,rev?*
G04 #@! TF.SameCoordinates,Original*
G04 #@! TF.FileFunction,Legend,Top*
G04 #@! TF.FilePolarity,Positive*
%FSLAX46Y46*%
G04 Gerber Fmt 4.6, Leading zero omitted, Abs format (unit mm)*
G04 Created by KiCad (PCBNEW (6.0.0)) date 2022-04-12 03:55:14*
%MOMM*%
%LPD*%
G01*
G04 APERTURE LIST*
G04 Aperture macros list*
%AMRoundRect*
0 Rectangle with rounded corners*
0 $1 Rounding radius*
0 $2 $3 $4 $5 $6 $7 $8 $9 X,Y pos of 4 corners*
0 Add a 4 corners polygon primitive as box body*
4,1,4,$2,$3,$4,$5,$6,$7,$8,$9,$2,$3,0*
0 Add four circle primitives for the rounded corners*
1,1,$1+$1,$2,$3*
1,1,$1+$1,$4,$5*
1,1,$1+$1,$6,$7*
1,1,$1+$1,$8,$9*
0 Add four rect primitives between the rounded corners*
20,1,$1+$1,$2,$3,$4,$5,0*
20,1,$1+$1,$4,$5,$6,$7,0*
20,1,$1+$1,$6,$7,$8,$9,0*
20,1,$1+$1,$8,$9,$2,$3,0*%
G04 Aperture macros list end*
%ADD10C,0.150000*%
%ADD11C,0.500000*%
%ADD12C,0.120000*%
%ADD13C,0.127000*%
%ADD14C,0.340000*%
%ADD15R,1.200000X1.200000*%
%ADD16R,1.500000X1.600000*%
%ADD17RoundRect,0.237500X-0.250000X-0.237500X0.250000X-0.237500X0.250000X0.237500X-0.250000X0.237500X0*%
%ADD18RoundRect,0.237500X0.300000X0.237500X-0.300000X0.237500X-0.300000X-0.237500X0.300000X-0.237500X0*%
%ADD19RoundRect,0.237500X0.237500X-0.300000X0.237500X0.300000X-0.237500X0.300000X-0.237500X-0.300000X0*%
%ADD20C,1.200000*%
%ADD21O,1.308000X2.616000*%
%ADD22O,2.616000X1.308000*%
%ADD23RoundRect,0.237500X-0.300000X-0.237500X0.300000X-0.237500X0.300000X0.237500X-0.300000X0.237500X0*%
%ADD24RoundRect,0.150000X-0.150000X0.825000X-0.150000X-0.825000X0.150000X-0.825000X0.150000X0.825000X0*%
%ADD25RoundRect,0.250000X-0.725000X0.600000X-0.725000X-0.600000X0.725000X-0.600000X0.725000X0.600000X0*%
%ADD26O,1.950000X1.700000*%
%ADD27C,6.400000*%
%ADD28RoundRect,0.237500X0.250000X0.237500X-0.250000X0.237500X-0.250000X-0.237500X0.250000X-0.237500X0*%
G04 APERTURE END LIST*
D10*
X84607142Y-80647380D02*
X85178571Y-80647380D01*
X84892857Y-81647380D02*
X84892857Y-80647380D01*
X85511904Y-81647380D02*
X85511904Y-80647380D01*
X85940476Y-81647380D02*
X85940476Y-81123571D01*
X85892857Y-81028333D01*
X85797619Y-80980714D01*
X85654761Y-80980714D01*
X85559523Y-81028333D01*
X85511904Y-81075952D01*
X86416666Y-81647380D02*
X86416666Y-80980714D01*
X86416666Y-80647380D02*
X86369047Y-80695000D01*
X86416666Y-80742619D01*
X86464285Y-80695000D01*
X86416666Y-80647380D01*
X86416666Y-80742619D01*
X86845238Y-81599761D02*
X86940476Y-81647380D01*
X87130952Y-81647380D01*
X87226190Y-81599761D01*
X87273809Y-81504523D01*
X87273809Y-81456904D01*
X87226190Y-81361666D01*
X87130952Y-81314047D01*
X86988095Y-81314047D01*
X86892857Y-81266428D01*
X86845238Y-81171190D01*
X86845238Y-81123571D01*
X86892857Y-81028333D01*
X86988095Y-80980714D01*
X87130952Y-80980714D01*
X87226190Y-81028333D01*
X88464285Y-81647380D02*
X88464285Y-80647380D01*
X88845238Y-80647380D01*
X88940476Y-80695000D01*
X88988095Y-80742619D01*
X89035714Y-80837857D01*
X89035714Y-80980714D01*
X88988095Y-81075952D01*
X88940476Y-81123571D01*
X88845238Y-81171190D01*
X88464285Y-81171190D01*
X90035714Y-81552142D02*
X89988095Y-81599761D01*
X89845238Y-81647380D01*
X89750000Y-81647380D01*
X89607142Y-81599761D01*
X89511904Y-81504523D01*
X89464285Y-81409285D01*
X89416666Y-81218809D01*
X89416666Y-81075952D01*
X89464285Y-80885476D01*
X89511904Y-80790238D01*
X89607142Y-80695000D01*
X89750000Y-80647380D01*
X89845238Y-80647380D01*
X89988095Y-80695000D01*
X90035714Y-80742619D01*
X90797619Y-81123571D02*
X90940476Y-81171190D01*
X90988095Y-81218809D01*
X91035714Y-81314047D01*
X91035714Y-81456904D01*
X90988095Y-81552142D01*
X90940476Y-81599761D01*
X90845238Y-81647380D01*
X90464285Y-81647380D01*
X90464285Y-80647380D01*
X90797619Y-80647380D01*
X90892857Y-80695000D01*
X90940476Y-80742619D01*
X90988095Y-80837857D01*
X90988095Y-80933095D01*
X90940476Y-81028333D01*
X90892857Y-81075952D01*
X90797619Y-81123571D01*
X90464285Y-81123571D01*
X83821428Y-83638333D02*
X83773809Y-83590714D01*
X83678571Y-83447857D01*
X83630952Y-83352619D01*
X83583333Y-83209761D01*
X83535714Y-82971666D01*
X83535714Y-82781190D01*
X83583333Y-82543095D01*
X83630952Y-82400238D01*
X83678571Y-82305000D01*
X83773809Y-82162142D01*
X83821428Y-82114523D01*
X84202380Y-83257380D02*
X84202380Y-82257380D01*
X84678571Y-82590714D02*
X84678571Y-83257380D01*
X84678571Y-82685952D02*
X84726190Y-82638333D01*
X84821428Y-82590714D01*
X84964285Y-82590714D01*
X85059523Y-82638333D01*
X85107142Y-82733571D01*
X85107142Y-83257380D01*
X85583333Y-82590714D02*
X85583333Y-83590714D01*
X85583333Y-82638333D02*
X85678571Y-82590714D01*
X85869047Y-82590714D01*
X85964285Y-82638333D01*
X86011904Y-82685952D01*
X86059523Y-82781190D01*
X86059523Y-83066904D01*
X86011904Y-83162142D01*
X85964285Y-83209761D01*
X85869047Y-83257380D01*
X85678571Y-83257380D01*
X85583333Y-83209761D01*
X86916666Y-82590714D02*
X86916666Y-83257380D01*
X86488095Y-82590714D02*
X86488095Y-83114523D01*
X86535714Y-83209761D01*
X86630952Y-83257380D01*
X86773809Y-83257380D01*
X86869047Y-83209761D01*
X86916666Y-83162142D01*
X87250000Y-82590714D02*
X87630952Y-82590714D01*
X87392857Y-82257380D02*
X87392857Y-83114523D01*
X87440476Y-83209761D01*
X87535714Y-83257380D01*
X87630952Y-83257380D01*
X88678571Y-83209761D02*
X88773809Y-83257380D01*
X88964285Y-83257380D01*
X89059523Y-83209761D01*
X89107142Y-83114523D01*
X89107142Y-83066904D01*
X89059523Y-82971666D01*
X88964285Y-82924047D01*
X88821428Y-82924047D01*
X88726190Y-82876428D01*
X88678571Y-82781190D01*
X88678571Y-82733571D01*
X88726190Y-82638333D01*
X88821428Y-82590714D01*
X88964285Y-82590714D01*
X89059523Y-82638333D01*
X89392857Y-82590714D02*
X89773809Y-82590714D01*
X89535714Y-82257380D02*
X89535714Y-83114523D01*
X89583333Y-83209761D01*
X89678571Y-83257380D01*
X89773809Y-83257380D01*
X90535714Y-83257380D02*
X90535714Y-82733571D01*
X90488095Y-82638333D01*
X90392857Y-82590714D01*
X90202380Y-82590714D01*
X90107142Y-82638333D01*
X90535714Y-83209761D02*
X90440476Y-83257380D01*
X90202380Y-83257380D01*
X90107142Y-83209761D01*
X90059523Y-83114523D01*
X90059523Y-83019285D01*
X90107142Y-82924047D01*
X90202380Y-82876428D01*
X90440476Y-82876428D01*
X90535714Y-82828809D01*
X91440476Y-82590714D02*
X91440476Y-83400238D01*
X91392857Y-83495476D01*
X91345238Y-83543095D01*
X91250000Y-83590714D01*
X91107142Y-83590714D01*
X91011904Y-83543095D01*
X91440476Y-83209761D02*
X91345238Y-83257380D01*
X91154761Y-83257380D01*
X91059523Y-83209761D01*
X91011904Y-83162142D01*
X90964285Y-83066904D01*
X90964285Y-82781190D01*
X91011904Y-82685952D01*
X91059523Y-82638333D01*
X91154761Y-82590714D01*
X91345238Y-82590714D01*
X91440476Y-82638333D01*
X92297619Y-83209761D02*
X92202380Y-83257380D01*
X92011904Y-83257380D01*
X91916666Y-83209761D01*
X91869047Y-83114523D01*
X91869047Y-82733571D01*
X91916666Y-82638333D01*
X92011904Y-82590714D01*
X92202380Y-82590714D01*
X92297619Y-82638333D01*
X92345238Y-82733571D01*
X92345238Y-82828809D01*
X91869047Y-82924047D01*
X92678571Y-83638333D02*
X92726190Y-83590714D01*
X92821428Y-83447857D01*
X92869047Y-83352619D01*
X92916666Y-83209761D01*
X92964285Y-82971666D01*
X92964285Y-82781190D01*
X92916666Y-82543095D01*
X92869047Y-82400238D01*
X92821428Y-82305000D01*
X92726190Y-82162142D01*
X92678571Y-82114523D01*
D11*
X82750000Y-71000000D02*
X107250000Y-71000000D01*
X107250000Y-71000000D02*
X107250000Y-84750000D01*
X107250000Y-84750000D02*
X82750000Y-84750000D01*
X82750000Y-84750000D02*
X82750000Y-71000000D01*
D10*
X108750000Y-79250000D02*
X120000000Y-79250000D01*
X120000000Y-79250000D02*
X120000000Y-84750000D01*
X120000000Y-84750000D02*
X108750000Y-84750000D01*
X108750000Y-84750000D02*
X108750000Y-79250000D01*
X112119047Y-81123571D02*
X111785714Y-81123571D01*
X111785714Y-81647380D02*
X111785714Y-80647380D01*
X112261904Y-80647380D01*
X112642857Y-81647380D02*
X112642857Y-80980714D01*
X112642857Y-80647380D02*
X112595238Y-80695000D01*
X112642857Y-80742619D01*
X112690476Y-80695000D01*
X112642857Y-80647380D01*
X112642857Y-80742619D01*
X113261904Y-81647380D02*
X113166666Y-81599761D01*
X113119047Y-81504523D01*
X113119047Y-80647380D01*
X113500000Y-80980714D02*
X113880952Y-80980714D01*
X113642857Y-80647380D02*
X113642857Y-81504523D01*
X113690476Y-81599761D01*
X113785714Y-81647380D01*
X113880952Y-81647380D01*
X114595238Y-81599761D02*
X114500000Y-81647380D01*
X114309523Y-81647380D01*
X114214285Y-81599761D01*
X114166666Y-81504523D01*
X114166666Y-81123571D01*
X114214285Y-81028333D01*
X114309523Y-80980714D01*
X114500000Y-80980714D01*
X114595238Y-81028333D01*
X114642857Y-81123571D01*
X114642857Y-81218809D01*
X114166666Y-81314047D01*
X115071428Y-81647380D02*
X115071428Y-80980714D01*
X115071428Y-81171190D02*
X115119047Y-81075952D01*
X115166666Y-81028333D01*
X115261904Y-80980714D01*
X115357142Y-80980714D01*
X117261904Y-81647380D02*
X117214285Y-81647380D01*
X117119047Y-81599761D01*
X116976190Y-81456904D01*
X116738095Y-81171190D01*
X116642857Y-81028333D01*
X116595238Y-80885476D01*
X116595238Y-80790238D01*
X116642857Y-80695000D01*
X116738095Y-80647380D01*
X116785714Y-80647380D01*
X116880952Y-80695000D01*
X116928571Y-80790238D01*
X116928571Y-80837857D01*
X116880952Y-80933095D01*
X116833333Y-80980714D01*
X116547619Y-81171190D01*
X116500000Y-81218809D01*
X116452380Y-81314047D01*
X116452380Y-81456904D01*
X116500000Y-81552142D01*
X116547619Y-81599761D01*
X116642857Y-81647380D01*
X116785714Y-81647380D01*
X116880952Y-81599761D01*
X116928571Y-81552142D01*
X117071428Y-81361666D01*
X117119047Y-81218809D01*
X117119047Y-81123571D01*
X110976190Y-83162142D02*
X110928571Y-83209761D01*
X110785714Y-83257380D01*
X110690476Y-83257380D01*
X110547619Y-83209761D01*
X110452380Y-83114523D01*
X110404761Y-83019285D01*
X110357142Y-82828809D01*
X110357142Y-82685952D01*
X110404761Y-82495476D01*
X110452380Y-82400238D01*
X110547619Y-82305000D01*
X110690476Y-82257380D01*
X110785714Y-82257380D01*
X110928571Y-82305000D01*
X110976190Y-82352619D01*
X111547619Y-83257380D02*
X111452380Y-83209761D01*
X111404761Y-83162142D01*
X111357142Y-83066904D01*
X111357142Y-82781190D01*
X111404761Y-82685952D01*
X111452380Y-82638333D01*
X111547619Y-82590714D01*
X111690476Y-82590714D01*
X111785714Y-82638333D01*
X111833333Y-82685952D01*
X111880952Y-82781190D01*
X111880952Y-83066904D01*
X111833333Y-83162142D01*
X111785714Y-83209761D01*
X111690476Y-83257380D01*
X111547619Y-83257380D01*
X112309523Y-83257380D02*
X112309523Y-82590714D01*
X112309523Y-82685952D02*
X112357142Y-82638333D01*
X112452380Y-82590714D01*
X112595238Y-82590714D01*
X112690476Y-82638333D01*
X112738095Y-82733571D01*
X112738095Y-83257380D01*
X112738095Y-82733571D02*
X112785714Y-82638333D01*
X112880952Y-82590714D01*
X113023809Y-82590714D01*
X113119047Y-82638333D01*
X113166666Y-82733571D01*
X113166666Y-83257380D01*
X113642857Y-82590714D02*
X113642857Y-83590714D01*
X113642857Y-82638333D02*
X113738095Y-82590714D01*
X113928571Y-82590714D01*
X114023809Y-82638333D01*
X114071428Y-82685952D01*
X114119047Y-82781190D01*
X114119047Y-83066904D01*
X114071428Y-83162142D01*
X114023809Y-83209761D01*
X113928571Y-83257380D01*
X113738095Y-83257380D01*
X113642857Y-83209761D01*
X114976190Y-83257380D02*
X114976190Y-82733571D01*
X114928571Y-82638333D01*
X114833333Y-82590714D01*
X114642857Y-82590714D01*
X114547619Y-82638333D01*
X114976190Y-83209761D02*
X114880952Y-83257380D01*
X114642857Y-83257380D01*
X114547619Y-83209761D01*
X114500000Y-83114523D01*
X114500000Y-83019285D01*
X114547619Y-82924047D01*
X114642857Y-82876428D01*
X114880952Y-82876428D01*
X114976190Y-82828809D01*
X115452380Y-83257380D02*
X115452380Y-82590714D01*
X115452380Y-82781190D02*
X115500000Y-82685952D01*
X115547619Y-82638333D01*
X115642857Y-82590714D01*
X115738095Y-82590714D01*
X116500000Y-83257380D02*
X116500000Y-82733571D01*
X116452380Y-82638333D01*
X116357142Y-82590714D01*
X116166666Y-82590714D01*
X116071428Y-82638333D01*
X116500000Y-83209761D02*
X116404761Y-83257380D01*
X116166666Y-83257380D01*
X116071428Y-83209761D01*
X116023809Y-83114523D01*
X116023809Y-83019285D01*
X116071428Y-82924047D01*
X116166666Y-82876428D01*
X116404761Y-82876428D01*
X116500000Y-82828809D01*
X116833333Y-82590714D02*
X117214285Y-82590714D01*
X116976190Y-82257380D02*
X116976190Y-83114523D01*
X117023809Y-83209761D01*
X117119047Y-83257380D01*
X117214285Y-83257380D01*
X117690476Y-83257380D02*
X117595238Y-83209761D01*
X117547619Y-83162142D01*
X117500000Y-83066904D01*
X117500000Y-82781190D01*
X117547619Y-82685952D01*
X117595238Y-82638333D01*
X117690476Y-82590714D01*
X117833333Y-82590714D01*
X117928571Y-82638333D01*
X117976190Y-82685952D01*
X118023809Y-82781190D01*
X118023809Y-83066904D01*
X117976190Y-83162142D01*
X117928571Y-83209761D01*
X117833333Y-83257380D01*
X117690476Y-83257380D01*
X118452380Y-83257380D02*
X118452380Y-82590714D01*
X118452380Y-82781190D02*
X118500000Y-82685952D01*
X118547619Y-82638333D01*
X118642857Y-82590714D01*
X118738095Y-82590714D01*
X105750000Y-82000000D02*
X108750000Y-82000000D01*
X102561785Y-77897380D02*
X102085595Y-77897380D01*
X102085595Y-76897380D01*
X102895119Y-77897380D02*
X102895119Y-77230714D01*
X102895119Y-76897380D02*
X102847500Y-76945000D01*
X102895119Y-76992619D01*
X102942738Y-76945000D01*
X102895119Y-76897380D01*
X102895119Y-76992619D01*
X103371309Y-77230714D02*
X103371309Y-77897380D01*
X103371309Y-77325952D02*
X103418928Y-77278333D01*
X103514166Y-77230714D01*
X103657023Y-77230714D01*
X103752261Y-77278333D01*
X103799880Y-77373571D01*
X103799880Y-77897380D01*
X104657023Y-77849761D02*
X104561785Y-77897380D01*
X104371309Y-77897380D01*
X104276071Y-77849761D01*
X104228452Y-77754523D01*
X104228452Y-77373571D01*
X104276071Y-77278333D01*
X104371309Y-77230714D01*
X104561785Y-77230714D01*
X104657023Y-77278333D01*
X104704642Y-77373571D01*
X104704642Y-77468809D01*
X104228452Y-77564047D01*
X102561785Y-79507380D02*
X102085595Y-79507380D01*
X102085595Y-78507380D01*
X103276071Y-79459761D02*
X103180833Y-79507380D01*
X102990357Y-79507380D01*
X102895119Y-79459761D01*
X102847500Y-79364523D01*
X102847500Y-78983571D01*
X102895119Y-78888333D01*
X102990357Y-78840714D01*
X103180833Y-78840714D01*
X103276071Y-78888333D01*
X103323690Y-78983571D01*
X103323690Y-79078809D01*
X102847500Y-79174047D01*
X103657023Y-78840714D02*
X103895119Y-79507380D01*
X104133214Y-78840714D01*
X104895119Y-79459761D02*
X104799880Y-79507380D01*
X104609404Y-79507380D01*
X104514166Y-79459761D01*
X104466547Y-79364523D01*
X104466547Y-78983571D01*
X104514166Y-78888333D01*
X104609404Y-78840714D01*
X104799880Y-78840714D01*
X104895119Y-78888333D01*
X104942738Y-78983571D01*
X104942738Y-79078809D01*
X104466547Y-79174047D01*
X105514166Y-79507380D02*
X105418928Y-79459761D01*
X105371309Y-79364523D01*
X105371309Y-78507380D01*
X101625000Y-76000000D02*
X101625000Y-80250000D01*
X97500000Y-80250000D02*
X105750000Y-80250000D01*
X105750000Y-80250000D02*
X105750000Y-83750000D01*
X105750000Y-83750000D02*
X97500000Y-83750000D01*
X97500000Y-83750000D02*
X97500000Y-80250000D01*
X100261904Y-82166666D02*
X100738095Y-82166666D01*
X100166666Y-82452380D02*
X100500000Y-81452380D01*
X100833333Y-82452380D01*
X101690476Y-81500000D02*
X101595238Y-81452380D01*
X101452380Y-81452380D01*
X101309523Y-81500000D01*
X101214285Y-81595238D01*
X101166666Y-81690476D01*
X101119047Y-81880952D01*
X101119047Y-82023809D01*
X101166666Y-82214285D01*
X101214285Y-82309523D01*
X101309523Y-82404761D01*
X101452380Y-82452380D01*
X101547619Y-82452380D01*
X101690476Y-82404761D01*
X101738095Y-82357142D01*
X101738095Y-82023809D01*
X101547619Y-82023809D01*
X102738095Y-82357142D02*
X102690476Y-82404761D01*
X102547619Y-82452380D01*
X102452380Y-82452380D01*
X102309523Y-82404761D01*
X102214285Y-82309523D01*
X102166666Y-82214285D01*
X102119047Y-82023809D01*
X102119047Y-81880952D01*
X102166666Y-81690476D01*
X102214285Y-81595238D01*
X102309523Y-81500000D01*
X102452380Y-81452380D01*
X102547619Y-81452380D01*
X102690476Y-81500000D01*
X102738095Y-81547619D01*
X88125000Y-69000000D02*
X88125000Y-72500000D01*
X93416666Y-73952380D02*
X93416666Y-72952380D01*
X93797619Y-72952380D01*
X93892857Y-73000000D01*
X93940476Y-73047619D01*
X93988095Y-73142857D01*
X93988095Y-73285714D01*
X93940476Y-73380952D01*
X93892857Y-73428571D01*
X93797619Y-73476190D01*
X93416666Y-73476190D01*
X94988095Y-73857142D02*
X94940476Y-73904761D01*
X94797619Y-73952380D01*
X94702380Y-73952380D01*
X94559523Y-73904761D01*
X94464285Y-73809523D01*
X94416666Y-73714285D01*
X94369047Y-73523809D01*
X94369047Y-73380952D01*
X94416666Y-73190476D01*
X94464285Y-73095238D01*
X94559523Y-73000000D01*
X94702380Y-72952380D01*
X94797619Y-72952380D01*
X94940476Y-73000000D01*
X94988095Y-73047619D01*
X95416666Y-73952380D02*
X95416666Y-72952380D01*
X95750000Y-73666666D01*
X96083333Y-72952380D01*
X96083333Y-73952380D01*
X87202380Y-65802142D02*
X87154761Y-65849761D01*
X87011904Y-65897380D01*
X86916666Y-65897380D01*
X86773809Y-65849761D01*
X86678571Y-65754523D01*
X86630952Y-65659285D01*
X86583333Y-65468809D01*
X86583333Y-65325952D01*
X86630952Y-65135476D01*
X86678571Y-65040238D01*
X86773809Y-64945000D01*
X86916666Y-64897380D01*
X87011904Y-64897380D01*
X87154761Y-64945000D01*
X87202380Y-64992619D01*
X87583333Y-65611666D02*
X88059523Y-65611666D01*
X87488095Y-65897380D02*
X87821428Y-64897380D01*
X88154761Y-65897380D01*
X88440476Y-65849761D02*
X88583333Y-65897380D01*
X88821428Y-65897380D01*
X88916666Y-65849761D01*
X88964285Y-65802142D01*
X89011904Y-65706904D01*
X89011904Y-65611666D01*
X88964285Y-65516428D01*
X88916666Y-65468809D01*
X88821428Y-65421190D01*
X88630952Y-65373571D01*
X88535714Y-65325952D01*
X88488095Y-65278333D01*
X88440476Y-65183095D01*
X88440476Y-65087857D01*
X88488095Y-64992619D01*
X88535714Y-64945000D01*
X88630952Y-64897380D01*
X88869047Y-64897380D01*
X89011904Y-64945000D01*
X89440476Y-65373571D02*
X89773809Y-65373571D01*
X89916666Y-65897380D02*
X89440476Y-65897380D01*
X89440476Y-64897380D01*
X89916666Y-64897380D01*
X83392857Y-67221666D02*
X83869047Y-67221666D01*
X83297619Y-67507380D02*
X83630952Y-66507380D01*
X83964285Y-67507380D01*
X84726190Y-66840714D02*
X84726190Y-67507380D01*
X84297619Y-66840714D02*
X84297619Y-67364523D01*
X84345238Y-67459761D01*
X84440476Y-67507380D01*
X84583333Y-67507380D01*
X84678571Y-67459761D01*
X84726190Y-67412142D01*
X85630952Y-67507380D02*
X85630952Y-66507380D01*
X85630952Y-67459761D02*
X85535714Y-67507380D01*
X85345238Y-67507380D01*
X85250000Y-67459761D01*
X85202380Y-67412142D01*
X85154761Y-67316904D01*
X85154761Y-67031190D01*
X85202380Y-66935952D01*
X85250000Y-66888333D01*
X85345238Y-66840714D01*
X85535714Y-66840714D01*
X85630952Y-66888333D01*
X86107142Y-67507380D02*
X86107142Y-66840714D01*
X86107142Y-66507380D02*
X86059523Y-66555000D01*
X86107142Y-66602619D01*
X86154761Y-66555000D01*
X86107142Y-66507380D01*
X86107142Y-66602619D01*
X86726190Y-67507380D02*
X86630952Y-67459761D01*
X86583333Y-67412142D01*
X86535714Y-67316904D01*
X86535714Y-67031190D01*
X86583333Y-66935952D01*
X86630952Y-66888333D01*
X86726190Y-66840714D01*
X86869047Y-66840714D01*
X86964285Y-66888333D01*
X87011904Y-66935952D01*
X87059523Y-67031190D01*
X87059523Y-67316904D01*
X87011904Y-67412142D01*
X86964285Y-67459761D01*
X86869047Y-67507380D01*
X86726190Y-67507380D01*
X88202380Y-67459761D02*
X88345238Y-67507380D01*
X88583333Y-67507380D01*
X88678571Y-67459761D01*
X88726190Y-67412142D01*
X88773809Y-67316904D01*
X88773809Y-67221666D01*
X88726190Y-67126428D01*
X88678571Y-67078809D01*
X88583333Y-67031190D01*
X88392857Y-66983571D01*
X88297619Y-66935952D01*
X88250000Y-66888333D01*
X88202380Y-66793095D01*
X88202380Y-66697857D01*
X88250000Y-66602619D01*
X88297619Y-66555000D01*
X88392857Y-66507380D01*
X88630952Y-66507380D01*
X88773809Y-66555000D01*
X89107142Y-66840714D02*
X89345238Y-67507380D01*
X89583333Y-66840714D02*
X89345238Y-67507380D01*
X89250000Y-67745476D01*
X89202380Y-67793095D01*
X89107142Y-67840714D01*
X89916666Y-67459761D02*
X90011904Y-67507380D01*
X90202380Y-67507380D01*
X90297619Y-67459761D01*
X90345238Y-67364523D01*
X90345238Y-67316904D01*
X90297619Y-67221666D01*
X90202380Y-67174047D01*
X90059523Y-67174047D01*
X89964285Y-67126428D01*
X89916666Y-67031190D01*
X89916666Y-66983571D01*
X89964285Y-66888333D01*
X90059523Y-66840714D01*
X90202380Y-66840714D01*
X90297619Y-66888333D01*
X90630952Y-66840714D02*
X91011904Y-66840714D01*
X90773809Y-66507380D02*
X90773809Y-67364523D01*
X90821428Y-67459761D01*
X90916666Y-67507380D01*
X91011904Y-67507380D01*
X91726190Y-67459761D02*
X91630952Y-67507380D01*
X91440476Y-67507380D01*
X91345238Y-67459761D01*
X91297619Y-67364523D01*
X91297619Y-66983571D01*
X91345238Y-66888333D01*
X91440476Y-66840714D01*
X91630952Y-66840714D01*
X91726190Y-66888333D01*
X91773809Y-66983571D01*
X91773809Y-67078809D01*
X91297619Y-67174047D01*
X92202380Y-67507380D02*
X92202380Y-66840714D01*
X92202380Y-66935952D02*
X92250000Y-66888333D01*
X92345238Y-66840714D01*
X92488095Y-66840714D01*
X92583333Y-66888333D01*
X92630952Y-66983571D01*
X92630952Y-67507380D01*
X92630952Y-66983571D02*
X92678571Y-66888333D01*
X92773809Y-66840714D01*
X92916666Y-66840714D01*
X93011904Y-66888333D01*
X93059523Y-66983571D01*
X93059523Y-67507380D01*
X82500000Y-63500000D02*
X93750000Y-63500000D01*
X93750000Y-63500000D02*
X93750000Y-69000000D01*
X93750000Y-69000000D02*
X82500000Y-69000000D01*
X82500000Y-69000000D02*
X82500000Y-63500000D01*
X97500000Y-74250000D02*
X92250000Y-74250000D01*
X97500000Y-72500000D02*
X105750000Y-72500000D01*
X105750000Y-72500000D02*
X105750000Y-76000000D01*
X105750000Y-76000000D02*
X97500000Y-76000000D01*
X97500000Y-76000000D02*
X97500000Y-72500000D01*
X100309523Y-74702380D02*
X100309523Y-73702380D01*
X100547619Y-73702380D01*
X100690476Y-73750000D01*
X100785714Y-73845238D01*
X100833333Y-73940476D01*
X100880952Y-74130952D01*
X100880952Y-74273809D01*
X100833333Y-74464285D01*
X100785714Y-74559523D01*
X100690476Y-74654761D01*
X100547619Y-74702380D01*
X100309523Y-74702380D01*
X101261904Y-74416666D02*
X101738095Y-74416666D01*
X101166666Y-74702380D02*
X101500000Y-73702380D01*
X101833333Y-74702380D01*
X102738095Y-74607142D02*
X102690476Y-74654761D01*
X102547619Y-74702380D01*
X102452380Y-74702380D01*
X102309523Y-74654761D01*
X102214285Y-74559523D01*
X102166666Y-74464285D01*
X102119047Y-74273809D01*
X102119047Y-74130952D01*
X102166666Y-73940476D01*
X102214285Y-73845238D01*
X102309523Y-73750000D01*
X102452380Y-73702380D01*
X102547619Y-73702380D01*
X102690476Y-73750000D01*
X102738095Y-73797619D01*
X85571428Y-74654761D02*
X85714285Y-74702380D01*
X85952380Y-74702380D01*
X86047619Y-74654761D01*
X86095238Y-74607142D01*
X86142857Y-74511904D01*
X86142857Y-74416666D01*
X86095238Y-74321428D01*
X86047619Y-74273809D01*
X85952380Y-74226190D01*
X85761904Y-74178571D01*
X85666666Y-74130952D01*
X85619047Y-74083333D01*
X85571428Y-73988095D01*
X85571428Y-73892857D01*
X85619047Y-73797619D01*
X85666666Y-73750000D01*
X85761904Y-73702380D01*
X86000000Y-73702380D01*
X86142857Y-73750000D01*
X86428571Y-74035714D02*
X86809523Y-74035714D01*
X86571428Y-73702380D02*
X86571428Y-74559523D01*
X86619047Y-74654761D01*
X86714285Y-74702380D01*
X86809523Y-74702380D01*
X87142857Y-74702380D02*
X87142857Y-74035714D01*
X87142857Y-74226190D02*
X87190476Y-74130952D01*
X87238095Y-74083333D01*
X87333333Y-74035714D01*
X87428571Y-74035714D01*
X88142857Y-74654761D02*
X88047619Y-74702380D01*
X87857142Y-74702380D01*
X87761904Y-74654761D01*
X87714285Y-74559523D01*
X87714285Y-74178571D01*
X87761904Y-74083333D01*
X87857142Y-74035714D01*
X88047619Y-74035714D01*
X88142857Y-74083333D01*
X88190476Y-74178571D01*
X88190476Y-74273809D01*
X87714285Y-74369047D01*
X89047619Y-74702380D02*
X89047619Y-74178571D01*
X89000000Y-74083333D01*
X88904761Y-74035714D01*
X88714285Y-74035714D01*
X88619047Y-74083333D01*
X89047619Y-74654761D02*
X88952380Y-74702380D01*
X88714285Y-74702380D01*
X88619047Y-74654761D01*
X88571428Y-74559523D01*
X88571428Y-74464285D01*
X88619047Y-74369047D01*
X88714285Y-74321428D01*
X88952380Y-74321428D01*
X89047619Y-74273809D01*
X89523809Y-74702380D02*
X89523809Y-74035714D01*
X89523809Y-74130952D02*
X89571428Y-74083333D01*
X89666666Y-74035714D01*
X89809523Y-74035714D01*
X89904761Y-74083333D01*
X89952380Y-74178571D01*
X89952380Y-74702380D01*
X89952380Y-74178571D02*
X90000000Y-74083333D01*
X90095238Y-74035714D01*
X90238095Y-74035714D01*
X90333333Y-74083333D01*
X90380952Y-74178571D01*
X90380952Y-74702380D01*
X84000000Y-72500000D02*
X92250000Y-72500000D01*
X92250000Y-72500000D02*
X92250000Y-76000000D01*
X92250000Y-76000000D02*
X84000000Y-76000000D01*
X84000000Y-76000000D02*
X84000000Y-72500000D01*
X82192738Y-54482380D02*
X82764166Y-54482380D01*
X82478452Y-55482380D02*
X82478452Y-54482380D01*
X83240357Y-55482380D02*
X83145119Y-55434761D01*
X83097500Y-55387142D01*
X83049880Y-55291904D01*
X83049880Y-55006190D01*
X83097500Y-54910952D01*
X83145119Y-54863333D01*
X83240357Y-54815714D01*
X83383214Y-54815714D01*
X83478452Y-54863333D01*
X83526071Y-54910952D01*
X83573690Y-55006190D01*
X83573690Y-55291904D01*
X83526071Y-55387142D01*
X83478452Y-55434761D01*
X83383214Y-55482380D01*
X83240357Y-55482380D01*
X84764166Y-55482380D02*
X84764166Y-54482380D01*
X84764166Y-54863333D02*
X84859404Y-54815714D01*
X85049880Y-54815714D01*
X85145119Y-54863333D01*
X85192738Y-54910952D01*
X85240357Y-55006190D01*
X85240357Y-55291904D01*
X85192738Y-55387142D01*
X85145119Y-55434761D01*
X85049880Y-55482380D01*
X84859404Y-55482380D01*
X84764166Y-55434761D01*
X86049880Y-55434761D02*
X85954642Y-55482380D01*
X85764166Y-55482380D01*
X85668928Y-55434761D01*
X85621309Y-55339523D01*
X85621309Y-54958571D01*
X85668928Y-54863333D01*
X85764166Y-54815714D01*
X85954642Y-54815714D01*
X86049880Y-54863333D01*
X86097500Y-54958571D01*
X86097500Y-55053809D01*
X85621309Y-55149047D01*
X87287976Y-55482380D02*
X87287976Y-54815714D01*
X87287976Y-54482380D02*
X87240357Y-54530000D01*
X87287976Y-54577619D01*
X87335595Y-54530000D01*
X87287976Y-54482380D01*
X87287976Y-54577619D01*
X87764166Y-55482380D02*
X87764166Y-54815714D01*
X87764166Y-54910952D02*
X87811785Y-54863333D01*
X87907023Y-54815714D01*
X88049880Y-54815714D01*
X88145119Y-54863333D01*
X88192738Y-54958571D01*
X88192738Y-55482380D01*
X88192738Y-54958571D02*
X88240357Y-54863333D01*
X88335595Y-54815714D01*
X88478452Y-54815714D01*
X88573690Y-54863333D01*
X88621309Y-54958571D01*
X88621309Y-55482380D01*
X89097500Y-54815714D02*
X89097500Y-55815714D01*
X89097500Y-54863333D02*
X89192738Y-54815714D01*
X89383214Y-54815714D01*
X89478452Y-54863333D01*
X89526071Y-54910952D01*
X89573690Y-55006190D01*
X89573690Y-55291904D01*
X89526071Y-55387142D01*
X89478452Y-55434761D01*
X89383214Y-55482380D01*
X89192738Y-55482380D01*
X89097500Y-55434761D01*
X90145119Y-55482380D02*
X90049880Y-55434761D01*
X90002261Y-55339523D01*
X90002261Y-54482380D01*
X90907023Y-55434761D02*
X90811785Y-55482380D01*
X90621309Y-55482380D01*
X90526071Y-55434761D01*
X90478452Y-55339523D01*
X90478452Y-54958571D01*
X90526071Y-54863333D01*
X90621309Y-54815714D01*
X90811785Y-54815714D01*
X90907023Y-54863333D01*
X90954642Y-54958571D01*
X90954642Y-55053809D01*
X90478452Y-55149047D01*
X91383214Y-55482380D02*
X91383214Y-54815714D01*
X91383214Y-54910952D02*
X91430833Y-54863333D01*
X91526071Y-54815714D01*
X91668928Y-54815714D01*
X91764166Y-54863333D01*
X91811785Y-54958571D01*
X91811785Y-55482380D01*
X91811785Y-54958571D02*
X91859404Y-54863333D01*
X91954642Y-54815714D01*
X92097500Y-54815714D01*
X92192738Y-54863333D01*
X92240357Y-54958571D01*
X92240357Y-55482380D01*
X93097500Y-55434761D02*
X93002261Y-55482380D01*
X92811785Y-55482380D01*
X92716547Y-55434761D01*
X92668928Y-55339523D01*
X92668928Y-54958571D01*
X92716547Y-54863333D01*
X92811785Y-54815714D01*
X93002261Y-54815714D01*
X93097500Y-54863333D01*
X93145119Y-54958571D01*
X93145119Y-55053809D01*
X92668928Y-55149047D01*
X93573690Y-54815714D02*
X93573690Y-55482380D01*
X93573690Y-54910952D02*
X93621309Y-54863333D01*
X93716547Y-54815714D01*
X93859404Y-54815714D01*
X93954642Y-54863333D01*
X94002261Y-54958571D01*
X94002261Y-55482380D01*
X94335595Y-54815714D02*
X94716547Y-54815714D01*
X94478452Y-54482380D02*
X94478452Y-55339523D01*
X94526071Y-55434761D01*
X94621309Y-55482380D01*
X94716547Y-55482380D01*
X95430833Y-55434761D02*
X95335595Y-55482380D01*
X95145119Y-55482380D01*
X95049880Y-55434761D01*
X95002261Y-55339523D01*
X95002261Y-54958571D01*
X95049880Y-54863333D01*
X95145119Y-54815714D01*
X95335595Y-54815714D01*
X95430833Y-54863333D01*
X95478452Y-54958571D01*
X95478452Y-55053809D01*
X95002261Y-55149047D01*
X96335595Y-55482380D02*
X96335595Y-54482380D01*
X96335595Y-55434761D02*
X96240357Y-55482380D01*
X96049880Y-55482380D01*
X95954642Y-55434761D01*
X95907023Y-55387142D01*
X95859404Y-55291904D01*
X95859404Y-55006190D01*
X95907023Y-54910952D01*
X95954642Y-54863333D01*
X96049880Y-54815714D01*
X96240357Y-54815714D01*
X96335595Y-54863333D01*
X96811785Y-55387142D02*
X96859404Y-55434761D01*
X96811785Y-55482380D01*
X96764166Y-55434761D01*
X96811785Y-55387142D01*
X96811785Y-55482380D01*
X96811785Y-54863333D02*
X96859404Y-54910952D01*
X96811785Y-54958571D01*
X96764166Y-54910952D01*
X96811785Y-54863333D01*
X96811785Y-54958571D01*
X82621309Y-58226190D02*
X82621309Y-58416666D01*
X82668928Y-58416666D02*
X82668928Y-58226190D01*
X82716547Y-58178571D02*
X82716547Y-58464285D01*
X82764166Y-58416666D02*
X82764166Y-58226190D01*
X82811785Y-58226190D02*
X82811785Y-58416666D01*
X82621309Y-58369047D02*
X82716547Y-58464285D01*
X82811785Y-58369047D01*
X82621309Y-58273809D02*
X82716547Y-58178571D01*
X82811785Y-58273809D01*
X82621309Y-58226190D02*
X82716547Y-58178571D01*
X82811785Y-58226190D01*
X82859404Y-58321428D01*
X82811785Y-58416666D01*
X82716547Y-58464285D01*
X82621309Y-58416666D01*
X82573690Y-58321428D01*
X82621309Y-58226190D01*
X84240357Y-57702380D02*
X84478452Y-58702380D01*
X84668928Y-57988095D01*
X84859404Y-58702380D01*
X85097500Y-57702380D01*
X85478452Y-58702380D02*
X85478452Y-58035714D01*
X85478452Y-57702380D02*
X85430833Y-57750000D01*
X85478452Y-57797619D01*
X85526071Y-57750000D01*
X85478452Y-57702380D01*
X85478452Y-57797619D01*
X85954642Y-58702380D02*
X85954642Y-58035714D01*
X85954642Y-58226190D02*
X86002261Y-58130952D01*
X86049880Y-58083333D01*
X86145119Y-58035714D01*
X86240357Y-58035714D01*
X86954642Y-58654761D02*
X86859404Y-58702380D01*
X86668928Y-58702380D01*
X86573690Y-58654761D01*
X86526071Y-58559523D01*
X86526071Y-58178571D01*
X86573690Y-58083333D01*
X86668928Y-58035714D01*
X86859404Y-58035714D01*
X86954642Y-58083333D01*
X87002261Y-58178571D01*
X87002261Y-58273809D01*
X86526071Y-58369047D01*
X87573690Y-58702380D02*
X87478452Y-58654761D01*
X87430833Y-58559523D01*
X87430833Y-57702380D01*
X88335595Y-58654761D02*
X88240357Y-58702380D01*
X88049880Y-58702380D01*
X87954642Y-58654761D01*
X87907023Y-58559523D01*
X87907023Y-58178571D01*
X87954642Y-58083333D01*
X88049880Y-58035714D01*
X88240357Y-58035714D01*
X88335595Y-58083333D01*
X88383214Y-58178571D01*
X88383214Y-58273809D01*
X87907023Y-58369047D01*
X88764166Y-58654761D02*
X88859404Y-58702380D01*
X89049880Y-58702380D01*
X89145119Y-58654761D01*
X89192738Y-58559523D01*
X89192738Y-58511904D01*
X89145119Y-58416666D01*
X89049880Y-58369047D01*
X88907023Y-58369047D01*
X88811785Y-58321428D01*
X88764166Y-58226190D01*
X88764166Y-58178571D01*
X88811785Y-58083333D01*
X88907023Y-58035714D01*
X89049880Y-58035714D01*
X89145119Y-58083333D01*
X89573690Y-58654761D02*
X89668928Y-58702380D01*
X89859404Y-58702380D01*
X89954642Y-58654761D01*
X90002261Y-58559523D01*
X90002261Y-58511904D01*
X89954642Y-58416666D01*
X89859404Y-58369047D01*
X89716547Y-58369047D01*
X89621309Y-58321428D01*
X89573690Y-58226190D01*
X89573690Y-58178571D01*
X89621309Y-58083333D01*
X89716547Y-58035714D01*
X89859404Y-58035714D01*
X89954642Y-58083333D01*
X91621309Y-58702380D02*
X91621309Y-58178571D01*
X91573690Y-58083333D01*
X91478452Y-58035714D01*
X91287976Y-58035714D01*
X91192738Y-58083333D01*
X91621309Y-58654761D02*
X91526071Y-58702380D01*
X91287976Y-58702380D01*
X91192738Y-58654761D01*
X91145119Y-58559523D01*
X91145119Y-58464285D01*
X91192738Y-58369047D01*
X91287976Y-58321428D01*
X91526071Y-58321428D01*
X91621309Y-58273809D01*
X92526071Y-58035714D02*
X92526071Y-58702380D01*
X92097500Y-58035714D02*
X92097500Y-58559523D01*
X92145119Y-58654761D01*
X92240357Y-58702380D01*
X92383214Y-58702380D01*
X92478452Y-58654761D01*
X92526071Y-58607142D01*
X93430833Y-58702380D02*
X93430833Y-57702380D01*
X93430833Y-58654761D02*
X93335595Y-58702380D01*
X93145119Y-58702380D01*
X93049880Y-58654761D01*
X93002261Y-58607142D01*
X92954642Y-58511904D01*
X92954642Y-58226190D01*
X93002261Y-58130952D01*
X93049880Y-58083333D01*
X93145119Y-58035714D01*
X93335595Y-58035714D01*
X93430833Y-58083333D01*
X93907023Y-58702380D02*
X93907023Y-58035714D01*
X93907023Y-57702380D02*
X93859404Y-57750000D01*
X93907023Y-57797619D01*
X93954642Y-57750000D01*
X93907023Y-57702380D01*
X93907023Y-57797619D01*
X94526071Y-58702380D02*
X94430833Y-58654761D01*
X94383214Y-58607142D01*
X94335595Y-58511904D01*
X94335595Y-58226190D01*
X94383214Y-58130952D01*
X94430833Y-58083333D01*
X94526071Y-58035714D01*
X94668928Y-58035714D01*
X94764166Y-58083333D01*
X94811785Y-58130952D01*
X94859404Y-58226190D01*
X94859404Y-58511904D01*
X94811785Y-58607142D01*
X94764166Y-58654761D01*
X94668928Y-58702380D01*
X94526071Y-58702380D01*
X96002261Y-58654761D02*
X96097500Y-58702380D01*
X96287976Y-58702380D01*
X96383214Y-58654761D01*
X96430833Y-58559523D01*
X96430833Y-58511904D01*
X96383214Y-58416666D01*
X96287976Y-58369047D01*
X96145119Y-58369047D01*
X96049880Y-58321428D01*
X96002261Y-58226190D01*
X96002261Y-58178571D01*
X96049880Y-58083333D01*
X96145119Y-58035714D01*
X96287976Y-58035714D01*
X96383214Y-58083333D01*
X96716547Y-58035714D02*
X97097500Y-58035714D01*
X96859404Y-57702380D02*
X96859404Y-58559523D01*
X96907023Y-58654761D01*
X97002261Y-58702380D01*
X97097500Y-58702380D01*
X97430833Y-58702380D02*
X97430833Y-58035714D01*
X97430833Y-58226190D02*
X97478452Y-58130952D01*
X97526071Y-58083333D01*
X97621309Y-58035714D01*
X97716547Y-58035714D01*
X98430833Y-58654761D02*
X98335595Y-58702380D01*
X98145119Y-58702380D01*
X98049880Y-58654761D01*
X98002261Y-58559523D01*
X98002261Y-58178571D01*
X98049880Y-58083333D01*
X98145119Y-58035714D01*
X98335595Y-58035714D01*
X98430833Y-58083333D01*
X98478452Y-58178571D01*
X98478452Y-58273809D01*
X98002261Y-58369047D01*
X99335595Y-58702380D02*
X99335595Y-58178571D01*
X99287976Y-58083333D01*
X99192738Y-58035714D01*
X99002261Y-58035714D01*
X98907023Y-58083333D01*
X99335595Y-58654761D02*
X99240357Y-58702380D01*
X99002261Y-58702380D01*
X98907023Y-58654761D01*
X98859404Y-58559523D01*
X98859404Y-58464285D01*
X98907023Y-58369047D01*
X99002261Y-58321428D01*
X99240357Y-58321428D01*
X99335595Y-58273809D01*
X99811785Y-58702380D02*
X99811785Y-58035714D01*
X99811785Y-58130952D02*
X99859404Y-58083333D01*
X99954642Y-58035714D01*
X100097500Y-58035714D01*
X100192738Y-58083333D01*
X100240357Y-58178571D01*
X100240357Y-58702380D01*
X100240357Y-58178571D02*
X100287976Y-58083333D01*
X100383214Y-58035714D01*
X100526071Y-58035714D01*
X100621309Y-58083333D01*
X100668928Y-58178571D01*
X100668928Y-58702380D01*
X101764166Y-58035714D02*
X102145119Y-58035714D01*
X101907023Y-58702380D02*
X101907023Y-57845238D01*
X101954642Y-57750000D01*
X102049880Y-57702380D01*
X102145119Y-57702380D01*
X102478452Y-58702380D02*
X102478452Y-58035714D01*
X102478452Y-58226190D02*
X102526071Y-58130952D01*
X102573690Y-58083333D01*
X102668928Y-58035714D01*
X102764166Y-58035714D01*
X103240357Y-58702380D02*
X103145119Y-58654761D01*
X103097500Y-58607142D01*
X103049880Y-58511904D01*
X103049880Y-58226190D01*
X103097500Y-58130952D01*
X103145119Y-58083333D01*
X103240357Y-58035714D01*
X103383214Y-58035714D01*
X103478452Y-58083333D01*
X103526071Y-58130952D01*
X103573690Y-58226190D01*
X103573690Y-58511904D01*
X103526071Y-58607142D01*
X103478452Y-58654761D01*
X103383214Y-58702380D01*
X103240357Y-58702380D01*
X104002261Y-58702380D02*
X104002261Y-58035714D01*
X104002261Y-58130952D02*
X104049880Y-58083333D01*
X104145119Y-58035714D01*
X104287976Y-58035714D01*
X104383214Y-58083333D01*
X104430833Y-58178571D01*
X104430833Y-58702380D01*
X104430833Y-58178571D02*
X104478452Y-58083333D01*
X104573690Y-58035714D01*
X104716547Y-58035714D01*
X104811785Y-58083333D01*
X104859404Y-58178571D01*
X104859404Y-58702380D01*
X106668928Y-58607142D02*
X106621309Y-58654761D01*
X106478452Y-58702380D01*
X106383214Y-58702380D01*
X106240357Y-58654761D01*
X106145119Y-58559523D01*
X106097500Y-58464285D01*
X106049880Y-58273809D01*
X106049880Y-58130952D01*
X106097500Y-57940476D01*
X106145119Y-57845238D01*
X106240357Y-57750000D01*
X106383214Y-57702380D01*
X106478452Y-57702380D01*
X106621309Y-57750000D01*
X106668928Y-57797619D01*
X107049880Y-58416666D02*
X107526071Y-58416666D01*
X106954642Y-58702380D02*
X107287976Y-57702380D01*
X107621309Y-58702380D01*
X107907023Y-58654761D02*
X108049880Y-58702380D01*
X108287976Y-58702380D01*
X108383214Y-58654761D01*
X108430833Y-58607142D01*
X108478452Y-58511904D01*
X108478452Y-58416666D01*
X108430833Y-58321428D01*
X108383214Y-58273809D01*
X108287976Y-58226190D01*
X108097500Y-58178571D01*
X108002261Y-58130952D01*
X107954642Y-58083333D01*
X107907023Y-57988095D01*
X107907023Y-57892857D01*
X107954642Y-57797619D01*
X108002261Y-57750000D01*
X108097500Y-57702380D01*
X108335595Y-57702380D01*
X108478452Y-57750000D01*
X108907023Y-58178571D02*
X109240357Y-58178571D01*
X109383214Y-58702380D02*
X108907023Y-58702380D01*
X108907023Y-57702380D01*
X109383214Y-57702380D01*
X111002261Y-58702380D02*
X111002261Y-58178571D01*
X110954642Y-58083333D01*
X110859404Y-58035714D01*
X110668928Y-58035714D01*
X110573690Y-58083333D01*
X111002261Y-58654761D02*
X110907023Y-58702380D01*
X110668928Y-58702380D01*
X110573690Y-58654761D01*
X110526071Y-58559523D01*
X110526071Y-58464285D01*
X110573690Y-58369047D01*
X110668928Y-58321428D01*
X110907023Y-58321428D01*
X111002261Y-58273809D01*
X111907023Y-58035714D02*
X111907023Y-58702380D01*
X111478452Y-58035714D02*
X111478452Y-58559523D01*
X111526071Y-58654761D01*
X111621309Y-58702380D01*
X111764166Y-58702380D01*
X111859404Y-58654761D01*
X111907023Y-58607142D01*
X112811785Y-58702380D02*
X112811785Y-57702380D01*
X112811785Y-58654761D02*
X112716547Y-58702380D01*
X112526071Y-58702380D01*
X112430833Y-58654761D01*
X112383214Y-58607142D01*
X112335595Y-58511904D01*
X112335595Y-58226190D01*
X112383214Y-58130952D01*
X112430833Y-58083333D01*
X112526071Y-58035714D01*
X112716547Y-58035714D01*
X112811785Y-58083333D01*
X113287976Y-58702380D02*
X113287976Y-58035714D01*
X113287976Y-57702380D02*
X113240357Y-57750000D01*
X113287976Y-57797619D01*
X113335595Y-57750000D01*
X113287976Y-57702380D01*
X113287976Y-57797619D01*
X113907023Y-58702380D02*
X113811785Y-58654761D01*
X113764166Y-58607142D01*
X113716547Y-58511904D01*
X113716547Y-58226190D01*
X113764166Y-58130952D01*
X113811785Y-58083333D01*
X113907023Y-58035714D01*
X114049880Y-58035714D01*
X114145119Y-58083333D01*
X114192738Y-58130952D01*
X114240357Y-58226190D01*
X114240357Y-58511904D01*
X114192738Y-58607142D01*
X114145119Y-58654761D01*
X114049880Y-58702380D01*
X113907023Y-58702380D01*
X115383214Y-58654761D02*
X115478452Y-58702380D01*
X115668928Y-58702380D01*
X115764166Y-58654761D01*
X115811785Y-58559523D01*
X115811785Y-58511904D01*
X115764166Y-58416666D01*
X115668928Y-58369047D01*
X115526071Y-58369047D01*
X115430833Y-58321428D01*
X115383214Y-58226190D01*
X115383214Y-58178571D01*
X115430833Y-58083333D01*
X115526071Y-58035714D01*
X115668928Y-58035714D01*
X115764166Y-58083333D01*
X116145119Y-58035714D02*
X116383214Y-58702380D01*
X116621309Y-58035714D02*
X116383214Y-58702380D01*
X116287976Y-58940476D01*
X116240357Y-58988095D01*
X116145119Y-59035714D01*
X116954642Y-58654761D02*
X117049880Y-58702380D01*
X117240357Y-58702380D01*
X117335595Y-58654761D01*
X117383214Y-58559523D01*
X117383214Y-58511904D01*
X117335595Y-58416666D01*
X117240357Y-58369047D01*
X117097499Y-58369047D01*
X117002261Y-58321428D01*
X116954642Y-58226190D01*
X116954642Y-58178571D01*
X117002261Y-58083333D01*
X117097499Y-58035714D01*
X117240357Y-58035714D01*
X117335595Y-58083333D01*
X117668928Y-58035714D02*
X118049880Y-58035714D01*
X117811785Y-57702380D02*
X117811785Y-58559523D01*
X117859404Y-58654761D01*
X117954642Y-58702380D01*
X118049880Y-58702380D01*
X118764166Y-58654761D02*
X118668928Y-58702380D01*
X118478452Y-58702380D01*
X118383214Y-58654761D01*
X118335595Y-58559523D01*
X118335595Y-58178571D01*
X118383214Y-58083333D01*
X118478452Y-58035714D01*
X118668928Y-58035714D01*
X118764166Y-58083333D01*
X118811785Y-58178571D01*
X118811785Y-58273809D01*
X118335595Y-58369047D01*
X119240357Y-58702380D02*
X119240357Y-58035714D01*
X119240357Y-58130952D02*
X119287976Y-58083333D01*
X119383214Y-58035714D01*
X119526071Y-58035714D01*
X119621309Y-58083333D01*
X119668928Y-58178571D01*
X119668928Y-58702380D01*
X119668928Y-58178571D02*
X119716547Y-58083333D01*
X119811785Y-58035714D01*
X119954642Y-58035714D01*
X120049880Y-58083333D01*
X120097499Y-58178571D01*
X120097499Y-58702380D01*
X82621309Y-59836190D02*
X82621309Y-60026666D01*
X82668928Y-60026666D02*
X82668928Y-59836190D01*
X82716547Y-59788571D02*
X82716547Y-60074285D01*
X82764166Y-60026666D02*
X82764166Y-59836190D01*
X82811785Y-59836190D02*
X82811785Y-60026666D01*
X82621309Y-59979047D02*
X82716547Y-60074285D01*
X82811785Y-59979047D01*
X82621309Y-59883809D02*
X82716547Y-59788571D01*
X82811785Y-59883809D01*
X82621309Y-59836190D02*
X82716547Y-59788571D01*
X82811785Y-59836190D01*
X82859404Y-59931428D01*
X82811785Y-60026666D01*
X82716547Y-60074285D01*
X82621309Y-60026666D01*
X82573690Y-59931428D01*
X82621309Y-59836190D01*
X84335595Y-60312380D02*
X84335595Y-59312380D01*
X84573690Y-59312380D01*
X84716547Y-59360000D01*
X84811785Y-59455238D01*
X84859404Y-59550476D01*
X84907023Y-59740952D01*
X84907023Y-59883809D01*
X84859404Y-60074285D01*
X84811785Y-60169523D01*
X84716547Y-60264761D01*
X84573690Y-60312380D01*
X84335595Y-60312380D01*
X85287976Y-60026666D02*
X85764166Y-60026666D01*
X85192738Y-60312380D02*
X85526071Y-59312380D01*
X85859404Y-60312380D01*
X86764166Y-60217142D02*
X86716547Y-60264761D01*
X86573690Y-60312380D01*
X86478452Y-60312380D01*
X86335595Y-60264761D01*
X86240357Y-60169523D01*
X86192738Y-60074285D01*
X86145119Y-59883809D01*
X86145119Y-59740952D01*
X86192738Y-59550476D01*
X86240357Y-59455238D01*
X86335595Y-59360000D01*
X86478452Y-59312380D01*
X86573690Y-59312380D01*
X86716547Y-59360000D01*
X86764166Y-59407619D01*
X88383214Y-60264761D02*
X88287976Y-60312380D01*
X88097500Y-60312380D01*
X88002261Y-60264761D01*
X87954642Y-60217142D01*
X87907023Y-60121904D01*
X87907023Y-59836190D01*
X87954642Y-59740952D01*
X88002261Y-59693333D01*
X88097500Y-59645714D01*
X88287976Y-59645714D01*
X88383214Y-59693333D01*
X88954642Y-60312380D02*
X88859404Y-60264761D01*
X88811785Y-60217142D01*
X88764166Y-60121904D01*
X88764166Y-59836190D01*
X88811785Y-59740952D01*
X88859404Y-59693333D01*
X88954642Y-59645714D01*
X89097500Y-59645714D01*
X89192738Y-59693333D01*
X89240357Y-59740952D01*
X89287976Y-59836190D01*
X89287976Y-60121904D01*
X89240357Y-60217142D01*
X89192738Y-60264761D01*
X89097500Y-60312380D01*
X88954642Y-60312380D01*
X89716547Y-59645714D02*
X89716547Y-60312380D01*
X89716547Y-59740952D02*
X89764166Y-59693333D01*
X89859404Y-59645714D01*
X90002261Y-59645714D01*
X90097500Y-59693333D01*
X90145119Y-59788571D01*
X90145119Y-60312380D01*
X90526071Y-59645714D02*
X90764166Y-60312380D01*
X91002261Y-59645714D01*
X91764166Y-60264761D02*
X91668928Y-60312380D01*
X91478452Y-60312380D01*
X91383214Y-60264761D01*
X91335595Y-60169523D01*
X91335595Y-59788571D01*
X91383214Y-59693333D01*
X91478452Y-59645714D01*
X91668928Y-59645714D01*
X91764166Y-59693333D01*
X91811785Y-59788571D01*
X91811785Y-59883809D01*
X91335595Y-59979047D01*
X92240357Y-60312380D02*
X92240357Y-59645714D01*
X92240357Y-59836190D02*
X92287976Y-59740952D01*
X92335595Y-59693333D01*
X92430833Y-59645714D01*
X92526071Y-59645714D01*
X92811785Y-60264761D02*
X92907023Y-60312380D01*
X93097500Y-60312380D01*
X93192738Y-60264761D01*
X93240357Y-60169523D01*
X93240357Y-60121904D01*
X93192738Y-60026666D01*
X93097500Y-59979047D01*
X92954642Y-59979047D01*
X92859404Y-59931428D01*
X92811785Y-59836190D01*
X92811785Y-59788571D01*
X92859404Y-59693333D01*
X92954642Y-59645714D01*
X93097500Y-59645714D01*
X93192738Y-59693333D01*
X93668928Y-60312380D02*
X93668928Y-59645714D01*
X93668928Y-59312380D02*
X93621309Y-59360000D01*
X93668928Y-59407619D01*
X93716547Y-59360000D01*
X93668928Y-59312380D01*
X93668928Y-59407619D01*
X94287976Y-60312380D02*
X94192738Y-60264761D01*
X94145119Y-60217142D01*
X94097500Y-60121904D01*
X94097500Y-59836190D01*
X94145119Y-59740952D01*
X94192738Y-59693333D01*
X94287976Y-59645714D01*
X94430833Y-59645714D01*
X94526071Y-59693333D01*
X94573690Y-59740952D01*
X94621309Y-59836190D01*
X94621309Y-60121904D01*
X94573690Y-60217142D01*
X94526071Y-60264761D01*
X94430833Y-60312380D01*
X94287976Y-60312380D01*
X95049880Y-59645714D02*
X95049880Y-60312380D01*
X95049880Y-59740952D02*
X95097500Y-59693333D01*
X95192738Y-59645714D01*
X95335595Y-59645714D01*
X95430833Y-59693333D01*
X95478452Y-59788571D01*
X95478452Y-60312380D01*
X96573690Y-59645714D02*
X96954642Y-59645714D01*
X96716547Y-59312380D02*
X96716547Y-60169523D01*
X96764166Y-60264761D01*
X96859404Y-60312380D01*
X96954642Y-60312380D01*
X97430833Y-60312380D02*
X97335595Y-60264761D01*
X97287976Y-60217142D01*
X97240357Y-60121904D01*
X97240357Y-59836190D01*
X97287976Y-59740952D01*
X97335595Y-59693333D01*
X97430833Y-59645714D01*
X97573690Y-59645714D01*
X97668928Y-59693333D01*
X97716547Y-59740952D01*
X97764166Y-59836190D01*
X97764166Y-60121904D01*
X97716547Y-60217142D01*
X97668928Y-60264761D01*
X97573690Y-60312380D01*
X97430833Y-60312380D01*
X99097500Y-60312380D02*
X99002261Y-60264761D01*
X98954642Y-60169523D01*
X98954642Y-59312380D01*
X99478452Y-60312380D02*
X99478452Y-59645714D01*
X99478452Y-59312380D02*
X99430833Y-59360000D01*
X99478452Y-59407619D01*
X99526071Y-59360000D01*
X99478452Y-59312380D01*
X99478452Y-59407619D01*
X99954642Y-59645714D02*
X99954642Y-60312380D01*
X99954642Y-59740952D02*
X100002261Y-59693333D01*
X100097500Y-59645714D01*
X100240357Y-59645714D01*
X100335595Y-59693333D01*
X100383214Y-59788571D01*
X100383214Y-60312380D01*
X101240357Y-60264761D02*
X101145119Y-60312380D01*
X100954642Y-60312380D01*
X100859404Y-60264761D01*
X100811785Y-60169523D01*
X100811785Y-59788571D01*
X100859404Y-59693333D01*
X100954642Y-59645714D01*
X101145119Y-59645714D01*
X101240357Y-59693333D01*
X101287976Y-59788571D01*
X101287976Y-59883809D01*
X100811785Y-59979047D01*
X102621309Y-60312380D02*
X102526071Y-60264761D01*
X102478452Y-60169523D01*
X102478452Y-59312380D01*
X103383214Y-60264761D02*
X103287976Y-60312380D01*
X103097500Y-60312380D01*
X103002261Y-60264761D01*
X102954642Y-60169523D01*
X102954642Y-59788571D01*
X103002261Y-59693333D01*
X103097500Y-59645714D01*
X103287976Y-59645714D01*
X103383214Y-59693333D01*
X103430833Y-59788571D01*
X103430833Y-59883809D01*
X102954642Y-59979047D01*
X103764166Y-59645714D02*
X104002261Y-60312380D01*
X104240357Y-59645714D01*
X105002261Y-60264761D02*
X104907023Y-60312380D01*
X104716547Y-60312380D01*
X104621309Y-60264761D01*
X104573690Y-60169523D01*
X104573690Y-59788571D01*
X104621309Y-59693333D01*
X104716547Y-59645714D01*
X104907023Y-59645714D01*
X105002261Y-59693333D01*
X105049880Y-59788571D01*
X105049880Y-59883809D01*
X104573690Y-59979047D01*
X105621309Y-60312380D02*
X105526071Y-60264761D01*
X105478452Y-60169523D01*
X105478452Y-59312380D01*
X82621309Y-61446190D02*
X82621309Y-61636666D01*
X82668928Y-61636666D02*
X82668928Y-61446190D01*
X82716547Y-61398571D02*
X82716547Y-61684285D01*
X82764166Y-61636666D02*
X82764166Y-61446190D01*
X82811785Y-61446190D02*
X82811785Y-61636666D01*
X82621309Y-61589047D02*
X82716547Y-61684285D01*
X82811785Y-61589047D01*
X82621309Y-61493809D02*
X82716547Y-61398571D01*
X82811785Y-61493809D01*
X82621309Y-61446190D02*
X82716547Y-61398571D01*
X82811785Y-61446190D01*
X82859404Y-61541428D01*
X82811785Y-61636666D01*
X82716547Y-61684285D01*
X82621309Y-61636666D01*
X82573690Y-61541428D01*
X82621309Y-61446190D01*
X84287976Y-61636666D02*
X84764166Y-61636666D01*
X84192738Y-61922380D02*
X84526071Y-60922380D01*
X84859404Y-61922380D01*
X85621309Y-61255714D02*
X85621309Y-61922380D01*
X85192738Y-61255714D02*
X85192738Y-61779523D01*
X85240357Y-61874761D01*
X85335595Y-61922380D01*
X85478452Y-61922380D01*
X85573690Y-61874761D01*
X85621309Y-61827142D01*
X85954642Y-61255714D02*
X86335595Y-61255714D01*
X86097500Y-60922380D02*
X86097500Y-61779523D01*
X86145119Y-61874761D01*
X86240357Y-61922380D01*
X86335595Y-61922380D01*
X86811785Y-61922380D02*
X86716547Y-61874761D01*
X86668928Y-61827142D01*
X86621309Y-61731904D01*
X86621309Y-61446190D01*
X86668928Y-61350952D01*
X86716547Y-61303333D01*
X86811785Y-61255714D01*
X86954642Y-61255714D01*
X87049880Y-61303333D01*
X87097500Y-61350952D01*
X87145119Y-61446190D01*
X87145119Y-61731904D01*
X87097500Y-61827142D01*
X87049880Y-61874761D01*
X86954642Y-61922380D01*
X86811785Y-61922380D01*
X87573690Y-61922380D02*
X87573690Y-61255714D01*
X87573690Y-61350952D02*
X87621309Y-61303333D01*
X87716547Y-61255714D01*
X87859404Y-61255714D01*
X87954642Y-61303333D01*
X88002261Y-61398571D01*
X88002261Y-61922380D01*
X88002261Y-61398571D02*
X88049880Y-61303333D01*
X88145119Y-61255714D01*
X88287976Y-61255714D01*
X88383214Y-61303333D01*
X88430833Y-61398571D01*
X88430833Y-61922380D01*
X89335595Y-61922380D02*
X89335595Y-61398571D01*
X89287976Y-61303333D01*
X89192738Y-61255714D01*
X89002261Y-61255714D01*
X88907023Y-61303333D01*
X89335595Y-61874761D02*
X89240357Y-61922380D01*
X89002261Y-61922380D01*
X88907023Y-61874761D01*
X88859404Y-61779523D01*
X88859404Y-61684285D01*
X88907023Y-61589047D01*
X89002261Y-61541428D01*
X89240357Y-61541428D01*
X89335595Y-61493809D01*
X89668928Y-61255714D02*
X90049880Y-61255714D01*
X89811785Y-60922380D02*
X89811785Y-61779523D01*
X89859404Y-61874761D01*
X89954642Y-61922380D01*
X90049880Y-61922380D01*
X90383214Y-61922380D02*
X90383214Y-61255714D01*
X90383214Y-60922380D02*
X90335595Y-60970000D01*
X90383214Y-61017619D01*
X90430833Y-60970000D01*
X90383214Y-60922380D01*
X90383214Y-61017619D01*
X91287976Y-61874761D02*
X91192738Y-61922380D01*
X91002261Y-61922380D01*
X90907023Y-61874761D01*
X90859404Y-61827142D01*
X90811785Y-61731904D01*
X90811785Y-61446190D01*
X90859404Y-61350952D01*
X90907023Y-61303333D01*
X91002261Y-61255714D01*
X91192738Y-61255714D01*
X91287976Y-61303333D01*
X92907023Y-61255714D02*
X92907023Y-62065238D01*
X92859404Y-62160476D01*
X92811785Y-62208095D01*
X92716547Y-62255714D01*
X92573690Y-62255714D01*
X92478452Y-62208095D01*
X92907023Y-61874761D02*
X92811785Y-61922380D01*
X92621309Y-61922380D01*
X92526071Y-61874761D01*
X92478452Y-61827142D01*
X92430833Y-61731904D01*
X92430833Y-61446190D01*
X92478452Y-61350952D01*
X92526071Y-61303333D01*
X92621309Y-61255714D01*
X92811785Y-61255714D01*
X92907023Y-61303333D01*
X93811785Y-61922380D02*
X93811785Y-61398571D01*
X93764166Y-61303333D01*
X93668928Y-61255714D01*
X93478452Y-61255714D01*
X93383214Y-61303333D01*
X93811785Y-61874761D02*
X93716547Y-61922380D01*
X93478452Y-61922380D01*
X93383214Y-61874761D01*
X93335595Y-61779523D01*
X93335595Y-61684285D01*
X93383214Y-61589047D01*
X93478452Y-61541428D01*
X93716547Y-61541428D01*
X93811785Y-61493809D01*
X94287976Y-61922380D02*
X94287976Y-61255714D01*
X94287976Y-60922380D02*
X94240357Y-60970000D01*
X94287976Y-61017619D01*
X94335595Y-60970000D01*
X94287976Y-60922380D01*
X94287976Y-61017619D01*
X94764166Y-61255714D02*
X94764166Y-61922380D01*
X94764166Y-61350952D02*
X94811785Y-61303333D01*
X94907023Y-61255714D01*
X95049880Y-61255714D01*
X95145119Y-61303333D01*
X95192738Y-61398571D01*
X95192738Y-61922380D01*
X96859404Y-61874761D02*
X96764166Y-61922380D01*
X96573690Y-61922380D01*
X96478452Y-61874761D01*
X96430833Y-61827142D01*
X96383214Y-61731904D01*
X96383214Y-61446190D01*
X96430833Y-61350952D01*
X96478452Y-61303333D01*
X96573690Y-61255714D01*
X96764166Y-61255714D01*
X96859404Y-61303333D01*
X97430833Y-61922380D02*
X97335595Y-61874761D01*
X97287976Y-61827142D01*
X97240357Y-61731904D01*
X97240357Y-61446190D01*
X97287976Y-61350952D01*
X97335595Y-61303333D01*
X97430833Y-61255714D01*
X97573690Y-61255714D01*
X97668928Y-61303333D01*
X97716547Y-61350952D01*
X97764166Y-61446190D01*
X97764166Y-61731904D01*
X97716547Y-61827142D01*
X97668928Y-61874761D01*
X97573690Y-61922380D01*
X97430833Y-61922380D01*
X98192738Y-61255714D02*
X98192738Y-61922380D01*
X98192738Y-61350952D02*
X98240357Y-61303333D01*
X98335595Y-61255714D01*
X98478452Y-61255714D01*
X98573690Y-61303333D01*
X98621309Y-61398571D01*
X98621309Y-61922380D01*
X98954642Y-61255714D02*
X99335595Y-61255714D01*
X99097500Y-60922380D02*
X99097500Y-61779523D01*
X99145119Y-61874761D01*
X99240357Y-61922380D01*
X99335595Y-61922380D01*
X99668928Y-61922380D02*
X99668928Y-61255714D01*
X99668928Y-61446190D02*
X99716547Y-61350952D01*
X99764166Y-61303333D01*
X99859404Y-61255714D01*
X99954642Y-61255714D01*
X100430833Y-61922380D02*
X100335595Y-61874761D01*
X100287976Y-61827142D01*
X100240357Y-61731904D01*
X100240357Y-61446190D01*
X100287976Y-61350952D01*
X100335595Y-61303333D01*
X100430833Y-61255714D01*
X100573690Y-61255714D01*
X100668928Y-61303333D01*
X100716547Y-61350952D01*
X100764166Y-61446190D01*
X100764166Y-61731904D01*
X100716547Y-61827142D01*
X100668928Y-61874761D01*
X100573690Y-61922380D01*
X100430833Y-61922380D01*
X101335595Y-61922380D02*
X101240357Y-61874761D01*
X101192738Y-61779523D01*
X101192738Y-60922380D01*
X102764166Y-62303333D02*
X102716547Y-62255714D01*
X102621309Y-62112857D01*
X102573690Y-62017619D01*
X102526071Y-61874761D01*
X102478452Y-61636666D01*
X102478452Y-61446190D01*
X102526071Y-61208095D01*
X102573690Y-61065238D01*
X102621309Y-60970000D01*
X102716547Y-60827142D01*
X102764166Y-60779523D01*
X103097500Y-61636666D02*
X103573690Y-61636666D01*
X103002261Y-61922380D02*
X103335595Y-60922380D01*
X103668928Y-61922380D01*
X104526071Y-60970000D02*
X104430833Y-60922380D01*
X104287976Y-60922380D01*
X104145119Y-60970000D01*
X104049880Y-61065238D01*
X104002261Y-61160476D01*
X103954642Y-61350952D01*
X103954642Y-61493809D01*
X104002261Y-61684285D01*
X104049880Y-61779523D01*
X104145119Y-61874761D01*
X104287976Y-61922380D01*
X104383214Y-61922380D01*
X104526071Y-61874761D01*
X104573690Y-61827142D01*
X104573690Y-61493809D01*
X104383214Y-61493809D01*
X105573690Y-61827142D02*
X105526071Y-61874761D01*
X105383214Y-61922380D01*
X105287976Y-61922380D01*
X105145119Y-61874761D01*
X105049880Y-61779523D01*
X105002261Y-61684285D01*
X104954642Y-61493809D01*
X104954642Y-61350952D01*
X105002261Y-61160476D01*
X105049880Y-61065238D01*
X105145119Y-60970000D01*
X105287976Y-60922380D01*
X105383214Y-60922380D01*
X105526071Y-60970000D01*
X105573690Y-61017619D01*
X105907023Y-62303333D02*
X105954642Y-62255714D01*
X106049880Y-62112857D01*
X106097500Y-62017619D01*
X106145119Y-61874761D01*
X106192738Y-61636666D01*
X106192738Y-61446190D01*
X106145119Y-61208095D01*
X106097500Y-61065238D01*
X106049880Y-60970000D01*
X105954642Y-60827142D01*
X105907023Y-60779523D01*
X81500000Y-53750000D02*
X121250000Y-53750000D01*
X121250000Y-53750000D02*
X121250000Y-85750000D01*
X121250000Y-85750000D02*
X81500000Y-85750000D01*
X81500000Y-85750000D02*
X81500000Y-53750000D01*
X88537976Y-124044761D02*
X88680833Y-124092380D01*
X88918928Y-124092380D01*
X89014166Y-124044761D01*
X89061785Y-123997142D01*
X89109404Y-123901904D01*
X89109404Y-123806666D01*
X89061785Y-123711428D01*
X89014166Y-123663809D01*
X88918928Y-123616190D01*
X88728452Y-123568571D01*
X88633214Y-123520952D01*
X88585595Y-123473333D01*
X88537976Y-123378095D01*
X88537976Y-123282857D01*
X88585595Y-123187619D01*
X88633214Y-123140000D01*
X88728452Y-123092380D01*
X88966547Y-123092380D01*
X89109404Y-123140000D01*
X89680833Y-124092380D02*
X89585595Y-124044761D01*
X89537976Y-123997142D01*
X89490357Y-123901904D01*
X89490357Y-123616190D01*
X89537976Y-123520952D01*
X89585595Y-123473333D01*
X89680833Y-123425714D01*
X89823690Y-123425714D01*
X89918928Y-123473333D01*
X89966547Y-123520952D01*
X90014166Y-123616190D01*
X90014166Y-123901904D01*
X89966547Y-123997142D01*
X89918928Y-124044761D01*
X89823690Y-124092380D01*
X89680833Y-124092380D01*
X90442738Y-123425714D02*
X90442738Y-124092380D01*
X90442738Y-123520952D02*
X90490357Y-123473333D01*
X90585595Y-123425714D01*
X90728452Y-123425714D01*
X90823690Y-123473333D01*
X90871309Y-123568571D01*
X90871309Y-124092380D01*
X91776071Y-123425714D02*
X91776071Y-124092380D01*
X91347500Y-123425714D02*
X91347500Y-123949523D01*
X91395119Y-124044761D01*
X91490357Y-124092380D01*
X91633214Y-124092380D01*
X91728452Y-124044761D01*
X91776071Y-123997142D01*
X92204642Y-124044761D02*
X92299880Y-124092380D01*
X92490357Y-124092380D01*
X92585595Y-124044761D01*
X92633214Y-123949523D01*
X92633214Y-123901904D01*
X92585595Y-123806666D01*
X92490357Y-123759047D01*
X92347500Y-123759047D01*
X92252261Y-123711428D01*
X92204642Y-123616190D01*
X92204642Y-123568571D01*
X92252261Y-123473333D01*
X92347500Y-123425714D01*
X92490357Y-123425714D01*
X92585595Y-123473333D01*
X92966547Y-123092380D02*
X93633214Y-123092380D01*
X93204642Y-124092380D01*
X88585595Y-125702380D02*
X88585595Y-124702380D01*
X89061785Y-125035714D02*
X89061785Y-125702380D01*
X89061785Y-125130952D02*
X89109404Y-125083333D01*
X89204642Y-125035714D01*
X89347500Y-125035714D01*
X89442738Y-125083333D01*
X89490357Y-125178571D01*
X89490357Y-125702380D01*
X89966547Y-125035714D02*
X89966547Y-126035714D01*
X89966547Y-125083333D02*
X90061785Y-125035714D01*
X90252261Y-125035714D01*
X90347500Y-125083333D01*
X90395119Y-125130952D01*
X90442738Y-125226190D01*
X90442738Y-125511904D01*
X90395119Y-125607142D01*
X90347500Y-125654761D01*
X90252261Y-125702380D01*
X90061785Y-125702380D01*
X89966547Y-125654761D01*
X91299880Y-125035714D02*
X91299880Y-125702380D01*
X90871309Y-125035714D02*
X90871309Y-125559523D01*
X90918928Y-125654761D01*
X91014166Y-125702380D01*
X91157023Y-125702380D01*
X91252261Y-125654761D01*
X91299880Y-125607142D01*
X91633214Y-125035714D02*
X92014166Y-125035714D01*
X91776071Y-124702380D02*
X91776071Y-125559523D01*
X91823690Y-125654761D01*
X91918928Y-125702380D01*
X92014166Y-125702380D01*
X93061785Y-125654761D02*
X93204642Y-125702380D01*
X93442738Y-125702380D01*
X93537976Y-125654761D01*
X93585595Y-125607142D01*
X93633214Y-125511904D01*
X93633214Y-125416666D01*
X93585595Y-125321428D01*
X93537976Y-125273809D01*
X93442738Y-125226190D01*
X93252261Y-125178571D01*
X93157023Y-125130952D01*
X93109404Y-125083333D01*
X93061785Y-124988095D01*
X93061785Y-124892857D01*
X93109404Y-124797619D01*
X93157023Y-124750000D01*
X93252261Y-124702380D01*
X93490357Y-124702380D01*
X93633214Y-124750000D01*
X93918928Y-125035714D02*
X94299880Y-125035714D01*
X94061785Y-124702380D02*
X94061785Y-125559523D01*
X94109404Y-125654761D01*
X94204642Y-125702380D01*
X94299880Y-125702380D01*
X95061785Y-125702380D02*
X95061785Y-125178571D01*
X95014166Y-125083333D01*
X94918928Y-125035714D01*
X94728452Y-125035714D01*
X94633214Y-125083333D01*
X95061785Y-125654761D02*
X94966547Y-125702380D01*
X94728452Y-125702380D01*
X94633214Y-125654761D01*
X94585595Y-125559523D01*
X94585595Y-125464285D01*
X94633214Y-125369047D01*
X94728452Y-125321428D01*
X94966547Y-125321428D01*
X95061785Y-125273809D01*
X95966547Y-125035714D02*
X95966547Y-125845238D01*
X95918928Y-125940476D01*
X95871309Y-125988095D01*
X95776071Y-126035714D01*
X95633214Y-126035714D01*
X95537976Y-125988095D01*
X95966547Y-125654761D02*
X95871309Y-125702380D01*
X95680833Y-125702380D01*
X95585595Y-125654761D01*
X95537976Y-125607142D01*
X95490357Y-125511904D01*
X95490357Y-125226190D01*
X95537976Y-125130952D01*
X95585595Y-125083333D01*
X95680833Y-125035714D01*
X95871309Y-125035714D01*
X95966547Y-125083333D01*
X96823690Y-125654761D02*
X96728452Y-125702380D01*
X96537976Y-125702380D01*
X96442738Y-125654761D01*
X96395119Y-125559523D01*
X96395119Y-125178571D01*
X96442738Y-125083333D01*
X96537976Y-125035714D01*
X96728452Y-125035714D01*
X96823690Y-125083333D01*
X96871309Y-125178571D01*
X96871309Y-125273809D01*
X96395119Y-125369047D01*
X98347500Y-126083333D02*
X98299880Y-126035714D01*
X98204642Y-125892857D01*
X98157023Y-125797619D01*
X98109404Y-125654761D01*
X98061785Y-125416666D01*
X98061785Y-125226190D01*
X98109404Y-124988095D01*
X98157023Y-124845238D01*
X98204642Y-124750000D01*
X98299880Y-124607142D01*
X98347500Y-124559523D01*
X98585595Y-124702380D02*
X99157023Y-124702380D01*
X98871309Y-125702380D02*
X98871309Y-124702380D01*
X99871309Y-125654761D02*
X99776071Y-125702380D01*
X99585595Y-125702380D01*
X99490357Y-125654761D01*
X99442738Y-125559523D01*
X99442738Y-125178571D01*
X99490357Y-125083333D01*
X99585595Y-125035714D01*
X99776071Y-125035714D01*
X99871309Y-125083333D01*
X99918928Y-125178571D01*
X99918928Y-125273809D01*
X99442738Y-125369047D01*
X100299880Y-125654761D02*
X100395119Y-125702380D01*
X100585595Y-125702380D01*
X100680833Y-125654761D01*
X100728452Y-125559523D01*
X100728452Y-125511904D01*
X100680833Y-125416666D01*
X100585595Y-125369047D01*
X100442738Y-125369047D01*
X100347500Y-125321428D01*
X100299880Y-125226190D01*
X100299880Y-125178571D01*
X100347500Y-125083333D01*
X100442738Y-125035714D01*
X100585595Y-125035714D01*
X100680833Y-125083333D01*
X101014166Y-125035714D02*
X101395119Y-125035714D01*
X101157023Y-124702380D02*
X101157023Y-125559523D01*
X101204642Y-125654761D01*
X101299880Y-125702380D01*
X101395119Y-125702380D01*
X101633214Y-126083333D02*
X101680833Y-126035714D01*
X101776071Y-125892857D01*
X101823690Y-125797619D01*
X101871309Y-125654761D01*
X101918928Y-125416666D01*
X101918928Y-125226190D01*
X101871309Y-124988095D01*
X101823690Y-124845238D01*
X101776071Y-124750000D01*
X101680833Y-124607142D01*
X101633214Y-124559523D01*
X89157023Y-127312380D02*
X88823690Y-126836190D01*
X88585595Y-127312380D02*
X88585595Y-126312380D01*
X88966547Y-126312380D01*
X89061785Y-126360000D01*
X89109404Y-126407619D01*
X89157023Y-126502857D01*
X89157023Y-126645714D01*
X89109404Y-126740952D01*
X89061785Y-126788571D01*
X88966547Y-126836190D01*
X88585595Y-126836190D01*
X89966547Y-127264761D02*
X89871309Y-127312380D01*
X89680833Y-127312380D01*
X89585595Y-127264761D01*
X89537976Y-127169523D01*
X89537976Y-126788571D01*
X89585595Y-126693333D01*
X89680833Y-126645714D01*
X89871309Y-126645714D01*
X89966547Y-126693333D01*
X90014166Y-126788571D01*
X90014166Y-126883809D01*
X89537976Y-126979047D01*
X90347500Y-126645714D02*
X90585595Y-127312380D01*
X90823690Y-126645714D01*
X92157023Y-126312380D02*
X92252261Y-126312380D01*
X92347500Y-126360000D01*
X92395119Y-126407619D01*
X92442738Y-126502857D01*
X92490357Y-126693333D01*
X92490357Y-126931428D01*
X92442738Y-127121904D01*
X92395119Y-127217142D01*
X92347500Y-127264761D01*
X92252261Y-127312380D01*
X92157023Y-127312380D01*
X92061785Y-127264761D01*
X92014166Y-127217142D01*
X91966547Y-127121904D01*
X91918928Y-126931428D01*
X91918928Y-126693333D01*
X91966547Y-126502857D01*
X92014166Y-126407619D01*
X92061785Y-126360000D01*
X92157023Y-126312380D01*
X92918928Y-127217142D02*
X92966547Y-127264761D01*
X92918928Y-127312380D01*
X92871309Y-127264761D01*
X92918928Y-127217142D01*
X92918928Y-127312380D01*
X93918928Y-127312380D02*
X93347500Y-127312380D01*
X93633214Y-127312380D02*
X93633214Y-126312380D01*
X93537976Y-126455238D01*
X93442738Y-126550476D01*
X93347500Y-126598095D01*
X95404761Y-122702380D02*
X95071428Y-122226190D01*
X94833333Y-122702380D02*
X94833333Y-121702380D01*
X95214285Y-121702380D01*
X95309523Y-121750000D01*
X95357142Y-121797619D01*
X95404761Y-121892857D01*
X95404761Y-122035714D01*
X95357142Y-122130952D01*
X95309523Y-122178571D01*
X95214285Y-122226190D01*
X94833333Y-122226190D01*
X95690476Y-121702380D02*
X96023809Y-122702380D01*
X96357142Y-121702380D01*
X97214285Y-122702380D02*
X96642857Y-122702380D01*
X96928571Y-122702380D02*
X96928571Y-121702380D01*
X96833333Y-121845238D01*
X96738095Y-121940476D01*
X96642857Y-121988095D01*
X99420833Y-108202380D02*
X99087500Y-107726190D01*
X98849404Y-108202380D02*
X98849404Y-107202380D01*
X99230357Y-107202380D01*
X99325595Y-107250000D01*
X99373214Y-107297619D01*
X99420833Y-107392857D01*
X99420833Y-107535714D01*
X99373214Y-107630952D01*
X99325595Y-107678571D01*
X99230357Y-107726190D01*
X98849404Y-107726190D01*
X99897023Y-108202380D02*
X100087500Y-108202380D01*
X100182738Y-108154761D01*
X100230357Y-108107142D01*
X100325595Y-107964285D01*
X100373214Y-107773809D01*
X100373214Y-107392857D01*
X100325595Y-107297619D01*
X100277976Y-107250000D01*
X100182738Y-107202380D01*
X99992261Y-107202380D01*
X99897023Y-107250000D01*
X99849404Y-107297619D01*
X99801785Y-107392857D01*
X99801785Y-107630952D01*
X99849404Y-107726190D01*
X99897023Y-107773809D01*
X99992261Y-107821428D01*
X100182738Y-107821428D01*
X100277976Y-107773809D01*
X100325595Y-107726190D01*
X100373214Y-107630952D01*
X109170833Y-105107142D02*
X109123214Y-105154761D01*
X108980357Y-105202380D01*
X108885119Y-105202380D01*
X108742261Y-105154761D01*
X108647023Y-105059523D01*
X108599404Y-104964285D01*
X108551785Y-104773809D01*
X108551785Y-104630952D01*
X108599404Y-104440476D01*
X108647023Y-104345238D01*
X108742261Y-104250000D01*
X108885119Y-104202380D01*
X108980357Y-104202380D01*
X109123214Y-104250000D01*
X109170833Y-104297619D01*
X110027976Y-104535714D02*
X110027976Y-105202380D01*
X109789880Y-104154761D02*
X109551785Y-104869047D01*
X110170833Y-104869047D01*
X111607142Y-112916666D02*
X111654761Y-112964285D01*
X111702380Y-113107142D01*
X111702380Y-113202380D01*
X111654761Y-113345238D01*
X111559523Y-113440476D01*
X111464285Y-113488095D01*
X111273809Y-113535714D01*
X111130952Y-113535714D01*
X110940476Y-113488095D01*
X110845238Y-113440476D01*
X110750000Y-113345238D01*
X110702380Y-113202380D01*
X110702380Y-113107142D01*
X110750000Y-112964285D01*
X110797619Y-112916666D01*
X110702380Y-112583333D02*
X110702380Y-111964285D01*
X111083333Y-112297619D01*
X111083333Y-112154761D01*
X111130952Y-112059523D01*
X111178571Y-112011904D01*
X111273809Y-111964285D01*
X111511904Y-111964285D01*
X111607142Y-112011904D01*
X111654761Y-112059523D01*
X111702380Y-112154761D01*
X111702380Y-112440476D01*
X111654761Y-112535714D01*
X111607142Y-112583333D01*
X109170833Y-108202380D02*
X108837500Y-107726190D01*
X108599404Y-108202380D02*
X108599404Y-107202380D01*
X108980357Y-107202380D01*
X109075595Y-107250000D01*
X109123214Y-107297619D01*
X109170833Y-107392857D01*
X109170833Y-107535714D01*
X109123214Y-107630952D01*
X109075595Y-107678571D01*
X108980357Y-107726190D01*
X108599404Y-107726190D01*
X109504166Y-107202380D02*
X110170833Y-107202380D01*
X109742261Y-108202380D01*
X82591397Y-86663975D02*
X82591397Y-87378548D01*
X82543759Y-87521463D01*
X82448483Y-87616739D01*
X82305568Y-87664377D01*
X82210292Y-87664377D01*
X83020141Y-86759252D02*
X83067779Y-86711614D01*
X83163055Y-86663975D01*
X83401246Y-86663975D01*
X83496523Y-86711614D01*
X83544161Y-86759252D01*
X83591799Y-86854528D01*
X83591799Y-86949804D01*
X83544161Y-87092719D01*
X82972503Y-87664377D01*
X83591799Y-87664377D01*
X99358333Y-118452380D02*
X99025000Y-117976190D01*
X98786904Y-118452380D02*
X98786904Y-117452380D01*
X99167857Y-117452380D01*
X99263095Y-117500000D01*
X99310714Y-117547619D01*
X99358333Y-117642857D01*
X99358333Y-117785714D01*
X99310714Y-117880952D01*
X99263095Y-117928571D01*
X99167857Y-117976190D01*
X98786904Y-117976190D01*
X99929761Y-117880952D02*
X99834523Y-117833333D01*
X99786904Y-117785714D01*
X99739285Y-117690476D01*
X99739285Y-117642857D01*
X99786904Y-117547619D01*
X99834523Y-117500000D01*
X99929761Y-117452380D01*
X100120238Y-117452380D01*
X100215476Y-117500000D01*
X100263095Y-117547619D01*
X100310714Y-117642857D01*
X100310714Y-117690476D01*
X100263095Y-117785714D01*
X100215476Y-117833333D01*
X100120238Y-117880952D01*
X99929761Y-117880952D01*
X99834523Y-117928571D01*
X99786904Y-117976190D01*
X99739285Y-118071428D01*
X99739285Y-118261904D01*
X99786904Y-118357142D01*
X99834523Y-118404761D01*
X99929761Y-118452380D01*
X100120238Y-118452380D01*
X100215476Y-118404761D01*
X100263095Y-118357142D01*
X100310714Y-118261904D01*
X100310714Y-118071428D01*
X100263095Y-117976190D01*
X100215476Y-117928571D01*
X100120238Y-117880952D01*
X93583333Y-117202380D02*
X93250000Y-116726190D01*
X93011904Y-117202380D02*
X93011904Y-116202380D01*
X93392857Y-116202380D01*
X93488095Y-116250000D01*
X93535714Y-116297619D01*
X93583333Y-116392857D01*
X93583333Y-116535714D01*
X93535714Y-116630952D01*
X93488095Y-116678571D01*
X93392857Y-116726190D01*
X93011904Y-116726190D01*
X94440476Y-116535714D02*
X94440476Y-117202380D01*
X94202380Y-116154761D02*
X93964285Y-116869047D01*
X94583333Y-116869047D01*
X99333333Y-121702380D02*
X99000000Y-121226190D01*
X98761904Y-121702380D02*
X98761904Y-120702380D01*
X99142857Y-120702380D01*
X99238095Y-120750000D01*
X99285714Y-120797619D01*
X99333333Y-120892857D01*
X99333333Y-121035714D01*
X99285714Y-121130952D01*
X99238095Y-121178571D01*
X99142857Y-121226190D01*
X98761904Y-121226190D01*
X99714285Y-120797619D02*
X99761904Y-120750000D01*
X99857142Y-120702380D01*
X100095238Y-120702380D01*
X100190476Y-120750000D01*
X100238095Y-120797619D01*
X100285714Y-120892857D01*
X100285714Y-120988095D01*
X100238095Y-121130952D01*
X99666666Y-121702380D01*
X100285714Y-121702380D01*
X96333333Y-113107142D02*
X96285714Y-113154761D01*
X96142857Y-113202380D01*
X96047619Y-113202380D01*
X95904761Y-113154761D01*
X95809523Y-113059523D01*
X95761904Y-112964285D01*
X95714285Y-112773809D01*
X95714285Y-112630952D01*
X95761904Y-112440476D01*
X95809523Y-112345238D01*
X95904761Y-112250000D01*
X96047619Y-112202380D01*
X96142857Y-112202380D01*
X96285714Y-112250000D01*
X96333333Y-112297619D01*
X96714285Y-112297619D02*
X96761904Y-112250000D01*
X96857142Y-112202380D01*
X97095238Y-112202380D01*
X97190476Y-112250000D01*
X97238095Y-112297619D01*
X97285714Y-112392857D01*
X97285714Y-112488095D01*
X97238095Y-112630952D01*
X96666666Y-113202380D01*
X97285714Y-113202380D01*
X109333333Y-121357142D02*
X109285714Y-121404761D01*
X109142857Y-121452380D01*
X109047619Y-121452380D01*
X108904761Y-121404761D01*
X108809523Y-121309523D01*
X108761904Y-121214285D01*
X108714285Y-121023809D01*
X108714285Y-120880952D01*
X108761904Y-120690476D01*
X108809523Y-120595238D01*
X108904761Y-120500000D01*
X109047619Y-120452380D01*
X109142857Y-120452380D01*
X109285714Y-120500000D01*
X109333333Y-120547619D01*
X110285714Y-121452380D02*
X109714285Y-121452380D01*
X110000000Y-121452380D02*
X110000000Y-120452380D01*
X109904761Y-120595238D01*
X109809523Y-120690476D01*
X109714285Y-120738095D01*
X93583333Y-109272380D02*
X93250000Y-108796190D01*
X93011904Y-109272380D02*
X93011904Y-108272380D01*
X93392857Y-108272380D01*
X93488095Y-108320000D01*
X93535714Y-108367619D01*
X93583333Y-108462857D01*
X93583333Y-108605714D01*
X93535714Y-108700952D01*
X93488095Y-108748571D01*
X93392857Y-108796190D01*
X93011904Y-108796190D01*
X93916666Y-108272380D02*
X94535714Y-108272380D01*
X94202380Y-108653333D01*
X94345238Y-108653333D01*
X94440476Y-108700952D01*
X94488095Y-108748571D01*
X94535714Y-108843809D01*
X94535714Y-109081904D01*
X94488095Y-109177142D01*
X94440476Y-109224761D01*
X94345238Y-109272380D01*
X94059523Y-109272380D01*
X93964285Y-109224761D01*
X93916666Y-109177142D01*
X98583333Y-112202380D02*
X98250000Y-111726190D01*
X98011904Y-112202380D02*
X98011904Y-111202380D01*
X98392857Y-111202380D01*
X98488095Y-111250000D01*
X98535714Y-111297619D01*
X98583333Y-111392857D01*
X98583333Y-111535714D01*
X98535714Y-111630952D01*
X98488095Y-111678571D01*
X98392857Y-111726190D01*
X98011904Y-111726190D01*
X99488095Y-111202380D02*
X99011904Y-111202380D01*
X98964285Y-111678571D01*
X99011904Y-111630952D01*
X99107142Y-111583333D01*
X99345238Y-111583333D01*
X99440476Y-111630952D01*
X99488095Y-111678571D01*
X99535714Y-111773809D01*
X99535714Y-112011904D01*
X99488095Y-112107142D01*
X99440476Y-112154761D01*
X99345238Y-112202380D01*
X99107142Y-112202380D01*
X99011904Y-112154761D01*
X98964285Y-112107142D01*
X105952380Y-113511904D02*
X106761904Y-113511904D01*
X106857142Y-113464285D01*
X106904761Y-113416666D01*
X106952380Y-113321428D01*
X106952380Y-113130952D01*
X106904761Y-113035714D01*
X106857142Y-112988095D01*
X106761904Y-112940476D01*
X105952380Y-112940476D01*
X106952380Y-111940476D02*
X106952380Y-112511904D01*
X106952380Y-112226190D02*
X105952380Y-112226190D01*
X106095238Y-112321428D01*
X106190476Y-112416666D01*
X106238095Y-112511904D01*
X116666666Y-104202380D02*
X116666666Y-104916666D01*
X116619047Y-105059523D01*
X116523809Y-105154761D01*
X116380952Y-105202380D01*
X116285714Y-105202380D01*
X117047619Y-104202380D02*
X117666666Y-104202380D01*
X117333333Y-104583333D01*
X117476190Y-104583333D01*
X117571428Y-104630952D01*
X117619047Y-104678571D01*
X117666666Y-104773809D01*
X117666666Y-105011904D01*
X117619047Y-105107142D01*
X117571428Y-105154761D01*
X117476190Y-105202380D01*
X117190476Y-105202380D01*
X117095238Y-105154761D01*
X117047619Y-105107142D01*
X109333333Y-118452380D02*
X109000000Y-117976190D01*
X108761904Y-118452380D02*
X108761904Y-117452380D01*
X109142857Y-117452380D01*
X109238095Y-117500000D01*
X109285714Y-117547619D01*
X109333333Y-117642857D01*
X109333333Y-117785714D01*
X109285714Y-117880952D01*
X109238095Y-117928571D01*
X109142857Y-117976190D01*
X108761904Y-117976190D01*
X110285714Y-118452380D02*
X109714285Y-118452380D01*
X110000000Y-118452380D02*
X110000000Y-117452380D01*
X109904761Y-117595238D01*
X109809523Y-117690476D01*
X109714285Y-117738095D01*
X82591397Y-104246475D02*
X82591397Y-104961048D01*
X82543759Y-105103963D01*
X82448483Y-105199239D01*
X82305568Y-105246877D01*
X82210292Y-105246877D01*
X83591799Y-105246877D02*
X83020141Y-105246877D01*
X83305970Y-105246877D02*
X83305970Y-104246475D01*
X83210694Y-104389390D01*
X83115417Y-104484666D01*
X83020141Y-104532304D01*
D12*
X94150000Y-119300000D02*
X94150000Y-119700000D01*
X95250000Y-117900000D02*
X98150000Y-117900000D01*
X98150000Y-117900000D02*
X98150000Y-118500000D01*
X95250000Y-121100000D02*
X98150000Y-121100000D01*
X98150000Y-121100000D02*
X98150000Y-120500000D01*
X94350000Y-117700000D02*
X93650000Y-117700000D01*
X93650000Y-117700000D02*
X93650000Y-118400000D01*
X102082776Y-107077500D02*
X102592224Y-107077500D01*
X102082776Y-108122500D02*
X102592224Y-108122500D01*
X106733767Y-105260000D02*
X106441233Y-105260000D01*
X106733767Y-104240000D02*
X106441233Y-104240000D01*
X109240000Y-112783767D02*
X109240000Y-112491233D01*
X110260000Y-112783767D02*
X110260000Y-112491233D01*
X106332776Y-108122500D02*
X106842224Y-108122500D01*
X106332776Y-107077500D02*
X106842224Y-107077500D01*
D13*
X90750000Y-88950000D02*
X79750000Y-88950000D01*
X79750000Y-99650000D02*
X79750000Y-101350000D01*
X79750000Y-99650000D02*
X78950000Y-99650000D01*
X79750000Y-90650000D02*
X78950000Y-90650000D01*
X90750000Y-101350000D02*
X79750000Y-101350000D01*
X79750000Y-88950000D02*
X79750000Y-90650000D01*
X90750000Y-88950000D02*
X90750000Y-101350000D01*
D14*
X83420000Y-88350000D02*
G75*
G03*
X83420000Y-88350000I-170000J0D01*
G01*
D12*
X102020276Y-118522500D02*
X102529724Y-118522500D01*
X102020276Y-117477500D02*
X102529724Y-117477500D01*
X93495276Y-114727500D02*
X94004724Y-114727500D01*
X93495276Y-115772500D02*
X94004724Y-115772500D01*
X101932776Y-121522500D02*
X102442224Y-121522500D01*
X101932776Y-120477500D02*
X102442224Y-120477500D01*
X93603733Y-112240000D02*
X93896267Y-112240000D01*
X93603733Y-113260000D02*
X93896267Y-113260000D01*
X106466233Y-120490000D02*
X106758767Y-120490000D01*
X106466233Y-121510000D02*
X106758767Y-121510000D01*
X93495276Y-110772500D02*
X94004724Y-110772500D01*
X93495276Y-109727500D02*
X94004724Y-109727500D01*
X98495276Y-110772500D02*
X99004724Y-110772500D01*
X98495276Y-109727500D02*
X99004724Y-109727500D01*
X102190000Y-112750000D02*
X102190000Y-114700000D01*
X102190000Y-112750000D02*
X102190000Y-110800000D01*
X107310000Y-112750000D02*
X107310000Y-114700000D01*
X107310000Y-112750000D02*
X107310000Y-109300000D01*
X115307500Y-112170000D02*
X115307500Y-112330000D01*
X119727500Y-108820000D02*
X116307500Y-108820000D01*
X116307500Y-113820000D02*
X116307500Y-113500000D01*
X115307500Y-107110000D02*
X113107500Y-107110000D01*
X121527500Y-105890000D02*
X121527500Y-118610000D01*
X116307500Y-116320000D02*
X116307500Y-116000000D01*
X119807500Y-111000000D02*
X119727500Y-111320000D01*
X113107500Y-107110000D02*
X113107500Y-105890000D01*
X116307500Y-108820000D02*
X116307500Y-108500000D01*
X116307500Y-111320000D02*
X116307500Y-111000000D01*
X119807500Y-108500000D02*
X119727500Y-108820000D01*
X116307500Y-111000000D02*
X116307500Y-110680000D01*
X119727500Y-115680000D02*
X119807500Y-116000000D01*
X120307500Y-107110000D02*
X115307500Y-107110000D01*
X115307500Y-117390000D02*
X115307500Y-118610000D01*
X116307500Y-108500000D02*
X116307500Y-108180000D01*
X119807500Y-113500000D02*
X119727500Y-113820000D01*
X119727500Y-108180000D02*
X119807500Y-108500000D01*
X119727500Y-116320000D02*
X116307500Y-116320000D01*
X112617500Y-108800000D02*
X113217500Y-108500000D01*
X116307500Y-113180000D02*
X119727500Y-113180000D01*
X113107500Y-118610000D02*
X113107500Y-117390000D01*
X119727500Y-110680000D02*
X119807500Y-111000000D01*
X119727500Y-113180000D02*
X119807500Y-113500000D01*
X120307500Y-117390000D02*
X115307500Y-117390000D01*
X115307500Y-114670000D02*
X115307500Y-114830000D01*
X120307500Y-118610000D02*
X120307500Y-117390000D01*
X113107500Y-105890000D02*
X121527500Y-105890000D01*
X119727500Y-111320000D02*
X116307500Y-111320000D01*
X119727500Y-113820000D02*
X116307500Y-113820000D01*
X116307500Y-116000000D02*
X116307500Y-115680000D01*
X119807500Y-116000000D02*
X119727500Y-116320000D01*
X115307500Y-107110000D02*
X115307500Y-105890000D01*
X120307500Y-105890000D02*
X120307500Y-107110000D01*
X116307500Y-110680000D02*
X119727500Y-110680000D01*
X116307500Y-113500000D02*
X116307500Y-113180000D01*
X116307500Y-107110000D02*
X116307500Y-117390000D01*
X113217500Y-108500000D02*
X112617500Y-108200000D01*
X116307500Y-108180000D02*
X119727500Y-108180000D01*
X113107500Y-117390000D02*
X115307500Y-117390000D01*
X112617500Y-108200000D02*
X112617500Y-108800000D01*
X115307500Y-109670000D02*
X115307500Y-109830000D01*
X116307500Y-115680000D02*
X119727500Y-115680000D01*
X121527500Y-118610000D02*
X113107500Y-118610000D01*
X106867224Y-117477500D02*
X106357776Y-117477500D01*
X106867224Y-118522500D02*
X106357776Y-118522500D01*
D13*
X79750000Y-117232500D02*
X79750000Y-118932500D01*
X79750000Y-106532500D02*
X79750000Y-108232500D01*
X90750000Y-106532500D02*
X90750000Y-118932500D01*
X79750000Y-117232500D02*
X78950000Y-117232500D01*
X79750000Y-108232500D02*
X78950000Y-108232500D01*
X90750000Y-118932500D02*
X79750000Y-118932500D01*
X90750000Y-106532500D02*
X79750000Y-106532500D01*
D14*
X83420000Y-105932500D02*
G75*
G03*
X83420000Y-105932500I-170000J0D01*
G01*
%LPC*%
D15*
X94450000Y-118500000D03*
X94450000Y-120500000D03*
D16*
X97700000Y-119500000D03*
D17*
X101425000Y-107600000D03*
X103250000Y-107600000D03*
D18*
X107450000Y-104750000D03*
X105725000Y-104750000D03*
D19*
X109750000Y-113500000D03*
X109750000Y-111775000D03*
D17*
X107500000Y-107600000D03*
X105675000Y-107600000D03*
D20*
X83250000Y-100150000D03*
X80750000Y-90150000D03*
X80750000Y-100150000D03*
X88250000Y-95150000D03*
X83250000Y-90150000D03*
D21*
X83250000Y-95150000D03*
D22*
X88250000Y-100150000D03*
X88250000Y-90150000D03*
D17*
X103187500Y-118000000D03*
X101362500Y-118000000D03*
X94662500Y-115250000D03*
X92837500Y-115250000D03*
X103100000Y-121000000D03*
X101275000Y-121000000D03*
D23*
X94612500Y-112750000D03*
X92887500Y-112750000D03*
X107475000Y-121000000D03*
X105750000Y-121000000D03*
D17*
X94662500Y-110250000D03*
X92837500Y-110250000D03*
X99662500Y-110250000D03*
X97837500Y-110250000D03*
D24*
X106655000Y-115225000D03*
X105385000Y-115225000D03*
X104115000Y-115225000D03*
X102845000Y-115225000D03*
X102845000Y-110275000D03*
X104115000Y-110275000D03*
X105385000Y-110275000D03*
X106655000Y-110275000D03*
D25*
X114717500Y-108500000D03*
D26*
X114717500Y-111000000D03*
X114717500Y-113500000D03*
X114717500Y-116000000D03*
D27*
X83750000Y-49250000D03*
X83750000Y-124250000D03*
D28*
X105700000Y-118000000D03*
X107525000Y-118000000D03*
D20*
X83250000Y-107732500D03*
X80750000Y-117732500D03*
X83250000Y-117732500D03*
X88250000Y-112732500D03*
X80750000Y-107732500D03*
D21*
X83250000Y-112732500D03*
D22*
X88250000Y-117732500D03*
X88250000Y-107732500D03*
D27*
X118750000Y-49250000D03*
X118750000Y-124250000D03*
M02*
