G04 #@! TF.GenerationSoftware,KiCad,Pcbnew,(6.0.0)*
G04 #@! TF.CreationDate,2022-10-10T14:03:21+02:00*
G04 #@! TF.ProjectId,sonus7_rev1,736f6e75-7337-45f7-9265-76312e6b6963,rev?*
G04 #@! TF.SameCoordinates,Original*
G04 #@! TF.FileFunction,Soldermask,Bot*
G04 #@! TF.FilePolarity,Negative*
%FSLAX46Y46*%
G04 Gerber Fmt 4.6, Leading zero omitted, Abs format (unit mm)*
G04 Created by KiCad (PCBNEW (6.0.0)) date 2022-10-10 14:03:21*
%MOMM*%
%LPD*%
G01*
G04 APERTURE LIST*
G04 Aperture macros list*
%AMRoundRect*
0 Rectangle with rounded corners*
0 $1 Rounding radius*
0 $2 $3 $4 $5 $6 $7 $8 $9 X,Y pos of 4 corners*
0 Add a 4 corners polygon primitive as box body*
4,1,4,$2,$3,$4,$5,$6,$7,$8,$9,$2,$3,0*
0 Add four circle primitives for the rounded corners*
1,1,$1+$1,$2,$3*
1,1,$1+$1,$4,$5*
1,1,$1+$1,$6,$7*
1,1,$1+$1,$8,$9*
0 Add four rect primitives between the rounded corners*
20,1,$1+$1,$2,$3,$4,$5,0*
20,1,$1+$1,$4,$5,$6,$7,0*
20,1,$1+$1,$6,$7,$8,$9,0*
20,1,$1+$1,$8,$9,$2,$3,0*%
G04 Aperture macros list end*
%ADD10C,6.400000*%
%ADD11C,1.400000*%
%ADD12RoundRect,0.250000X-0.600000X0.600000X-0.600000X-0.600000X0.600000X-0.600000X0.600000X0.600000X0*%
%ADD13C,1.700000*%
%ADD14RoundRect,0.250000X0.725000X-0.600000X0.725000X0.600000X-0.725000X0.600000X-0.725000X-0.600000X0*%
%ADD15O,1.950000X1.700000*%
%ADD16RoundRect,0.250000X0.600000X0.750000X-0.600000X0.750000X-0.600000X-0.750000X0.600000X-0.750000X0*%
%ADD17O,1.700000X2.000000*%
%ADD18R,3.500000X3.500000*%
%ADD19RoundRect,0.750000X-1.000000X0.750000X-1.000000X-0.750000X1.000000X-0.750000X1.000000X0.750000X0*%
%ADD20RoundRect,0.875000X-0.875000X0.875000X-0.875000X-0.875000X0.875000X-0.875000X0.875000X0.875000X0*%
G04 APERTURE END LIST*
D10*
X29000000Y-53500000D03*
D11*
X52937500Y-104032500D03*
X55477500Y-104032500D03*
D12*
X78267500Y-60625000D03*
D13*
X78267500Y-63165000D03*
X75727500Y-60625000D03*
X75727500Y-63165000D03*
X73187500Y-60625000D03*
X73187500Y-63165000D03*
X70647500Y-60625000D03*
X70647500Y-63165000D03*
X68107500Y-60625000D03*
X68107500Y-63165000D03*
D11*
X134100000Y-104000000D03*
X136640000Y-104000000D03*
D14*
X31532500Y-119500000D03*
D15*
X31532500Y-117000000D03*
X31532500Y-114500000D03*
X31532500Y-112000000D03*
D11*
X37187500Y-104032500D03*
X39727500Y-104032500D03*
D16*
X155877500Y-53212500D03*
D17*
X153377500Y-53212500D03*
D11*
X199500000Y-104000000D03*
X202040000Y-104000000D03*
X215250000Y-104000000D03*
X217790000Y-104000000D03*
D12*
X132737500Y-60645000D03*
D13*
X132737500Y-63185000D03*
X130197500Y-60645000D03*
X130197500Y-63185000D03*
X127657500Y-60645000D03*
X127657500Y-63185000D03*
X125117500Y-60645000D03*
X125117500Y-63185000D03*
X122577500Y-60645000D03*
X122577500Y-63185000D03*
D10*
X29000000Y-128500000D03*
D11*
X172450000Y-104000000D03*
X174990000Y-104000000D03*
D10*
X219000000Y-53500000D03*
D12*
X159842500Y-60625000D03*
D13*
X159842500Y-63165000D03*
X157302500Y-60625000D03*
X157302500Y-63165000D03*
X154762500Y-60625000D03*
X154762500Y-63165000D03*
X152222500Y-60625000D03*
X152222500Y-63165000D03*
X149682500Y-60625000D03*
X149682500Y-63165000D03*
D16*
X101522500Y-53232500D03*
D17*
X99022500Y-53232500D03*
D12*
X214267500Y-60665000D03*
D13*
X214267500Y-63205000D03*
X211727500Y-60665000D03*
X211727500Y-63205000D03*
X209187500Y-60665000D03*
X209187500Y-63205000D03*
X206647500Y-60665000D03*
X206647500Y-63205000D03*
X204107500Y-60665000D03*
X204107500Y-63205000D03*
D11*
X79987500Y-104032500D03*
X82527500Y-104032500D03*
D18*
X56957500Y-54500000D03*
D19*
X56957500Y-48500000D03*
D20*
X52257500Y-51500000D03*
D11*
X118350000Y-104000000D03*
X120890000Y-104000000D03*
D16*
X183062500Y-53232500D03*
D17*
X180562500Y-53232500D03*
D11*
X91287500Y-104032500D03*
X93827500Y-104032500D03*
D10*
X219000000Y-128500000D03*
D16*
X47052500Y-53212500D03*
D17*
X44552500Y-53212500D03*
D11*
X64237500Y-104032500D03*
X66777500Y-104032500D03*
D12*
X187027500Y-60645000D03*
D13*
X187027500Y-63185000D03*
X184487500Y-60645000D03*
X184487500Y-63185000D03*
X181947500Y-60645000D03*
X181947500Y-63185000D03*
X179407500Y-60645000D03*
X179407500Y-63185000D03*
X176867500Y-60645000D03*
X176867500Y-63185000D03*
D16*
X210302500Y-53252500D03*
D17*
X207802500Y-53252500D03*
D11*
X145400000Y-104000000D03*
X147940000Y-104000000D03*
D12*
X51017500Y-60625000D03*
D13*
X51017500Y-63165000D03*
X48477500Y-60625000D03*
X48477500Y-63165000D03*
X45937500Y-60625000D03*
X45937500Y-63165000D03*
X43397500Y-60625000D03*
X43397500Y-63165000D03*
X40857500Y-60625000D03*
X40857500Y-63165000D03*
D11*
X188200000Y-104000000D03*
X190740000Y-104000000D03*
X161150000Y-104000000D03*
X163690000Y-104000000D03*
D16*
X128772500Y-53232500D03*
D17*
X126272500Y-53232500D03*
D12*
X105487500Y-60645000D03*
D13*
X105487500Y-63185000D03*
X102947500Y-60645000D03*
X102947500Y-63185000D03*
X100407500Y-60645000D03*
X100407500Y-63185000D03*
X97867500Y-60645000D03*
X97867500Y-63185000D03*
X95327500Y-60645000D03*
X95327500Y-63185000D03*
D16*
X74302500Y-53212500D03*
D17*
X71802500Y-53212500D03*
D11*
X107037500Y-104032500D03*
X109577500Y-104032500D03*
M02*
