M48
; DRILL file {KiCad (6.0.0)} date Mon Oct 10 14:03:20 2022
; FORMAT={-:-/ absolute / metric / decimal}
; #@! TF.CreationDate,2022-10-10T14:03:20+02:00
; #@! TF.GenerationSoftware,Kicad,Pcbnew,(6.0.0)
; #@! TF.FileFunction,Plated,1,2,PTH
FMAT,2
METRIC
; #@! TA.AperFunction,Plated,PTH,ViaDrill
T1C0.400
; #@! TA.AperFunction,Plated,PTH,ComponentDrill
T2C0.800
; #@! TA.AperFunction,Plated,PTH,ComponentDrill
T3C0.950
; #@! TA.AperFunction,Plated,PTH,ComponentDrill
T4C1.000
; #@! TA.AperFunction,Plated,PTH,ComponentDrill
T5C3.200
%
G90
G05
T1
X31.5Y-75.1
X35.012Y-80.932
X36.6Y-75.1
X36.692Y-79.263
X36.712Y-73.282
X36.75Y-86.0
X37.442Y-72.013
X37.462Y-82.532
X38.212Y-73.282
X38.212Y-79.282
X40.438Y-102.233
X40.462Y-81.032
X41.242Y-68.013
X41.612Y-98.932
X41.688Y-100.832
X43.462Y-74.483
X43.712Y-92.407
X44.712Y-81.282
X44.992Y-68.013
X46.288Y-103.532
X47.212Y-81.282
X48.412Y-68.013
X48.75Y-92.5
X48.787Y-103.532
X50.212Y-78.532
X50.962Y-74.532
X51.742Y-68.013
X51.962Y-81.082
X53.6Y-59.75
X53.962Y-81.282
X54.012Y-72.532
X54.287Y-100.007
X55.212Y-73.282
X55.342Y-75.858
X61.438Y-83.962
X61.5Y-56.0
X62.262Y-80.932
X63.942Y-79.263
X63.962Y-73.282
X64.0Y-86.25
X64.692Y-72.013
X64.712Y-82.532
X65.462Y-73.282
X65.462Y-79.282
X67.162Y-75.138
X67.487Y-102.233
X67.712Y-81.032
X68.492Y-68.013
X68.737Y-100.832
X68.75Y-98.75
X70.712Y-74.483
X70.763Y-92.407
X71.75Y-58.75
X71.962Y-81.282
X72.242Y-68.013
X73.337Y-103.532
X74.462Y-81.282
X75.662Y-68.013
X75.75Y-92.5
X75.837Y-103.532
X77.462Y-78.532
X78.212Y-74.532
X78.992Y-68.013
X79.212Y-81.082
X81.212Y-81.282
X81.25Y-100.0
X81.263Y-72.532
X82.462Y-73.282
X82.75Y-75.858
X87.437Y-83.8
X89.483Y-80.953
X91.162Y-79.282
X91.182Y-73.302
X91.25Y-86.25
X91.912Y-72.032
X91.932Y-82.552
X92.682Y-73.302
X92.682Y-79.302
X94.382Y-75.117
X94.537Y-102.233
X94.932Y-81.052
X95.712Y-68.032
X95.75Y-98.75
X95.787Y-100.832
X97.812Y-92.407
X97.932Y-74.502
X99.0Y-58.75
X99.182Y-81.302
X99.462Y-68.032
X100.387Y-103.532
X101.682Y-81.302
X102.75Y-92.5
X102.882Y-68.032
X102.887Y-103.532
X104.682Y-78.552
X105.432Y-74.552
X106.212Y-68.032
X106.432Y-81.102
X108.25Y-100.0
X108.432Y-81.302
X108.483Y-72.552
X109.682Y-73.302
X109.872Y-75.877
X114.687Y-83.8
X116.733Y-80.953
X118.412Y-79.282
X118.432Y-73.302
X118.5Y-86.25
X119.162Y-72.032
X119.182Y-82.552
X119.932Y-73.302
X119.932Y-79.302
X121.6Y-102.2
X121.632Y-75.117
X122.182Y-81.052
X122.75Y-98.5
X122.85Y-100.8
X122.962Y-68.032
X124.875Y-92.375
X125.182Y-74.502
X126.432Y-81.302
X126.5Y-58.75
X126.712Y-68.032
X127.45Y-103.5
X128.933Y-81.302
X129.95Y-103.5
X130.0Y-92.5
X130.132Y-68.032
X131.933Y-78.552
X132.683Y-74.552
X133.463Y-68.032
X133.683Y-81.102
X135.5Y-100.0
X135.683Y-81.302
X135.732Y-72.552
X136.873Y-75.877
X136.933Y-73.302
X141.8Y-83.8
X143.838Y-80.932
X145.5Y-86.25
X145.517Y-79.263
X145.537Y-73.282
X146.267Y-72.013
X146.287Y-82.532
X147.037Y-73.282
X147.037Y-79.282
X148.65Y-102.2
X148.8Y-75.04
X149.287Y-81.032
X149.75Y-98.5
X149.9Y-100.8
X150.067Y-68.013
X151.925Y-92.375
X152.287Y-74.483
X153.5Y-58.75
X153.537Y-81.282
X153.817Y-68.013
X154.5Y-103.5
X156.037Y-81.282
X157.0Y-92.5
X157.0Y-103.5
X157.237Y-68.013
X159.037Y-78.532
X159.787Y-74.532
X160.567Y-68.013
X160.787Y-81.082
X162.5Y-100.0
X162.787Y-81.282
X162.838Y-72.532
X164.037Y-73.282
X164.142Y-75.858
X169.2Y-84.0
X171.022Y-80.953
X172.702Y-79.282
X172.722Y-73.302
X172.75Y-86.25
X173.452Y-72.032
X173.472Y-82.552
X174.222Y-73.302
X174.222Y-79.302
X175.7Y-102.2
X175.922Y-75.078
X176.472Y-81.052
X176.75Y-98.75
X176.95Y-100.8
X177.252Y-68.032
X178.975Y-92.375
X179.472Y-74.502
X180.722Y-81.302
X180.75Y-59.25
X181.002Y-68.032
X181.55Y-103.5
X183.222Y-81.302
X184.0Y-92.5
X184.05Y-103.5
X184.422Y-68.032
X186.222Y-78.552
X186.972Y-74.552
X187.752Y-68.032
X187.972Y-81.102
X189.5Y-100.0
X189.972Y-81.302
X190.022Y-72.552
X191.222Y-73.302
X191.377Y-75.877
X196.4Y-84.0
X198.262Y-80.972
X199.942Y-79.302
X199.962Y-73.322
X200.0Y-86.25
X200.692Y-72.052
X200.712Y-82.572
X201.462Y-73.322
X201.462Y-79.322
X202.75Y-102.2
X203.162Y-75.087
X203.712Y-81.072
X204.0Y-99.0
X204.0Y-100.8
X204.492Y-68.052
X206.025Y-92.375
X206.712Y-74.522
X207.962Y-81.322
X208.0Y-59.0
X208.242Y-68.052
X208.6Y-103.5
X210.462Y-81.322
X211.0Y-92.5
X211.1Y-103.5
X211.662Y-68.052
X213.462Y-78.572
X214.212Y-74.572
X214.992Y-68.052
X215.212Y-81.123
X216.6Y-100.145
X217.212Y-81.322
X217.262Y-72.572
X218.462Y-73.322
X218.602Y-75.897
T2
X37.188Y-104.032
X39.727Y-104.032
X52.938Y-104.032
X55.477Y-104.032
X64.237Y-104.032
X66.778Y-104.032
X79.987Y-104.032
X82.527Y-104.032
X91.287Y-104.032
X93.828Y-104.032
X107.037Y-104.032
X109.578Y-104.032
X118.35Y-104.0
X120.89Y-104.0
X134.1Y-104.0
X136.64Y-104.0
X145.4Y-104.0
X147.94Y-104.0
X161.15Y-104.0
X163.69Y-104.0
X172.45Y-104.0
X174.99Y-104.0
X188.2Y-104.0
X190.74Y-104.0
X199.5Y-104.0
X202.04Y-104.0
X215.25Y-104.0
X217.79Y-104.0
T3
X31.532Y-112.0
X31.532Y-114.5
X31.532Y-117.0
X31.532Y-119.5
T4
X40.857Y-60.625
X40.857Y-63.165
X43.398Y-60.625
X43.398Y-63.165
X44.552Y-53.212
X45.938Y-60.625
X45.938Y-63.165
X47.052Y-53.212
X48.477Y-60.625
X48.477Y-63.165
X51.017Y-60.625
X51.017Y-63.165
X68.108Y-60.625
X68.108Y-63.165
X70.647Y-60.625
X70.647Y-63.165
X71.802Y-53.212
X73.188Y-60.625
X73.188Y-63.165
X74.302Y-53.212
X75.727Y-60.625
X75.727Y-63.165
X78.267Y-60.625
X78.267Y-63.165
X95.328Y-60.645
X95.328Y-63.185
X97.867Y-60.645
X97.867Y-63.185
X99.022Y-53.232
X100.407Y-60.645
X100.407Y-63.185
X101.522Y-53.232
X102.947Y-60.645
X102.947Y-63.185
X105.487Y-60.645
X105.487Y-63.185
X122.578Y-60.645
X122.578Y-63.185
X125.117Y-60.645
X125.117Y-63.185
X126.272Y-53.232
X127.657Y-60.645
X127.657Y-63.185
X128.773Y-53.232
X130.197Y-60.645
X130.197Y-63.185
X132.737Y-60.645
X132.737Y-63.185
X149.683Y-60.625
X149.683Y-63.165
X152.222Y-60.625
X152.222Y-63.165
X153.377Y-53.212
X154.762Y-60.625
X154.762Y-63.165
X155.877Y-53.212
X157.302Y-60.625
X157.302Y-63.165
X159.843Y-60.625
X159.843Y-63.165
X176.867Y-60.645
X176.867Y-63.185
X179.407Y-60.645
X179.407Y-63.185
X180.562Y-53.232
X181.947Y-60.645
X181.947Y-63.185
X183.062Y-53.232
X184.487Y-60.645
X184.487Y-63.185
X187.028Y-60.645
X187.028Y-63.185
X204.107Y-60.665
X204.107Y-63.205
X206.647Y-60.665
X206.647Y-63.205
X207.802Y-53.252
X209.188Y-60.665
X209.188Y-63.205
X210.302Y-53.252
X211.727Y-60.665
X211.727Y-63.205
X214.267Y-60.665
X214.267Y-63.205
T5
X29.0Y-53.5
X29.0Y-128.5
X219.0Y-53.5
X219.0Y-128.5
T4
X52.258Y-50.5G85X52.258Y-52.5
G05
X57.957Y-48.5G85X55.957Y-48.5
G05
X57.957Y-54.5G85X55.957Y-54.5
G05
T0
M30
